<svg width="24" height="24" viewBox="0 0 24 24" fill="none" xmlns="http://www.w3.org/2000/svg">
<path d="M7.08 8.43007C6.98 8.60007 6.98 8.81007 7.08 8.96007C7.18 9.11007 11.35 16.5201 11.35 16.5201V8.15007H7.56C7.35 8.15007 7.18 8.25007 7.08 8.43007ZM16.44 8.15007H12.65V16.5201L16.92 8.96007C17.02 8.81007 17.02 8.60007 16.92 8.42007C16.8717 8.33599 16.8017 8.26652 16.7172 8.219C16.6327 8.17147 16.5369 8.14765 16.44 8.15007Z" fill="white"/>
<path d="M12 1C5.92 1 1 5.92 1 12C1 18.08 5.92 23 12 23C18.08 23 23 18.08 23 12C23 5.92 18.08 1 12 1ZM18.05 9.61L12.74 19.01C12.58 19.28 12.3 19.45 12 19.45C11.7 19.45 11.42 19.28 11.26 19.02L5.95 9.61C5.62 9.03 5.63 8.33 5.96 7.76C6.3 7.19 6.9 6.85 7.56 6.85H16.44C17.1 6.85 17.7 7.19 18.04 7.76C18.2013 8.04124 18.287 8.35947 18.2888 8.68368C18.2905 9.00789 18.2083 9.32703 18.05 9.61Z" fill="white"/>
</svg>
