<svg width="24" height="24" viewBox="0 0 24 24" fill="none" xmlns="http://www.w3.org/2000/svg">
<path d="M12.001 6.1952C13.9929 6.1952 15.6076 5.25607 15.6076 4.0976C15.6076 2.93913 13.9929 2 12.001 2C10.0091 2 8.39441 2.93913 8.39441 4.0976C8.39441 5.25607 10.0091 6.1952 12.001 6.1952Z" fill="white"/>
<path d="M12.001 21.9999C13.9929 21.9999 15.6076 21.0608 15.6076 19.9023C15.6076 18.7438 13.9929 17.8047 12.001 17.8047C10.0091 17.8047 8.39441 18.7438 8.39441 19.9023C8.39441 21.0608 10.0091 21.9999 12.001 21.9999Z" fill="white"/>
<path d="M6.97486 9.09863C7.97078 7.37365 7.9643 5.50542 6.9604 4.92582C5.95649 4.34621 4.33532 5.27472 3.3394 6.9997C2.34348 8.72468 2.34996 10.5929 3.35386 11.1725C4.35777 11.7521 5.97894 10.8236 6.97486 9.09863Z" fill="white"/>
<path d="M20.6604 17.0003C21.6563 15.2753 21.6504 13.4074 20.6472 12.8282C19.6439 12.249 18.0233 13.1778 17.0274 14.9028C16.0315 16.6278 16.0374 18.4957 17.0406 19.0749C18.0439 19.6541 19.6645 18.7253 20.6604 17.0003Z" fill="white"/>
<path d="M6.96079 19.0739C7.9647 18.4943 7.97117 16.6261 6.97526 14.9011C5.97934 13.1761 4.35816 12.2476 3.35426 12.8272C2.35035 13.4068 2.34388 15.2751 3.3398 17.0001C4.33571 18.725 5.95689 19.6535 6.96079 19.0739Z" fill="white"/>
<path d="M20.6481 11.173C21.6514 10.5938 21.6573 8.72589 20.6614 7.00091C19.6655 5.27594 18.0448 4.34711 17.0416 4.92633C16.0383 5.50555 16.0324 7.37347 17.0283 9.09845C18.0243 10.8234 19.6449 11.7522 20.6481 11.173Z" fill="white"/>
</svg>
