<svg width="24" height="24" viewBox="0 0 24 24" fill="none" xmlns="http://www.w3.org/2000/svg">
<path fill-rule="evenodd" clip-rule="evenodd" d="M13.3924 5.00864C13.3359 5.00864 13.0912 5.02809 12.8653 5.04754C12.47 5.08644 11.9053 5.14479 11.8112 5.18368C11.7924 5.18368 11.6794 5.20313 11.5853 5.22258C10.8324 5.33928 9.89119 5.65046 9.36413 5.96164C9.27001 6.01999 9.15707 6.07834 9.13825 6.07834C9.02531 6.11723 8.23472 6.7007 7.93354 6.95354C5.76884 8.78174 4.6206 11.6407 5.11001 14.0135C5.16648 14.3052 5.18531 14.3052 5.37354 14.1496C5.69354 13.9163 5.9759 13.7218 6.35237 13.4884C6.57825 13.3522 7.55707 12.866 7.59472 12.866C7.59472 12.866 7.67001 12.8271 7.76413 12.7882C8.63001 12.3798 11.1335 11.4851 12.3947 11.1545C12.4324 11.1351 12.6582 11.0767 12.8653 11.0184C14.0512 10.6877 14.2583 10.6294 14.2583 10.6877C14.2583 10.7072 14.183 10.7266 14.1077 10.7655C13.6935 10.9211 12.583 11.3879 12.5265 11.4268C12.5077 11.4462 12.4888 11.4462 12.47 11.4462C12.4512 11.4462 12.3571 11.4851 12.2441 11.5435C12.1312 11.6018 12.0559 11.6407 12.0371 11.6407C12.0182 11.6407 11.9241 11.6796 11.8112 11.738C11.6982 11.7963 11.5853 11.8352 11.5853 11.8352C11.5853 11.8352 11.4535 11.8936 11.3218 11.9519C11.19 12.0103 11.0583 12.0686 11.0583 12.0686C10.9265 12.0686 8.1406 13.5856 7.2559 14.1302C7.04884 14.2469 6.87943 14.3636 6.87943 14.3636C6.87943 14.3636 6.59707 14.5386 5.71237 15.1221C4.73354 15.7639 3.0959 16.9503 2.09825 17.7672C1.98531 17.8644 1.83472 17.9811 1.77825 18.02C0.912367 18.7202 0.799426 18.8563 1.28884 18.584C2.39943 17.9811 3.64178 17.3782 4.52648 17.0086C5.07237 16.7753 5.6559 16.6197 6.03237 16.5613L6.20178 16.5419L6.6159 16.9697C7.67001 18.0589 8.79943 18.6229 10.4747 18.8563C10.87 18.9146 12.15 18.8952 12.4512 18.8368C12.5453 18.8174 12.7335 18.7785 12.8841 18.759C13.0347 18.7396 13.2041 18.7007 13.2418 18.6813C13.2794 18.6618 13.4112 18.6424 13.5241 18.6035C15.4441 18.0783 17.1006 16.8531 18.5688 14.8304C18.6065 14.7915 18.7383 14.6164 18.8512 14.4414C18.983 14.2663 19.1147 14.0913 19.1524 14.033C19.19 13.9941 19.2653 13.8579 19.3406 13.7607C20.0935 12.6521 21.1853 10.8239 21.863 9.4819C21.9383 9.32631 22.07 9.09292 22.1265 8.95678C22.183 8.82064 22.4277 8.33441 22.6535 7.88709C22.8794 7.43976 23.0677 7.03133 23.0677 7.01189C23.1241 6.89519 23.1053 6.85629 22.823 6.7396C22.7853 6.72015 22.5783 6.64236 22.3524 6.58401C22.1265 6.50621 21.863 6.42842 21.7688 6.38952C21.3924 6.25338 20.7524 6.07834 19.9806 5.8644C19.303 5.68936 19.1335 5.63101 18.87 5.57266C18.7383 5.55321 18.6065 5.51432 18.5688 5.49487C18.5312 5.47542 18.4183 5.45597 18.3241 5.43652C18.0606 5.37817 17.9288 5.35873 17.6841 5.30038C16.743 5.08644 15.9335 5.00864 14.5594 5.00864C13.9947 4.9892 13.4677 5.00864 13.3924 5.00864Z" fill="white"/>
</svg>
