<svg width="100" height="100" viewBox="0 0 100 100" fill="none" xmlns="http://www.w3.org/2000/svg">
<path d="M67.1875 45.3124C67.5261 45.3125 67.8555 45.2026 68.1262 44.9993C68.3969 44.796 68.5943 44.5102 68.6886 44.1851C68.7828 43.8599 68.769 43.5129 68.649 43.1963C68.5291 42.8797 68.3095 42.6107 68.0234 42.4296L50.8359 31.4921C50.5859 31.3338 50.296 31.2497 50 31.2497C49.704 31.2497 49.4141 31.3338 49.1641 31.4921L31.9766 42.4296C31.6905 42.6107 31.4709 42.8797 31.351 43.1963C31.231 43.5129 31.2172 43.8599 31.3115 44.1851C31.4057 44.5102 31.6031 44.796 31.8738 44.9993C32.1445 45.2026 32.4739 45.3125 32.8125 45.3124H35.9375V60.9374H33.5938C33.1794 60.9374 32.7819 61.102 32.4889 61.3951C32.1959 61.6881 32.0313 62.0855 32.0313 62.4999C32.0313 62.9143 32.1959 63.3118 32.4889 63.6048C32.7819 63.8978 33.1794 64.0624 33.5938 64.0624H66.4063C66.8207 64.0624 67.2181 63.8978 67.5111 63.6048C67.8041 63.3118 67.9688 62.9143 67.9688 62.4999C67.9688 62.0855 67.8041 61.6881 67.5111 61.3951C67.2181 61.102 66.8207 60.9374 66.4063 60.9374H64.0625V45.3124H67.1875ZM48.4375 60.9374H39.0625V45.3124H48.4375V60.9374ZM60.9375 60.9374H51.5625V45.3124H60.9375V60.9374ZM38.1797 42.1874L50 34.664L61.8203 42.1874H38.1797ZM76.1016 62.8437C75.8088 62.5527 75.4128 62.3893 75 62.3893C74.5872 62.3893 74.1912 62.5527 73.8984 62.8437L62.8438 73.8984C62.5527 74.1911 62.3894 74.5871 62.3894 74.9999C62.3894 75.4127 62.5527 75.8087 62.8438 76.1015L73.8984 87.1562C74.1912 87.4472 74.5872 87.6105 75 87.6105C75.4128 87.6105 75.8088 87.4472 76.1016 87.1562L87.1562 76.1015C87.4473 75.8087 87.6106 75.4127 87.6106 74.9999C87.6106 74.5871 87.4473 74.1911 87.1562 73.8984L76.1016 62.8437ZM75 83.8359L66.1641 74.9999L75 66.164L83.8359 74.9999L75 83.8359ZM37.1563 73.8984L26.1016 62.8437C25.8088 62.5527 25.4128 62.3893 25 62.3893C24.5872 62.3893 24.1912 62.5527 23.8984 62.8437L12.8438 73.8984C12.5527 74.1911 12.3894 74.5871 12.3894 74.9999C12.3894 75.4127 12.5527 75.8087 12.8438 76.1015L23.8984 87.1562C24.1912 87.4472 24.5872 87.6105 25 87.6105C25.4128 87.6105 25.8088 87.4472 26.1016 87.1562L37.1563 76.1015C37.4473 75.8087 37.6106 75.4127 37.6106 74.9999C37.6106 74.5871 37.4473 74.1911 37.1563 73.8984ZM25 83.8359L16.1641 74.9999L25 66.164L33.8359 74.9999L25 83.8359ZM62.8438 26.1015L73.8984 37.1562C74.1912 37.4472 74.5872 37.6105 75 37.6105C75.4128 37.6105 75.8088 37.4472 76.1016 37.1562L87.1562 26.1015C87.4473 25.8087 87.6106 25.4127 87.6106 24.9999C87.6106 24.5871 87.4473 24.1911 87.1562 23.8984L76.1016 12.8437C75.8088 12.5527 75.4128 12.3893 75 12.3893C74.5872 12.3893 74.1912 12.5527 73.8984 12.8437L62.8438 23.8984C62.5527 24.1911 62.3894 24.5871 62.3894 24.9999C62.3894 25.4127 62.5527 25.8087 62.8438 26.1015ZM75 16.164L83.8359 24.9999L75 33.8359L66.1641 24.9999L75 16.164ZM23.8984 37.1562C24.1912 37.4472 24.5872 37.6105 25 37.6105C25.4128 37.6105 25.8088 37.4472 26.1016 37.1562L37.1563 26.1015C37.4473 25.8087 37.6106 25.4127 37.6106 24.9999C37.6106 24.5871 37.4473 24.1911 37.1563 23.8984L26.1016 12.8437C25.8088 12.5527 25.4128 12.3893 25 12.3893C24.5872 12.3893 24.1912 12.5527 23.8984 12.8437L12.8438 23.8984C12.5527 24.1911 12.3894 24.5871 12.3894 24.9999C12.3894 25.4127 12.5527 25.8087 12.8438 26.1015L23.8984 37.1562ZM25 16.164L33.8359 24.9999L25 33.8359L16.1641 24.9999L25 16.164ZM60.7813 83.4687C53.7674 85.7033 46.2326 85.7033 39.2188 83.4687C39.0201 83.3945 38.8084 83.3615 38.5965 83.3717C38.3847 83.3819 38.1772 83.4352 37.9866 83.5282C37.796 83.6212 37.6263 83.7521 37.4879 83.9128C37.3496 84.0735 37.2453 84.2607 37.1816 84.463C37.1179 84.6653 37.096 84.8784 37.1174 85.0894C37.1387 85.3004 37.2027 85.5049 37.3056 85.6903C37.4085 85.8758 37.548 86.0384 37.7158 86.1682C37.8835 86.2979 38.0759 86.3922 38.2813 86.4452C45.9063 88.8656 54.0937 88.8656 61.7188 86.4452C61.9142 86.3827 62.0954 86.2822 62.252 86.1496C62.4086 86.017 62.5376 85.8548 62.6315 85.6724C62.7255 85.4899 62.7826 85.2907 62.7996 85.0862C62.8165 84.8817 62.7931 84.6758 62.7305 84.4804C62.6679 84.285 62.5674 84.1038 62.4348 83.9471C62.3022 83.7905 62.14 83.6616 61.9576 83.5676C61.7751 83.4737 61.576 83.4166 61.3714 83.3996C61.1669 83.3826 60.9611 83.4061 60.7656 83.4687H60.7813ZM84.5 62.6952C84.6547 62.7415 84.8152 62.7651 84.9766 62.7655C85.307 62.7648 85.6287 62.6592 85.8955 62.4641C86.1622 62.269 86.3602 61.9943 86.4609 61.6796C88.8952 53.9996 88.8707 45.7512 86.3906 38.0859C86.3265 37.8909 86.2246 37.7105 86.0908 37.555C85.9569 37.3994 85.7938 37.2718 85.6106 37.1793C85.4274 37.0868 85.2278 37.0313 85.0232 37.0159C84.8186 37.0005 84.6129 37.0256 84.418 37.0898C84.223 37.1539 84.0426 37.2558 83.8871 37.3896C83.7315 37.5235 83.6039 37.6866 83.5114 37.8698C83.4189 38.053 83.3634 38.2526 83.348 38.4572C83.3327 38.6618 83.3578 38.8675 83.4219 39.0624C85.6964 46.1014 85.7182 53.6745 83.4844 60.7265C83.4213 60.9224 83.3975 61.1289 83.4144 61.3341C83.4313 61.5392 83.4886 61.739 83.583 61.922C83.6774 62.1049 83.807 62.2674 83.9643 62.4001C84.1217 62.5328 84.3038 62.6331 84.5 62.6952ZM39.2266 16.5234C46.2525 14.281 53.8022 14.281 60.8281 16.5234C60.9852 16.5715 61.1482 16.5978 61.3125 16.6015C61.6874 16.6047 62.051 16.4729 62.3369 16.2303C62.6227 15.9877 62.8118 15.6504 62.8696 15.2799C62.9274 14.9094 62.8501 14.5305 62.6517 14.2124C62.4533 13.8942 62.1472 13.658 61.7891 13.5468C54.14 11.1094 45.9225 11.1094 38.2734 13.5468C37.8787 13.6732 37.5504 13.9512 37.3606 14.3197C37.1709 14.6882 37.1353 15.1169 37.2617 15.5116C37.3881 15.9064 37.6661 16.2347 38.0346 16.4244C38.4031 16.6142 38.8319 16.6498 39.2266 16.5234ZM15.0234 62.7734C15.1855 62.7741 15.3466 62.7477 15.5 62.6952C15.8946 62.5697 16.2232 62.2926 16.4136 61.9249C16.604 61.5572 16.6407 61.129 16.5156 60.7343C14.2687 53.648 14.3015 46.0354 16.6094 38.9687C16.6735 38.7737 16.6986 38.5681 16.6832 38.3635C16.6679 38.1588 16.6124 37.9592 16.5199 37.776C16.4274 37.5929 16.2997 37.4297 16.1442 37.2959C15.9886 37.162 15.8082 37.0601 15.6133 36.996C15.4184 36.9319 15.2127 36.9068 15.0081 36.9222C14.8034 36.9375 14.6038 36.993 14.4207 37.0855C14.2375 37.178 14.0743 37.3057 13.9405 37.4612C13.8066 37.6168 13.7048 37.7972 13.6406 37.9921C11.1241 45.6954 11.0886 53.9942 13.5391 61.7187C13.6452 62.0276 13.8455 62.2954 14.1117 62.4846C14.378 62.6738 14.6968 62.7748 15.0234 62.7734Z" fill="#57AF7D"/>
</svg>
