<svg width="100" height="100" viewBox="0 0 100 100" fill="none" xmlns="http://www.w3.org/2000/svg">
<path d="M71.875 46.875C66.9305 46.875 62.097 48.3412 57.9857 51.0883C53.8745 53.8353 50.6702 57.7398 48.778 62.3079C46.8858 66.8761 46.3907 71.9027 47.3554 76.7523C48.32 81.6018 50.701 86.0564 54.1973 89.5527C57.6936 93.049 62.1482 95.43 66.9977 96.3946C71.8473 97.3593 76.8739 96.8642 81.4421 94.972C86.0102 93.0798 89.9147 89.8755 92.6617 85.7643C95.4088 81.653 96.875 76.8195 96.875 71.875C96.8671 65.247 94.2307 58.8927 89.544 54.206C84.8573 49.5193 78.503 46.8829 71.875 46.875ZM71.875 93.75C67.5485 93.75 63.3192 92.4671 59.7219 90.0634C56.1246 87.6598 53.3208 84.2433 51.6651 80.2462C50.0095 76.2491 49.5763 71.8507 50.4203 67.6074C51.2644 63.3641 53.3478 59.4663 56.407 56.4071C59.4663 53.3478 63.3641 51.2644 67.6074 50.4203C71.8507 49.5763 76.2491 50.0095 80.2462 51.6651C84.2433 53.3208 87.6597 56.1246 90.0634 59.7219C92.4671 63.3192 93.75 67.5485 93.75 71.875C93.7438 77.6747 91.4371 83.2351 87.3361 87.3361C83.2351 91.4371 77.6747 93.7438 71.875 93.75ZM28.125 53.125C33.0695 53.125 37.903 51.6588 42.0143 48.9118C46.1255 46.1647 49.3298 42.2603 51.222 37.6921C53.1142 33.1239 53.6093 28.0973 52.6446 23.2478C51.68 18.3982 49.299 13.9437 45.8027 10.4473C42.3064 6.95103 37.8518 4.57001 33.0023 3.60538C28.1527 2.64075 23.1261 3.13583 18.5579 5.02802C13.9898 6.92021 10.0853 10.1245 7.33826 14.2358C4.59122 18.347 3.125 23.1805 3.125 28.125C3.13286 34.753 5.7693 41.1073 10.456 45.794C15.1427 50.4807 21.497 53.1172 28.125 53.125ZM28.125 6.25001C32.4515 6.25001 36.6808 7.53296 40.2781 9.93661C43.8754 12.3403 46.6792 15.7567 48.3349 19.7538C49.9905 23.7509 50.4237 28.1493 49.5797 32.3926C48.7356 36.6359 46.6522 40.5337 43.593 43.593C40.5337 46.6522 36.6359 48.7356 32.3926 49.5797C28.1493 50.4237 23.7509 49.9905 19.7538 48.3349C15.7567 46.6792 12.3403 43.8754 9.9366 40.2781C7.53295 36.6808 6.25 32.4515 6.25 28.125C6.2562 22.3253 8.56288 16.7649 12.6639 12.6639C16.7649 8.56289 22.3253 6.25622 28.125 6.25001Z" fill="#57AF7D"/>
<path d="M18.7499 35.9374C18.3355 35.9374 17.9381 36.102 17.6451 36.395C17.3521 36.6881 17.1874 37.0855 17.1874 37.4999C17.1874 37.9143 17.3521 38.3117 17.6451 38.6048C17.9381 38.8978 18.3355 39.0624 18.7499 39.0624H23.4374V40.6249C23.4374 41.0393 23.6021 41.4367 23.8951 41.7298C24.1881 42.0228 24.5855 42.1874 24.9999 42.1874C25.4143 42.1874 25.8118 42.0228 26.1048 41.7298C26.3978 41.4367 26.5624 41.0393 26.5624 40.6249V39.0624H29.6874V40.6249C29.6874 41.0393 29.8521 41.4367 30.1451 41.7298C30.4381 42.0228 30.8355 42.1874 31.2499 42.1874C31.6643 42.1874 32.0618 42.0228 32.3548 41.7298C32.6478 41.4367 32.8124 41.0393 32.8124 40.6249V39.0624C34.0849 39.068 35.3286 38.6835 36.3758 37.9605C37.423 37.2376 38.2234 36.211 38.6691 35.0191C39.1149 33.8272 39.1846 32.5274 38.8688 31.2947C38.553 30.062 37.867 28.9557 36.9031 28.1249C37.867 27.2941 38.553 26.1879 38.8688 24.9552C39.1846 23.7225 39.1149 22.4226 38.6691 21.2307C38.2234 20.0388 37.423 19.0122 36.3758 18.2893C35.3286 17.5663 34.0849 17.1818 32.8124 17.1874V15.6249C32.8124 15.2105 32.6478 14.8131 32.3548 14.52C32.0618 14.227 31.6643 14.0624 31.2499 14.0624C30.8355 14.0624 30.4381 14.227 30.1451 14.52C29.8521 14.8131 29.6874 15.2105 29.6874 15.6249V17.1874H26.5624V15.6249C26.5624 15.2105 26.3978 14.8131 26.1048 14.52C25.8118 14.227 25.4143 14.0624 24.9999 14.0624C24.5855 14.0624 24.1881 14.227 23.8951 14.52C23.6021 14.8131 23.4374 15.2105 23.4374 15.6249V17.1874H18.7499C18.3355 17.1874 17.9381 17.352 17.6451 17.645C17.3521 17.9381 17.1874 18.3355 17.1874 18.7499C17.1874 19.1643 17.3521 19.5617 17.6451 19.8548C17.9381 20.1478 18.3355 20.3124 18.7499 20.3124H20.3124V35.9374H18.7499ZM23.4374 20.3124H32.8124C33.6412 20.3124 34.4361 20.6416 35.0222 21.2277C35.6082 21.8137 35.9374 22.6086 35.9374 23.4374C35.9374 24.2662 35.6082 25.0611 35.0222 25.6471C34.4361 26.2332 33.6412 26.5624 32.8124 26.5624H23.4374V20.3124ZM23.4374 29.6874H32.8124C33.6412 29.6874 34.4361 30.0166 35.0222 30.6027C35.6082 31.1887 35.9374 31.9836 35.9374 32.8124C35.9374 33.6412 35.6082 34.4361 35.0222 35.0221C34.4361 35.6082 33.6412 35.9374 32.8124 35.9374H23.4374V29.6874ZM74.9999 70.3124H68.7499C67.9211 70.3124 67.1263 69.9832 66.5402 69.3971C65.9542 68.8111 65.6249 68.0162 65.6249 67.1874C65.6249 66.3586 65.9542 65.5637 66.5402 64.9777C67.1263 64.3916 67.9211 64.0624 68.7499 64.0624H78.1249C78.5393 64.0624 78.9368 63.8978 79.2298 63.6048C79.5228 63.3117 79.6874 62.9143 79.6874 62.4999C79.6874 62.0855 79.5228 61.6881 79.2298 61.395C78.9368 61.102 78.5393 60.9374 78.1249 60.9374H73.4374V59.3749C73.4374 58.9605 73.2728 58.5631 72.9798 58.27C72.6868 57.977 72.2893 57.8124 71.8749 57.8124C71.4605 57.8124 71.0631 57.977 70.7701 58.27C70.4771 58.5631 70.3124 58.9605 70.3124 59.3749V60.9374H68.7499C67.0923 60.9374 65.5026 61.5959 64.3305 62.768C63.1584 63.9401 62.4999 65.5298 62.4999 67.1874C62.4999 68.845 63.1584 70.4347 64.3305 71.6068C65.5026 72.7789 67.0923 73.4374 68.7499 73.4374H74.9999C75.8287 73.4374 76.6236 73.7666 77.2097 74.3527C77.7957 74.9387 78.1249 75.7336 78.1249 76.5624C78.1249 77.3912 77.7957 78.1861 77.2097 78.7721C76.6236 79.3582 75.8287 79.6874 74.9999 79.6874H64.0624C63.648 79.6874 63.2506 79.852 62.9576 80.1451C62.6646 80.4381 62.4999 80.8355 62.4999 81.2499C62.4999 81.6643 62.6646 82.0617 62.9576 82.3548C63.2506 82.6478 63.648 82.8124 64.0624 82.8124H70.3124V84.3749C70.3124 84.7893 70.4771 85.1867 70.7701 85.4798C71.0631 85.7728 71.4605 85.9374 71.8749 85.9374C72.2893 85.9374 72.6868 85.7728 72.9798 85.4798C73.2728 85.1867 73.4374 84.7893 73.4374 84.3749V82.8124H74.9999C76.6575 82.8124 78.2473 82.1539 79.4194 80.9818C80.5915 79.8097 81.2499 78.22 81.2499 76.5624C81.2499 74.9048 80.5915 73.3151 79.4194 72.143C78.2473 70.9709 76.6575 70.3124 74.9999 70.3124ZM73.0328 6.88584V5.78115C73.0315 5.18119 72.8575 4.59427 72.5316 4.09052C72.2058 3.58676 71.7418 3.18746 71.1951 2.94031C70.6484 2.69316 70.0421 2.60861 69.4486 2.69676C68.8552 2.7849 68.2996 3.04202 67.8484 3.4374L59.2843 10.9374C58.9519 11.2324 58.6858 11.5945 58.5035 11.9998C58.3213 12.4052 58.227 12.8445 58.227 13.289C58.227 13.7334 58.3213 14.1728 58.5035 14.5781C58.6858 14.9835 58.9519 15.3456 59.2843 15.6405L67.8499 23.1405C68.2977 23.532 68.8478 23.7876 69.4357 23.8772C70.0237 23.9669 70.6249 23.8869 71.169 23.6467C71.7131 23.4065 72.1773 23.0161 72.5071 22.5212C72.837 22.0263 73.0188 21.4476 73.0312 20.853C78.426 24.1134 82.6238 29.0286 84.9999 34.8671C85.4366 35.9573 86.2679 36.843 87.3283 37.3477C88.3887 37.8524 89.6004 37.9391 90.7218 37.5905L93.7124 36.6608C94.3282 36.466 94.8974 36.147 95.3851 35.7236C95.8727 35.3002 96.2684 34.7812 96.5476 34.1989C96.8268 33.6166 96.9837 32.9832 97.0086 32.3378C97.0334 31.6925 96.9257 31.0489 96.6921 30.4468C94.5397 25.1279 91.3343 20.299 87.2685 16.2502C83.2028 12.2013 78.3606 9.0161 73.0328 6.88584ZM93.7406 32.8437C93.6476 33.0422 93.5138 33.219 93.348 33.3625C93.1821 33.506 92.988 33.613 92.7781 33.6765L89.7874 34.6046C89.4132 34.7199 89.0093 34.6894 88.6566 34.5193C88.3039 34.3492 88.0286 34.052 87.8859 33.6874C84.8892 26.3236 79.3006 20.3115 72.1749 16.7858C71.9365 16.6682 71.6721 16.613 71.4065 16.6253C71.141 16.6377 70.8828 16.7172 70.6563 16.8564C70.4299 16.9957 70.2424 17.1901 70.1115 17.4215C69.9805 17.6529 69.9105 17.9137 69.9078 18.1796V20.7812L61.3421 13.2812L69.9078 5.78115V7.9374C69.9076 8.25277 70.0029 8.5608 70.1811 8.82099C70.3593 9.08119 70.6121 9.28137 70.9062 9.39522C76.0517 11.3085 80.7427 14.2716 84.6811 18.0959C88.6195 21.9202 91.7191 26.5222 93.7828 31.6093C93.8622 31.8066 93.8995 32.0183 93.8922 32.2309C93.8849 32.4435 93.8333 32.6522 93.7406 32.8437ZM26.9671 93.114V94.2077C26.9735 94.8055 27.1502 95.3891 27.4766 95.89C27.8029 96.3908 28.2654 96.7882 28.8097 97.0354C29.3541 97.2826 29.9576 97.3695 30.5495 97.2857C31.1414 97.2019 31.6972 96.951 32.1515 96.5624L40.7156 89.0624C41.048 88.7674 41.3141 88.4053 41.4964 88C41.6786 87.5947 41.7729 87.1553 41.7729 86.7108C41.7729 86.2664 41.6786 85.827 41.4964 85.4217C41.3141 85.0163 41.048 84.6542 40.7156 84.3593L32.1499 76.8593C31.7022 76.4678 31.1521 76.2122 30.5642 76.1226C29.9762 76.0329 29.3749 76.1129 28.8309 76.3531C28.2868 76.5933 27.8226 76.9837 27.4927 77.4786C27.1629 77.9735 26.9811 78.5522 26.9687 79.1468C21.5745 75.8815 17.3793 70.9612 15.0078 65.1187C14.5726 64.0273 13.7415 63.1404 12.6806 62.6355C11.6197 62.1305 10.4073 62.0447 9.28588 62.3952L6.29526 63.3249C5.67952 63.5197 5.11025 63.8387 4.62261 64.2621C4.13498 64.6856 3.73933 65.2045 3.46009 65.7868C3.18085 66.3692 3.02396 67.0026 2.99911 67.6479C2.97425 68.2933 3.08195 68.9369 3.31557 69.539C5.46556 74.8597 8.66903 79.6909 12.7335 83.7422C16.7979 87.7934 21.6395 90.9812 26.9671 93.114ZM6.25932 67.1562C6.35233 66.9576 6.4861 66.7808 6.65193 66.6373C6.81776 66.4938 7.01193 66.3868 7.22182 66.3233L10.2124 65.3952C10.5867 65.2826 10.9895 65.3143 11.3416 65.4841C11.6936 65.6539 11.9692 65.9494 12.114 66.3124C15.1107 73.6762 20.6993 79.6883 27.8249 83.214C28.0634 83.3316 28.3278 83.3868 28.5933 83.3745C28.8589 83.3621 29.117 83.2826 29.3435 83.1434C29.57 83.0041 29.7575 82.8097 29.8884 82.5783C30.0194 82.3469 30.0894 82.0861 30.0921 81.8202V79.2187L38.6578 86.7187L30.0921 94.2187V92.0624C30.0923 91.747 29.997 91.439 29.8188 91.1788C29.6406 90.9186 29.3878 90.7184 29.0937 90.6046C23.9482 88.6913 19.2572 85.7282 15.3188 81.9039C11.3804 78.0796 8.28079 73.4776 6.21713 68.3905C6.13769 68.1932 6.1004 67.9815 6.10767 67.7689C6.11493 67.5563 6.16659 67.3476 6.25932 67.1562Z" fill="#57AF7D"/>
</svg>
