<svg width="100" height="100" viewBox="0 0 100 100" fill="none" xmlns="http://www.w3.org/2000/svg">
<g clip-path="url(#clip0_1_513)">
<path d="M79.7852 74.5942C80.5942 74.5942 81.25 73.9384 81.25 73.1294C81.25 72.3204 80.5942 71.6646 79.7852 71.6646C78.9761 71.6646 78.3203 72.3204 78.3203 73.1294C78.3203 73.9384 78.9761 74.5942 79.7852 74.5942Z" fill="#57AF7D"/>
<path d="M84.9609 74.5942C85.7699 74.5942 86.4258 73.9384 86.4258 73.1294C86.4258 72.3204 85.7699 71.6646 84.9609 71.6646C84.1519 71.6646 83.4961 72.3204 83.4961 73.1294C83.4961 73.9384 84.1519 74.5942 84.9609 74.5942Z" fill="#57AF7D"/>
<path d="M90.1367 74.5942C90.9457 74.5942 91.6016 73.9384 91.6016 73.1294C91.6016 72.3204 90.9457 71.6646 90.1367 71.6646C89.3277 71.6646 88.6719 72.3204 88.6719 73.1294C88.6719 73.9384 89.3277 74.5942 90.1367 74.5942Z" fill="#57AF7D"/>
<path d="M94.8975 11.5938H73.9291C68.3328 4.53574 59.6865 0 50 0C40.3135 0 31.6672 4.53574 26.0707 11.5938H5.10254C2.6793 11.5938 0.708008 13.565 0.708008 15.9883V75.0092C0.708008 77.9709 3.11738 80.3803 6.0791 80.3803H37.3221V88.9641H15.2777C13.9314 88.9641 12.8363 90.0592 12.8363 91.4055V97.5586C12.8363 98.9049 13.9314 100 15.2777 100H84.7221C86.0684 100 87.1635 98.9049 87.1635 97.5586V91.4055C87.1635 90.0592 86.0684 88.9641 84.7221 88.9641H77.1484C76.3393 88.9641 75.6836 89.6199 75.6836 90.4289C75.6836 91.2379 76.3393 91.8938 77.1484 91.8938H84.2338V97.0703H15.766V91.8938H70.3125C71.1217 91.8938 71.7773 91.2379 71.7773 90.4289C71.7773 89.6199 71.1217 88.9641 70.3125 88.9641H62.6779V80.3803H93.9209C96.8826 80.3803 99.292 77.9709 99.292 75.0092V15.9883C99.292 13.5652 97.3205 11.5938 94.8975 11.5938ZM74.7172 18.2617C76.3959 21.6286 77.3632 25.3052 77.5588 29.0623H65.8641C65.7736 25.2885 65.3312 21.6406 64.5748 18.2617H74.7172ZM60.7396 45.7225C58.6527 52.3068 55.2812 56.9744 51.4648 57.9385V45.7225H60.7396ZM51.4648 42.7928V31.9922H62.9326C62.833 35.8318 62.3441 39.4916 61.5518 42.7928H51.4648ZM61.5064 51.7285C62.4127 49.9018 63.1861 47.8832 63.8213 45.7225H73.0256C69.5318 50.9992 64.2754 55.0111 58.1016 56.9107C59.3447 55.5129 60.4898 53.7779 61.5064 51.7285ZM64.5748 42.7928C65.3312 39.4139 65.7736 35.766 65.8641 31.9922H77.5586C77.363 35.7493 76.3957 39.4259 74.717 42.7928H64.5748ZM73.0256 15.332H63.8213C63.1861 13.1713 62.4125 11.1527 61.5064 9.32598C60.4898 7.27656 59.3447 5.5416 58.1018 4.14375C64.2756 6.04355 69.5318 10.0555 73.0256 15.332ZM51.4648 3.11621C55.2814 4.08027 58.6527 8.74785 60.7396 15.332H51.4648V3.11621ZM50 21.3867C50.3885 21.3867 50.7611 21.2324 51.0358 20.9577C51.3105 20.683 51.4648 20.3104 51.4648 19.9219V18.2617H61.5518C62.3443 21.5629 62.833 25.2227 62.9326 29.0623H51.4648V26.9531C51.4648 26.5646 51.3105 26.192 51.0358 25.9173C50.7611 25.6426 50.3885 25.4883 50 25.4883C49.6115 25.4883 49.2389 25.6426 48.9642 25.9173C48.6895 26.192 48.5352 26.5646 48.5352 26.9531V29.0625H37.0674C37.167 25.2229 37.6559 21.5629 38.4482 18.2619H48.5352V19.9221C48.5352 20.3105 48.6896 20.6831 48.9643 20.9577C49.239 21.2324 49.6115 21.3867 50 21.3867ZM36.1787 45.7225C36.8139 47.8832 37.5873 49.902 38.4936 51.7285C39.5102 53.7779 40.6553 55.5129 41.8982 56.9107C35.7244 55.0111 30.4682 50.999 26.9742 45.7225H36.1787ZM25.2828 42.7928C23.6041 39.4259 22.6368 35.7493 22.4412 31.9922H34.1361C34.2266 35.7658 34.6689 39.4139 35.4254 42.7928H25.2828ZM39.2604 45.7225H48.5352V57.9385C44.7186 56.9742 41.3473 52.3068 39.2604 45.7225ZM38.4482 42.7928C37.6557 39.4916 37.167 35.8318 37.0674 31.9922H48.5352V42.7928H38.4482ZM48.5352 3.11621V15.332H39.2604C41.3473 8.74785 44.7188 4.08027 48.5352 3.11621ZM41.8982 4.14395C40.6551 5.5416 39.5102 7.27676 38.4936 9.32617C37.5875 11.1529 36.8139 13.1715 36.1787 15.3322H26.9742C30.4682 10.0555 35.7244 6.04355 41.8982 4.14395ZM35.4254 18.2617C34.6689 21.6406 34.2266 25.2887 34.1361 29.0623H22.4414C22.6369 25.3052 23.6042 21.6286 25.283 18.2617H35.4254ZM59.7482 88.9641H40.2518V80.3803H59.7482V88.9641ZM96.3623 66.3596H29.8826C29.4941 66.3596 29.1215 66.5139 28.8468 66.7886C28.5721 67.0633 28.4178 67.4359 28.4178 67.8244C28.4178 68.2129 28.5721 68.5855 28.8468 68.8602C29.1215 69.1349 29.4941 69.2893 29.8826 69.2893H96.3623V75.0092C96.3623 76.3555 95.2672 77.4506 93.9209 77.4506H6.0791C4.73281 77.4506 3.6377 76.3555 3.6377 75.0092V69.2893H23.0469C23.4354 69.2893 23.808 69.1349 24.0827 68.8602C24.3574 68.5855 24.5117 68.2129 24.5117 67.8244C24.5117 67.4359 24.3574 67.0633 24.0827 66.7886C23.808 66.5139 23.4354 66.3596 23.0469 66.3596H3.6377V15.9883C3.6377 15.1805 4.29473 14.5234 5.10254 14.5234H24.0148C21.1365 19.1799 19.4727 24.6625 19.4727 30.5273C19.4727 47.3602 33.1672 61.0547 50 61.0547C66.8328 61.0547 80.5273 47.3602 80.5273 30.5273C80.5273 24.6627 78.8635 19.1799 75.9852 14.5236H94.8975C95.7053 14.5236 96.3623 15.1807 96.3623 15.9885V66.3596Z" fill="#57AF7D"/>
<path d="M19.165 58.3984H9.79004C9.40154 58.3984 9.02895 58.5528 8.75424 58.8275C8.47953 59.1022 8.3252 59.4748 8.3252 59.8633C8.3252 60.2518 8.47953 60.6244 8.75424 60.8991C9.02895 61.1738 9.40154 61.3281 9.79004 61.3281H19.165C19.5535 61.3281 19.9261 61.1738 20.2008 60.8991C20.4756 60.6244 20.6299 60.2518 20.6299 59.8633C20.6299 59.4748 20.4756 59.1022 20.2008 58.8275C19.9261 58.5528 19.5535 58.3984 19.165 58.3984ZM9.79004 56.25H13.3057C13.6942 56.25 14.0668 56.0957 14.3415 55.821C14.6162 55.5462 14.7705 55.1737 14.7705 54.7852C14.7705 54.3967 14.6162 54.0241 14.3415 53.7494C14.0668 53.4746 13.6942 53.3203 13.3057 53.3203H9.79004C9.40154 53.3203 9.02895 53.4746 8.75424 53.7494C8.47953 54.0241 8.3252 54.3967 8.3252 54.7852C8.3252 55.1737 8.47953 55.5462 8.75424 55.821C9.02895 56.0957 9.40154 56.25 9.79004 56.25ZM90.2588 58.3984H86.3525C85.5434 58.3984 84.8877 59.0543 84.8877 59.8633C84.8877 60.6723 85.5434 61.3281 86.3525 61.3281H90.2588C91.068 61.3281 91.7236 60.6723 91.7236 59.8633C91.7236 59.0543 91.068 58.3984 90.2588 58.3984ZM90.2588 53.3203H86.3525C85.5434 53.3203 84.8877 53.9762 84.8877 54.7852C84.8877 55.5941 85.5434 56.25 86.3525 56.25H90.2588C91.068 56.25 91.7236 55.5941 91.7236 54.7852C91.7236 53.9762 91.068 53.3203 90.2588 53.3203ZM90.2588 48.2422H86.3525C85.5434 48.2422 84.8877 48.898 84.8877 49.707C84.8877 50.516 85.5434 51.1719 86.3525 51.1719H90.2588C91.068 51.1719 91.7236 50.516 91.7236 49.707C91.7236 48.898 91.068 48.2422 90.2588 48.2422Z" fill="#57AF7D"/>
</g>
<defs>
<clipPath id="clip0_1_513">
<rect width="100" height="100" fill="white"/>
</clipPath>
</defs>
</svg>
