<svg width="100" height="100" viewBox="0 0 100 100" fill="none" xmlns="http://www.w3.org/2000/svg">
<path d="M66.5916 33.7273C63.0643 33.7273 60.1947 36.5967 60.1947 40.1234C60.1947 43.6508 63.0645 46.5203 66.5916 46.5203C70.1188 46.5203 72.9885 43.6508 72.9885 40.1234C72.9885 36.5967 70.1188 33.7273 66.5916 33.7273ZM66.5916 43.7859C64.5721 43.7859 62.9291 42.143 62.9291 40.1234C62.9291 38.1043 64.5721 36.4617 66.5916 36.4617C68.6111 36.4617 70.2541 38.1043 70.2541 40.1234C70.2541 42.143 68.6111 43.7859 66.5916 43.7859ZM58.6961 50.2996C56.3133 48.3828 53.2895 47.2322 50.0004 47.2322C46.7111 47.2322 43.6871 48.3828 41.3041 50.2996C39.1002 48.4326 36.3422 47.4168 33.409 47.4168C26.6543 47.4168 21.159 52.9117 21.159 59.666C21.159 60.5273 21.4557 61.7938 22.8691 62.9346C25.107 64.7406 29.2807 65.5453 33.3557 65.5453C35.1395 65.5453 36.9043 65.3904 38.4793 65.0984C39.1172 65.5316 39.9156 65.9416 40.9109 66.3082C43.3314 67.1994 46.5592 67.6902 49.9996 67.6902C53.44 67.6902 56.6678 67.1994 59.0883 66.3082C60.0836 65.9418 60.8822 65.5316 61.5199 65.0984C63.0951 65.3906 64.8594 65.5453 66.6438 65.5453C70.7186 65.5453 74.8928 64.7404 77.1303 62.9346C78.5438 61.7938 78.8404 60.5275 78.8404 59.6662C78.8404 52.9119 73.3455 47.417 66.5912 47.417C63.6586 47.4166 60.9002 48.4326 58.6961 50.2996ZM24.5867 60.8064C23.8936 60.2469 23.8936 59.8096 23.8936 59.6658C23.8936 54.4193 28.1623 50.151 33.4092 50.151C35.5986 50.151 37.6615 50.8814 39.3389 52.2254C37.3187 54.6393 36.1002 57.7453 36.1002 61.1314C36.1002 61.5938 36.1752 62.1098 36.384 62.6451C31.7867 63.16 26.574 62.4105 24.5867 60.8064ZM50 64.9555C43.8434 64.9555 38.8346 63.24 38.8346 61.1316C38.8346 54.9752 43.8436 49.9666 50.0006 49.9666C56.157 49.9666 61.1656 54.9752 61.1656 61.1316C61.1654 63.24 56.1566 64.9555 50 64.9555ZM76.1064 59.6658C76.1064 59.8096 76.1064 60.2471 75.4133 60.8064C73.426 62.4104 68.2133 63.1598 63.6162 62.6451C63.8044 62.1627 63.9006 61.6493 63.9 61.1314C63.9 57.7453 62.6814 54.6393 60.6617 52.2254C62.3391 50.8813 64.4023 50.1508 66.5918 50.1508C71.8381 50.151 76.1064 54.4193 76.1064 59.6658ZM33.4092 46.5203C36.9365 46.5203 39.8061 43.6508 39.8061 40.1234C39.8061 36.5967 36.9365 33.7273 33.4092 33.7273C29.8818 33.7273 27.0123 36.5967 27.0123 40.1234C27.0121 43.6506 29.8818 46.5203 33.4092 46.5203ZM33.4092 36.4617C35.4287 36.4617 37.0717 38.1043 37.0717 40.1234C37.0717 42.143 35.4287 43.7859 33.4092 43.7859C31.3896 43.7859 29.7467 42.143 29.7467 40.1234C29.7465 38.1043 31.3895 36.4617 33.4092 36.4617ZM16.5361 12.4799H8.59355C8.23095 12.4799 7.8832 12.6239 7.62681 12.8803C7.37041 13.1367 7.22637 13.4845 7.22637 13.8471V21.7896C7.22637 21.9692 7.26173 22.147 7.33044 22.3128C7.39915 22.4787 7.49985 22.6294 7.62681 22.7564C7.75376 22.8834 7.90448 22.9841 8.07035 23.0528C8.23623 23.1215 8.41401 23.1568 8.59355 23.1568H16.5361C16.7157 23.1568 16.8935 23.1215 17.0593 23.0528C17.2252 22.9841 17.3759 22.8834 17.5029 22.7564C17.6298 22.6294 17.7305 22.4787 17.7992 22.3128C17.868 22.147 17.9033 21.9692 17.9033 21.7896V13.8471C17.9033 13.4845 17.7593 13.1367 17.5029 12.8803C17.2465 12.6239 16.8987 12.4799 16.5361 12.4799ZM15.1689 20.4225H9.96074V15.2143H15.1689V20.4225ZM50.0004 46.6285C53.9482 46.6285 57.16 43.4168 57.16 39.4689C57.16 35.5217 53.9482 32.3104 50.0004 32.3104C46.0525 32.3104 42.8406 35.5217 42.8406 39.4689C42.8406 43.4166 46.0525 46.6285 50.0004 46.6285ZM50.0004 35.0445C52.4404 35.0445 54.4256 37.0293 54.4256 39.4688C54.4256 41.9088 52.4404 43.8939 50.0004 43.8939C47.5602 43.8939 45.575 41.9088 45.575 39.4688C45.575 37.0293 47.5602 35.0445 50.0004 35.0445ZM86.1529 12.4799H78.2104C77.8478 12.4799 77.5 12.6239 77.2436 12.8803C76.9872 13.1367 76.8432 13.4845 76.8432 13.8471V21.7896C76.8432 21.9692 76.8785 22.147 76.9472 22.3128C77.0159 22.4787 77.1166 22.6294 77.2436 22.7564C77.3706 22.8834 77.5213 22.9841 77.6871 23.0528C77.853 23.1215 78.0308 23.1568 78.2104 23.1568H86.1529C86.5155 23.1568 86.8633 23.0128 87.1197 22.7564C87.3761 22.5 87.5201 22.1523 87.5201 21.7896V13.8471C87.5201 13.4845 87.3761 13.1367 87.1197 12.8803C86.8633 12.6239 86.5155 12.4799 86.1529 12.4799ZM84.7857 20.4225H79.5775V15.2143H84.7857V20.4225ZM91.6215 28.6256C91.9841 28.6255 92.3318 28.4815 92.5883 28.2252L97.8418 22.9717C98.0981 22.7152 98.2421 22.3675 98.2422 22.0049V3.125C98.2422 2.7624 98.0981 2.41465 97.8417 2.15825C97.5854 1.90186 97.2376 1.75781 96.875 1.75781H77.9951C77.6325 1.75789 77.2848 1.9019 77.0283 2.1582L71.7748 7.41172C71.5185 7.66817 71.3745 8.01592 71.3744 8.37852V13.8244H28.6254V3.125C28.6254 2.7624 28.4813 2.41465 28.225 2.15825C27.9686 1.90186 27.6208 1.75781 27.2582 1.75781H8.37852C8.01593 1.75789 7.6682 1.9019 7.41172 2.1582L2.1582 7.41172C1.9019 7.6682 1.75789 8.01593 1.75781 8.37852V27.2584C1.75781 27.621 1.90186 27.9687 2.15825 28.2251C2.41465 28.4815 2.7624 28.6256 3.125 28.6256H13.8244V71.3746H8.37852C8.01593 71.3747 7.6682 71.5187 7.41172 71.775L2.1582 77.0283C1.90183 77.2848 1.75781 77.6325 1.75781 77.9951V96.875C1.75781 97.2376 1.90186 97.5854 2.15825 97.8417C2.41465 98.0981 2.7624 98.2422 3.125 98.2422H22.0049C22.3675 98.2421 22.7152 98.0981 22.9717 97.8418L28.2252 92.5883C28.4815 92.3318 28.6255 91.9841 28.6256 91.6215V86.1756H71.3746V96.875C71.3746 97.2376 71.5187 97.5854 71.775 97.8417C72.0314 98.0981 72.3792 98.2422 72.7418 98.2422H91.6217C91.9843 98.2421 92.332 98.0981 92.5885 97.8418L97.842 92.5883C98.0983 92.3318 98.2423 91.9841 98.2424 91.6215V72.7418C98.2424 72.3792 98.0983 72.0314 97.8419 71.775C97.5855 71.5187 97.2378 71.3746 96.8752 71.3746H86.1756V28.6256H91.6215ZM74.109 9.7457H90.2545V25.8912H74.109V9.7457ZM92.9887 23.9576V8.94492L95.5078 6.42578V21.4387L92.9887 23.9576ZM78.5615 4.49219H93.5744L91.0553 7.01133H76.0424L78.5615 4.49219ZM8.94473 4.49219H23.9576L21.4385 7.01133H6.42559L8.94473 4.49219ZM25.891 6.42578V21.4387L23.3719 23.9578V8.94492L25.891 6.42578ZM4.49219 9.7457H20.6377V25.8912H4.49219V9.7457ZM8.94473 74.109H23.9574L21.4383 76.6279H6.42578L8.94473 74.109ZM4.49219 79.3623H20.6377V95.5078H4.49219V79.3623ZM23.3721 93.5742V78.5613L25.8912 76.0422V91.0549L23.3721 93.5742ZM76.0424 76.6279L78.5615 74.109H93.5742L91.0551 76.6279H76.0424ZM74.109 79.3623H90.2545V95.5078H74.109V79.3623ZM92.9887 93.5742V78.5613L95.5078 76.0424V91.0551L92.9887 93.5742ZM83.441 71.3746H77.9951C77.6325 71.3747 77.2848 71.5187 77.0283 71.775L71.7748 77.0283C71.5184 77.2848 71.3744 77.6325 71.3744 77.9951V83.441H28.6254V72.7416C28.6254 72.379 28.4813 72.0312 28.225 71.7748C27.9686 71.5185 27.6208 71.3744 27.2582 71.3744H16.5588V28.6256H22.0049C22.3675 28.6255 22.7152 28.4815 22.9717 28.2252L28.2252 22.9717C28.4815 22.7152 28.6255 22.3675 28.6256 22.0049V16.5588H71.3746V27.2584C71.3746 27.621 71.5187 27.9687 71.775 28.2251C72.0314 28.4815 72.3792 28.6256 72.7418 28.6256H83.4412V71.3746H83.441ZM86.1529 82.0965H78.2104C77.8478 82.0965 77.5 82.2405 77.2436 82.4969C76.9872 82.7533 76.8432 83.1011 76.8432 83.4637V91.4062C76.8432 91.7689 76.9872 92.1166 77.2436 92.373C77.5 92.6294 77.8478 92.7734 78.2104 92.7734H86.1529C86.5155 92.7734 86.8633 92.6294 87.1197 92.373C87.3761 92.1166 87.5201 91.7689 87.5201 91.4062V83.4637C87.5201 82.7088 86.9078 82.0965 86.1529 82.0965ZM84.7857 90.0391H79.5775V84.8309H84.7857V90.0391ZM16.5361 82.0965H8.59355C8.23095 82.0965 7.8832 82.2405 7.62681 82.4969C7.37041 82.7533 7.22637 83.1011 7.22637 83.4637V91.4062C7.22637 91.7689 7.37041 92.1166 7.62681 92.373C7.8832 92.6294 8.23095 92.7734 8.59355 92.7734H16.5361C16.8987 92.7734 17.2465 92.6294 17.5029 92.373C17.7593 92.1166 17.9033 91.7689 17.9033 91.4062V83.4637C17.9033 83.1011 17.7593 82.7533 17.5029 82.4969C17.2465 82.2405 16.8987 82.0965 16.5361 82.0965ZM15.1689 90.0391H9.96074V84.8309H15.1689V90.0391Z" fill="#57AF7D"/>
</svg>
