<svg width="100" height="100" viewBox="0 0 100 100" fill="none" xmlns="http://www.w3.org/2000/svg">
<path d="M84.375 50C84.375 33.6303 71.0572 20.3125 54.6875 20.3125H45.3125C28.9428 20.3125 15.625 33.6303 15.625 50C15.625 66.3697 28.9428 79.6875 45.3125 79.6875H54.6875C71.0572 79.6875 84.375 66.3697 84.375 50ZM69.5059 67.1875C70.888 65.2484 72.0316 63.15 72.9119 60.9375H78.8924C77.8666 63.1956 76.5303 65.2992 74.9223 67.1875H69.5059ZM81.2027 48.4375H74.959C74.8491 46.3242 74.5124 44.2288 73.9547 42.1875H80.077C80.7023 44.218 81.0803 46.3165 81.2027 48.4375ZM74.959 51.5625H81.2027C81.0803 53.6835 80.7023 55.782 80.077 57.8125H73.9547C74.5124 55.7712 74.8491 53.6758 74.959 51.5625ZM78.8924 39.0625H72.9119C72.0316 36.85 70.888 34.7516 69.5059 32.8125H74.9223C76.5303 34.7008 77.8666 36.8044 78.8924 39.0625ZM71.783 29.6875H66.9418C64.7422 27.3453 62.179 25.3733 59.3512 23.8477C63.9367 24.6667 68.225 26.6811 71.783 29.6875ZM18.75 50C18.75 35.3535 30.666 23.4375 45.3125 23.4375C59.959 23.4375 71.875 35.3535 71.875 50C71.875 64.6465 59.959 76.5625 45.3125 76.5625C30.666 76.5625 18.75 64.6465 18.75 50ZM66.9418 70.3125H71.783C68.225 73.3189 63.9367 75.3333 59.3512 76.1523C62.179 74.6267 64.7422 72.6547 66.9418 70.3125Z" fill="#57AF7D"/>
<path d="M45.3125 31.2501C49.4958 31.2352 53.5614 32.6338 56.8502 35.2191L58.7748 32.7572C54.9376 29.7402 50.1937 28.108 45.3125 28.1251C41.1576 28.1252 37.0887 29.3086 33.5817 31.5367C30.0748 33.7649 27.275 36.9457 25.5098 40.707C23.7446 44.4683 23.0872 48.6545 23.6143 52.7758C24.1414 56.8971 25.8313 60.7831 28.4863 63.979L30.8887 61.981C28.6133 59.2415 27.1651 55.9106 26.7136 52.3781C26.2621 48.8457 26.8258 45.2576 28.339 42.0339C29.8521 38.8101 32.252 36.0838 35.2578 34.1741C38.2637 32.2644 41.7513 31.2502 45.3125 31.2501ZM65.5103 41.5861L62.6262 42.7892C64.0515 46.2192 64.4266 49.995 63.7041 53.6384C62.9815 57.2818 61.1938 60.6287 58.5673 63.2551C55.9409 65.8815 52.5939 67.6693 48.9506 68.3918C45.3072 69.1143 41.5313 68.7392 38.1014 67.3138L36.8986 70.198C40.9002 71.8617 45.3056 72.3 49.5566 71.4573C53.8075 70.6147 57.7126 68.529 60.777 65.4646C63.8414 62.4003 65.927 58.4952 66.7697 54.2442C67.6123 49.9933 67.174 45.5879 65.5103 41.5863V41.5861Z" fill="#57AF7D"/>
<path d="M58.9315 53.5145C59.6831 50.6006 59.4801 47.5224 58.3525 44.7323C57.2249 41.9422 55.2321 39.5873 52.667 38.0137C50.1018 36.4402 47.0996 35.7308 44.1014 35.99C41.1033 36.2492 38.2673 37.4632 36.0103 39.4536L38.0782 41.7966C39.8346 40.251 42.0402 39.3091 44.3712 39.109C46.7023 38.9089 49.036 39.4612 51.0302 40.6849C53.0243 41.9085 54.5737 43.739 55.4511 45.9079C56.3286 48.0767 56.4878 50.4697 55.9054 52.7356L58.9315 53.5145ZM54.6145 60.5466L52.5466 58.2036C50.698 59.8314 48.3543 60.7878 45.8947 60.918C43.4351 61.0483 41.0035 60.3448 38.9933 58.9214C36.9832 57.498 35.5121 55.438 34.8182 53.0747C34.1243 50.7114 34.2481 48.1831 35.1696 45.8989L32.2726 44.7265C31.085 47.6636 30.9239 50.9156 31.8153 53.9557C32.7067 56.9958 34.5984 59.6459 37.1839 61.4767C39.7694 63.3075 42.8974 64.2118 46.061 64.0429C49.2246 63.8741 52.2385 62.6421 54.6145 60.5466Z" fill="#57AF7D"/>
<path d="M39.0622 50.0001C39.0622 51.2362 39.4287 52.4446 40.1155 53.4724C40.8023 54.5002 41.7784 55.3013 42.9204 55.7743C44.0625 56.2474 45.3191 56.3711 46.5315 56.13C47.7439 55.8888 48.8575 55.2936 49.7316 54.4195C50.6057 53.5454 51.2009 52.4318 51.4421 51.2194C51.6833 50.007 51.5595 48.7503 51.0864 47.6083C50.6134 46.4663 49.8123 45.4901 48.7845 44.8034C47.7567 44.1166 46.5483 43.7501 45.3122 43.7501C43.6552 43.7519 42.0665 44.411 40.8948 45.5827C39.7231 46.7544 39.0641 48.343 39.0622 50.0001ZM48.4372 50.0001C48.4372 50.6181 48.2539 51.2223 47.9105 51.7362C47.5672 52.2501 47.0791 52.6507 46.5081 52.8872C45.9371 53.1237 45.3087 53.1856 44.7025 53.065C44.0963 52.9444 43.5395 52.6468 43.1025 52.2098C42.6654 51.7727 42.3678 51.2159 42.2472 50.6097C42.1267 50.0035 42.1885 49.3752 42.4251 48.8042C42.6616 48.2332 43.0621 47.7451 43.576 47.4017C44.0899 47.0583 44.6941 46.8751 45.3122 46.8751C46.1407 46.876 46.935 47.2055 47.5209 47.7914C48.1067 48.3772 48.4363 49.1716 48.4372 50.0001ZM26.5622 12.5001C27.2612 12.5008 27.9514 12.3443 28.5817 12.0421L32.8122 16.2721V18.7501H35.9372V15.6251C35.9372 15.4199 35.8968 15.2167 35.8183 15.0271C35.7398 14.8375 35.6247 14.6653 35.4796 14.5202L30.7917 9.83229C31.2295 8.91531 31.3574 7.88089 31.1562 6.88488C30.955 5.88887 30.4356 4.98522 29.6762 4.31007C28.9168 3.63492 27.9585 3.22484 26.9458 3.1416C25.9331 3.05837 24.9208 3.30649 24.0613 3.84859C23.2019 4.39068 22.5419 5.1974 22.1808 6.14719C21.8196 7.09698 21.7769 8.1384 22.0591 9.11456C22.3413 10.0907 22.9331 10.9487 23.7452 11.5594C24.5574 12.17 25.5461 12.5001 26.5622 12.5001ZM26.5622 6.25007C26.8712 6.25007 27.1733 6.34171 27.4303 6.5134C27.6872 6.68509 27.8875 6.92912 28.0058 7.21463C28.124 7.50014 28.155 7.8143 28.0947 8.1174C28.0344 8.42049 27.8856 8.6989 27.667 8.91742C27.4485 9.13594 27.1701 9.28476 26.867 9.34505C26.5639 9.40534 26.2498 9.37439 25.9642 9.25613C25.6787 9.13787 25.4347 8.9376 25.263 8.68065C25.0913 8.4237 24.9997 8.1216 24.9997 7.81257C25.0002 7.39833 25.165 7.0012 25.4579 6.70829C25.7508 6.41537 26.1479 6.25059 26.5622 6.25007ZM7.81219 28.1251C8.78117 28.1238 9.72604 27.8228 10.5172 27.2633C11.3083 26.7038 11.9069 25.9133 12.2309 25.0001H18.1026L20.7698 27.6675L22.9796 25.4577L19.8546 22.3327C19.7095 22.1876 19.5372 22.0725 19.3476 21.994C19.1581 21.9155 18.9549 21.8751 18.7497 21.8751H12.2309C11.9444 21.065 11.4407 20.3492 10.7749 19.8061C10.1091 19.2629 9.30672 18.9132 8.45558 18.7952C7.60444 18.6773 6.73724 18.7955 5.94878 19.1371C5.16032 19.4787 4.48093 20.0305 3.98487 20.7321C3.48882 21.4338 3.19519 22.2583 3.13607 23.1155C3.07696 23.9727 3.25463 24.8297 3.64968 25.5928C4.04473 26.3559 4.64194 26.9957 5.37605 27.4423C6.11016 27.8889 6.95291 28.1251 7.81219 28.1251ZM7.81219 21.8751C8.12122 21.8751 8.42332 21.9667 8.68027 22.1384C8.93722 22.3101 9.13749 22.5541 9.25575 22.8396C9.37401 23.1251 9.40496 23.4393 9.34467 23.7424C9.28438 24.0455 9.13556 24.3239 8.91705 24.5424C8.69853 24.7609 8.42011 24.9098 8.11702 24.97C7.81392 25.0303 7.49976 24.9994 7.21425 24.8811C6.92874 24.7629 6.68471 24.5626 6.51302 24.3056C6.34133 24.0487 6.24969 23.7466 6.24969 23.4376C6.25021 23.0233 6.41499 22.6262 6.70791 22.3333C7.00082 22.0404 7.39795 21.8756 7.81219 21.8751ZM51.5622 87.7688V82.8126H48.4372V87.7688C47.3947 88.1374 46.516 88.8627 45.9565 89.8164C45.397 90.7702 45.1927 91.8911 45.3797 92.9809C45.5667 94.0707 46.1329 95.0594 46.9783 95.7721C47.8238 96.4848 48.8939 96.8757 49.9997 96.8757C51.1055 96.8757 52.1756 96.4848 53.021 95.7721C53.8665 95.0594 54.4327 94.0707 54.6197 92.9809C54.8067 91.8911 54.6024 90.7702 54.0429 89.8164C53.4834 88.8627 52.6047 88.1374 51.5622 87.7688ZM49.9997 93.7501C49.6907 93.7501 49.3886 93.6584 49.1316 93.4867C48.8747 93.315 48.6744 93.071 48.5561 92.7855C48.4379 92.5 48.4069 92.1858 48.4672 91.8827C48.5275 91.5796 48.6763 91.3012 48.8948 91.0827C49.1134 90.8642 49.3918 90.7154 49.6949 90.6551C49.998 90.5948 50.3121 90.6257 50.5976 90.744C50.8831 90.8623 51.1272 91.0625 51.2989 91.3195C51.4706 91.5764 51.5622 91.8785 51.5622 92.1876C51.5617 92.6018 51.3969 92.9989 51.104 93.2919C50.8111 93.5848 50.4139 93.7495 49.9997 93.7501ZM48.4372 12.2313V17.1876H51.5622V12.2313C52.6047 11.8627 53.4834 11.1375 54.0429 10.1837C54.6024 9.22993 54.8067 8.10907 54.6197 7.01924C54.4327 5.9294 53.8665 4.94075 53.021 4.22803C52.1756 3.51531 51.1055 3.1244 49.9997 3.1244C48.8939 3.1244 47.8238 3.51531 46.9783 4.22803C46.1329 4.94075 45.5667 5.9294 45.3797 7.01924C45.1927 8.10907 45.397 9.22993 45.9565 10.1837C46.516 11.1375 47.3947 11.8627 48.4372 12.2313ZM49.9997 6.25007C50.3087 6.25007 50.6108 6.34171 50.8678 6.5134C51.1247 6.68509 51.325 6.92912 51.4432 7.21463C51.5615 7.50014 51.5925 7.8143 51.5322 8.1174C51.4719 8.42049 51.3231 8.6989 51.1045 8.91742C50.886 9.13594 50.6076 9.28476 50.3045 9.34505C50.0014 9.40534 49.6873 9.37439 49.4017 9.25613C49.1162 9.13787 48.8722 8.9376 48.7005 8.68065C48.5288 8.4237 48.4372 8.1216 48.4372 7.81257C48.4377 7.39833 48.6025 7.0012 48.8954 6.70829C49.1883 6.41537 49.5854 6.25059 49.9997 6.25007ZM20.7698 72.3327L18.1026 75.0001H12.2309C11.8624 73.9576 11.1371 73.0789 10.1833 72.5194C9.22955 71.9599 8.1087 71.7556 7.01886 71.9426C5.92902 72.1296 4.94037 72.6958 4.22765 73.5412C3.51493 74.3867 3.12402 75.4568 3.12402 76.5626C3.12402 77.6683 3.51493 78.7385 4.22765 79.5839C4.94037 80.4293 5.92902 80.9956 7.01886 81.1826C8.1087 81.3695 9.22955 81.1652 10.1833 80.6057C11.1371 80.0462 11.8624 79.1676 12.2309 78.1251H18.7497C18.9549 78.1251 19.1581 78.0847 19.3476 78.0061C19.5372 77.9276 19.7095 77.8125 19.8546 77.6675L22.9796 74.5425L20.7698 72.3327ZM7.81219 78.1251C7.50316 78.1251 7.20106 78.0334 6.94411 77.8617C6.68716 77.69 6.48689 77.446 6.36863 77.1605C6.25037 76.875 6.21942 76.5608 6.27971 76.2577C6.34 75.9546 6.48882 75.6762 6.70734 75.4577C6.92586 75.2392 7.20427 75.0904 7.50736 75.0301C7.81046 74.9698 8.12462 75.0007 8.41013 75.119C8.69564 75.2373 8.93967 75.4375 9.11136 75.6945C9.28305 75.9514 9.37469 76.2535 9.37469 76.5626C9.37417 76.9768 9.20939 77.3739 8.91647 77.6669C8.62356 77.9598 8.22643 78.1245 7.81219 78.1251ZM34.8323 81.7077L28.5819 87.9581C27.5838 87.4812 26.4491 87.3726 25.3786 87.6514C24.3081 87.9302 23.3706 88.5785 22.7319 89.4817C22.0932 90.3849 21.7943 91.4848 21.8881 92.587C21.982 93.6893 22.4625 94.7229 23.2447 95.5051C24.0269 96.2873 25.0605 96.7678 26.1627 96.8616C27.265 96.9555 28.3649 96.6566 29.2681 96.0179C30.1713 95.3791 30.8196 94.4417 31.0984 93.3711C31.3772 92.3006 31.2686 91.166 30.7917 90.1678L37.0421 83.9175L34.8323 81.7077ZM26.5622 93.7501C26.2532 93.7501 25.9511 93.6584 25.6941 93.4867C25.4372 93.315 25.2369 93.071 25.1186 92.7855C25.0004 92.5 24.9694 92.1858 25.0297 91.8827C25.09 91.5796 25.2388 91.3012 25.4573 91.0827C25.6759 90.8642 25.9543 90.7154 26.2574 90.6551C26.5605 90.5948 26.8746 90.6257 27.1601 90.744C27.4456 90.8623 27.6897 91.0625 27.8614 91.3195C28.0331 91.5764 28.1247 91.8785 28.1247 92.1876C28.1242 92.6018 27.9594 92.9989 27.6665 93.2919C27.3736 93.5848 26.9764 93.7495 26.5622 93.7501ZM73.4372 87.5001C72.6669 87.4993 71.9085 87.6895 71.2298 88.0538L63.4999 81.6122L61.4995 84.013L69.1194 90.363C68.7274 91.2906 68.6446 92.3198 68.8832 93.2982C69.1218 94.2766 69.6692 95.1521 70.4442 95.7951C71.2193 96.4381 72.1808 96.8145 73.1864 96.8684C74.192 96.9222 75.1883 96.6508 76.0276 96.0943C76.8669 95.5378 77.5047 94.7258 77.8465 93.7785C78.1883 92.8312 78.2159 91.799 77.9253 90.8348C77.6347 89.8706 77.0412 89.0256 76.2329 88.425C75.4245 87.8244 74.4443 87.5001 73.4372 87.5001ZM73.4372 93.7501C73.1282 93.7501 72.8261 93.6584 72.5691 93.4867C72.3122 93.315 72.1119 93.071 71.9936 92.7855C71.8754 92.5 71.8444 92.1858 71.9047 91.8827C71.965 91.5796 72.1138 91.3012 72.3323 91.0827C72.5509 90.8642 72.8293 90.7154 73.1324 90.6551C73.4355 90.5948 73.7496 90.6257 74.0351 90.744C74.3206 90.8623 74.5647 91.0625 74.7364 91.3195C74.9081 91.5764 74.9997 91.8785 74.9997 92.1876C74.9992 92.6018 74.8344 92.9989 74.5415 93.2919C74.2486 93.5848 73.8514 93.7495 73.4372 93.7501ZM92.1872 71.8751C91.2182 71.8763 90.2733 72.1773 89.4822 72.7368C88.6911 73.2963 88.0925 74.0869 87.7684 75.0001H81.8968L79.2296 72.3327L77.0198 74.5425L80.1448 77.6675C80.2899 77.8125 80.4622 77.9276 80.6517 78.0061C80.8413 78.0847 81.0445 78.1251 81.2497 78.1251H87.7684C88.055 78.9352 88.5587 79.6509 89.2245 80.1941C89.8903 80.7373 90.6927 81.0869 91.5438 81.2049C92.395 81.3229 93.2621 81.2046 94.0506 80.863C94.8391 80.5214 95.5184 79.9696 96.0145 79.268C96.5106 78.5664 96.8042 77.7419 96.8633 76.8846C96.9224 76.0274 96.7447 75.1704 96.3497 74.4073C95.9547 73.6442 95.3574 73.0044 94.6233 72.5578C93.8892 72.1112 93.0465 71.875 92.1872 71.8751ZM92.1872 78.1251C91.8782 78.1251 91.5761 78.0334 91.3191 77.8617C91.0622 77.69 90.8619 77.446 90.7436 77.1605C90.6254 76.875 90.5944 76.5608 90.6547 76.2577C90.715 75.9546 90.8638 75.6762 91.0823 75.4577C91.3009 75.2392 91.5793 75.0904 91.8824 75.0301C92.1855 74.9698 92.4996 75.0007 92.7851 75.119C93.0706 75.2373 93.3147 75.4375 93.4864 75.6945C93.6581 75.9514 93.7497 76.2535 93.7497 76.5626C93.7492 76.9768 93.5844 77.3739 93.2915 77.6669C92.9986 77.9598 92.6014 78.1245 92.1872 78.1251ZM67.1872 16.2721L71.4177 12.0421C72.4158 12.5188 73.5504 12.6274 74.6208 12.3485C75.6912 12.0696 76.6286 11.4213 77.2673 10.5181C77.9059 9.61496 78.2047 8.51507 78.1108 7.4129C78.0169 6.31072 77.5364 5.27723 76.7542 4.49508C75.972 3.71294 74.9385 3.23251 73.8363 3.13872C72.7341 3.04493 71.6342 3.34381 70.7311 3.98254C69.828 4.62127 69.1797 5.55871 68.901 6.62917C68.6222 7.69964 68.7308 8.83419 69.2077 9.83229L64.5198 14.5202C64.3747 14.6653 64.2596 14.8375 64.1811 15.0271C64.1026 15.2167 64.0622 15.4199 64.0622 15.6251V18.7501H67.1872V16.2721ZM73.4372 6.25007C73.7462 6.25007 74.0483 6.34171 74.3053 6.5134C74.5622 6.68509 74.7625 6.92912 74.8808 7.21463C74.999 7.50014 75.03 7.8143 74.9697 8.1174C74.9094 8.42049 74.7606 8.6989 74.542 8.91742C74.3235 9.13594 74.0451 9.28476 73.742 9.34505C73.4389 9.40534 73.1248 9.37439 72.8392 9.25613C72.5537 9.13787 72.3097 8.9376 72.138 8.68065C71.9663 8.4237 71.8747 8.1216 71.8747 7.81257C71.8752 7.39833 72.04 7.0012 72.3329 6.70829C72.6258 6.41537 73.0229 6.25059 73.4372 6.25007ZM79.2296 27.6675L81.8968 25.0001H87.7684C88.137 26.0426 88.8623 26.9212 89.8161 27.4807C90.7698 28.0402 91.8907 28.2445 92.9805 28.0576C94.0704 27.8706 95.059 27.3043 95.7717 26.4589C96.4845 25.6135 96.8754 24.5433 96.8754 23.4376C96.8754 22.3318 96.4845 21.2616 95.7717 20.4162C95.059 19.5708 94.0704 19.0046 92.9805 18.8176C91.8907 18.6306 90.7698 18.8349 89.8161 19.3944C88.8623 19.9539 88.137 20.8325 87.7684 21.8751H81.2497C81.0445 21.8751 80.8413 21.9155 80.6517 21.994C80.4622 22.0725 80.2899 22.1876 80.1448 22.3327L77.0198 25.4577L79.2296 27.6675ZM92.1872 21.8751C92.4962 21.8751 92.7983 21.9667 93.0553 22.1384C93.3122 22.3101 93.5125 22.5541 93.6308 22.8396C93.749 23.1251 93.78 23.4393 93.7197 23.7424C93.6594 24.0455 93.5106 24.3239 93.292 24.5424C93.0735 24.7609 92.7951 24.9098 92.492 24.97C92.1889 25.0303 91.8748 24.9994 91.5892 24.8811C91.3037 24.7629 91.0597 24.5626 90.888 24.3056C90.7163 24.0487 90.6247 23.7466 90.6247 23.4376C90.6252 23.0233 90.79 22.6262 91.0829 22.3333C91.3758 22.0404 91.7729 21.8756 92.1872 21.8751ZM92.1872 39.0626C91.0815 39.0625 90.0113 39.4533 89.1659 40.166C88.3204 40.8786 87.7542 41.8672 87.5672 42.957C87.3802 44.0468 87.5845 45.1676 88.144 46.1214C88.7035 47.0751 89.5822 47.8003 90.6247 48.1688V59.3751H85.9372V62.5001H92.1872C92.6016 62.5001 92.999 62.3354 93.292 62.0424C93.5851 61.7494 93.7497 61.352 93.7497 60.9376V48.1688C94.7922 47.8003 95.6709 47.0751 96.2304 46.1214C96.7899 45.1676 96.9942 44.0468 96.8072 42.957C96.6202 41.8672 96.0539 40.8786 95.2085 40.166C94.3631 39.4533 93.2929 39.0625 92.1872 39.0626ZM92.1872 45.3126C91.8782 45.3126 91.5761 45.2209 91.3191 45.0492C91.0622 44.8776 90.8619 44.6335 90.7436 44.348C90.6254 44.0625 90.5944 43.7483 90.6547 43.4452C90.715 43.1421 90.8638 42.8637 91.0823 42.6452C91.3009 42.4267 91.5793 42.2779 91.8824 42.2176C92.1855 42.1573 92.4996 42.1882 92.7851 42.3065C93.0706 42.4248 93.3147 42.625 93.4864 42.882C93.6581 43.1389 93.7497 43.441 93.7497 43.7501C93.7492 44.1643 93.5844 44.5614 93.2915 44.8544C92.9986 45.1473 92.6014 45.3121 92.1872 45.3126ZM7.81219 62.5001C8.91792 62.5002 9.98807 62.1093 10.8335 61.3967C11.6789 60.684 12.2452 59.6954 12.4322 58.6056C12.6192 57.5158 12.4149 56.395 11.8554 55.4413C11.2959 54.4875 10.4172 53.7623 9.37469 53.3938V42.1876H14.0622V39.0626H7.81219C7.39779 39.0626 7.00036 39.2272 6.70734 39.5202C6.41431 39.8132 6.24969 40.2107 6.24969 40.6251V53.3938C5.20718 53.7623 4.32852 54.4875 3.76902 55.4413C3.20952 56.395 3.00521 57.5158 3.1922 58.6056C3.3792 59.6954 3.94545 60.684 4.79088 61.3967C5.63631 62.1093 6.70647 62.5002 7.81219 62.5001ZM7.81219 56.2501C8.12122 56.2501 8.42332 56.3417 8.68027 56.5134C8.93722 56.6851 9.13749 56.9291 9.25575 57.2146C9.37401 57.5001 9.40496 57.8143 9.34467 58.1174C9.28438 58.4205 9.13556 58.6989 8.91705 58.9174C8.69853 59.1359 8.42011 59.2848 8.11702 59.345C7.81392 59.4053 7.49976 59.3744 7.21425 59.2561C6.92874 59.1379 6.68471 58.9376 6.51302 58.6806C6.34133 58.4237 6.24969 58.1216 6.24969 57.8126C6.25021 57.3983 6.41499 57.0012 6.70791 56.7083C7.00082 56.4154 7.39795 56.2506 7.81219 56.2501Z" fill="#57AF7D"/>
</svg>
