<svg width="100" height="100" viewBox="0 0 100 100" fill="none" xmlns="http://www.w3.org/2000/svg">
<g clip-path="url(#clip0_1_831)">
<path d="M94.1406 60.323V39.677C97.4852 38.9572 100 35.9783 100 32.4219C100 26.5465 93.4814 23.0385 88.5912 26.1668L73.8332 11.4088C76.9625 6.5168 73.4518 0 67.5781 0C60.3408 0 57.3717 9.38105 63.3666 13.5285L56.7545 29.5447L45.4994 18.2896L57.1898 13.4312C57.5725 13.2722 57.8763 12.9676 58.0345 12.5846C58.1926 12.2015 58.1921 11.7713 58.033 11.3887C57.874 11.006 57.5694 10.7022 57.1863 10.5441C56.8033 10.3859 56.3731 10.3865 55.9904 10.5455L43.1086 15.899L38.6543 11.4443C41.816 6.5627 38.3225 0 32.4219 0C26.5465 0 23.0385 6.51855 26.1668 11.4088L11.409 26.1668C6.5168 23.0375 0 26.5482 0 32.4219C0 37.0473 4.20215 40.5564 8.76289 39.7201L13.035 50L8.7627 60.2799C4.20977 59.4451 0 62.9457 0 67.5781C0 73.4535 6.51855 76.9615 11.4088 73.8332L26.1668 88.591C23.0373 93.483 26.5482 100 32.4219 100C35.9783 100 38.957 97.4852 39.6768 94.1406H60.323C61.0428 97.4852 64.0217 100 67.5779 100C71.6703 100 74.9998 96.6705 74.9998 92.5781C74.9998 88.4857 71.6703 85.1562 67.5779 85.1562C64.0215 85.1562 61.0428 87.6711 60.323 91.0156H40.2535L86.4818 71.8039C90.6584 77.8111 100 74.7576 100 67.5781C100 64.0217 97.4852 61.043 94.1406 60.323ZM85.277 33.7457L80.9521 35.5312L72.0037 13.9988L86.3688 28.3637C85.3256 29.9503 84.9345 31.878 85.277 33.7457ZM86.4717 36.6334C87.5281 38.1604 89.1412 39.2734 91.0156 39.677V59.7469L82.1514 38.4172L86.4717 36.6334ZM88.1111 60.9014L70.4553 43.2455L79.2627 39.6096L88.1111 60.9014ZM96.875 32.4219C96.875 34.7912 94.9475 36.7188 92.5781 36.7188C90.2088 36.7188 88.2812 34.7912 88.2812 32.4219C88.2812 30.0525 90.2088 28.125 92.5781 28.125C94.9475 28.125 96.875 30.0525 96.875 32.4219ZM67.5781 3.125C69.9475 3.125 71.875 5.05254 71.875 7.42188C71.875 9.79121 69.9475 11.7188 67.5781 11.7188C65.2088 11.7188 63.2812 9.79121 63.2812 7.42188C63.2812 5.05254 65.2088 3.125 67.5781 3.125ZM66.2543 14.723C67.1412 14.8836 68.0184 14.8852 68.9191 14.7199L78.0635 36.7236L68.0625 40.8525L59.1475 31.9373L66.2543 14.723ZM64.9342 42.1441L52.8789 47.1211L57.8559 35.0658L64.9342 42.1441ZM31.0811 14.7201C32.9727 15.0668 34.8727 14.6721 36.4443 13.6543L39.9865 17.1965L27.9779 22.1871L31.0811 14.7201ZM23.8871 23.8871L13.999 27.9965L27.9965 13.9988L23.8871 23.8871ZM32.4219 3.125C34.7912 3.125 36.7188 5.05254 36.7188 7.42188C36.7188 9.79121 34.7912 11.7188 32.4219 11.7188C30.0525 11.7188 28.125 9.79121 28.125 7.42188C28.125 5.05254 30.0525 3.125 32.4219 3.125ZM3.125 32.4219C3.125 30.0525 5.05254 28.125 7.42188 28.125C9.79121 28.125 11.7188 30.0525 11.7188 32.4219C11.7188 34.7912 9.79121 36.7188 7.42188 36.7188C5.05254 36.7188 3.125 34.7912 3.125 32.4219ZM11.6477 38.5182C14.0238 36.866 15.2533 33.9887 14.7201 31.0809L22.1871 27.9777L14.7271 45.9283L11.6477 38.5182ZM14.7271 54.0717L17.8488 61.583L13.5285 63.3666C13.0193 62.6309 12.3823 61.9926 11.6477 61.4818L14.7271 54.0717ZM14.723 66.2541L19.0479 64.4688L27.9965 86.0012L13.6313 71.6363C14.6744 70.0497 15.0654 68.1218 14.723 66.2541ZM3.125 67.5781C3.125 65.2088 5.05254 63.2812 7.42188 63.2812C9.79121 63.2812 11.7188 65.2088 11.7188 67.5781C11.7188 69.9475 9.79121 71.875 7.42188 71.875C5.05254 71.875 3.125 69.9475 3.125 67.5781ZM32.4219 96.875C30.0525 96.875 28.125 94.9475 28.125 92.5781C28.125 90.2088 30.0525 88.2812 32.4219 88.2812C34.7912 88.2812 36.7188 90.2088 36.7188 92.5781C36.7188 94.9475 34.7912 96.875 32.4219 96.875ZM67.5781 88.2812C69.9475 88.2812 71.875 90.2088 71.875 92.5781C71.875 94.9475 69.9475 96.875 67.5781 96.875C65.2088 96.875 63.2812 94.9475 63.2812 92.5781C63.2812 90.2088 65.2088 88.2812 67.5781 88.2812ZM38.5184 88.3525C36.8693 85.9807 33.9947 84.7461 31.0811 85.2799L21.9365 63.2762L28.0258 60.7623C28.2169 60.6851 28.3909 60.5708 28.5377 60.426C28.6845 60.2812 28.8012 60.1088 28.881 59.9187C28.9609 59.7286 29.0023 59.5246 29.0029 59.3184C29.0036 59.1122 28.9634 58.908 28.8847 58.7174C28.806 58.5268 28.6904 58.3537 28.5445 58.208C28.3987 58.0623 28.2254 57.9469 28.0347 57.8685C27.844 57.7901 27.6397 57.7502 27.4335 57.7511C27.2273 57.752 27.0234 57.7937 26.8334 57.8738L20.7375 60.3904L16.4191 50L26.2777 26.2777L42.3771 19.5871L55.4629 32.6729L48.8033 48.8035L38.1801 53.1893C37.7971 53.3474 37.4925 53.6512 37.3335 54.0338C37.1744 54.4165 37.1739 54.8466 37.332 55.2297C37.6629 56.0314 38.5787 56.4055 39.3725 56.0777L47.1207 52.8789L35.9738 79.8791C35.5482 80.9096 36.3105 82.0383 37.4176 82.0383C37.727 82.0383 38.0296 81.9465 38.2868 81.7744C38.544 81.6023 38.7443 81.3578 38.8623 81.0717L51.1961 51.1965L67.3268 44.5369L86.3453 63.5555C85.3287 65.1252 84.9322 67.0252 85.2795 68.9189L38.5184 88.3525ZM92.5781 71.875C90.2088 71.875 88.2812 69.9475 88.2812 67.5781C88.2812 65.2088 90.2088 63.2812 92.5781 63.2812C94.9475 63.2812 96.875 65.2088 96.875 67.5781C96.875 69.9475 94.9475 71.875 92.5781 71.875Z" fill="#57AF7D"/>
<path d="M32.5119 55.5298C31.6569 55.88 31.3231 56.8067 31.6381 57.5763C31.7159 57.7662 31.8303 57.9389 31.9748 58.0846C32.1193 58.2302 32.2911 58.346 32.4804 58.4253C32.6697 58.5046 32.8727 58.5458 33.0779 58.5466C33.2831 58.5474 33.4865 58.5078 33.6764 58.43C34.5315 58.0798 34.8653 57.153 34.5502 56.3835C34.393 56.0001 34.09 55.6948 33.7078 55.5347C33.3256 55.3746 32.8954 55.3728 32.5119 55.5298Z" fill="#57AF7D"/>
</g>
<defs>
<clipPath id="clip0_1_831">
<rect width="100" height="100" fill="white"/>
</clipPath>
</defs>
</svg>
