<svg width="100" height="100" viewBox="0 0 100 100" fill="none" xmlns="http://www.w3.org/2000/svg">
<g clip-path="url(#clip0_2001_175)">
<path d="M18.1641 64.1934C18.5785 64.1934 18.9759 64.0287 19.2689 63.7357C19.5619 63.4427 19.7266 63.0453 19.7266 62.6309V62.4023C19.7266 61.9879 19.5619 61.5905 19.2689 61.2975C18.9759 61.0045 18.5785 60.8398 18.1641 60.8398C17.7497 60.8398 17.3522 61.0045 17.0592 61.2975C16.7662 61.5905 16.6016 61.9879 16.6016 62.4023V62.6309C16.6016 63.0453 16.7662 63.4427 17.0592 63.7357C17.3522 64.0287 17.7497 64.1934 18.1641 64.1934ZM27.5391 27.9297H25.7812C25.3668 27.9297 24.9694 28.0943 24.6764 28.3873C24.3834 28.6804 24.2188 29.0778 24.2188 29.4922C24.2188 29.9066 24.3834 30.304 24.6764 30.597C24.9694 30.8901 25.3668 31.0547 25.7812 31.0547H27.5391C27.9535 31.0547 28.3509 30.8901 28.6439 30.597C28.9369 30.304 29.1016 29.9066 29.1016 29.4922C29.1016 29.0778 28.9369 28.6804 28.6439 28.3873C28.3509 28.0943 27.9535 27.9297 27.5391 27.9297ZM35.3516 27.9297H33.5938C33.1793 27.9297 32.7819 28.0943 32.4889 28.3873C32.1959 28.6804 32.0312 29.0778 32.0312 29.4922C32.0312 29.9066 32.1959 30.304 32.4889 30.597C32.7819 30.8901 33.1793 31.0547 33.5938 31.0547H35.3516C35.766 31.0547 36.1634 30.8901 36.4564 30.597C36.7494 30.304 36.9141 29.9066 36.9141 29.4922C36.9141 29.0778 36.7494 28.6804 36.4564 28.3873C36.1634 28.0943 35.766 27.9297 35.3516 27.9297ZM43.1641 27.9297H41.4062C40.9918 27.9297 40.5944 28.0943 40.3014 28.3873C40.0084 28.6804 39.8438 29.0778 39.8438 29.4922C39.8438 29.9066 40.0084 30.304 40.3014 30.597C40.5944 30.8901 40.9918 31.0547 41.4062 31.0547H43.1641C43.5785 31.0547 43.9759 30.8901 44.2689 30.597C44.5619 30.304 44.7266 29.9066 44.7266 29.4922C44.7266 29.0778 44.5619 28.6804 44.2689 28.3873C43.9759 28.0943 43.5785 27.9297 43.1641 27.9297Z" fill="#57AF7D"/>
<path d="M100 50.0001C100 49.0138 99.6606 48.0576 99.039 47.2919C98.4173 46.5262 97.5512 45.9976 96.5859 45.795L92.043 18.5313C92.3482 18.3501 92.6302 18.1324 92.8828 17.8829C93.2819 17.4838 93.5985 17.01 93.8145 16.4886C94.0305 15.9671 94.1416 15.4082 94.1416 14.8438C94.1416 14.2794 94.0305 13.7206 93.8145 13.1991C93.5985 12.6777 93.2819 12.2039 92.8828 11.8048C92.4837 11.4057 92.0099 11.0891 91.4885 10.8731C90.967 10.6571 90.4081 10.546 89.8437 10.546C89.2793 10.546 88.7205 10.6571 88.199 10.8731C87.6776 11.0891 87.2038 11.4057 86.8047 11.8048C86.5151 12.0941 86.2679 12.4228 86.0703 12.7813L54.168 8.72079C53.9351 7.79169 53.3985 6.96703 52.6433 6.37778C51.8882 5.78854 50.9578 5.46851 50 5.46851C49.0422 5.46851 48.1118 5.78854 47.3566 6.37778C46.6015 6.96703 46.0649 7.79169 45.832 8.72079L13.9297 12.7872C13.7321 12.4287 13.4849 12.0999 13.1953 11.8106C12.3841 11.034 11.3011 10.6058 10.1781 10.6177C9.05508 10.6297 7.9814 11.0808 7.18689 11.8746C6.39239 12.6683 5.94022 13.7415 5.92719 14.8645C5.91416 15.9875 6.34131 17.0709 7.11718 17.8829C7.36974 18.1324 7.65177 18.3501 7.95702 18.5313L3.41405 45.795C2.44893 45.9978 1.58292 46.5263 0.961385 47.292C0.339847 48.0577 0.000610352 49.0139 0.000610352 50.0001C0.000610352 50.9863 0.339847 51.9425 0.961385 52.7081C1.58292 53.4738 2.44893 54.0024 3.41405 54.2052L7.95702 81.4688C7.65177 81.6501 7.36974 81.8678 7.11718 82.1173C6.31117 82.9233 5.85836 84.0165 5.85836 85.1563C5.85836 86.2962 6.31117 87.3894 7.11718 88.1954C7.92319 89.0014 9.01637 89.4542 10.1562 89.4542C11.2961 89.4542 12.3893 89.0014 13.1953 88.1954C13.4849 87.9061 13.7321 87.5773 13.9297 87.2188L45.832 91.2852C46.0649 92.2143 46.6015 93.039 47.3566 93.6282C48.1118 94.2175 49.0422 94.5375 50 94.5375C50.9578 94.5375 51.8882 94.2175 52.6433 93.6282C53.3985 93.039 53.9351 92.2143 54.168 91.2852L86.0703 87.2188C86.2679 87.5773 86.5151 87.9061 86.8047 88.1954C87.6107 89.0014 88.7039 89.4542 89.8437 89.4542C90.9836 89.4542 92.0768 89.0014 92.8828 88.1954C93.6888 87.3894 94.1416 86.2962 94.1416 85.1563C94.1416 84.0165 93.6888 82.9233 92.8828 82.1173C92.6302 81.8678 92.3482 81.6501 92.043 81.4688L96.5859 54.2052C97.5512 54.0025 98.4173 53.474 99.039 52.7083C99.6606 51.9426 100 50.9864 100 50.0001ZM46.2285 88.1778L14.3203 84.1114C14.2632 83.8786 14.1861 83.6512 14.0898 83.4317L20.1894 77.3321C21.0215 77.7264 21.9308 77.9305 22.8516 77.9298H48.4375V86.2325C47.4967 86.6032 46.7152 87.2914 46.2285 88.1778ZM53.7715 11.8224L85.6797 15.8888C85.7368 16.1215 85.8139 16.349 85.9101 16.5684L79.8105 22.6681C78.9785 22.2738 78.0691 22.0696 77.1484 22.0704H51.5625V13.7677C52.5033 13.3969 53.2848 12.7087 53.7715 11.8224ZM91.7012 48.4376H83.3984V28.3204C83.4012 27.0125 82.9911 25.7371 82.2266 24.6759L88.125 18.7774C88.3952 18.8973 88.6774 18.9883 88.9668 19.0489L93.5098 46.3106C92.6883 46.8001 92.0523 47.5481 91.7012 48.4376ZM48.4375 13.7677V22.0704H22.8516C21.9308 22.0696 21.0215 22.2738 20.1894 22.6681L14.0898 16.5684C14.1861 16.349 14.2632 16.1215 14.3203 15.8888L46.2285 11.8224C46.7152 12.7087 47.4967 13.3969 48.4375 13.7677ZM11.8808 18.7774L17.7734 24.6759C17.0089 25.7371 16.5988 27.0125 16.6016 28.3204V48.4376H8.29882C7.94923 47.549 7.31535 46.8011 6.49608 46.3106L11.0391 19.0489C11.3284 18.9883 11.6106 18.8973 11.8808 18.7774ZM8.29882 51.5626H16.6016V57.129C16.6016 57.5434 16.7662 57.9408 17.0592 58.2338C17.3522 58.5269 17.7497 58.6915 18.1641 58.6915C18.5785 58.6915 18.9759 58.5269 19.2689 58.2338C19.5619 57.9408 19.7266 57.5434 19.7266 57.129V36.5235H73.4375C73.8519 36.5235 74.2493 36.3589 74.5423 36.0659C74.8354 35.7729 75 35.3754 75 34.961C75 34.5466 74.8354 34.1492 74.5423 33.8562C74.2493 33.5631 73.8519 33.3985 73.4375 33.3985H19.7266V28.3204C19.7274 27.8735 19.8241 27.432 20.01 27.0257C20.196 26.6194 20.467 26.2576 20.8047 25.9649C20.8877 25.9111 20.9655 25.8496 21.0371 25.7813C21.5655 25.4006 22.2003 25.1956 22.8516 25.1954H77.1484C77.7997 25.1956 78.4345 25.4006 78.9629 25.7813C79.0345 25.8496 79.1123 25.9111 79.1953 25.9649C79.533 26.2576 79.8039 26.6194 79.9899 27.0257C80.1759 27.432 80.2726 27.8735 80.2734 28.3204V71.6798C80.2726 72.1266 80.1759 72.5681 79.9899 72.9745C79.8039 73.3808 79.533 73.7425 79.1953 74.0352C79.1123 74.0891 79.0345 74.1506 78.9629 74.2188C78.4345 74.5996 77.7997 74.8046 77.1484 74.8048H22.8516C22.2003 74.8046 21.5655 74.5996 21.0371 74.2188C20.9655 74.1506 20.8877 74.0891 20.8047 74.0352C20.467 73.7425 20.196 73.3808 20.01 72.9745C19.8241 72.5681 19.7274 72.1266 19.7266 71.6798V68.9454C19.7266 68.531 19.5619 68.1336 19.2689 67.8405C18.9759 67.5475 18.5785 67.3829 18.1641 67.3829C17.7497 67.3829 17.3522 67.5475 17.0592 67.8405C16.7662 68.1336 16.6016 68.531 16.6016 68.9454V71.6798C16.5988 72.9877 17.0089 74.2631 17.7734 75.3243L11.875 81.2227C11.6047 81.1028 11.3226 81.0118 11.0332 80.9513L6.49608 53.6895C7.31535 53.199 7.94923 52.4512 8.29882 51.5626ZM51.5625 86.2325V77.9298H77.1484C78.0691 77.9305 78.9785 77.7264 79.8105 77.3321L85.9101 83.4317C85.8139 83.6512 85.7368 83.8786 85.6797 84.1114L53.7715 88.1778C53.2848 87.2914 52.5033 86.6032 51.5625 86.2325ZM88.1191 81.2227L82.2266 75.3243C82.9911 74.2631 83.4012 72.9877 83.3984 71.6798V51.5626H91.7012C92.0508 52.4512 92.6846 53.199 93.5039 53.6895L88.9609 80.9513C88.6715 81.0118 88.3894 81.1028 88.1191 81.2227ZM95.7031 51.172C95.4713 51.172 95.2448 51.1032 95.0521 50.9745C94.8593 50.8457 94.7091 50.6627 94.6204 50.4485C94.5317 50.2344 94.5085 49.9988 94.5538 49.7715C94.599 49.5441 94.7106 49.3353 94.8745 49.1714C95.0384 49.0076 95.2472 48.8959 95.4745 48.8507C95.7018 48.8055 95.9374 48.8287 96.1516 48.9174C96.3657 49.0061 96.5487 49.1563 96.6775 49.349C96.8063 49.5417 96.875 49.7683 96.875 50.0001C96.875 50.3109 96.7515 50.609 96.5318 50.8287C96.312 51.0485 96.0139 51.172 95.7031 51.172ZM89.0156 14.0157C89.1795 13.8517 89.3883 13.7399 89.6156 13.6946C89.843 13.6493 90.0787 13.6724 90.2929 13.761C90.5071 13.8497 90.6902 13.9999 90.8191 14.1926C90.9479 14.3854 91.0166 14.612 91.0166 14.8438C91.0166 15.0757 90.9479 15.3023 90.8191 15.495C90.6902 15.6878 90.5071 15.838 90.2929 15.9266C90.0787 16.0153 89.843 16.0384 89.6156 15.9931C89.3883 15.9478 89.1795 15.836 89.0156 15.672C88.7962 15.4522 88.6729 15.1544 88.6729 14.8438C88.6729 14.5333 88.7962 14.2354 89.0156 14.0157ZM50 8.59384C50.2318 8.59384 50.4583 8.66257 50.6511 8.79133C50.8438 8.9201 50.994 9.10312 51.0827 9.31725C51.1714 9.53139 51.1946 9.76701 51.1493 9.99433C51.1041 10.2217 50.9925 10.4305 50.8286 10.5944C50.6647 10.7582 50.4559 10.8699 50.2286 10.9151C50.0013 10.9603 49.7657 10.9371 49.5515 10.8484C49.3374 10.7597 49.1544 10.6095 49.0256 10.4168C48.8968 10.2241 48.8281 9.99749 48.8281 9.76571C48.8281 9.45491 48.9516 9.15684 49.1713 8.93707C49.3911 8.7173 49.6892 8.59384 50 8.59384ZM9.32812 14.0157C9.54836 13.7988 9.84541 13.6776 10.1546 13.6787C10.4637 13.6798 10.7599 13.803 10.9786 14.0214C11.1974 14.2399 11.3209 14.536 11.3224 14.8451C11.3238 15.1543 11.203 15.4515 10.9863 15.672C10.879 15.7871 10.7497 15.8794 10.6059 15.9435C10.4622 16.0075 10.307 16.042 10.1496 16.0448C9.99229 16.0475 9.83599 16.0186 9.69007 15.9597C9.54415 15.9007 9.4116 15.813 9.30032 15.7017C9.18904 15.5904 9.10132 15.4579 9.04238 15.312C8.98344 15.166 8.95449 15.0097 8.95727 14.8524C8.96005 14.695 8.99449 14.5399 9.05854 14.3961C9.12259 14.2524 9.21493 14.123 9.33007 14.0157H9.32812ZM4.29687 48.8282C4.52864 48.8282 4.75521 48.8969 4.94792 49.0257C5.14064 49.1545 5.29084 49.3375 5.37954 49.5516C5.46823 49.7658 5.49144 50.0014 5.44622 50.2287C5.40101 50.456 5.2894 50.6648 5.12551 50.8287C4.96162 50.9926 4.75281 51.1042 4.52549 51.1494C4.29817 51.1947 4.06254 51.1715 3.84841 51.0828C3.63428 50.9941 3.45125 50.8439 3.32249 50.6511C3.19372 50.4584 3.12499 50.2319 3.12499 50.0001C3.12499 49.6893 3.24846 49.3912 3.46822 49.1714C3.68799 48.9517 3.98606 48.8282 4.29687 48.8282ZM10.9844 85.9845C10.8205 86.1485 10.6117 86.2602 10.3844 86.3056C10.157 86.3509 9.92131 86.3278 9.70709 86.2392C9.49287 86.1505 9.30976 86.0003 9.18093 85.8075C9.0521 85.6148 8.98333 85.3882 8.98333 85.1563C8.98333 84.9245 9.0521 84.6979 9.18093 84.5051C9.30976 84.3124 9.49287 84.1622 9.70709 84.0735C9.92131 83.9849 10.157 83.9617 10.3844 84.0071C10.6117 84.0524 10.8205 84.1642 10.9844 84.3282C11.2038 84.5479 11.3271 84.8458 11.3271 85.1563C11.3271 85.4669 11.2038 85.7647 10.9844 85.9845ZM50 91.4063C49.7682 91.4063 49.5416 91.3376 49.3489 91.2088C49.1562 91.0801 49.006 90.897 48.9173 90.6829C48.8286 90.4688 48.8054 90.2332 48.8506 90.0058C48.8959 89.7785 49.0075 89.5697 49.1713 89.4058C49.3352 89.2419 49.544 89.1303 49.7714 89.0851C49.9987 89.0399 50.2343 89.0631 50.4484 89.1518C50.6626 89.2405 50.8456 89.3907 50.9744 89.5834C51.1031 89.7761 51.1719 90.0027 51.1719 90.2345C51.1719 90.5453 51.0484 90.8433 50.8286 91.0631C50.6089 91.2829 50.3108 91.4063 50 91.4063ZM90.6719 85.9845C90.4516 86.2014 90.1546 86.3225 89.8454 86.3215C89.5363 86.3204 89.2401 86.1972 89.0213 85.9787C88.8026 85.7603 88.6791 85.4642 88.6776 85.155C88.6762 84.8459 88.797 84.5487 89.0137 84.3282C89.1209 84.2131 89.2503 84.1207 89.3941 84.0567C89.5378 83.9926 89.693 83.9582 89.8503 83.9554C90.0077 83.9526 90.164 83.9816 90.3099 84.0405C90.4558 84.0995 90.5884 84.1872 90.6997 84.2985C90.8109 84.4097 90.8987 84.5423 90.9576 84.6882C91.0165 84.8341 91.0455 84.9904 91.0427 85.1478C91.0399 85.3051 91.0055 85.4603 90.9414 85.604C90.8774 85.7478 90.785 85.8772 90.6699 85.9845H90.6719Z" fill="#57AF7D"/>
</g>
<defs>
<clipPath id="clip0_2001_175">
<rect width="100" height="100" fill="white"/>
</clipPath>
</defs>
</svg>
