<svg width="100" height="100" viewBox="0 0 100 100" fill="none" xmlns="http://www.w3.org/2000/svg">
<g clip-path="url(#clip0_1_407)">
<path d="M28.4747 24.3869L38.047 18.8698C38.165 18.8018 38.2684 18.7112 38.3514 18.6032C38.4344 18.4952 38.4953 18.3719 38.5306 18.2404C38.5659 18.1088 38.575 17.9716 38.5572 17.8366C38.5395 17.7015 38.4953 17.5713 38.4273 17.4534C38.1411 16.9576 37.5066 16.786 37.0108 17.0731L27.4386 22.5902C27.3206 22.6582 27.2171 22.7488 27.1341 22.8568C27.0512 22.9648 26.9903 23.0881 26.955 23.2196C26.9196 23.3512 26.9106 23.4884 26.9283 23.6234C26.9461 23.7584 26.9902 23.8887 27.0583 24.0066C27.1958 24.2447 27.4222 24.4185 27.6878 24.4898C27.9534 24.5611 28.2364 24.5241 28.4747 24.3869ZM72.5161 37.096C72.3786 36.8579 72.1523 36.684 71.8867 36.6125C71.6212 36.541 71.3381 36.5778 71.0996 36.7148L67.2835 38.9136C67.0452 39.0509 66.8712 39.2772 66.7997 39.5428C66.7282 39.8085 66.7651 40.0916 66.9023 40.33C67.0397 40.5683 67.266 40.7423 67.5316 40.8138C67.7972 40.8852 68.0803 40.8484 68.3187 40.7112L72.1348 38.5125C72.3731 38.3751 72.5471 38.1488 72.6186 37.8832C72.6901 37.6176 72.6532 37.3345 72.5161 37.096ZM61.527 18.8698L71.0993 24.3869C71.2172 24.4549 71.3475 24.4991 71.4825 24.5168C71.6175 24.5345 71.7547 24.5254 71.8862 24.4901C72.0178 24.4548 72.141 24.3939 72.249 24.311C72.357 24.228 72.4477 24.1246 72.5157 24.0066C72.5837 23.8887 72.6279 23.7584 72.6456 23.6234C72.6633 23.4884 72.6542 23.3512 72.6189 23.2197C72.5836 23.0881 72.5227 22.9648 72.4398 22.8568C72.3568 22.7488 72.2534 22.6582 72.1354 22.5902L62.5631 17.0731C62.4452 17.0049 62.315 16.9606 62.1799 16.9428C62.0449 16.925 61.9076 16.934 61.776 16.9694C61.6445 17.0047 61.5212 17.0656 61.4132 17.1487C61.3052 17.2317 61.2146 17.3353 61.1467 17.4534C61.0786 17.5713 61.0345 17.7015 61.0168 17.8366C60.999 17.9716 61.0081 18.1088 61.0434 18.2404C61.0787 18.3719 61.1396 18.4952 61.2226 18.6032C61.3055 18.7112 61.409 18.8018 61.527 18.8698ZM27.4391 38.5125L31.2553 40.7112C31.4937 40.8483 31.7768 40.8851 32.0423 40.8136C32.3079 40.7421 32.5342 40.5682 32.6717 40.33C32.8088 40.0916 32.8457 39.8085 32.7742 39.5429C32.7027 39.2773 32.5287 39.0509 32.2904 38.9136L28.4743 36.7148C28.2359 36.5777 27.9528 36.5408 27.6872 36.6123C27.4216 36.6838 27.1953 36.8578 27.0579 37.096C26.9208 37.3345 26.8839 37.6176 26.9554 37.8832C27.0269 38.1488 27.2009 38.3751 27.4391 38.5125ZM28.4743 63.8378L32.2904 61.639C32.5288 61.5017 32.7028 61.2754 32.7743 61.0098C32.8458 60.7441 32.8089 60.461 32.6717 60.2226C32.5343 59.9843 32.308 59.8103 32.0424 59.7388C31.7768 59.6674 31.4937 59.7042 31.2553 59.8414L27.4391 62.0401C27.2008 62.1775 27.0268 62.4038 26.9553 62.6694C26.8838 62.935 26.9207 63.2181 27.0579 63.4566C27.1953 63.6948 27.4217 63.8688 27.6872 63.9402C27.9528 64.0117 28.2359 63.9749 28.4743 63.8378ZM71.1103 76.1651L61.5276 81.6822C61.2892 81.8196 61.1152 82.0459 61.0437 82.3115C60.9722 82.5771 61.0091 82.8602 61.1463 83.0987C61.2837 83.3369 61.5101 83.5109 61.7757 83.5823C62.0412 83.6538 62.3243 83.617 62.5628 83.4799L72.1455 77.9628C72.3839 77.8255 72.5579 77.5991 72.6294 77.3335C72.7009 77.0679 72.664 76.7848 72.5268 76.5464C72.3892 76.3083 72.1629 76.1344 71.8974 76.063C71.6318 75.9915 71.3488 76.0282 71.1103 76.1651ZM38.0464 81.6822L28.4636 76.1651C27.9674 75.8811 27.3333 76.0502 27.0472 76.5464C26.9101 76.7848 26.8732 77.0679 26.9447 77.3335C27.0162 77.5991 27.1902 77.8254 27.4284 77.9628L37.0112 83.4799C37.2491 83.6092 37.5281 83.6405 37.7887 83.5669C38.0493 83.4933 38.2708 83.3208 38.4059 83.0862C38.5411 82.8515 38.5791 82.5733 38.5119 82.311C38.4448 82.0487 38.2777 81.823 38.0464 81.6822ZM72.1346 62.0401L68.3185 59.8414C68.0801 59.7041 67.797 59.6671 67.5314 59.7386C67.2657 59.8101 67.0394 59.9842 66.9021 60.2226C66.7648 60.461 66.7279 60.7442 66.7994 61.0098C66.8709 61.2754 67.045 61.5018 67.2833 61.639L71.0994 63.8378C71.3379 63.9748 71.621 64.0117 71.8865 63.9402C72.1521 63.8687 72.3784 63.6948 72.5159 63.4566C72.6531 63.2182 72.6901 62.935 72.6186 62.6694C72.5471 62.4038 72.373 62.1774 72.1346 62.0401ZM34.8405 58.3232C34.8405 58.5053 34.8884 58.6842 34.9795 58.8419C35.0706 58.9996 35.2017 59.1305 35.3594 59.2215L49.2687 67.2396C49.551 67.4024 49.9598 67.4388 50.3049 67.2396L64.2142 59.2215C64.3719 59.1305 64.503 58.9996 64.5941 58.8419C64.6852 58.6842 64.7331 58.5053 64.7331 58.3232V42.2294C64.7331 41.8684 64.4985 41.4949 64.2142 41.3311L50.3049 33.313C50.1474 33.2219 49.9687 33.174 49.7868 33.174C49.6049 33.174 49.4262 33.2219 49.2687 33.313L35.3594 41.3311C35.0513 41.5083 34.8405 41.9012 34.8405 42.2294V58.3232ZM36.9147 44.0271L48.75 50.8495V64.5464L36.9147 57.7241V44.0271ZM50.824 64.5464V50.8495L62.6592 44.0271V57.7241L50.824 64.5464ZM49.7869 35.4083L61.6225 42.2307L49.7869 49.0534L37.9513 42.2307L49.7869 35.4083ZM41.1561 16.4958L49.2689 21.1722C49.4265 21.263 49.6051 21.3109 49.787 21.3109C49.9688 21.3109 50.1475 21.263 50.3051 21.1722L58.4179 16.4958C58.5757 16.4048 58.7068 16.2739 58.7979 16.1163C58.889 15.9586 58.9369 15.7797 58.9369 15.5975V6.21005C58.9369 5.8504 58.7039 5.47655 58.4179 5.3118L50.3051 0.635368C50.1476 0.544292 49.9689 0.496338 49.787 0.496338C49.6051 0.496338 49.4264 0.544292 49.2689 0.635368L41.1561 5.3118C40.8717 5.47538 40.6371 5.85351 40.6371 6.21005V15.5973C40.6371 15.7795 40.685 15.9584 40.7761 16.1161C40.8672 16.2739 40.9983 16.4048 41.1561 16.4958ZM42.7112 8.00694L48.7498 11.4877V18.479L42.7112 14.9984V8.00694ZM50.824 18.479V11.4877L56.8626 8.00694V14.9984L50.824 18.479ZM49.7869 2.73083L55.8249 6.21122L49.7869 9.6916L43.7489 6.21122L49.7869 2.73083ZM24.3285 24.9833L16.2151 20.3068C16.0576 20.2158 15.8789 20.1678 15.697 20.1678C15.5151 20.1678 15.3364 20.2158 15.1789 20.3068L7.06607 24.9833C6.78403 25.1457 6.54712 25.5225 6.54712 25.8815V35.2688C6.54711 35.4509 6.59507 35.6298 6.68617 35.7875C6.77727 35.9452 6.9083 36.0761 7.06607 36.1671L15.1793 40.8435C15.3368 40.9344 15.5155 40.9823 15.6974 40.9823C15.8793 40.9823 16.0579 40.9344 16.2155 40.8435L24.3283 36.1671C24.4861 36.0761 24.6172 35.9452 24.7083 35.7875C24.7994 35.6298 24.8473 35.4509 24.8473 35.2688V25.8815C24.8475 25.5228 24.6145 25.148 24.3285 24.9833ZM15.6971 22.4023L21.7357 25.8827L15.6977 29.3631L9.6591 25.8827L15.6971 22.4023ZM8.62138 27.6784L14.6606 31.1594V38.1507L8.62138 34.6699V27.6784ZM16.7348 38.1507V31.1594L22.7734 27.6786V34.6701L16.7348 38.1507ZM92.5075 24.9833L84.3949 20.3068C84.2374 20.2158 84.0587 20.1678 83.8768 20.1678C83.6949 20.1678 83.5162 20.2158 83.3587 20.3068L75.2455 24.9833C74.9624 25.1463 74.7265 25.5223 74.7265 25.8815V35.2688C74.7265 35.4509 74.7744 35.6298 74.8655 35.7875C74.9566 35.9452 75.0877 36.0761 75.2455 36.1671L83.3587 40.8435C83.5163 40.9343 83.6949 40.9821 83.8768 40.9821C84.0586 40.9821 84.2373 40.9343 84.3949 40.8435L92.5077 36.1671C92.6655 36.0761 92.7965 35.9452 92.8876 35.7875C92.9787 35.6298 93.0267 35.4509 93.0267 35.2688V25.8815C93.0267 25.5261 92.7964 25.1498 92.5075 24.9833ZM83.8769 22.4023L89.9149 25.8827L83.8769 29.3631L77.8383 25.8827L83.8769 22.4023ZM76.8006 27.6784L82.8397 31.1594V38.1507L76.8006 34.6699V27.6784ZM84.9138 38.1507V31.1594L90.9524 27.6786V34.6701L84.9138 38.1507ZM24.3285 64.3663L16.2153 59.6898C16.0578 59.5988 15.8791 59.5508 15.6972 59.5508C15.5153 59.5508 15.3366 59.5988 15.1791 59.6898L7.06627 64.3663C6.75447 64.5456 6.54731 64.9413 6.54731 65.2645V74.6518C6.5473 74.8339 6.59526 75.0128 6.68636 75.1705C6.77746 75.3282 6.9085 75.4591 7.06627 75.5501L15.1795 80.2265C15.337 80.3174 15.5157 80.3653 15.6976 80.3653C15.8795 80.3653 16.0581 80.3174 16.2157 80.2265L24.3285 75.5501C24.4863 75.4591 24.6174 75.3282 24.7085 75.1705C24.7996 75.0128 24.8475 74.8339 24.8475 74.6518V65.2645C24.8475 64.9066 24.6148 64.5312 24.3285 64.3663ZM15.6971 61.7853L21.7357 65.2657L15.6977 68.7461L9.6591 65.2657L15.6971 61.7853ZM8.62138 67.0614L14.6606 70.5424V77.5337L8.62138 74.0529V67.0614ZM16.7348 77.5337V70.5424L22.7734 67.0616V74.0531L16.7348 77.5337ZM92.5075 64.3663L84.3947 59.6898C84.2372 59.5988 84.0585 59.5508 83.8766 59.5508C83.6947 59.5508 83.516 59.5988 83.3585 59.6898L75.2453 64.3663C74.9622 64.5291 74.7263 64.9068 74.7263 65.2645V74.6518C74.7263 74.8339 74.7743 75.0128 74.8654 75.1705C74.9565 75.3282 75.0875 75.4591 75.2453 75.5501L83.3585 80.2265C83.5161 80.3173 83.6947 80.3651 83.8766 80.3651C84.0584 80.3651 84.2371 80.3173 84.3947 80.2265L92.5075 75.5501C92.6653 75.4591 92.7963 75.3282 92.8875 75.1705C92.9786 75.0128 93.0265 74.8339 93.0265 74.6518V65.2645C93.0267 64.9041 92.7917 64.5299 92.5075 64.3663ZM83.8769 61.7853L89.9149 65.2657L83.8769 68.7461L77.8383 65.2657L83.8769 61.7853ZM76.8006 67.0614L82.8397 70.5424V77.5337L76.8006 74.0529V67.0614ZM84.9138 77.5337V70.5424L90.9524 67.0616V74.0531L84.9138 77.5337ZM58.4177 84.0566L50.3049 79.3802C50.1474 79.2891 49.9687 79.2412 49.7868 79.2412C49.6049 79.2412 49.4262 79.2891 49.2687 79.3802L41.1559 84.0566C40.8711 84.2208 40.6369 84.5989 40.6369 84.9549V94.3422C40.6369 94.5243 40.6849 94.7032 40.776 94.8609C40.8671 95.0185 40.9981 95.1495 41.1559 95.2404L49.2687 99.9168C49.6146 100.116 50.016 100.083 50.3049 99.9168L58.4177 95.2404C58.5755 95.1495 58.7066 95.0186 58.7977 94.8609C58.8888 94.7032 58.9367 94.5243 58.9367 94.3422V84.9549C58.9369 84.595 58.7021 84.2202 58.4177 84.0566ZM49.7869 81.4757L55.8249 84.956L49.7869 88.4364L43.7489 84.956L49.7869 81.4757ZM42.7112 86.7518L48.7498 90.2325V97.2238L42.7112 93.7433V86.7518ZM50.824 97.2238V90.2325L56.8626 86.7518V93.7433L50.824 97.2238Z" fill="#57AF7D"/>
</g>
<defs>
<clipPath id="clip0_1_407">
<rect width="100" height="100" fill="white"/>
</clipPath>
</defs>
</svg>
