<svg width="100" height="100" viewBox="0 0 100 100" fill="none" xmlns="http://www.w3.org/2000/svg">
<g clip-path="url(#clip0_1_413)">
<path d="M96.6667 55.3067V35C96.6659 34.3025 96.5169 33.6131 96.2295 32.9776C95.9422 32.342 95.5231 31.7747 95 31.3133V18.3333C95 17.0073 94.4732 15.7355 93.5355 14.7978C92.5978 13.8601 91.3261 13.3333 90 13.3333H78.705C75.7188 9.47401 71.5074 6.74674 66.7641 5.60069C62.0209 4.45465 57.0288 4.95818 52.61 7.02834C50.1547 4.34442 47.0623 2.3229 43.6188 1.1507C40.1753 -0.0214988 36.4918 -0.306533 32.9089 0.321955C29.3261 0.950442 25.9595 2.47216 23.1206 4.7464C20.2816 7.02064 18.0619 9.97398 16.6667 13.3333H10C7.35054 13.3421 4.8121 14.3985 2.93864 16.272C1.06518 18.1454 0.00878767 20.6839 0 23.3333L0 90C0.00264738 92.6514 1.05707 95.1934 2.93186 97.0682C4.80665 98.9429 7.34865 99.9974 10 100H91.6667C92.9927 100 94.2645 99.4732 95.2022 98.5355C96.1399 97.5979 96.6667 96.3261 96.6667 95V74.6933C97.6382 74.3499 98.4798 73.7146 99.0765 72.8745C99.6732 72.0344 99.9957 71.0304 100 70V60C99.9957 58.9696 99.6732 57.9656 99.0765 57.1255C98.4798 56.2854 97.6382 55.6501 96.6667 55.3067ZM91.6667 18.3333V30H83.0483C83.2287 28.8979 83.324 27.7834 83.3333 26.6667C83.339 23.1847 82.5 19.7532 80.8883 16.6667H90C90.442 16.6667 90.866 16.8423 91.1785 17.1548C91.4911 17.4674 91.6667 17.8913 91.6667 18.3333ZM76.5633 15.975C78.0207 17.9719 79.0488 20.2489 79.5829 22.6627C80.117 25.0765 80.1455 27.5747 79.6667 30H43.6667C42.9006 25.9023 43.5553 21.666 45.5227 17.9907C47.49 14.3155 50.6523 11.4214 54.487 9.78655C58.3217 8.15169 62.5993 7.8739 66.6133 8.99909C70.6272 10.1243 74.1372 12.5851 76.5633 15.975ZM36.6667 3.33334C39.0687 3.32995 41.4479 3.79996 43.6682 4.71651C45.8885 5.63307 47.9065 6.97819 49.6067 8.67501C46.1585 10.9488 43.4431 14.1729 41.7888 17.9575C40.1345 21.742 39.6121 25.9249 40.285 30H20.365C18.9264 27.2087 18.2307 24.0941 18.345 20.956C18.4593 17.8179 19.3797 14.7621 21.0175 12.0829C22.6554 9.40366 24.9555 7.1913 27.6964 5.65887C30.4372 4.12643 33.5265 3.32554 36.6667 3.33334ZM3.33333 23.3333C3.34035 21.5674 4.04499 19.8758 5.29371 18.6271C6.54244 17.3783 8.23405 16.6737 10 16.6667H15.605C14.5273 21.1098 14.8958 25.7808 16.6567 30H10.35C8.64249 30.0314 6.98356 29.431 5.69163 28.3141C4.3997 27.1972 3.56581 25.6424 3.35 23.9483C3.3328 23.7494 3.32723 23.5496 3.33333 23.35V23.3333ZM91.6667 96.6667H10C8.23189 96.6667 6.5362 95.9643 5.28595 94.7141C4.03571 93.4638 3.33333 91.7681 3.33333 90V76.6667H14.3167C14.8067 76.6669 15.2907 76.7744 15.7347 76.9817C16.1787 77.189 16.5719 77.4911 16.8867 77.8667L19.5967 81.125C18.6232 82.4572 18.1697 84.0991 18.3215 85.7421C18.4734 87.3851 19.22 88.9162 20.4211 90.0475C21.6222 91.1788 23.1951 91.8325 24.8443 91.8857C26.4934 91.939 28.1053 91.3881 29.3769 90.3367C30.6485 89.2853 31.4923 87.8056 31.7499 86.1758C32.0074 84.5461 31.6608 82.8783 30.7753 81.4861C29.8898 80.0938 28.5264 79.0728 26.9411 78.615C25.3559 78.1572 23.6581 78.2942 22.1667 79L19.4517 75.7367C18.825 74.9833 18.0399 74.3773 17.1524 73.9619C16.2648 73.5465 15.2966 73.3319 14.3167 73.3333H3.33333V66.6667H31.9033C32.309 68.2378 33.2737 69.607 34.6167 70.5177C35.9596 71.4284 37.5886 71.818 39.1983 71.6135C40.808 71.4091 42.2879 70.6246 43.3605 69.4071C44.4332 68.1896 45.025 66.6226 45.025 65C45.025 63.3774 44.4332 61.8105 43.3605 60.593C42.2879 59.3754 40.808 58.5909 39.1983 58.3865C37.5886 58.182 35.9596 58.5717 34.6167 59.4823C33.2737 60.393 32.309 61.7622 31.9033 63.3333H3.33333V56.6667H14.3167C15.2956 56.667 16.2627 56.4522 17.1494 56.0375C18.0362 55.6227 18.821 55.0182 19.4483 54.2667L22.1667 51C23.0496 51.4307 24.0177 51.6585 25 51.6667C26.5081 51.6767 27.9757 51.1785 29.166 50.2525C30.3563 49.3264 31.2001 48.0264 31.5612 46.5621C31.9223 45.0978 31.7797 43.5546 31.1563 42.1813C30.533 40.8079 29.4653 39.6846 28.1255 38.9923C26.7856 38.3 25.2516 38.0792 23.7708 38.3655C22.2901 38.6517 20.9489 39.4284 19.9636 40.5701C18.9782 41.7119 18.4062 43.1522 18.3396 44.6589C18.273 46.1656 18.7159 47.6508 19.5967 48.875L16.8917 52.1283C16.5766 52.5052 16.1828 52.8084 15.7379 53.0166C15.293 53.2248 14.8079 53.3329 14.3167 53.3333H3.33333V30.6667C5.2672 32.3841 7.76363 33.3328 10.35 33.3333H91.6667C92.1087 33.3333 92.5326 33.5089 92.8452 33.8215C93.1577 34.1341 93.3333 34.558 93.3333 35V55H85C82.3478 55 79.8043 56.0536 77.9289 57.9289C76.0536 59.8043 75 62.3478 75 65C75 67.6522 76.0536 70.1957 77.9289 72.0711C79.8043 73.9464 82.3478 75 85 75H93.3333V95C93.3333 95.442 93.1577 95.866 92.8452 96.1785C92.5326 96.4911 92.1087 96.6667 91.6667 96.6667ZM25 81.6667C25.6593 81.6667 26.3037 81.8622 26.8519 82.2284C27.4001 82.5947 27.8273 83.1153 28.0796 83.7244C28.3319 84.3335 28.3979 85.0037 28.2693 85.6503C28.1407 86.2969 27.8232 86.8909 27.357 87.357C26.8908 87.8232 26.2969 88.1407 25.6503 88.2693C25.0037 88.3979 24.3335 88.3319 23.7244 88.0796C23.1153 87.8273 22.5947 87.4001 22.2284 86.8519C21.8622 86.3037 21.6667 85.6593 21.6667 85C21.6667 84.116 22.0179 83.2681 22.643 82.643C23.2681 82.0179 24.1159 81.6667 25 81.6667ZM35 65C35 64.3407 35.1955 63.6963 35.5618 63.1481C35.928 62.5999 36.4486 62.1727 37.0577 61.9204C37.6668 61.6681 38.337 61.6021 38.9836 61.7307C39.6302 61.8593 40.2242 62.1768 40.6904 62.643C41.1565 63.1092 41.474 63.7031 41.6026 64.3497C41.7312 64.9963 41.6652 65.6665 41.4129 66.2756C41.1606 66.8847 40.7334 67.4053 40.1852 67.7716C39.6371 68.1378 38.9926 68.3333 38.3333 68.3333C37.4493 68.3333 36.6014 67.9822 35.9763 67.357C35.3512 66.7319 35 65.8841 35 65ZM21.6667 45C21.6667 44.3407 21.8622 43.6963 22.2284 43.1481C22.5947 42.5999 23.1153 42.1727 23.7244 41.9204C24.3335 41.6681 25.0037 41.6021 25.6503 41.7307C26.2969 41.8593 26.8908 42.1768 27.357 42.643C27.8232 43.1092 28.1407 43.7031 28.2693 44.3497C28.3979 44.9963 28.3319 45.6665 28.0796 46.2756C27.8273 46.8847 27.4001 47.4053 26.8519 47.7716C26.3037 48.1378 25.6593 48.3333 25 48.3333C24.1159 48.3333 23.2681 47.9821 22.643 47.357C22.0179 46.7319 21.6667 45.8841 21.6667 45ZM96.6667 70C96.6667 70.442 96.4911 70.866 96.1785 71.1785C95.866 71.4911 95.442 71.6667 95 71.6667H85C83.2319 71.6667 81.5362 70.9643 80.286 69.7141C79.0357 68.4638 78.3333 66.7681 78.3333 65C78.3333 63.2319 79.0357 61.5362 80.286 60.286C81.5362 59.0357 83.2319 58.3333 85 58.3333H95C95.442 58.3333 95.866 58.5089 96.1785 58.8215C96.4911 59.1341 96.6667 59.558 96.6667 60V70Z" fill="#57AF7D"/>
</g>
<defs>
<clipPath id="clip0_1_413">
<rect width="100" height="100" fill="white"/>
</clipPath>
</defs>
</svg>
