<svg width="24" height="24" viewBox="0 0 24 24" fill="none" xmlns="http://www.w3.org/2000/svg">
<g clip-path="url(#clip0_2001_464)">
<path d="M21 6H3C1.34315 6 0 8.68629 0 12C0 15.3137 1.34315 18 3 18H21C22.6569 18 24 15.3137 24 12C24 8.68629 22.6569 6 21 6Z" fill="white"/>
<path fill-rule="evenodd" clip-rule="evenodd" d="M18 3C18 1.34315 15.3137 0 12 0C8.68629 0 6 1.34315 6 3V21C6 22.6569 8.68629 24 12 24C15.3137 24 18 22.6569 18 21V3ZM8.70009 4.10989C9.31312 4.10989 9.81009 3.61293 9.81009 2.99989C9.81009 2.38686 9.31312 1.88989 8.70009 1.88989C8.08705 1.88989 7.59009 2.38686 7.59009 2.99989C7.59009 3.61293 8.08705 4.10989 8.70009 4.10989ZM16.4099 20.9999C16.4099 21.6129 15.913 22.1099 15.2999 22.1099C14.6869 22.1099 14.1899 21.6129 14.1899 20.9999C14.1899 20.3869 14.6869 19.8899 15.2999 19.8899C15.913 19.8899 16.4099 20.3869 16.4099 20.9999Z" fill="white"/>
<path d="M6 5.69995H12" stroke="black"/>
<path d="M12 18.3H18" stroke="black"/>
<path d="M5.69995 18C5.69995 12 7.19995 12 11.7 12C16.8 12 18.3 12 18.3 6" fill="white"/>
<path d="M5.69995 18C5.69995 12 7.19995 12 11.7 12C16.8 12 18.3 12 18.3 6" stroke="black"/>
</g>
<defs>
<clipPath id="clip0_2001_464">
<rect width="24" height="24" fill="white"/>
</clipPath>
</defs>
</svg>
