<svg width="24" height="24" viewBox="0 0 24 24" fill="none" xmlns="http://www.w3.org/2000/svg">
<g clip-path="url(#clip0_2001_475)">
<path d="M17.1225 18.1377L22.2148 22.6572L12.1951 21.87C14.1581 20.684 15.7776 19.2678 16.9901 18.1403C17.0101 18.1442 17.0313 18.1463 17.0526 18.1463C17.0758 18.1463 17.0992 18.1435 17.1225 18.1377ZM22.7587 20.8384L23.6965 8.555C23.2326 9.74019 22.4985 11.1205 21.547 12.5943L22.7587 20.8384ZM17.4631 17.8587L22.5436 22.3678L21.1873 13.1398C20.0692 14.8041 18.7266 16.5058 17.4631 17.8587ZM11.529 22.2552C10.4347 22.8615 9.30834 23.3443 8.16769 23.6969L19.8764 22.9095L11.5328 22.2541L11.529 22.2552ZM1.75064 16.3384L4.81763 23.5051L7.34189 15.1426L1.75064 16.3384ZM8.08659 14.7183L16.6264 17.4613L14.4473 8.82669L8.08659 14.7183ZM14.9251 7.96911L22.8859 7.43624L16.6618 2.35273L14.9251 7.96911ZM19.4532 0.136906L14.2294 0.113281L16.5517 1.73938L19.4532 0.136906ZM0.224297 13.3012L0.0524063 18.3943L1.30533 16.1092L0.224297 13.3012ZM3.07819 15.3473C4.07119 15.4107 5.07427 15.1906 6.08616 14.7477C6.76777 14.4247 7.47488 14.0159 8.18461 13.5354C9.2025 12.8162 10.2284 11.9167 11.2617 10.8926C14.9785 7.20899 16.5068 3.08942 14.8826 1.44917C14.4951 1.05805 13.9403 0.858125 13.2332 0.855031C11.0929 0.845797 7.89389 2.45698 5.16745 5.16013C2.56186 7.74284 0.87225 10.8084 0.863203 12.9703C0.860016 13.739 1.07269 14.3447 1.49522 14.7707C1.87102 15.1503 2.40497 15.3042 3.07819 15.3473ZM10.833 22.1335C10.9495 22.0732 11.0656 22.0123 11.1802 21.9503L7.74323 15.3188L5.15653 23.8869C5.17819 23.8841 5.35289 23.8631 5.35289 23.8631C5.57864 23.8343 5.80163 23.8013 6.02184 23.7639C7.443 23.5216 8.84911 23.078 10.2009 22.4449C10.4149 22.3449 10.6252 22.2409 10.833 22.1335ZM17.852 16.6637L17.9335 16.5702C17.9904 16.5034 18.0478 16.4354 18.1048 16.3671C18.1048 16.3671 18.2814 16.1569 18.3501 16.0733C18.4656 15.9336 18.5804 15.7911 18.6956 15.6477C18.8014 15.5156 18.907 15.383 19.0124 15.248C19.1229 15.1063 19.2334 14.9645 19.3431 14.8198C19.5914 14.4929 19.8425 14.1502 20.1108 13.7717C20.3947 13.3712 20.669 12.9681 20.9272 12.5724L20.4616 12.2878C19.2255 11.5319 16.7412 10.0093 15.1084 9.00636L17.2212 17.378C17.418 17.1619 17.6258 16.9268 17.852 16.6637ZM23.8235 3.18523L17.2502 2.26231L23.5169 7.38702C23.737 6.66064 23.8804 5.9562 23.9429 5.29175C23.9519 5.19861 23.9576 5.10495 23.9633 5.01059C23.9686 4.92378 23.9716 4.83664 23.974 4.74931C23.989 4.18339 23.9384 3.65769 23.8235 3.18523ZM21.2965 12.1755C21.3126 12.1543 21.3307 12.1304 21.3503 12.1018C21.4755 11.9246 21.6534 11.6348 21.8513 11.2857C22.4019 10.3146 23.0812 8.93005 23.3645 7.91103L15.1889 8.45647C16.8942 9.50441 19.3852 11.031 20.6237 11.7885L21.284 12.1916C21.288 12.1866 21.292 12.1813 21.2965 12.1755ZM11.4968 21.8498L11.5223 21.8354C13.3057 20.8471 14.8996 19.6313 16.6852 17.8939L7.99369 15.0904L11.4968 21.8498ZM0.0234375 19.3099C0.0618281 20.4417 0.302016 21.3762 0.737859 22.0938L1.1437 17.2604L0.0234375 19.3099ZM1.60706 16.941L1.13878 22.5192C1.806 23.392 2.69747 23.7817 4.02291 23.7817C4.15641 23.7817 4.29506 23.7781 4.44375 23.7708L4.20961 23.189C3.70294 21.9303 2.25713 18.3398 1.60706 16.941ZM23.7255 2.84089C23.6291 2.54609 23.5061 2.27389 23.3594 2.02967C22.7672 1.04459 21.7444 0.414313 20.3185 0.155797L17.1329 1.91506L23.7255 2.84089Z" fill="white"/>
</g>
<defs>
<clipPath id="clip0_2001_475">
<rect width="24" height="24" fill="white"/>
</clipPath>
</defs>
</svg>
