<svg width="24" height="24" viewBox="0 0 24 24" fill="none" xmlns="http://www.w3.org/2000/svg">
<path d="M11.8812 4.44687C10.7722 5.22683 9.51531 6.11089 8.8419 7.57347C7.67219 10.125 11.2354 12.9084 11.3877 13.0256C11.4231 13.0529 11.4654 13.0665 11.5077 13.0665C11.5525 13.0665 11.5975 13.0511 11.634 13.0206C11.7047 12.9614 11.7248 12.8609 11.6823 12.7791C11.6694 12.7542 10.3904 10.2699 10.4379 8.48751C10.4548 7.86682 11.3235 7.16264 12.2432 6.41707C13.0856 5.73421 14.0404 4.96023 14.599 4.05485C15.8255 2.06191 14.4624 0.102255 14.4484 0.08274C14.3943 0.00672717 14.2944 -0.0208924 14.2089 0.0166419C14.1235 0.0542549 14.0762 0.146635 14.0958 0.237835C14.0985 0.25074 14.3636 1.54666 13.626 2.88176C13.322 3.43344 12.6543 3.90313 11.8812 4.44687Z" fill="white"/>
<path d="M16.5533 5.32581C16.6315 5.26687 16.6545 5.15939 16.6071 5.07362C16.5597 4.98785 16.4566 4.95 16.365 4.98478C16.1766 5.05638 11.7517 6.76195 11.7517 8.82288C11.7517 10.2434 12.3586 10.994 12.8016 11.542C12.9755 11.7569 13.1255 11.9426 13.1749 12.101C13.3141 12.5577 12.9844 13.3832 12.8457 13.6627C12.8057 13.7431 12.8253 13.8404 12.8933 13.8991C12.9301 13.9308 12.9759 13.9469 13.0219 13.9469C13.061 13.9469 13.1003 13.9353 13.1342 13.9116C13.2103 13.8587 14.9936 12.5979 14.6737 11.0788C14.5546 10.5015 14.2708 10.0795 14.0204 9.70725C13.6326 9.13055 13.3525 8.71389 13.7775 7.9444C14.2756 7.04704 16.5305 5.34289 16.5533 5.32581Z" fill="white"/>
<path d="M5.03527 13.9795C4.95941 14.2065 4.99521 14.432 5.13874 14.6313C5.61842 15.2972 7.31746 15.6639 9.92314 15.6639C9.9233 15.6639 9.92346 15.6639 9.92346 15.6639C10.2765 15.6639 10.6493 15.657 11.0311 15.6433C15.1971 15.4941 16.7423 14.1963 16.806 14.1411C16.8755 14.081 16.8941 13.9809 16.8509 13.8998C16.8077 13.8188 16.7145 13.7782 16.6255 13.8026C15.1584 14.2032 12.4186 14.3454 10.5183 14.3454C8.39187 14.3454 7.30896 14.1923 7.04386 14.0792C7.17991 13.8924 8.01897 13.5589 9.05867 13.3543C9.15806 13.3348 9.22636 13.2431 9.21652 13.1423C9.20669 13.0415 9.12202 12.9646 9.02075 12.9646C8.41123 12.9647 5.35474 13.0136 5.03527 13.9795Z" fill="white"/>
<path d="M18.9755 12.6431C18.1162 12.6431 17.3014 13.0736 17.2671 13.092C17.1876 13.1346 17.1474 13.2257 17.1692 13.3132C17.191 13.4006 17.2696 13.4621 17.3598 13.4621C17.3781 13.4622 19.1927 13.477 19.3571 14.5138C19.5027 15.4083 17.6401 16.8575 16.9101 17.3405C16.8313 17.3927 16.8007 17.4936 16.8372 17.5807C16.8683 17.6549 16.9406 17.7013 17.0185 17.7013C17.0322 17.7013 17.0459 17.6999 17.0596 17.6969C17.2329 17.6599 21.2974 16.7643 20.8677 14.3977C20.6055 12.9474 19.6939 12.6431 18.9755 12.6431Z" fill="white"/>
<path d="M16.1881 17.0509C16.2023 16.975 16.1707 16.8979 16.1076 16.8537L15.1331 16.171C15.0855 16.1378 15.0255 16.1273 14.9697 16.1421C14.9596 16.1448 13.9404 16.4126 12.4607 16.5769C11.8735 16.6428 11.2157 16.6776 10.5585 16.6776C9.0792 16.6776 8.11196 16.5037 7.97111 16.3763C7.95246 16.3405 7.95836 16.3242 7.96166 16.3151C7.98724 16.2439 8.12439 16.1593 8.21284 16.1259C8.31049 16.0898 8.36313 15.9837 8.33276 15.8841C8.30246 15.7844 8.19978 15.7257 8.09842 15.7501C7.1208 15.986 6.64277 16.316 6.67755 16.7307C6.73932 17.4659 8.44237 17.8432 9.88213 17.9431C10.0892 17.9573 10.3131 17.9645 10.5475 17.9645C10.5477 17.9645 10.5478 17.9645 10.5479 17.9645C12.942 17.9645 16.0112 17.2133 16.0418 17.2057C16.1168 17.1872 16.1739 17.1267 16.1881 17.0509Z" fill="white"/>
<path d="M8.84061 18.629C8.91441 18.5809 8.94715 18.4897 8.92095 18.4057C8.89482 18.3217 8.81621 18.2665 8.72792 18.2676C8.59691 18.2711 7.44593 18.323 7.36536 19.0558C7.34096 19.2748 7.40368 19.4748 7.55185 19.6504C7.96512 20.1401 9.0806 20.4312 10.9616 20.5403C11.1841 20.5536 11.4101 20.5603 11.6335 20.5603C14.0248 20.5603 15.6353 19.8116 15.7028 19.7797C15.7682 19.7488 15.8113 19.6846 15.8151 19.6124C15.819 19.5402 15.783 19.4717 15.7213 19.434L14.4896 18.6821C14.4469 18.6561 14.3958 18.6474 14.347 18.6574C14.3392 18.6591 13.5572 18.8212 12.377 18.9815C12.1537 19.0118 11.874 19.0273 11.5459 19.0273C10.367 19.0273 9.05574 18.8346 8.80425 18.7086C8.80063 18.6849 8.80527 18.655 8.84061 18.629Z" fill="white"/>
<path d="M10.5191 22.8211C15.9966 22.8164 18.9364 21.8424 19.5028 21.2294C19.7033 21.0124 19.7249 20.8071 19.7078 20.6731C19.6657 20.343 19.3652 20.141 19.3311 20.1191C19.2488 20.0662 19.1385 20.0801 19.0744 20.154C19.0104 20.2281 19.0089 20.3361 19.0731 20.41C19.1077 20.4545 19.1277 20.5288 19.0266 20.6299C18.8002 20.8414 16.5167 21.4832 12.7146 21.676C12.1938 21.7032 11.6476 21.7169 11.0911 21.7169C7.68686 21.7169 5.19551 21.2507 4.86848 20.9789C4.99462 20.7979 5.87577 20.5084 6.81295 20.3448C6.91855 20.3264 6.98992 20.2269 6.97355 20.121C6.95718 20.0151 6.85953 19.9421 6.75283 19.956C6.72639 19.9596 6.63677 19.9651 6.53282 19.9714C4.98651 20.0658 3.19958 20.2763 3.10634 21.073C3.07801 21.3158 3.15017 21.5361 3.32084 21.728C3.73844 22.1972 4.93883 22.821 10.5188 22.821C10.519 22.8211 10.5191 22.8211 10.5191 22.8211Z" fill="white"/>
<path d="M20.5787 21.402C20.5013 21.3662 20.4099 21.3843 20.352 21.4466C20.3439 21.4553 19.5204 22.3164 17.0444 22.8221C16.0964 23.012 14.317 23.1084 11.7556 23.1084C9.18946 23.1084 6.74768 23.0074 6.72329 23.0064C6.62131 23.0014 6.53404 23.0755 6.52019 23.1759C6.50627 23.2764 6.57095 23.3709 6.66947 23.3943C6.69488 23.4004 9.2539 23.9999 12.7529 23.9999C14.431 23.9999 16.0641 23.8635 17.6067 23.5946C20.483 23.0903 20.6843 21.6641 20.6915 21.6037C20.7015 21.5192 20.656 21.4378 20.5787 21.402Z" fill="white"/>
</svg>
