<svg width="24" height="24" viewBox="0 0 24 24" fill="none" xmlns="http://www.w3.org/2000/svg">
<path d="M2.65326 10.4784C2.6106 10.4784 2.59993 10.4571 2.62126 10.4251L2.84526 10.1371C2.8666 10.1051 2.91993 10.0837 2.9626 10.0837H6.7706C6.81326 10.0837 6.82393 10.1157 6.8026 10.1477L6.62126 10.4251C6.59993 10.4571 6.5466 10.4891 6.5146 10.4891L2.65326 10.4784Z" fill="white"/>
<path d="M1.04254 11.4596C0.999878 11.4596 0.989211 11.4383 1.01054 11.4063L1.23454 11.1183C1.25588 11.0863 1.30921 11.0649 1.35188 11.0649H6.21588C6.25854 11.0649 6.27988 11.0969 6.26921 11.1289L6.18388 11.3849C6.17321 11.4276 6.13054 11.4489 6.08788 11.4489L1.04254 11.4596Z" fill="white"/>
<path d="M3.62384 12.4411C3.58118 12.4411 3.57051 12.4091 3.59184 12.3771L3.74118 12.1104C3.76251 12.0784 3.80518 12.0464 3.84784 12.0464H5.98118C6.02384 12.0464 6.04518 12.0784 6.04518 12.1211L6.02384 12.3771C6.02384 12.4197 5.98118 12.4517 5.94918 12.4517L3.62384 12.4411Z" fill="white"/>
<path d="M14.6959 10.2863C14.0239 10.457 13.5652 10.585 12.9039 10.7557C12.7439 10.7983 12.7332 10.809 12.5946 10.649C12.4346 10.4677 12.3172 10.3503 12.0932 10.2437C11.4212 9.913 10.7706 10.009 10.1626 10.4037C9.43723 10.873 9.06389 11.5663 9.07456 12.4303C9.08523 13.2837 9.67189 13.9877 10.5146 14.105C11.2399 14.201 11.8479 13.945 12.3279 13.401C12.4239 13.2837 12.5092 13.1557 12.6159 13.0063C12.2319 13.0063 11.7519 13.0063 10.5572 13.0063C10.3332 13.0063 10.2799 12.8677 10.3546 12.6863C10.4932 12.3557 10.7492 11.801 10.8986 11.5237C10.9306 11.4597 11.0052 11.353 11.1652 11.353C11.7092 11.353 13.7146 11.353 15.0479 11.353C15.0266 11.641 15.0266 11.929 14.9839 12.217C14.8666 12.985 14.5786 13.689 14.1092 14.3077C13.3412 15.321 12.3386 15.9503 11.0692 16.121C10.0239 16.2597 9.05323 16.057 8.19989 15.417C7.41056 14.8197 6.96256 14.0303 6.84523 13.049C6.70656 11.8863 7.04789 10.841 7.75189 9.92366C8.50923 8.93166 9.51189 8.30233 10.7386 8.07833C11.7412 7.89699 12.7012 8.01433 13.5652 8.60099C14.1306 8.97433 14.5359 9.48633 14.8026 10.105C14.8666 10.201 14.8239 10.2543 14.6959 10.2863Z" fill="white"/>
<path d="M18.2266 16.1851C17.2559 16.1638 16.3706 15.8864 15.6239 15.2464C14.9946 14.7024 14.5999 14.0091 14.4719 13.1878C14.2799 11.9824 14.6106 10.9158 15.3359 9.96643C16.1146 8.94243 17.0533 8.4091 18.3226 8.1851C19.4106 7.9931 20.4346 8.09977 21.3626 8.7291C22.2053 9.3051 22.7279 10.0838 22.8666 11.1078C23.0479 12.5478 22.6319 13.7211 21.6399 14.7238C20.9359 15.4384 20.0719 15.8864 19.0799 16.0891C18.7919 16.1424 18.5039 16.1531 18.2266 16.1851ZM20.7653 11.8758C20.7546 11.7371 20.7546 11.6304 20.7333 11.5238C20.5413 10.4678 19.5706 9.87043 18.5573 10.1051C17.5653 10.3291 16.9253 10.9584 16.6906 11.9611C16.4986 12.7931 16.9039 13.6358 17.6719 13.9771C18.2586 14.2331 18.8453 14.2011 19.4106 13.9131C20.2533 13.4758 20.7119 12.7931 20.7653 11.8758Z" fill="white"/>
</svg>
