<svg width="100" height="100" viewBox="0 0 100 100" fill="none" xmlns="http://www.w3.org/2000/svg">
<path d="M10.3691 5.9978C10.175 5.9978 9.98272 6.03612 9.80334 6.11057C9.62396 6.18502 9.46097 6.29414 9.32367 6.4317C9.18638 6.56926 9.07747 6.73257 9.00317 6.9123C8.92887 7.09203 8.89062 7.28467 8.89062 7.47921C8.89062 8.29722 9.55274 8.96082 10.3691 8.96082H10.4088C10.8009 8.96082 11.177 8.80474 11.4543 8.52692C11.7315 8.2491 11.8873 7.8723 11.8873 7.47941C11.8874 7.28484 11.8492 7.09217 11.7749 6.91241C11.7006 6.73264 11.5917 6.5693 11.4544 6.43172C11.3171 6.29414 11.1541 6.18503 10.9747 6.11061C10.7953 6.03619 10.603 5.99792 10.4088 5.998L10.3691 5.9978ZM16.6231 5.9978C16.4289 5.9978 16.2366 6.03612 16.0573 6.11057C15.8779 6.18502 15.7149 6.29414 15.5776 6.4317C15.4403 6.56926 15.3314 6.73257 15.2571 6.9123C15.1828 7.09203 15.1445 7.28467 15.1445 7.47921C15.1445 8.29722 15.8067 8.96082 16.6231 8.96082H16.6572C17.0494 8.96082 17.4254 8.80474 17.7027 8.52692C17.98 8.2491 18.1358 7.8723 18.1358 7.47941C18.1358 7.28484 18.0976 7.09217 18.0234 6.91241C17.9491 6.73264 17.8402 6.5693 17.7029 6.43172C17.5656 6.29414 17.4026 6.18503 17.2231 6.11061C17.0437 6.03619 16.8514 5.99792 16.6572 5.998L16.6231 5.9978ZM22.8721 6.02618C22.48 6.02618 22.1039 6.18225 21.8266 6.46007C21.5494 6.73789 21.3936 7.11469 21.3936 7.50759C21.3936 7.90048 21.5494 8.27728 21.8266 8.5551C22.1039 8.83292 22.48 8.989 22.8721 8.989H22.9119C23.3041 8.989 23.6801 8.83292 23.9574 8.5551C24.2347 8.27728 24.3905 7.90048 24.3905 7.50759C24.3905 7.11469 24.2347 6.73789 23.9574 6.46007C23.6801 6.18225 23.3041 6.02618 22.9119 6.02618H22.8721ZM23.1575 33.2246C23.4742 33.2243 23.7825 33.1222 24.037 32.9333C24.2915 32.7444 24.4788 32.4786 24.5713 32.1751L27.9268 21.1589C28.1655 20.3761 27.7252 19.5483 26.944 19.3095C26.1627 19.0708 25.3366 19.5115 25.0983 20.2943L21.743 31.3099C21.6754 31.5315 21.6606 31.7658 21.6998 31.9941C21.739 32.2224 21.831 32.4383 21.9686 32.6245C22.1061 32.8107 22.2853 32.9619 22.4918 33.0662C22.6983 33.1704 22.9263 33.2247 23.1575 33.2246ZM29.1252 31.7945C29.4015 32.0692 29.7751 32.223 30.1643 32.2225C30.5459 32.2225 30.9274 32.0757 31.2165 31.7829L34.4247 28.5311C35.4584 27.4816 35.4592 25.7722 34.4231 24.7211L31.2165 21.4706C31.0799 21.3322 30.9176 21.2221 30.7386 21.1466C30.5596 21.0711 30.3675 21.0316 30.1734 21.0305C29.9792 21.0294 29.7866 21.0666 29.6068 21.14C29.427 21.2134 29.2633 21.3217 29.1252 21.4585C28.987 21.5952 28.8771 21.7579 28.8017 21.9372C28.7263 22.1165 28.6869 22.309 28.6857 22.5036C28.6846 22.6982 28.7218 22.8911 28.7951 23.0713C28.8685 23.2515 28.9765 23.4154 29.1131 23.5538L32.145 26.627L29.1131 29.7C28.9765 29.8382 28.8684 30.0021 28.7951 30.1822C28.7218 30.3623 28.6846 30.5552 28.6857 30.7497C28.6869 30.9443 28.7262 31.1367 28.8017 31.3159C28.8771 31.4952 28.987 31.6578 29.1252 31.7945ZM19.9981 21.5281C19.7194 21.2518 19.3426 21.0976 18.9505 21.0994C18.5585 21.1012 18.1831 21.259 17.907 21.5379L14.692 24.7908C13.6582 25.8411 13.6582 27.5502 14.6949 28.6029L17.9078 31.8479C18.0451 31.9869 18.2086 32.0972 18.3888 32.1724C18.569 32.2476 18.7623 32.2862 18.9574 32.2859C19.2494 32.2859 19.5348 32.1994 19.7778 32.0371C20.0207 31.8749 20.2103 31.6442 20.3225 31.3742C20.4348 31.1041 20.4648 30.8068 20.4087 30.5197C20.3526 30.2327 20.2129 29.9687 20.0072 29.761L16.9717 26.6956L20.008 23.6232C20.2838 23.344 20.4377 22.9665 20.4359 22.5737C20.4341 22.1808 20.2765 21.8048 19.9981 21.5281ZM15.5152 38.0262C15.5152 38.8442 16.1774 39.5076 16.9938 39.5076H66.3263C67.1427 39.5076 67.8048 38.8442 67.8048 38.0262C67.8048 37.6333 67.649 37.2565 67.3718 36.9787C67.0945 36.7008 66.7184 36.5448 66.3263 36.5448H16.9945C16.8003 36.5446 16.6079 36.5829 16.4284 36.6573C16.2489 36.7316 16.0858 36.8407 15.9484 36.9783C15.811 37.1159 15.7021 37.2792 15.6277 37.459C15.5533 37.6388 15.5151 37.8316 15.5151 38.0262H15.5152ZM16.9945 49.3726H66.9708C67.363 49.3726 67.739 49.2165 68.0163 48.9387C68.2936 48.6608 68.4493 48.284 68.4493 47.8912C68.4493 47.0731 67.7872 46.4097 66.9708 46.4097H16.9942C16.8 46.4097 16.6077 46.4481 16.4284 46.5225C16.249 46.597 16.086 46.7061 15.9487 46.8436C15.8114 46.9812 15.7025 47.1445 15.6282 47.3242C15.5539 47.504 15.5156 47.6966 15.5156 47.8912C15.5155 48.0857 15.5536 48.2784 15.6279 48.4582C15.7021 48.638 15.811 48.8014 15.9483 48.939C16.0857 49.0766 16.2487 49.1857 16.4282 49.2601C16.6076 49.3345 16.8 49.3727 16.9942 49.3726H16.9945ZM65.6868 29.6418C66.5032 29.6418 67.1653 28.9784 67.1653 28.1604C67.1653 27.7675 67.0096 27.3907 66.7323 27.1129C66.455 26.8351 66.079 26.679 65.6868 26.679H43.0612C42.867 26.6789 42.6747 26.7172 42.4953 26.7916C42.3159 26.866 42.1529 26.9752 42.0156 27.1127C41.8782 27.2503 41.7693 27.4137 41.6951 27.5934C41.6208 27.7732 41.5826 27.9659 41.5827 28.1604C41.5827 28.9784 42.2448 29.6418 43.0612 29.6418H65.6868Z" fill="#57AF7D"/>
<path d="M96.2732 61.0936H95.6758C95.5932 60.8693 95.5052 60.647 95.4119 60.4269L95.8209 60.0149C96.5273 59.3108 96.9156 58.3721 96.9156 57.3707C96.9156 56.3693 96.5273 55.4298 95.8238 54.7296L93.3855 52.2842C92.6828 51.5756 91.7459 51.185 90.7465 51.185C89.7471 51.185 88.8094 51.5756 88.1113 52.2803L87.8328 52.5593C87.5698 52.4368 87.3037 52.3211 87.0347 52.2124V51.8339C87.0347 49.7707 85.3633 48.092 83.3078 48.092H83.1379V5.06444C83.1377 2.32549 80.915 0.0979004 78.1837 0.0979004H4.95372C2.22266 0.0979004 0 2.32549 0 5.06444V61.1501C0 63.8891 2.22247 66.1165 4.95372 66.1165H29.2854C29.6777 66.1166 30.0539 65.9606 30.3313 65.6828C30.6088 65.405 30.7648 65.0281 30.7649 64.6351C30.7649 63.8171 30.1026 63.1537 29.2854 63.1537H4.95372C3.85294 63.1537 2.95723 62.2546 2.95723 61.1501V15.6388H32.9378C33.7548 15.6388 34.4163 14.9754 34.4163 14.1574C34.4163 13.3394 33.7542 12.676 32.9378 12.676H2.95704V5.06424C2.95704 3.95954 3.85274 3.06072 4.95353 3.06072H78.1837C79.2847 3.06072 80.1802 3.95954 80.1802 5.06424V12.6756H41.5657C40.7493 12.6756 40.0872 13.3392 40.0872 14.157C40.0872 14.3516 40.1254 14.5442 40.1997 14.724C40.274 14.9037 40.3829 15.0671 40.5202 15.2046C40.6575 15.3422 40.8205 15.4514 40.9999 15.5258C41.1793 15.6003 41.3715 15.6386 41.5657 15.6386H80.1804V48.092H79.8554C77.8007 48.092 76.1285 49.7707 76.1285 51.8339V52.2124C75.8597 52.3209 75.5938 52.4366 75.3312 52.5593L75.0558 52.2842C74.3539 51.5756 73.4171 51.185 72.4167 51.185C71.4189 51.185 70.4812 51.574 69.7747 52.2819L67.3431 54.7265C66.6376 55.4298 66.2484 56.3693 66.2484 57.3707C66.2484 58.3721 66.6368 59.3116 67.3372 60.0087L67.7523 60.4269C67.6587 60.6469 67.5704 60.8691 67.4874 61.0934H66.8908C65.4376 61.0934 64.1786 61.9343 63.5646 63.1537H36.3333C35.9411 63.1537 35.5651 63.3097 35.2878 63.5876C35.0105 63.8654 34.8548 64.2422 34.8548 64.6351C34.8548 65.028 35.0105 65.4048 35.2878 65.6826C35.5651 65.9604 35.9411 66.1165 36.3333 66.1165H63.1636V68.2914C63.1636 70.3554 64.8361 72.0341 66.8906 72.0341H67.6245C67.6988 72.2214 67.7773 72.4063 67.8589 72.5899L67.3431 73.1065C66.638 73.8091 66.2497 74.7464 66.2474 75.7455C66.246 76.7484 66.6335 77.6901 67.3384 78.3963L69.7792 80.8503C70.4833 81.5513 71.4203 81.938 72.4166 81.938C73.4146 81.938 74.3507 81.5505 75.0527 80.8464L75.5744 80.3235C75.7584 80.4053 75.9429 80.4834 76.1283 80.5574V81.2936C76.1283 83.3531 77.8007 85.0294 79.8552 85.0294H83.3076C85.3631 85.0294 87.0345 83.3537 87.0345 81.2936V80.5574C87.2201 80.4834 87.4054 80.4053 87.5885 80.3235L88.1111 80.8464C88.8123 81.5505 89.7484 81.938 90.7463 81.938C91.7441 81.938 92.6797 81.5505 93.3814 80.8464L95.8236 78.3979C96.5293 77.6901 96.917 76.7482 96.9154 75.7455C96.9139 74.7462 96.5248 73.8091 95.8236 73.1104L95.3049 72.5899C95.3865 72.4063 95.4643 72.2214 95.5393 72.0341H96.273C98.3277 72.0341 100 70.3554 100 68.2914V64.8298C100 62.7689 98.3283 61.0932 96.273 61.0932L96.2732 61.0936ZM97.0422 68.2912C97.0422 68.7139 96.6906 69.0703 96.2732 69.0703H94.4986C93.8541 69.0703 93.2832 69.4891 93.0887 70.1046C92.8622 70.8228 92.5685 71.518 92.2113 72.1809C92.0593 72.4615 92.0019 72.7838 92.0477 73.0998C92.0934 73.4158 92.2399 73.7085 92.4652 73.9343L93.7357 75.2073C93.9287 75.4006 93.9584 75.6308 93.9584 75.7507C93.9584 75.8723 93.9295 76.1053 93.7318 76.3034L91.2896 78.7527C91.0967 78.946 90.867 78.9744 90.7467 78.9744C90.6267 78.9744 90.3963 78.946 90.2041 78.7527L88.9367 77.4822C88.7128 77.2577 88.4229 77.111 88.1096 77.064C87.7963 77.0169 87.4762 77.0719 87.1965 77.2208C86.5299 77.5772 85.8322 77.8717 85.1121 78.1006C84.8122 78.1953 84.5502 78.3833 84.3643 78.6374C84.1783 78.8914 84.0782 79.1983 84.0783 79.5134V81.2928C84.0783 81.7194 83.7326 82.0664 83.3088 82.0664H79.8556C79.4312 82.0664 79.0865 81.7194 79.0865 81.2928V79.5132C79.0864 79.1981 78.9861 78.8912 78.8 78.6372C78.614 78.3831 78.3519 78.1952 78.0519 78.1006C77.3317 77.8718 76.634 77.5773 75.9675 77.2208C75.6878 77.0719 75.3677 77.0169 75.0544 77.064C74.7411 77.111 74.4512 77.2577 74.2273 77.4822L72.9609 78.7527C72.7677 78.946 72.5375 78.9744 72.4167 78.9744C72.2957 78.9744 72.0628 78.9453 71.8699 78.7533L69.4324 76.3034C69.3601 76.2308 69.3029 76.1446 69.2639 76.0497C69.225 75.9549 69.2052 75.8533 69.2056 75.7507C69.2056 75.6308 69.2353 75.4004 69.4322 75.2042L70.6988 73.9337C70.9238 73.7079 71.0701 73.4153 71.1159 73.0995C71.1616 72.7837 71.1044 72.4615 70.9527 72.1809C70.5956 71.518 70.3018 70.8228 70.0753 70.1046C69.9804 69.8045 69.7925 69.5425 69.539 69.3566C69.2855 69.1706 68.9795 69.0704 68.6654 69.0703H66.8908C66.4736 69.0703 66.1212 68.7141 66.1212 68.2914V64.8298C66.1212 64.4102 66.4736 64.0562 66.8908 64.0562H68.5572C68.8782 64.0562 69.1906 63.9515 69.447 63.7579C69.7034 63.5643 69.89 63.2923 69.9785 62.983C70.1972 62.2242 70.4877 61.488 70.8458 60.7844C70.9866 60.5065 71.0362 60.1912 70.9878 59.8834C70.9393 59.5756 70.7952 59.2909 70.5759 59.0699L69.4285 57.9139C69.3573 57.8426 69.3009 57.7579 69.2625 57.6646C69.2241 57.5713 69.2045 57.4714 69.2048 57.3705C69.2048 57.2505 69.2339 57.0204 69.433 56.8226L71.8683 54.3746C71.9403 54.3025 72.0258 54.2454 72.12 54.2066C72.2141 54.1678 72.315 54.148 72.4167 54.1484C72.5359 54.1484 72.7648 54.1775 72.9609 54.3746L73.9984 55.4157C74.2258 55.6437 74.5212 55.7913 74.8398 55.836C75.1584 55.8807 75.4829 55.8201 75.764 55.6635C76.5062 55.25 77.2767 54.9136 78.0564 54.6652C78.3553 54.5697 78.6162 54.3815 78.8014 54.1277C78.9866 53.8739 79.0864 53.5677 79.0865 53.2533V51.8345C79.0865 51.4118 79.438 51.0556 79.8554 51.0556H83.3078C83.7252 51.0556 84.0777 51.4118 84.0777 51.8345V53.2533C84.0776 53.5676 84.1773 53.8738 84.3623 54.1276C84.5474 54.3814 84.8081 54.5697 85.107 54.6652C85.9021 54.9209 86.6697 55.2553 87.3986 55.6635C87.6797 55.8203 88.0041 55.8811 88.3227 55.8365C88.6413 55.792 88.9368 55.6446 89.1642 55.4167L90.2062 54.3717C90.2769 54.3005 90.361 54.2442 90.4536 54.2059C90.5462 54.1676 90.6455 54.1481 90.7457 54.1486C90.8654 54.1486 91.0935 54.1775 91.2889 54.3756L93.735 56.8271C93.8059 56.8985 93.8621 56.9833 93.9003 57.0765C93.9385 57.1698 93.958 57.2697 93.9576 57.3705C93.9576 57.4905 93.9287 57.7208 93.7289 57.9202L92.5875 59.0707C92.3684 59.2916 92.2243 59.5761 92.1759 59.8838C92.1274 60.1914 92.1769 60.5066 92.3174 60.7844C92.6812 61.5046 92.9736 62.2445 93.1848 62.983C93.273 63.2925 93.4595 63.5647 93.716 63.7585C93.9725 63.9523 94.285 64.0571 94.6062 64.057H96.2725C96.6898 64.057 97.0416 64.411 97.0416 64.83V68.2912H97.0422Z" fill="#57AF7D"/>
<path d="M87.0386 60.7471C85.5554 59.3483 83.6183 58.5776 81.5835 58.5776C79.3954 58.5776 77.2814 59.4935 75.7822 61.0911C72.7745 64.2964 72.9294 69.3585 76.1263 72.3749C77.6005 73.7703 79.5524 74.5465 81.5804 74.5436C83.7687 74.5436 85.8828 73.6277 87.3812 72.0301C90.3894 68.8248 90.2353 63.7628 87.0386 60.7471ZM85.2265 70.0005C84.2707 71.0195 82.9759 71.5806 81.5804 71.5806C80.306 71.5821 79.0796 71.0941 78.1535 70.217C76.1431 68.3203 76.046 65.1365 77.9374 63.1207C78.8935 62.1017 80.1882 61.5406 81.5835 61.5406C82.8578 61.5392 84.0843 62.0269 85.0107 62.9037C87.0218 64.8009 87.1187 67.9847 85.2265 70.0005Z" fill="#57AF7D"/>
</svg>
