<svg width="24" height="24" viewBox="0 0 24 24" fill="none" xmlns="http://www.w3.org/2000/svg">
<path d="M21.9221 16.278C21.9221 16.278 25.3435 8.54111 14.7927 1.50024C14.7927 1.50024 19.1126 6.83564 16.8897 12.7965C16.8897 12.7965 9.13782 7.40263 5.2379 3.5342C5.2379 3.5342 10.1113 10.4146 11.8603 11.8185C11.8603 11.8185 8.95183 10.3411 2.21246 4.71468C2.21246 4.71468 9.94331 14.613 13.5882 16.6799C13.5882 16.6799 8.07284 20.3789 0 15.159C0 15.159 4.24642 22.4998 13.2042 22.4998C17.2317 22.4998 18.4121 20.4704 20.4071 20.4704C22.4711 20.4704 23.7145 22.4998 23.7145 22.4998C24.919 19.5944 21.9221 16.278 21.9221 16.278Z" fill="white"/>
</svg>
