<svg width="123" height="40" viewBox="0 0 123 40" fill="none" xmlns="http://www.w3.org/2000/svg">
<rect x="0.5" y="0.5" width="122" height="39" rx="9.5" stroke="#57AF7D"/>
<path d="M33 26H25C24.4 26 24 25.6 24 25C24 24.4 24.4 24 25 24H33C33.6 24 34 24.4 34 25C34 25.6 33.6 26 33 26ZM39 21H25C24.4 21 24 20.6 24 20C24 19.4 24.4 19 25 19H39C39.6 19 40 19.4 40 20C40 20.6 39.6 21 39 21ZM39 16H31C30.4 16 30 15.6 30 15C30 14.4 30.4 14 31 14H39C39.6 14 40 14.4 40 15C40 15.6 39.6 16 39 16Z" fill="white"/>
<path d="M55.98 26.5C55.86 26.5 55.758 26.464 55.674 26.392C55.602 26.308 55.566 26.206 55.566 26.086V14.332C55.566 14.2 55.602 14.098 55.674 14.026C55.758 13.942 55.86 13.9 55.98 13.9H56.88C57.024 13.9 57.132 13.936 57.204 14.008C57.276 14.08 57.318 14.14 57.33 14.188L61.146 21.46L64.98 14.188C65.004 14.14 65.046 14.08 65.106 14.008C65.178 13.936 65.286 13.9 65.43 13.9H66.312C66.444 13.9 66.546 13.942 66.618 14.026C66.702 14.098 66.744 14.2 66.744 14.332V26.086C66.744 26.206 66.702 26.308 66.618 26.392C66.546 26.464 66.444 26.5 66.312 26.5H65.43C65.31 26.5 65.208 26.464 65.124 26.392C65.052 26.308 65.016 26.206 65.016 26.086V17.23L62.01 23.098C61.962 23.218 61.89 23.314 61.794 23.386C61.698 23.446 61.578 23.476 61.434 23.476H60.876C60.72 23.476 60.594 23.446 60.498 23.386C60.414 23.314 60.342 23.218 60.282 23.098L57.276 17.23V26.086C57.276 26.206 57.234 26.308 57.15 26.392C57.078 26.464 56.982 26.5 56.862 26.5H55.98ZM72.809 26.68C71.573 26.68 70.589 26.302 69.857 25.546C69.125 24.778 68.723 23.734 68.651 22.414C68.639 22.258 68.633 22.06 68.633 21.82C68.633 21.568 68.639 21.364 68.651 21.208C68.699 20.356 68.897 19.612 69.245 18.976C69.593 18.328 70.067 17.83 70.667 17.482C71.279 17.134 71.993 16.96 72.809 16.96C73.721 16.96 74.483 17.152 75.095 17.536C75.719 17.92 76.193 18.466 76.517 19.174C76.841 19.882 77.003 20.71 77.003 21.658V21.964C77.003 22.096 76.961 22.198 76.877 22.27C76.805 22.342 76.709 22.378 76.589 22.378H70.361C70.361 22.39 70.361 22.414 70.361 22.45C70.361 22.486 70.361 22.516 70.361 22.54C70.385 23.032 70.493 23.494 70.685 23.926C70.877 24.346 71.153 24.688 71.513 24.952C71.873 25.216 72.305 25.348 72.809 25.348C73.241 25.348 73.601 25.282 73.889 25.15C74.177 25.018 74.411 24.874 74.591 24.718C74.771 24.55 74.891 24.424 74.951 24.34C75.059 24.184 75.143 24.094 75.203 24.07C75.263 24.034 75.359 24.016 75.491 24.016H76.355C76.475 24.016 76.571 24.052 76.643 24.124C76.727 24.184 76.763 24.274 76.751 24.394C76.739 24.574 76.643 24.796 76.463 25.06C76.283 25.312 76.025 25.564 75.689 25.816C75.353 26.068 74.945 26.278 74.465 26.446C73.985 26.602 73.433 26.68 72.809 26.68ZM70.361 21.136H75.293V21.082C75.293 20.542 75.191 20.062 74.987 19.642C74.795 19.222 74.513 18.892 74.141 18.652C73.769 18.4 73.325 18.274 72.809 18.274C72.293 18.274 71.849 18.4 71.477 18.652C71.117 18.892 70.841 19.222 70.649 19.642C70.457 20.062 70.361 20.542 70.361 21.082V21.136ZM79.0293 26.5C78.9093 26.5 78.8073 26.464 78.7233 26.392C78.6513 26.308 78.6153 26.206 78.6153 26.086V17.554C78.6153 17.434 78.6513 17.338 78.7233 17.266C78.8073 17.182 78.9093 17.14 79.0293 17.14H79.8933C80.0133 17.14 80.1093 17.182 80.1813 17.266C80.2533 17.338 80.2893 17.434 80.2893 17.554V21.01H85.2033V17.554C85.2033 17.434 85.2393 17.338 85.3113 17.266C85.3953 17.182 85.4973 17.14 85.6173 17.14H86.4633C86.5833 17.14 86.6793 17.182 86.7513 17.266C86.8353 17.338 86.8773 17.434 86.8773 17.554V26.086C86.8773 26.206 86.8353 26.308 86.7513 26.392C86.6793 26.464 86.5833 26.5 86.4633 26.5H85.6173C85.4973 26.5 85.3953 26.464 85.3113 26.392C85.2393 26.308 85.2033 26.206 85.2033 26.086V22.45H80.2893V26.086C80.2893 26.206 80.2533 26.308 80.1813 26.392C80.1093 26.464 80.0133 26.5 79.8933 26.5H79.0293ZM93.328 22.45H90.718V26.086C90.718 26.206 90.682 26.308 90.61 26.392C90.538 26.464 90.442 26.5 90.322 26.5H89.458C89.338 26.5 89.236 26.464 89.152 26.392C89.08 26.308 89.044 26.206 89.044 26.086V17.554C89.044 17.434 89.08 17.338 89.152 17.266C89.236 17.182 89.338 17.14 89.458 17.14H90.322C90.442 17.14 90.538 17.182 90.61 17.266C90.682 17.338 90.718 17.434 90.718 17.554V21.01H93.328V22.45ZM96.874 26.68C95.962 26.68 95.2 26.506 94.588 26.158C93.976 25.81 93.508 25.33 93.184 24.718C92.86 24.094 92.68 23.386 92.644 22.594C92.632 22.39 92.626 22.132 92.626 21.82C92.626 21.496 92.632 21.238 92.644 21.046C92.68 20.242 92.86 19.534 93.184 18.922C93.508 18.31 93.976 17.83 94.588 17.482C95.212 17.134 95.974 16.96 96.874 16.96C97.774 16.96 98.53 17.134 99.142 17.482C99.754 17.83 100.222 18.31 100.546 18.922C100.882 19.534 101.062 20.242 101.086 21.046C101.11 21.238 101.122 21.496 101.122 21.82C101.122 22.132 101.11 22.39 101.086 22.594C101.062 23.386 100.888 24.094 100.564 24.718C100.24 25.33 99.766 25.81 99.142 26.158C98.53 26.506 97.774 26.68 96.874 26.68ZM96.874 25.294C97.618 25.294 98.212 25.06 98.656 24.592C99.1 24.112 99.34 23.416 99.376 22.504C99.388 22.324 99.394 22.096 99.394 21.82C99.394 21.544 99.388 21.316 99.376 21.136C99.34 20.224 99.1 19.534 98.656 19.066C98.212 18.586 97.618 18.346 96.874 18.346C96.13 18.346 95.53 18.586 95.074 19.066C94.63 19.534 94.39 20.224 94.354 21.136C94.342 21.316 94.336 21.544 94.336 21.82C94.336 22.096 94.342 22.324 94.354 22.504C94.39 23.416 94.63 24.112 95.074 24.592C95.53 25.06 96.13 25.294 96.874 25.294Z" fill="white"/>
</svg>
