<svg width="200" height="200" viewBox="0 0 200 200" fill="none" xmlns="http://www.w3.org/2000/svg">
<path d="M86.3915 120.192C85.4551 119.254 84.9292 117.983 84.9292 116.658C84.9292 115.333 85.4551 114.062 86.3915 113.125L142.325 57.1916C143.273 56.3084 144.526 55.8276 145.822 55.8505C147.117 55.8733 148.353 56.3981 149.269 57.3142C150.185 58.2302 150.71 59.4661 150.733 60.7615C150.756 62.0568 150.275 63.3105 149.391 64.2583L93.4665 120.192C93.0021 120.657 92.4507 121.025 91.8437 121.277C91.2367 121.529 90.5861 121.658 89.929 121.658C89.2719 121.658 88.6213 121.529 88.0143 121.277C87.4073 121.025 86.8558 120.657 86.3915 120.192ZM187.925 57.1916C186.987 56.2553 185.716 55.7294 184.391 55.7294C183.066 55.7294 181.796 56.2553 180.858 57.1916L93.3331 144.75L59.7831 111.242C58.8434 110.316 57.576 109.799 56.257 109.804C54.938 109.808 53.6742 110.334 52.7409 111.266C51.8076 112.198 51.2805 113.461 51.2744 114.78C51.2683 116.099 51.7836 117.368 52.7081 118.308L66.9581 132.558L54.7665 144.75L21.2582 111.242C20.7925 110.776 20.2397 110.407 19.6313 110.155C19.0229 109.903 18.3708 109.773 17.7123 109.773C17.0538 109.773 16.4017 109.903 15.7933 110.155C15.1849 110.407 14.6321 110.776 14.1665 111.242C13.7008 111.707 13.3315 112.26 13.0795 112.868C12.8275 113.477 12.6978 114.129 12.6978 114.787C12.6978 115.446 12.8275 116.098 13.0795 116.706C13.3315 117.315 13.7008 117.868 14.1665 118.333L51.2081 155.383C51.6725 155.848 52.224 156.217 52.831 156.469C53.4379 156.72 54.0886 156.85 54.7457 156.85C55.4027 156.85 56.0534 156.72 56.6604 156.469C57.2673 156.217 57.8188 155.848 58.2831 155.383L74.0081 139.65L89.7331 155.383C90.1975 155.848 90.749 156.217 91.3559 156.469C91.9629 156.72 92.6136 156.85 93.2707 156.85C93.9277 156.85 94.5784 156.72 95.1853 156.469C95.7923 156.217 96.3438 155.848 96.8081 155.383L187.925 64.2583C188.861 63.3208 189.387 62.05 189.387 60.725C189.387 59.4 188.861 58.1291 187.925 57.1916Z" fill="#57AF7D"/>
</svg>
