<svg width="18" height="19" viewBox="0 0 18 19" fill="none" xmlns="http://www.w3.org/2000/svg">
<g clip-path="url(#clip0_2005_973)">
<path d="M1.12504 4.4375C1.42293 4.43876 1.70816 4.55811 1.91817 4.76938L9.00004 11.8456L16.0819 4.76938C16.293 4.55828 16.5793 4.43969 16.8779 4.43969C17.1764 4.43969 17.4627 4.55828 17.6738 4.76938C17.8849 4.98047 18.0035 5.26678 18.0035 5.56531C18.0035 5.86385 17.8849 6.15015 17.6738 6.36125L9.79879 14.2363C9.69431 14.3408 9.57024 14.4238 9.43367 14.4804C9.29709 14.5371 9.1507 14.5662 9.00286 14.5662C8.85501 14.5662 8.70862 14.5371 8.57205 14.4804C8.43548 14.4238 8.3114 14.3408 8.20692 14.2363L0.331919 6.36125C0.173608 6.20423 0.0655269 6.00371 0.0213983 5.78515C-0.0227304 5.56659 -0.000915839 5.33984 0.0840722 5.1337C0.16906 4.92756 0.313388 4.75132 0.498731 4.62736C0.684074 4.50341 0.902071 4.43732 1.12504 4.4375Z" fill="#525252"/>
</g>
<defs>
<clipPath id="clip0_2005_973">
<rect width="18" height="18" fill="white" transform="translate(0 0.5)"/>
</clipPath>
</defs>
</svg>
