<svg version="1.1" id="Слой_1" xmlns="http://www.w3.org/2000/svg" xmlns:xlink="http://www.w3.org/1999/xlink" x="0px"
  y="0px" viewBox="0 0 438.2 169.4" style="enable-background:new 0 0 438.2 169.4;" xml:space="preserve">
  <style type="text/css">
    .st0 {
      fill: #57AF7D;
    }
  </style>
  <g>
    <polygon points="9.3,97.7 3.1,97.7 3.1,165.8 73.5,165.8 73.5,159.9 9.3,159.9 	" fill="white" />
    <path d="M160.4,103L160.4,103c-1.8-1.6-3.8-2.9-6.1-3.9c-2.3-0.9-4.7-1.5-7.3-1.5h-32c-2.7,0-5.1,0.5-7.4,1.5
		c-2.3,1.1-4.3,2.4-6.1,4.2c-1.8,1.7-3.1,3.8-4.1,5.9c-0.9,2.1-1.5,4.6-1.5,7v49.6h6.1V145H160v20.8h6.2v-49.6c0-2.5-0.7-5-1.6-7.2
		C163.5,106.7,162.2,104.8,160.4,103z M160,139.1h-57.9v-22.9c0-3.5,1.2-6.4,3.8-9c2.4-2.4,5.6-3.6,9.2-3.6h32.1
		c3.7,0,6.6,1.2,9.2,3.6c2.6,2.4,3.8,5.5,3.8,9v22.9H160z" fill="white" />
    <path
      d="M254.9,103c-1.8-1.6-3.8-2.9-6.1-3.9c-2.3-0.9-4.7-1.5-7.2-1.5h-51.2v68.1h51.2c2.6,0,5.1-0.7,7.4-1.6
		c2.3-1.1,4.5-2.4,6.1-4c1.8-1.6,3.1-3.6,4.1-5.8c0.9-2.1,1.5-4.6,1.5-7.1c0-5.1-1.9-9.4-5.4-13l-2.7-2.5l2.7-2.5
		c3.7-3.5,5.4-7.9,5.4-13c0-2.5-0.5-5-1.6-7.2C258.2,106.7,256.7,104.8,254.9,103z M254.5,147.3c0,3.5-1.2,6.4-3.8,9
		c-2.4,2.4-5.6,3.6-9.2,3.6h-45v-25.1h45c3.7,0,6.6,1.2,9.2,3.6C253.3,140.8,254.5,143.8,254.5,147.3z M250.7,125.2
		c-2.4,2.4-5.6,3.6-9.2,3.6h-45v-25.1h45c3.7,0,6.6,1.2,9.2,3.6c2.4,2.4,3.8,5.5,3.8,9C254.5,119.7,253.3,122.8,250.7,125.2z"
      fill="white" />
  </g>
  <g>
    <rect x="105.9" y="65.9" width="72.7" height="10.4" fill="white" />
    <g>
      <path d="M3.1,55.5V3.6h10.4v51.9c0,2.9,1,5.4,3,7.4s4.5,3,7.4,3h10.4c2.9,0,5.4-1,7.4-3s3-4.5,3-7.4V3.6H55v51.9
			c0,2.9,1,5.4,3,7.4c2,2,4.5,3,7.4,3h10.4c2.9,0,5.4-1,7.4-3s3-4.5,3-7.4V3.6h10.4v51.9c0,2.8-0.5,5.4-1.6,7.9s-2.6,4.7-4.4,6.6
			c-1.9,1.9-4.1,3.4-6.6,4.6c-2.5,1.1-5.3,1.7-8.2,1.7H65.4c-6.2,0-11.4-2.3-15.6-7c-4.2,4.7-9.3,7-15.6,7H23.9
			c-2.8,0-5.4-0.5-7.9-1.6s-4.7-2.5-6.6-4.4S6,66.2,4.9,63.7C3.6,61.2,3.1,58.4,3.1,55.5z" fill="white" />
      <path d="M187.9,76.3V3.6h51.9c2.7,0,5.3,0.5,7.9,1.6c2.5,1.1,4.7,2.6,6.6,4.4c1.9,1.9,3.4,4.1,4.6,6.6c1.1,2.5,1.7,5.3,1.7,8.2
			c0,6.2-2.3,11.4-7,15.6c4.7,4.2,7,9.3,7,15.6c0,2.8-0.5,5.5-1.6,8s-2.5,4.6-4.4,6.5c-1.9,1.9-4.1,3.4-6.6,4.5s-5.3,1.8-8.2,1.8
			h-51.9V76.3z M198.3,34.8h41.5c2.9,0,5.4-1,7.4-3s3-4.5,3-7.4s-1-5.4-3-7.4s-4.5-3-7.4-3h-41.5V34.8z M198.3,65.9h41.5
			c2.9,0,5.4-1,7.4-3s3-4.5,3-7.4s-1-5.4-3-7.3c-2-2-4.5-3-7.4-3h-41.5V65.9z" fill="white" />
      <rect x="105.9" y="3.6" width="72.7" height="10.4" fill="white" />
      <rect x="105.9" y="34.8" width="62.3" height="10.4" fill="white" />
    </g>
  </g>
  <g>
    <path class="st0"
      d="M429.7,3.6H280.5c-3,0-5.4,2.4-5.4,5.4v151.4c0,3,2.4,5.4,5.4,5.4h149.2c3,0,5.4-2.4,5.4-5.4V9.1
		C435.2,6.1,432.7,3.6,429.7,3.6z M410.2,65.9c0,7.4-2.8,13.6-8.3,18.5l-0.4,0.3l0.4,0.3c5.4,5,8.3,11.1,8.3,18.5v12.6
		c0,3.3-0.7,6.5-1.9,9.5c-1.2,3-3,5.6-5.2,7.9c-2.2,2.2-4.7,4.1-7.7,5.4s-6.2,2-9.5,2h-22.6h-38.7h-24.7v-11.7h24.7l0,0h61.2
		c3.5,0,6.6-1.3,9.2-3.7c2.4-2.5,3.7-5.6,3.7-9.3v-12.6c0-3.6-1.2-6.7-3.7-9.3c-2.4-2.5-5.5-3.7-9.2-3.7h-22.6l0,0h-63.3V79h63.3
		l0,0h22.6c3.5,0,6.6-1.3,9.2-3.7c2.4-2.5,3.7-5.6,3.7-9.3V53.3c0-3.6-1.2-6.7-3.7-9.3c-2.4-2.5-5.5-3.7-9.2-3.7h-22.6h-38.7h-24.7
		V28.6h24.7h38.7h22.6c3.2,0,6.3,0.7,9.3,1.9c2.9,1.3,5.5,3.1,7.7,5.3c2.2,2.2,4,4.9,5.3,7.8c1.3,3,2,6.3,2,9.7v12.6H410.2z"
      fill="white" />
  </g>
</svg>