<svg width="172" height="62" viewBox="0 0 172 62" fill="none" xmlns="http://www.w3.org/2000/svg">
<path d="M167.867 59.8459H113.57C112.486 59.8459 111.603 58.9843 111.603 57.9268V4.1125C111.603 3.05501 112.486 2.19336 113.57 2.19336H167.867C168.95 2.19336 169.833 3.05501 169.833 4.1125V57.8876C169.833 58.9843 168.95 59.8459 167.867 59.8459Z" fill="#57AF7D"/>
<path d="M3.97293 39.0093H2.16705V58.9448H22.9949V57.1824H3.97293V39.0093Z" fill="white"/>
<path d="M48.7989 40.5759C48.2772 40.1059 47.6752 39.7143 46.993 39.4401C46.3108 39.1659 45.5884 39.0093 44.8259 39.0093H35.3551C34.5525 39.0093 33.8301 39.1659 33.1479 39.4401C32.4657 39.7534 31.8637 40.1451 31.342 40.6543C30.8203 41.1634 30.419 41.7509 30.1381 42.3776C29.8572 43.0042 29.6967 43.7092 29.6967 44.4142V58.9057H31.5427V52.8741H48.7186V58.9448H50.5646V44.4534C50.5646 43.7092 50.364 43.0042 50.0831 42.3384C49.7219 41.6726 49.2804 41.0851 48.7989 40.5759ZM48.6785 51.1508H31.5026V44.4534C31.5026 43.4351 31.8637 42.5734 32.6262 41.8292C33.3486 41.1243 34.2716 40.7718 35.3551 40.7718H44.8661C45.9496 40.7718 46.8325 41.1243 47.595 41.8292C48.3574 42.5342 48.7186 43.4351 48.7186 44.4534V51.1508H48.6785Z" fill="white"/>
<path d="M76.8101 40.615C76.2884 40.145 75.6864 39.7533 75.0042 39.4792C74.322 39.205 73.5996 39.0483 72.8773 39.0483H57.7079V58.9447H72.8773C73.6398 58.9447 74.4022 58.7489 75.0845 58.4747C75.7667 58.1614 76.4088 57.7698 76.8903 57.2998C77.412 56.8298 77.8133 56.2423 78.0943 55.6156C78.3752 54.989 78.5357 54.284 78.5357 53.5398C78.5357 52.0515 77.9739 50.7982 76.9305 49.7407L76.1279 48.9965L76.9305 48.2524C78.014 47.2341 78.5357 45.9416 78.5357 44.4533C78.5357 43.7091 78.3752 43.0041 78.0541 42.3383C77.7331 41.6725 77.3318 41.085 76.8101 40.615ZM76.6897 53.5006C76.6897 54.519 76.3285 55.3806 75.566 56.1248C74.8437 56.8298 73.9207 57.1823 72.8371 57.1823H59.5138V49.8582H72.8371C73.9207 49.8582 74.8035 50.2107 75.566 50.9157C76.3285 51.6207 76.6897 52.4823 76.6897 53.5006ZM75.566 47.0382C74.8437 47.7432 73.9207 48.0957 72.8371 48.0957H59.5138V40.7717H72.8371C73.9207 40.7717 74.8035 41.1241 75.566 41.8291C76.2884 42.5341 76.6897 43.4349 76.6897 44.4533C76.6897 45.4716 76.3285 46.3332 75.566 47.0382Z" fill="white"/>
<path d="M103.738 49.7016C103.216 49.2316 102.614 48.84 101.932 48.5658C101.25 48.2917 100.527 48.135 99.8049 48.135H90.294C89.2105 48.135 88.3276 47.7825 87.5651 47.0775C86.8427 46.3725 86.4414 45.5109 86.4414 44.4534C86.4414 43.4351 86.8026 42.5734 87.5651 41.8292C88.2874 41.1243 89.2105 40.7718 90.294 40.7718H99.8049C100.848 40.7718 101.771 41.1243 102.534 41.8292C103.096 42.3776 103.457 43.0434 103.617 43.7875H105.463C105.383 43.2784 105.223 42.7692 105.022 42.2992C104.701 41.6334 104.3 41.0459 103.778 40.5759C103.256 40.1059 102.654 39.7143 101.972 39.4401C101.29 39.1659 100.567 39.0093 99.8451 39.0093H90.3341C89.5315 39.0093 88.8091 39.1659 88.1269 39.4401C87.4447 39.7534 86.8026 40.1451 86.321 40.6543C85.7994 41.1634 85.398 41.7117 85.1171 42.3776C84.8362 43.0042 84.6757 43.7092 84.6757 44.4142C84.6757 45.1584 84.8362 45.8634 85.1171 46.5292C85.398 47.195 85.8395 47.7825 86.3612 48.2525C86.8829 48.7225 87.4848 49.1141 88.2072 49.4275C88.8894 49.7016 89.6118 49.8583 90.3742 49.8583H99.8852C100.969 49.8583 101.852 50.2108 102.614 50.9158C103.377 51.6208 103.738 52.4824 103.738 53.5008C103.738 54.5191 103.377 55.3807 102.614 56.1249C101.892 56.8299 100.969 57.1824 99.8852 57.1824H90.3742C89.2907 57.1824 88.4078 56.8299 87.6454 56.1249C87.0835 55.5766 86.7224 54.9107 86.5618 54.1666H84.7158C84.7961 54.6757 84.9165 55.1849 85.1573 55.6549C85.4783 56.3207 85.8796 56.9082 86.4013 57.3782C86.923 57.8482 87.4848 58.2399 88.1671 58.514C88.8493 58.7882 89.5716 58.9448 90.3341 58.9448H99.8451C100.648 58.9448 101.37 58.7882 102.052 58.514C102.734 58.2007 103.336 57.809 103.858 57.2999C104.38 56.7907 104.781 56.2424 105.062 55.5766C105.343 54.9499 105.503 54.2449 105.503 53.5399C105.503 52.7958 105.343 52.0908 105.022 51.4249C104.661 50.7591 104.219 50.1716 103.738 49.7016Z" fill="white"/>
<path d="M72.5562 26.5938H43.3812V30.667H72.5562V26.5938Z" fill="white"/>
<path d="M2.16705 22.5206V2.19336H6.34064V22.5206C6.34064 23.6564 6.74195 24.6356 7.54456 25.4189C8.34717 26.2022 9.35044 26.5939 10.5142 26.5939H14.6878C15.8516 26.5939 16.8549 26.2022 17.6575 25.4189C18.4601 24.6356 18.8614 23.6564 18.8614 22.5206V2.19336H22.9949V22.5206C22.9949 23.6564 23.3962 24.6356 24.1988 25.4189C25.0014 26.2022 26.0047 26.5939 27.1685 26.5939H31.3019C32.4657 26.5939 33.469 26.2022 34.2716 25.4189C35.0742 24.6356 35.4755 23.6564 35.4755 22.5206V2.19336H39.6491V22.5206C39.6491 23.6172 39.4484 24.6356 39.007 25.6147C38.5656 26.5939 37.9636 27.4555 37.2412 28.1997C36.4788 28.9438 35.5959 29.5313 34.5926 30.0013C33.5894 30.4321 32.4657 30.6671 31.3019 30.6671H27.1283C24.6402 30.6671 22.5534 29.7663 20.8679 27.9255C19.1825 29.7663 17.1358 30.6671 14.6076 30.6671H10.4741C9.35044 30.6671 8.30704 30.4713 7.30378 30.0405C6.30051 29.6097 5.41764 29.0613 4.65515 28.3172C3.89267 27.573 3.25058 26.7114 2.80914 25.693C2.36771 24.7139 2.16705 23.6564 2.16705 22.5206Z" fill="white"/>
<path d="M76.2884 30.628V2.19336H97.1162C98.1997 2.19336 99.2431 2.38919 100.287 2.82002C101.29 3.25085 102.173 3.83834 102.935 4.54333C103.698 5.28748 104.3 6.14914 104.781 7.12829C105.263 8.10745 105.463 9.2041 105.463 10.3399C105.463 12.7682 104.54 14.8049 102.654 16.4498C104.54 18.0948 105.463 20.0923 105.463 22.5598C105.463 23.6564 105.263 24.7139 104.821 25.693C104.38 26.6722 103.818 27.4947 103.056 28.2388C102.293 28.983 101.41 29.5705 100.407 30.0013C99.4036 30.4321 98.28 30.7063 97.1162 30.7063H76.2884V30.628ZM80.462 14.374H97.1162C98.28 14.374 99.2833 13.9824 100.086 13.199C100.888 12.4157 101.29 11.4366 101.29 10.3007C101.29 9.16493 100.888 8.18578 100.086 7.40246C99.2833 6.61913 98.28 6.22747 97.1162 6.22747H80.462V14.374ZM80.462 26.5547H97.1162C98.28 26.5547 99.2833 26.163 100.086 25.3797C100.888 24.5964 101.29 23.6172 101.29 22.4814C101.29 21.3456 100.888 20.3664 100.086 19.6223C99.2833 18.839 98.28 18.4473 97.1162 18.4473H80.462V26.5547Z" fill="white"/>
<path d="M72.5562 2.1543H43.3812V6.22757H72.5562V2.1543Z" fill="white"/>
<path d="M68.3826 14.374H43.3812V18.4473H68.3826V14.374Z" fill="white"/>
<path d="M160.763 24.3222V19.8181C160.763 18.604 160.523 17.429 160.041 16.3715C159.559 15.314 158.917 14.374 158.115 13.5907C157.312 12.8074 156.389 12.1807 155.306 11.7107C154.262 11.2408 153.139 11.0449 151.935 11.0449H143.708H129.622H120.633V15.1965H129.622H143.708H151.935C153.219 15.1965 154.343 15.6665 155.266 16.5282C156.148 17.429 156.63 18.5257 156.63 19.8181V24.2831C156.63 25.5756 156.189 26.6722 155.266 27.573C154.383 28.4739 153.259 28.9047 151.935 28.9047H143.708H120.673V33.0563H143.708H151.935C153.219 33.0563 154.343 33.5263 155.266 34.3879C156.148 35.2888 156.63 36.3854 156.63 37.6779V42.1428C156.63 43.4353 156.189 44.532 155.266 45.4328C154.383 46.3336 153.259 46.7644 151.935 46.7644H129.662H120.673V50.9161H129.662H143.748H151.975C153.219 50.9161 154.383 50.6811 155.426 50.2111C156.51 49.7411 157.433 49.1144 158.235 48.2919C159.038 47.4694 159.64 46.5294 160.121 45.472C160.563 44.4145 160.804 43.2787 160.804 42.1037V37.7171C160.804 35.0929 159.8 32.8996 157.794 31.1372L157.633 31.0197L157.794 30.9022C159.76 29.1397 160.763 26.9072 160.763 24.3222Z" fill="white"/>
</svg>
