<svg width="24" height="24" viewBox="0 0 24 24" fill="none" xmlns="http://www.w3.org/2000/svg">
<path d="M22.0268 12.0197C22.0079 12.035 21.9874 12.0487 21.9704 12.0658C21.2628 12.7728 20.5556 13.4801 19.8483 14.1873C19.8249 14.2107 19.8008 14.2334 19.7833 14.2503L17.544 12.011L19.7842 9.77093C19.7922 9.77793 19.8134 9.79447 19.8323 9.81333C20.5572 10.5385 21.2818 11.2638 22.0066 11.9889C22.0124 11.9947 22.0201 11.9983 22.0269 12.003C22.0268 12.0085 22.0268 12.0141 22.0268 12.0197ZM8.11438 10.3857L5.86624 8.13787C5.89158 8.0926 11.9066 2.068 11.9958 2L18.14 8.1436C18.1148 8.18887 16.0087 10.3047 15.8982 10.3902L12.0042 6.49613L8.11438 10.3857ZM8.10631 13.6207L12.0005 17.5148C12.1549 17.3741 12.2936 17.2265 12.4374 17.0843C12.582 16.9412 12.7253 16.7967 12.8692 16.6529L13.3008 16.2213L13.7324 15.7897L14.1699 15.3522L14.6015 14.9206L15.0331 14.489L15.4647 14.0574L15.9036 13.6187L18.1467 15.8589L12.0053 22L5.86298 15.8576C6.60231 15.1203 7.35131 14.3735 8.10631 13.6207Z" fill="white"/>
<path d="M12.005 14.2733L9.73732 12.0058L12.0029 9.74023L14.2705 12.0078L12.005 14.2733ZM2.00372 12.0014L4.23299 9.77217L6.46466 12.0038L4.23566 14.2333L2.00372 12.0014Z" fill="white"/>
</svg>
