<svg width="24" height="24" viewBox="0 0 24 24" fill="none" xmlns="http://www.w3.org/2000/svg">
<path d="M4.4197 16.4329C4.55757 16.2954 4.74442 16.2182 4.93916 16.2184H22.861C23.1885 16.2184 23.3523 16.6137 23.1208 16.8451L19.5804 20.3855C19.4426 20.523 19.2557 20.6002 19.061 20.6H1.1391C0.81163 20.6 0.64783 20.2047 0.879364 19.9733L4.4197 16.4329ZM4.41963 3.21453C4.56083 3.07907 4.74716 3 4.93916 3H22.861C23.1885 3 23.3523 3.39527 23.1208 3.62673L19.5804 7.16707C19.4426 7.3046 19.2557 7.38177 19.061 7.3816H1.1391C0.81163 7.3816 0.64783 6.98633 0.879364 6.75487L4.41963 3.21453ZM19.5804 9.7814C19.4426 9.64386 19.2557 9.5667 19.061 9.56687H1.1391C0.81163 9.56687 0.64783 9.96213 0.879364 10.1936L4.4197 13.7339C4.55757 13.8715 4.74442 13.9486 4.93916 13.9485H22.861C23.1885 13.9485 23.3523 13.5532 23.1208 13.3217L19.5804 9.7814Z" fill="white"/>
</svg>
