<svg width="24" height="24" viewBox="0 0 24 24" fill="none" xmlns="http://www.w3.org/2000/svg">
<path d="M17.7609 8.15735C17.3515 7.92342 16.8251 7.92342 16.3572 8.15735L13.082 10.0874L10.8595 11.3155L7.6428 13.2456C7.2334 13.4795 6.707 13.4795 6.23914 13.2456L3.72427 11.725C3.31487 11.491 3.02247 11.0231 3.02247 10.4967V7.57248C3.02247 7.10462 3.2564 6.63668 3.72427 6.34428L6.23914 4.88215C6.64854 4.64822 7.17494 4.64822 7.6428 4.88215L10.1577 6.40275C10.5671 6.63668 10.8595 7.10455 10.8595 7.63095V9.56095L13.0819 8.27428V6.28582C13.0819 5.81795 12.848 5.35002 12.3801 5.05762L7.70134 2.30875C7.29194 2.07482 6.76554 2.07482 6.29767 2.30875L1.50187 5.11608C1.03394 5.35002 0.800003 5.81788 0.800003 6.28582V11.7835C0.800003 12.2514 1.03394 12.7193 1.5018 13.0117L6.23914 15.7605C6.64854 15.9944 7.17494 15.9944 7.6428 15.7605L10.8595 13.889L13.082 12.6023L16.2987 10.7308C16.7081 10.4968 17.2345 10.4968 17.7024 10.7308L20.2173 12.1929C20.6267 12.4268 20.9191 12.8947 20.9191 13.4211V16.3454C20.9191 16.8132 20.6851 17.2812 20.2173 17.5736L17.7609 19.0357C17.3515 19.2696 16.8251 19.2696 16.3572 19.0357L13.8423 17.5736C13.4329 17.3396 13.1405 16.8717 13.1405 16.3454V14.4738L10.9181 15.7605V17.6905C10.9181 18.1583 11.152 18.6263 11.6199 18.9187L16.3572 21.6675C16.7666 21.9014 17.293 21.9014 17.7609 21.6675L22.4982 18.9187C22.9076 18.6848 23.2 18.2169 23.2 17.6905V12.1343C23.2 11.6665 22.9661 11.1986 22.4982 10.9062L17.7609 8.15735Z" fill="white"/>
</svg>
