<svg width="24" height="24" viewBox="0 0 24 24" fill="none" xmlns="http://www.w3.org/2000/svg">
<path fill-rule="evenodd" clip-rule="evenodd" d="M12 22.7C18.0751 22.7 23 17.7751 23 11.7C23 5.62482 18.0751 0.699951 12 0.699951C5.92487 0.699951 1 5.62482 1 11.7C1 17.7751 5.92487 22.7 12 22.7ZM8.70072 9.44494C8.94726 9.27091 9.2228 9.14039 9.51284 9.05337C9.75938 7.47262 10.673 6.07315 12.0217 5.20301C13.675 6.49371 14.5742 7.94395 14.5742 9.88001C14.5814 11.6855 13.704 13.3823 12.232 14.4265C12.5946 14.615 12.9644 14.8035 12.9644 14.8035C14.4726 13.6143 15.3428 11.7943 15.3428 9.88001C15.3283 7.56689 14.0593 5.4423 12.029 4.32562C10.0784 5.31903 8.81673 7.26959 8.70072 9.44494ZM10.9993 15.1008C11.2241 15.3039 11.4707 15.4706 11.7462 15.6012C9.8029 16.5946 7.48253 16.4713 5.65524 15.2894C5.60448 12.969 6.80817 10.8081 8.80949 9.6407C10.47 8.68355 12.4786 8.53128 14.2624 9.24189C14.2624 9.24189 14.2841 9.65521 14.2986 10.0613C12.6599 9.30715 10.7528 9.40141 9.18655 10.3078C7.50428 11.2795 6.6994 12.7732 6.40936 14.8543C7.83784 15.5867 9.5056 15.6737 10.9993 15.1008ZM15.5096 9.8582C15.5313 10.1555 15.5096 10.4601 15.4443 10.7573C16.6915 11.7653 17.4456 13.2517 17.5254 14.8543C15.5821 15.6446 13.878 15.6954 12.203 14.7237C10.6368 13.8246 9.59986 12.2148 9.43308 10.4165C9.09228 10.6341 8.74422 10.8589 8.74422 10.8589C9.01977 12.7587 10.1582 14.4264 11.8187 15.3836C13.8345 16.5293 16.3072 16.493 18.2867 15.2893C18.3955 13.114 17.3441 11.0401 15.5096 9.8582ZM11.4779 12.9399C11.652 13.0052 11.8332 13.0414 12.0145 13.0414C12.2031 13.0414 12.3843 13.0052 12.5366 12.9327C12.7034 12.8674 12.8557 12.7659 12.9862 12.6426C13.2617 12.3888 13.414 12.0335 13.414 11.6637C13.4213 11.2939 13.2762 10.9313 13.0224 10.663C12.7541 10.3875 12.3916 10.2352 12.0073 10.2425C11.623 10.2425 11.2532 10.3875 10.9849 10.663C10.7238 10.9313 10.5788 11.2939 10.5861 11.671C10.5861 12.0408 10.7456 12.3961 11.0211 12.6499C11.1589 12.7731 11.3112 12.8747 11.4779 12.9399ZM11.3619 11.6275C11.3692 11.2649 11.6665 10.9821 12.0218 10.9894C12.029 10.9894 12.0435 10.9894 12.058 10.9966C12.4133 11.0039 12.6889 11.3012 12.6816 11.6565C12.6816 12.019 12.3843 12.3163 12.0218 12.3163C11.6592 12.3163 11.3619 12.019 11.3619 11.6565V11.6275Z" fill="white"/>
</svg>
