<svg width="24" height="24" viewBox="0 0 24 24" fill="none" xmlns="http://www.w3.org/2000/svg">
<path d="M21.2226 12.6783C21.0068 12.3985 20.7726 12.1186 20.5223 11.8398C20.6911 11.6444 20.8546 11.4445 21.0126 11.2402C22.6071 9.17273 23.0598 7.29722 22.2873 5.95927C21.5148 4.62127 19.6644 4.07559 17.0765 4.42275C16.7971 4.46059 16.5189 4.50666 16.2422 4.56089C16.1485 4.2857 16.0464 4.01342 15.9361 3.74442C14.9428 1.3298 13.545 0 12 0C10.455 0 9.05719 1.3298 8.06395 3.74442C7.95368 4.01342 7.85159 4.2857 7.75781 4.56089C7.48115 4.50668 7.20295 4.46062 6.92358 4.42275C4.33589 4.07564 2.48527 4.62127 1.71277 5.95927C0.940266 7.29727 1.39298 9.17273 2.98748 11.2402C3.14543 11.4445 3.30889 11.6444 3.4777 11.8398C3.22739 12.1186 2.99325 12.3985 2.77744 12.6783C1.18294 14.7458 0.730218 16.6213 1.50272 17.9593C2.12339 19.0343 3.43964 19.5978 5.27541 19.5978C5.72442 19.5978 6.20489 19.564 6.71348 19.4958C7.04105 19.4518 7.37677 19.3939 7.71877 19.3233C7.82634 19.646 7.94133 19.9575 8.06395 20.2556C9.05719 22.6702 10.455 24 12 24C13.545 24 14.9428 22.6702 15.936 20.2556C16.0587 19.9575 16.1737 19.646 16.2812 19.3233C16.6232 19.3938 16.959 19.4518 17.2865 19.4957C17.7952 19.564 18.2754 19.5977 18.7246 19.5977C20.5602 19.5977 21.8767 19.0342 22.4973 17.9592C23.2698 16.6213 22.8171 14.7458 21.2226 12.6783ZM18.5225 5.72466C19.8079 5.72466 20.7164 6.05095 21.0694 6.66234C21.5313 7.46241 21.1047 8.81794 19.899 10.3814C19.7817 10.5331 19.6611 10.6821 19.5371 10.8284C18.8322 10.1577 18.0386 9.50147 17.1753 8.87606C17.056 7.83464 16.8767 6.83948 16.6423 5.91422C17.3306 5.78719 17.9626 5.72466 18.5225 5.72466ZM13.8668 15.3746C13.2347 15.7395 12.6108 16.0669 12.0004 16.358C11.3654 16.0548 10.7425 15.7268 10.1332 15.3746C9.43547 14.9718 8.76773 14.5454 8.13778 14.1025C8.08316 13.403 8.05598 12.7016 8.05631 12C8.05631 11.1845 8.09208 10.4016 8.15789 9.65616C8.73161 9.2626 9.32047 8.89157 9.92311 8.54391C10.6281 8.13689 11.3227 7.77717 12 7.46184C12.6773 7.77717 13.3718 8.13689 14.0768 8.54391C14.6795 8.89156 15.2683 9.26259 15.8421 9.65616C15.9079 10.4016 15.9436 11.1845 15.9436 12C15.9436 12.728 15.915 13.4299 15.8622 14.1025C15.2323 14.5454 14.5645 14.9718 13.8668 15.3746ZM15.6477 15.9377C15.5535 16.5363 15.4392 17.1033 15.3079 17.6347C14.7863 17.4831 14.2429 17.2997 13.6824 17.0837C13.9811 16.9252 14.277 16.7614 14.5699 16.5925C14.934 16.3822 15.2933 16.1639 15.6477 15.9377ZM10.3175 17.0836C9.75689 17.2997 9.21361 17.4829 8.69198 17.6345C8.56078 17.1032 8.4465 16.5362 8.35228 15.9377C8.70665 16.1639 9.06598 16.3822 9.43003 16.5924C9.7229 16.7614 10.0188 16.9252 10.3175 17.0836ZM6.66722 12.9818C6.22191 12.6128 5.80467 12.237 5.41969 11.8576C5.80983 11.4856 6.2302 11.1176 6.67739 10.7568C6.65923 11.171 6.65011 11.5855 6.65006 12C6.65006 12.3295 6.65602 12.6569 6.66722 12.9818ZM8.39119 7.82381C8.48573 7.26352 8.59805 6.73242 8.72531 6.23353C9.22495 6.37317 9.74564 6.54267 10.2829 6.74241C9.92449 6.9294 9.57013 7.12401 9.22003 7.32609C8.94095 7.48729 8.66463 7.65322 8.39119 7.82381ZM13.7171 6.74236C14.2543 6.54263 14.775 6.37308 15.2747 6.23348C15.402 6.73242 15.5143 7.26352 15.6088 7.82381C15.3354 7.65323 15.0591 7.4873 14.78 7.32609C14.4299 7.12399 14.0755 6.92936 13.7171 6.74236ZM17.3226 10.7568C17.7698 11.1176 18.1902 11.4856 18.5803 11.8576C18.1953 12.237 17.7781 12.6128 17.3328 12.9818C17.3441 12.6546 17.3499 12.3273 17.3499 12C17.3499 11.5819 17.3406 11.1672 17.3226 10.7568ZM12 1.40625C13.0171 1.40625 14.0976 2.70014 14.8699 4.88892C13.9394 5.15044 12.9748 5.49717 12 5.92102C11.0252 5.49717 10.0606 5.15048 9.13008 4.88892C9.90239 2.70014 10.9829 1.40625 12 1.40625ZM2.93058 6.66239C3.28364 6.05091 4.19175 5.7247 5.47753 5.7247C6.03736 5.7247 6.66942 5.78723 7.35778 5.91431C7.12327 6.83958 6.94402 7.83473 6.82477 8.87611C5.96142 9.50152 5.16787 10.1578 4.46292 10.8285C4.33897 10.6822 4.21831 10.5331 4.10105 10.3814C2.89528 8.81798 2.46867 7.46245 2.93058 6.66239ZM5.26748 18.1938C3.98208 18.1937 3.07355 17.8675 2.72053 17.2561C2.25862 16.4561 2.68523 15.1005 3.89095 13.5371C4.06784 13.3083 4.2522 13.0853 4.44375 12.8686C5.14073 13.5539 5.93184 14.226 6.79678 14.8678C6.91064 15.9584 7.08942 17.0016 7.32844 17.9699C6.56958 18.1204 5.87606 18.1939 5.26748 18.1938ZM12 22.5938C10.9631 22.5938 9.86058 21.2489 9.08564 18.9825C10.0319 18.7074 11.0116 18.3452 12 17.9049C12.9884 18.3452 13.9681 18.7074 14.9144 18.9825C14.1394 21.2489 13.0369 22.5938 12 22.5938ZM21.2795 17.2561C20.7593 18.1571 19.0338 18.4384 16.6715 17.9699C16.9106 17.0016 17.0893 15.9584 17.2032 14.8678C18.0682 14.226 18.8593 13.5539 19.5562 12.8686C19.7477 13.0854 19.9321 13.3083 20.109 13.5371C21.3148 15.1005 21.7414 16.4561 21.2795 17.2561Z" fill="white"/>
<path d="M12 14.1727C13.1999 14.1727 14.1726 13.2 14.1726 12C14.1726 10.8001 13.1999 9.82739 12 9.82739C10.8001 9.82739 9.82733 10.8001 9.82733 12C9.82733 13.2 10.8001 14.1727 12 14.1727Z" fill="white"/>
</svg>
