<svg width="24" height="24" viewBox="0 0 24 24" fill="none" xmlns="http://www.w3.org/2000/svg">
<g clip-path="url(#clip0_2001_332)">
<path fill-rule="evenodd" clip-rule="evenodd" d="M23.5856 15.1376C23.856 14.1375 24 13.0854 24 12C24 5.37258 18.6274 0 12 0C5.37258 0 0 5.37258 0 12C0 18.6274 5.37258 24 12 24C15.0034 24 17.7488 22.897 19.8534 21.0735C19.6795 21.0828 19.4978 21.0872 19.3092 21.0872C16.8176 21.0872 15.433 19.5301 14.7448 18.362L17.0038 17.0048C17.0038 17.0048 17.7722 18.6377 19.2127 18.6377C20.6537 18.6377 21.2302 18.1573 21.2302 17.0528C21.2302 16.445 20.2789 16.0138 19.1695 15.5111C17.8239 14.9012 16.2457 14.186 15.8508 12.9223C15.1303 10.6169 16.0908 7.35038 19.4532 7.59089C21.5544 7.74075 22.7363 8.77275 23.3275 9.52557L21.0862 11.1448C20.6057 9.75235 18.6367 9.75235 18.2522 10.9048C17.8682 12.0578 19.1647 12.7298 21.1822 13.4023C22.2186 13.7476 23.0522 14.3848 23.5856 15.1376ZM3.89559 7.95872H14.1067V10.3688H10.3648V20.8336H7.63758V10.3688H3.89559V7.95872Z" fill="white"/>
</g>
<defs>
<clipPath id="clip0_2001_332">
<rect width="24" height="24" fill="white"/>
</clipPath>
</defs>
</svg>
