<svg width="24" height="24" viewBox="0 0 24 24" fill="none" xmlns="http://www.w3.org/2000/svg">
<path d="M3.09021 15.4709C3.1107 15.5217 3.13387 15.5685 3.15883 15.6154C3.17041 15.6427 3.18645 15.671 3.20071 15.6964C3.22388 15.7472 3.24884 15.796 3.2729 15.8448L3.41282 16.1026C3.43866 16.1504 3.46361 16.1973 3.49302 16.2441C3.54204 16.3359 3.59997 16.4257 3.65076 16.5175C3.67393 16.5556 3.69532 16.5937 3.72117 16.6317C3.8192 16.7987 3.90832 16.9373 4.00367 17.0721C4.0714 17.1726 4.13913 17.2712 4.21221 17.3698C4.23627 17.4069 4.26301 17.444 4.28796 17.4811L4.48492 17.7428C4.50898 17.7731 4.53304 17.8082 4.55888 17.8394C4.64622 17.9547 4.7389 18.066 4.83159 18.1792C4.83159 18.1812 4.83426 18.1831 4.83604 18.186C4.95101 18.3442 5.07488 18.4848 5.21034 18.6098L5.21391 18.6137C5.2852 18.6937 5.3565 18.7728 5.43225 18.8509L5.52226 18.9456C5.62118 19.0472 5.7201 19.1477 5.82437 19.2454C5.82615 19.2454 5.82705 19.2473 5.82883 19.2483L5.87963 19.2971C5.97053 19.384 6.06232 19.4699 6.15589 19.55L6.26729 19.6525C6.34304 19.7189 6.42147 19.7814 6.499 19.8468L6.6202 19.9483C6.70308 20.0167 6.79131 20.083 6.87597 20.1494C6.90717 20.1738 6.93836 20.1982 6.97044 20.2207L6.99628 20.2432L7.24671 20.4228L7.35365 20.5009C7.48466 20.5927 7.61477 20.6786 7.74488 20.7645C7.78231 20.785 7.81974 20.8075 7.8545 20.8309C7.95075 20.8914 8.05056 20.9529 8.1477 21.0086C8.20117 21.0418 8.25643 21.0701 8.31168 21.1004C8.37852 21.1414 8.44803 21.1814 8.51933 21.2224C8.53893 21.2292 8.55497 21.2361 8.57102 21.2458L8.57458 21.2419C8.60399 21.2566 8.63162 21.2722 8.66013 21.2878C8.76708 21.3464 8.87848 21.4021 8.99433 21.4567C9.01572 21.4665 9.03889 21.4763 9.06206 21.4899C9.19039 21.5514 9.31872 21.61 9.45151 21.6666C9.48181 21.6764 9.51389 21.693 9.54508 21.7057C9.6654 21.7555 9.78927 21.8063 9.91225 21.8541L9.95681 21.8717C10.0932 21.9224 10.2277 21.9713 10.3668 22.0171C10.3988 22.0269 10.4318 22.0396 10.4657 22.0494C10.6074 22.0962 10.7446 22.1519 10.8881 22.1812C20.0433 24.0001 22.7035 16.1807 22.7035 16.1807C20.4684 19.3537 16.5017 20.1904 12.7453 19.259C12.6063 19.2239 12.4673 19.1751 12.3265 19.1301C12.1277 19.0685 11.9307 19.0005 11.7356 18.9261L11.8203 18.9544L11.765 18.931C11.6438 18.8861 11.5271 18.8363 11.4086 18.7865C11.3796 18.773 11.3501 18.7606 11.3203 18.7494L11.3105 18.7465C11.1795 18.6889 11.0521 18.6303 10.9255 18.5688C10.8979 18.559 10.8747 18.5453 10.8471 18.5336C10.6972 18.4621 10.5487 18.3872 10.4015 18.3091L10.5245 18.3686C10.4924 18.3531 10.4609 18.3361 10.43 18.3178C10.3463 18.2749 10.2625 18.2261 10.1805 18.1802C10.1181 18.1478 10.0565 18.1133 9.99603 18.0767L10.0139 18.0865C9.91315 18.0279 9.81244 17.9644 9.71085 17.9049C9.68055 17.8814 9.64579 17.8619 9.61103 17.8404C9.46002 17.7443 9.31086 17.6447 9.16366 17.5417L9.2198 17.5788C9.18208 17.5532 9.14522 17.5262 9.10929 17.4977L9.11464 17.5016C9.01886 17.4372 8.92494 17.3695 8.83302 17.2986C8.80272 17.2771 8.7751 17.2537 8.74391 17.2302C8.64789 17.1584 8.5534 17.0842 8.46051 17.0076L8.4819 17.0242C8.44447 16.991 8.40436 16.9598 8.36426 16.9276C8.28583 16.8602 8.20652 16.7958 8.12809 16.7255L8.02293 16.6337C7.91086 16.536 7.80091 16.4354 7.69319 16.332L7.6923 16.331L7.38306 16.0235L7.29394 15.9317C7.22086 15.8507 7.14601 15.7735 7.07115 15.6935L6.9847 15.5959C6.89243 15.4958 6.8024 15.3932 6.71467 15.2883L6.70932 15.2815L6.69417 15.2678C6.59981 15.1543 6.50682 15.0394 6.41523 14.9232C6.39117 14.8929 6.36889 14.8607 6.34394 14.8285L6.14164 14.56C6.05044 14.4345 5.96131 14.3072 5.87428 14.1782L5.83863 14.1236C3.75503 11.0228 3.00109 6.74353 4.6685 3.23267L3.19626 5.27221C1.30248 8.23926 1.53686 12.0977 2.98505 15.2483C3.01802 15.3254 3.05456 15.3977 3.09021 15.4709Z" fill="white"/>
<path d="M9.46845 11.1965L9.45864 11.1809L9.45062 11.1692L9.46845 11.1965Z" fill="white"/>
<path d="M10.4648 12.4774L10.545 12.5653C10.6466 12.6727 10.7509 12.7772 10.8569 12.8816L10.8703 12.8943C10.9772 12.9978 11.0975 13.1062 11.2214 13.2116L11.2401 13.2273C11.2704 13.2497 11.2963 13.2761 11.3257 13.2985C11.4504 13.404 11.5761 13.5045 11.7071 13.6051L11.7205 13.6139C11.7757 13.6578 11.8345 13.6978 11.8969 13.7408C11.9219 13.7584 11.9504 13.7818 11.9771 13.7994C12.0716 13.8658 12.1643 13.9273 12.2596 13.9907C12.2748 13.9976 12.2882 14.0064 12.3024 14.0132C12.3826 14.0669 12.47 14.1186 12.5537 14.1655C12.5831 14.185 12.6117 14.1997 12.642 14.2182C12.7017 14.2504 12.7605 14.2846 12.8175 14.3178L12.846 14.3315C12.9664 14.3959 13.0893 14.4564 13.2096 14.516C13.2399 14.5287 13.2658 14.5394 13.2916 14.5531C13.3906 14.6 13.4913 14.6449 13.5902 14.6859C13.6347 14.7025 13.6766 14.722 13.7185 14.7366C13.8094 14.7737 13.9048 14.8079 13.9948 14.8421L14.1196 14.886C14.2497 14.93 14.3816 14.9876 14.5197 15.011C21.5895 16.2861 23.2257 10.353 23.2257 10.353C21.7526 12.6639 18.9017 13.7652 15.8636 12.9051C15.712 12.8632 15.5616 12.816 15.4127 12.7635L15.4635 12.7791C15.4207 12.7664 15.3833 12.7518 15.3423 12.7381C15.2496 12.703 15.1542 12.6688 15.0642 12.6327L14.9359 12.5799C14.8361 12.536 14.7345 12.495 14.6373 12.4481C14.607 12.4335 14.5794 12.4237 14.5562 12.4091C14.4315 12.3476 14.3058 12.2871 14.1837 12.2226L14.0001 12.1181L13.8941 12.0596C13.8121 12.0127 13.7363 11.9639 13.6579 11.9141C13.6379 11.9038 13.6186 11.8921 13.6 11.8789L13.6027 11.8799C13.5082 11.8155 13.4102 11.753 13.3193 11.6876C13.289 11.669 13.2613 11.6466 13.2328 11.6271L13.0475 11.4953C12.9191 11.3976 12.7935 11.2932 12.666 11.1916C12.6375 11.1633 12.6099 11.1399 12.5823 11.1145C11.2464 9.96926 10.193 8.40421 9.69302 6.63218C9.16633 4.78986 9.28218 2.72396 10.1921 1.04761L9.07364 2.77375C7.70032 4.92264 7.77785 7.79498 8.84728 10.0679C9.04245 10.4877 9.24029 10.8421 9.45864 11.1799C9.66183 11.4982 9.88641 11.8711 10.1573 12.1269C10.2536 12.247 10.357 12.3613 10.4648 12.4774Z" fill="white"/>
<path d="M4.00816 17.0779L4.00459 17.0721L3.99835 17.0633L4.00816 17.0779ZM7.71372 16.3516L7.72263 16.3584L7.72441 16.3613L7.71372 16.3516Z" fill="white"/>
<path d="M14.0162 0.905053C13.2061 2.20063 13.1286 3.80962 13.6865 5.23798C14.2791 6.75519 15.4903 7.9463 16.9019 8.51062C16.9598 8.53503 17.016 8.55553 17.0757 8.57896L17.1541 8.60532C17.2361 8.63363 17.319 8.66683 17.4036 8.68733C21.3079 9.50842 22.3649 6.50232 22.6492 6.06004C21.7197 7.51477 20.161 7.86429 18.2485 7.35758C18.0822 7.31315 17.9185 7.25773 17.7583 7.1916L17.7877 7.20234C17.5884 7.12678 17.3932 7.03876 17.2031 6.93874L17.237 6.95533C16.8716 6.76007 16.5579 6.54918 16.2665 6.30705C14.5572 4.89138 13.5002 2.19575 14.616 0L14.0162 0.905053Z" fill="white"/>
</svg>
