<svg width="24" height="24" viewBox="0 0 24 24" fill="none" xmlns="http://www.w3.org/2000/svg">
<g clip-path="url(#clip0_2001_359)">
<path d="M23.8329 11.7062L22.8249 11.0822C22.8163 10.9843 22.8067 10.8864 22.7961 10.7885L23.662 9.98111C23.7503 9.89951 23.7897 9.77759 23.7657 9.65951C23.7427 9.54143 23.6601 9.44447 23.5468 9.40223L22.4399 8.98847C22.4121 8.89247 22.3833 8.79743 22.3535 8.70239L23.0438 7.74335C23.1561 7.58783 23.1206 7.37183 22.9651 7.25951C22.9209 7.22783 22.871 7.20671 22.8182 7.19807L21.6508 7.00799C21.6057 6.91967 21.5587 6.83231 21.5107 6.74591L22.0012 5.66975C22.0511 5.56031 22.0415 5.43263 21.9743 5.33279C21.9081 5.23295 21.7939 5.17439 21.6739 5.17919L20.4892 5.22047C20.4278 5.14367 20.3654 5.06783 20.302 4.99391L20.5747 3.83999C20.6025 3.72287 20.567 3.59999 20.4825 3.51551C20.398 3.43007 20.2751 3.39551 20.158 3.42335L19.0041 3.69503C18.9292 3.63167 18.8534 3.56927 18.7766 3.50783L18.8179 2.32319C18.8227 2.20319 18.7641 2.08895 18.6643 2.02271C18.5644 1.95551 18.4367 1.94591 18.3273 1.99583L17.2521 2.48639C17.1657 2.43839 17.0783 2.39135 16.99 2.34623L16.7999 1.17887C16.7692 0.989748 16.5907 0.861108 16.4015 0.892788C16.3487 0.901428 16.2988 0.922548 16.2547 0.953268L15.2947 1.64351C15.2006 1.61375 15.1055 1.58495 15.0095 1.55711L14.5958 0.450228C14.5535 0.337908 14.4566 0.254388 14.3385 0.231348C14.2204 0.208308 14.0995 0.247668 14.0179 0.335028L13.2105 1.20191C13.1126 1.19135 13.0147 1.18175 12.9167 1.17311L12.2927 0.165108C12.1919 0.00190814 11.9779 -0.0480119 11.8156 0.0527881C11.7695 0.0806281 11.7311 0.119028 11.7033 0.165108L11.0793 1.17311C10.9814 1.18175 10.8835 1.19039 10.7855 1.20191L9.97722 0.335028C9.84666 0.194868 9.62778 0.187188 9.48762 0.317748C9.44826 0.354228 9.41754 0.400308 9.3993 0.451188L8.98554 1.55807C8.88954 1.58591 8.7945 1.61471 8.70042 1.64447L7.74138 0.954228C7.64346 0.884148 7.51674 0.868788 7.40538 0.914868C7.29498 0.960948 7.2153 1.06079 7.1961 1.17983L7.00602 2.34719C6.9177 2.39327 6.83034 2.43935 6.74394 2.48735L5.66778 1.99679C5.55834 1.94687 5.43162 1.95743 5.33178 2.02367C5.23194 2.08991 5.17338 2.20415 5.17818 2.32415L5.21946 3.50879C5.14266 3.57023 5.06682 3.63263 4.99194 3.69599L3.83802 3.42431C3.7209 3.39647 3.59802 3.43199 3.51354 3.51647C3.4281 3.60095 3.39354 3.72479 3.42138 3.84095L3.69306 4.99487C3.6297 5.06975 3.5673 5.14559 3.50682 5.22143L2.32218 5.18015C2.20218 5.17631 2.0889 5.23487 2.0217 5.33375C1.9545 5.43359 1.9449 5.56127 1.99482 5.67071L2.48538 6.74687C2.43738 6.83327 2.39034 6.92063 2.34522 7.00895L1.17786 7.19903C0.988739 7.22975 0.860099 7.40831 0.891779 7.59743C0.900419 7.65023 0.921539 7.70111 0.952259 7.74431L1.6425 8.70335C1.61274 8.79839 1.58298 8.89343 1.5561 8.98943L0.449219 9.40319C0.269699 9.47039 0.178499 9.67103 0.246659 9.85055C0.265859 9.90047 0.295619 9.94559 0.334979 9.98207L1.2009 10.7894C1.19034 10.8873 1.18074 10.9853 1.1721 11.0832L0.164099 11.7072C0.062339 11.7705 -6.10352e-05 11.8819 -6.10352e-05 12.0019C-6.10352e-05 12.1219 0.062339 12.2342 0.164099 12.2966L1.1721 12.9206C1.18074 13.0185 1.19034 13.1165 1.2009 13.2144L0.334979 14.0227C0.194819 14.1533 0.187139 14.3721 0.317699 14.5123C0.354179 14.5517 0.399299 14.5824 0.450179 14.6006L1.55706 15.0144C1.5849 15.1104 1.6137 15.2054 1.64346 15.3005L0.953219 16.2595C0.840899 16.415 0.876419 16.631 1.03098 16.7433C1.07514 16.775 1.12506 16.7961 1.17882 16.8048L2.34618 16.9949C2.39226 17.0832 2.43834 17.1705 2.48634 17.2569L1.99578 18.3331C1.94586 18.4425 1.95642 18.5702 2.02266 18.6701C2.0889 18.7699 2.20314 18.8285 2.32314 18.8237L3.50682 18.7824C3.56826 18.8592 3.63066 18.935 3.69402 19.0099L3.41946 20.1609C3.39162 20.2781 3.42714 20.4009 3.51162 20.4854C3.5961 20.5709 3.71994 20.6054 3.8361 20.5776L4.99002 20.3059C5.0649 20.3693 5.14074 20.4317 5.21754 20.4921L5.17626 21.6768C5.16954 21.8678 5.31834 22.0281 5.51034 22.0358C5.5641 22.0377 5.61786 22.0272 5.66682 22.0051L6.74298 21.5145C6.82938 21.5625 6.91674 21.6096 7.00506 21.6547L7.19514 22.8211C7.21434 22.9401 7.29402 23.04 7.40442 23.0861C7.51578 23.1321 7.6425 23.1177 7.74042 23.0477L8.69946 22.3565C8.7945 22.3862 8.88954 22.416 8.98554 22.4438L9.3993 23.5507C9.44154 23.663 9.5385 23.7465 9.65658 23.7696C9.77466 23.7936 9.89562 23.7542 9.97722 23.6659L10.7855 22.8C10.8835 22.8115 10.9814 22.8201 11.0793 22.8298L11.7033 23.8377C11.7667 23.9395 11.878 24.0019 11.998 24.0019C12.118 24.0019 12.2294 23.9395 12.2927 23.8377L12.9167 22.8298C13.0147 22.8211 13.1126 22.8115 13.2105 22.8L14.0179 23.6659C14.0995 23.7542 14.2214 23.7936 14.3385 23.7696C14.4566 23.7465 14.5535 23.664 14.5958 23.5507L15.0095 22.4438C15.1055 22.416 15.2006 22.3872 15.2956 22.3565L16.2547 23.0477C16.4102 23.159 16.6271 23.1245 16.7385 22.9689C16.7702 22.9257 16.7903 22.8749 16.799 22.8221L16.9891 21.6557C17.0774 21.6096 17.1638 21.5625 17.2511 21.5155L18.3273 22.0061C18.5011 22.0857 18.7065 22.0099 18.7862 21.8361C18.8092 21.7872 18.8198 21.7334 18.8179 21.6787L18.7766 20.4941C18.8534 20.4326 18.9292 20.3712 19.0041 20.3078L20.158 20.5795C20.2751 20.6073 20.398 20.5728 20.4825 20.4873C20.5679 20.4029 20.6025 20.28 20.5747 20.1629L20.303 19.0089C20.3663 18.9341 20.4287 18.8582 20.4892 18.7814L21.6739 18.8227C21.7939 18.8275 21.9081 18.7689 21.9743 18.6691C22.0415 18.5693 22.0521 18.4416 22.0012 18.3321L21.5107 17.256C21.5587 17.1686 21.6057 17.0822 21.6508 16.9939L22.8182 16.8038C22.9372 16.7846 23.0371 16.7049 23.0831 16.5945C23.1292 16.4832 23.1148 16.3565 23.0438 16.2595L22.3535 15.3005C22.3833 15.2054 22.4121 15.1104 22.4399 15.0144L23.5468 14.6006C23.6591 14.5584 23.7427 14.4614 23.7657 14.3433C23.7897 14.2253 23.7503 14.1043 23.662 14.0227L22.7961 13.2144C22.8067 13.1165 22.8163 13.0185 22.8249 12.9206L23.8329 12.2966C23.9347 12.2333 23.9971 12.1219 23.9971 12.0019C23.9971 11.8809 23.9347 11.7686 23.8329 11.7062ZM17.0889 20.064C16.7039 19.9814 16.4591 19.6022 16.5417 19.2163C16.6243 18.8304 17.0025 18.5856 17.3875 18.6681C17.7724 18.7507 18.0172 19.1309 17.9347 19.5158C17.8531 19.9008 17.4739 20.1465 17.0889 20.064ZM16.7471 17.7485C16.3967 17.6736 16.0511 17.8963 15.9753 18.2477V18.2486L15.6172 19.9181C14.5132 20.4192 13.2873 20.6976 11.9961 20.6976C10.6751 20.6976 9.4233 20.4057 8.29914 19.8835L7.94202 18.2141C7.86714 17.8627 7.52154 17.639 7.17018 17.7139L5.69658 18.0307C5.42298 17.7485 5.16858 17.4489 4.93434 17.1321H12.1055C12.1862 17.1321 12.2409 17.1178 12.2409 17.0438V14.5075C12.2409 14.4336 12.1871 14.4192 12.1055 14.4192H10.0089V12.8112H12.2774C12.4847 12.8112 13.3843 12.8707 13.6723 14.0208C13.7625 14.375 13.9603 15.5251 14.0956 15.8937C14.23 16.3065 14.7791 17.1321 15.3647 17.1321H18.9379C18.9782 17.1321 19.0214 17.1273 19.0675 17.1197C18.8198 17.4566 18.5481 17.7753 18.2543 18.0729L16.7471 17.7485ZM6.82938 20.0294C6.44442 20.1129 6.06522 19.8672 5.98266 19.4813C5.9001 19.0954 6.1449 18.7161 6.52986 18.6336C6.91482 18.551 7.29402 18.7968 7.37658 19.1817C7.45818 19.5667 7.21338 19.9469 6.82938 20.0294ZM4.10874 8.99903C4.2681 9.35903 4.10586 9.78143 3.74586 9.94079C3.38586 10.1011 2.96538 9.93791 2.80602 9.57791C2.64666 9.21791 2.8089 8.79647 3.1689 8.63615C3.52794 8.47583 3.94938 8.63807 4.10874 8.99903C4.10874 8.99807 4.10874 8.99807 4.10874 8.99903ZM3.27258 10.9805L4.80762 10.2979C5.13594 10.152 5.28378 9.76799 5.13786 9.43967L4.82202 8.72447H6.06522V14.3299H3.55674C3.33402 13.5465 3.2217 12.7373 3.22266 11.9232C3.22266 11.6045 3.23994 11.2896 3.27258 10.9805ZM10.0099 10.4361V8.78399H12.9715C13.1241 8.78399 14.0515 8.96063 14.0515 9.65375C14.0515 10.2297 13.3401 10.4352 12.7555 10.4352L10.0099 10.4361ZM20.7715 11.9232C20.7715 12.1421 20.7638 12.359 20.7475 12.575H19.847C19.7567 12.575 19.7203 12.6345 19.7203 12.7229V13.1366C19.7203 14.1101 19.1711 14.3213 18.6911 14.375C18.2332 14.4269 17.7254 14.183 17.663 13.9027C17.3932 12.383 16.943 12.0585 16.2316 11.4979C17.1139 10.9382 18.0316 10.1117 18.0316 9.00479C18.0316 7.81055 17.2127 7.05791 16.655 6.68927C15.8716 6.17279 15.0047 6.06911 14.7715 6.06911H5.46138C6.72378 4.65983 8.43546 3.66143 10.3699 3.29855L11.4671 4.44959C11.7148 4.70879 12.1257 4.71935 12.3849 4.47167L12.3859 4.47071L13.6137 3.29663C16.1865 3.77567 18.3647 5.37695 19.6204 7.57439L18.7795 9.47423C18.6345 9.80255 18.7823 10.1875 19.1097 10.3325L20.7283 11.0515C20.7571 11.3385 20.7715 11.6285 20.7715 11.9232ZM11.4671 2.32031C11.7513 2.04767 12.2025 2.05919 12.4751 2.34335C12.7468 2.62847 12.7363 3.08063 12.4511 3.35231C12.167 3.62495 11.7158 3.61439 11.4431 3.32927C11.1724 3.04319 11.183 2.59199 11.4671 2.32031ZM19.8095 9.03359C19.9689 8.67359 20.3884 8.51135 20.7484 8.66975C20.7484 8.66975 20.7494 8.66975 20.7494 8.67071C21.1094 8.83007 21.2716 9.25247 21.1123 9.61247C20.9539 9.97247 20.5334 10.1347 20.1734 9.97631C20.1734 9.97631 20.1724 9.97631 20.1724 9.97535C19.8124 9.81599 19.6502 9.39359 19.8095 9.03359Z" fill="white"/>
</g>
<defs>
<clipPath id="clip0_2001_359">
<rect width="24" height="24" fill="white"/>
</clipPath>
</defs>
</svg>
