<svg width="100" height="100" viewBox="0 0 100 100" fill="none" xmlns="http://www.w3.org/2000/svg">
<path d="M94.1316 37.4011V26.047L83.0643 18.846L73.0031 25.399L60.949 18.245V8.02353L49.8826 0.82251L38.8265 8.02455V18.2613L27.2275 25.5501L16.9245 18.846L5.86836 26.048V37.4011L15.9051 43.946V54.5103L5.86734 61.048V72.4011L16.9235 79.6113L26.9398 73.0858L38.8255 81.6878V91.9664L49.8816 99.1776L60.948 91.9674V81.7297L73.5724 73.7633L73.2051 73.1817L83.0633 79.6103L94.1296 72.4011V61.047L84.0847 54.5103V43.946L94.1316 37.4011ZM92.0908 36.295L84.0857 41.5092V33.6776L92.0908 28.4684V36.295ZM74.05 28.4694L82.0449 33.6776V41.5082L74.049 36.296L74.05 28.4694ZM49.8826 3.25822L58.0459 8.57047L49.8826 13.8837L41.7265 8.57047L49.8826 3.25822ZM58.9071 10.446V18.2725L50.902 23.4868V15.6541L58.9071 10.446ZM40.8663 10.446L48.8612 15.6541V23.4858L40.8663 18.2715V10.446ZM27.9918 27.4797L39.8367 20.0368L49.8826 26.5878L59.9541 20.0266L72.0082 27.1817V36.2184L59.9949 42.2327L49.8826 35.6511L39.7847 42.2297L27.9918 36.2225V27.4797ZM41.7265 43.399L49.8837 38.0868L58.0469 43.399L49.8837 48.7123L41.7265 43.399ZM48.8622 50.4837V58.3143L40.8673 53.1001V45.2756L48.8622 50.4837ZM50.9031 50.4837L58.9082 45.2746V53.1011L50.9031 58.3154V50.4837ZM16.9255 21.2817L25.0888 26.5939L16.9255 31.9062L8.76938 26.5939L16.9255 21.2817ZM25.951 28.4684V36.295L17.9459 41.5092V33.6776L25.951 28.4684ZM7.9102 36.295V28.4694L15.9051 33.6776V41.5082L7.9102 36.295ZM15.9051 76.5092L7.9102 71.295V63.4705L15.9051 68.6786V76.5092ZM8.76938 61.5939L16.9255 56.2817L25.0888 61.5939L16.9255 66.9072L8.76938 61.5939ZM25.951 71.295L17.9459 76.5092V68.6786L25.951 63.4694V71.295ZM27.9918 71.3276V61.047L17.9459 54.5103V43.946L27.0337 38.0256L38.8265 44.0307V54.2041L48.8622 60.7501V74.0756L39.8775 79.9286L27.9918 71.3276ZM48.8622 96.0756L40.8673 90.8613V83.0358L48.8622 88.2439V96.0756ZM41.7275 81.1603L49.8837 75.847L58.0469 81.1603L49.8837 86.4725L41.7275 81.1603ZM58.9082 90.8613L50.9031 96.0756V88.245L58.9082 83.0358V90.8613ZM72.0082 61.048V72.3368L59.9367 79.9541L50.9031 74.0756V60.749L60.949 54.2052V44.0358L72.9622 38.0215L82.0439 43.945V54.5103L72.0082 61.048ZM82.0449 76.5092L74.049 71.295V63.4705L82.0449 68.6786V76.5092ZM92.0908 71.295L84.0857 76.5092V68.6786L92.0908 63.4694V71.295ZM91.2296 61.5939L83.0663 66.9072L74.9092 61.5939L83.0653 56.2817L91.2296 61.5939ZM83.0663 31.9062L74.9092 26.5939L83.0653 21.2817L91.2286 26.5939L83.0663 31.9062Z" fill="#57AF7D"/>
<path d="M31.1826 14.2399L32.9337 13.1909L33.9826 14.9419L32.2316 15.9909L31.1826 14.2399ZM24.1806 18.4389L25.9316 17.3899L26.9806 19.1409L25.2296 20.1899L24.1806 18.4389ZM27.6837 16.3409L29.4337 15.2919L30.4826 17.043L28.7316 18.0919L27.6837 16.3409ZM73.2714 17.4185L75.0224 18.4685L73.9735 20.2195L72.2224 19.1705L73.2714 17.4185ZM68.7449 17.0542L69.7939 15.3032L71.5449 16.3521L70.4959 18.1032L68.7449 17.0542ZM65.2418 14.9562L66.2908 13.2052L68.0418 14.2542L66.9928 16.0052L65.2418 14.9562Z" fill="#57AF7D"/>
</svg>
