<svg width="100" height="100" viewBox="0 0 100 100" fill="none" xmlns="http://www.w3.org/2000/svg">
<path d="M89.2125 6.66089H10.7875C9.58446 6.66213 8.43105 7.14058 7.58037 7.99126C6.7297 8.84194 6.25124 9.99535 6.25 11.1984V88.8015C6.25124 90.0046 6.7297 91.158 7.58037 92.0086C8.43105 92.8593 9.58446 93.3378 10.7875 93.339H89.2125C90.4155 93.3378 91.5689 92.8593 92.4196 92.0086C93.2703 91.158 93.7488 90.0046 93.75 88.8015V11.1984C93.7488 9.99535 93.2703 8.84194 92.4196 7.99126C91.5689 7.14058 90.4155 6.66213 89.2125 6.66089ZM90.625 11.1984V27.2125H38.1094L45.7594 9.78589H89.2125C89.587 9.7863 89.946 9.93525 90.2108 10.2001C90.4756 10.4649 90.6246 10.8239 90.625 11.1984ZM30.7344 27.2125L38.3844 9.78589H42.3469L34.6969 27.2125H30.7344ZM10.7875 9.78589H34.9719L27.3219 27.2125H9.375V11.1984C9.37541 10.8239 9.52436 10.4649 9.78917 10.2001C10.054 9.93525 10.413 9.7863 10.7875 9.78589ZM89.2125 90.214H10.7875C10.413 90.2136 10.054 90.0647 9.78917 89.7998C9.52436 89.535 9.37541 89.176 9.375 88.8015V30.3375H90.625V88.8015C90.6246 89.176 90.4756 89.535 90.2108 89.7998C89.946 90.0647 89.587 90.2136 89.2125 90.214Z" fill="#57AF7D"/>
<path d="M77.6093 37.4579H22.6203C21.7047 37.4587 20.8269 37.8228 20.1795 38.4702C19.5321 39.1176 19.168 39.9954 19.1672 40.911V47.1375C19.168 48.0531 19.5321 48.931 20.1795 49.5784C20.8269 50.2258 21.7047 50.5898 22.6203 50.5907H77.6093C78.5249 50.5898 79.4027 50.2258 80.0502 49.5784C80.6976 48.931 81.0616 48.0531 81.0625 47.1375V40.911C81.0616 39.9954 80.6976 39.1176 80.0502 38.4702C79.4027 37.8228 78.5249 37.4587 77.6093 37.4579ZM77.9375 47.1375C77.8672 48.0954 23.05 47.1376 22.6203 47.4657C22.5333 47.4657 22.4498 47.4311 22.3883 47.3696C22.3267 47.308 22.2922 47.2246 22.2922 47.1375V40.911C22.2922 40.824 22.3267 40.7405 22.3883 40.679C22.4498 40.6174 22.5333 40.5829 22.6203 40.5829H77.6093C77.6964 40.5829 77.7798 40.6174 77.8414 40.679C77.9029 40.7405 77.9375 40.824 77.9375 40.911V47.1375ZM24.2218 70.0094L38.414 62.8297C38.7839 62.6426 39.0643 62.3163 39.1935 61.9224C39.3227 61.5286 39.2902 61.0996 39.1031 60.7297C38.916 60.3599 38.5896 60.0795 38.1958 59.9503C37.802 59.8211 37.3729 59.8536 37.0031 60.0407L22.8125 67.2188C22.064 67.5976 21.4352 68.1766 20.996 68.8912C20.5567 69.6059 20.3241 70.4284 20.3241 71.2672C20.3241 72.1061 20.5567 72.9286 20.996 73.6432C21.4352 74.3579 22.064 74.9368 22.8125 75.3157L37.0031 82.4954C37.221 82.6057 37.4619 82.663 37.7062 82.6626C38.0531 82.6543 38.3875 82.5315 38.6572 82.3133C38.927 82.0951 39.117 81.7938 39.1976 81.4564C39.2783 81.1189 39.245 80.7643 39.1029 80.4477C38.9609 80.1311 38.7181 79.8705 38.4125 79.7063L24.2218 72.5266C23.9855 72.4118 23.7862 72.2329 23.6468 72.0102C23.5073 71.7874 23.4334 71.53 23.4334 71.2672C23.4334 71.0045 23.5073 70.747 23.6468 70.5243C23.7862 70.3016 23.9855 70.1242 24.2218 70.0094ZM77.4172 67.2188L63.225 60.0407C62.8555 59.857 62.4283 59.8269 62.0367 59.957C61.6452 60.0871 61.3209 60.3668 61.1348 60.7351C60.9487 61.1034 60.9159 61.5303 61.0434 61.9228C61.1709 62.3152 61.4485 62.6412 61.8156 62.8297L76.0078 70.0094C76.2441 70.1242 76.4434 70.3032 76.5829 70.5259C76.7223 70.7486 76.7962 71.006 76.7962 71.2688C76.7962 71.5316 76.7223 71.789 76.5829 72.0117C76.4434 72.2344 76.2441 72.4134 76.0078 72.5282L61.8156 79.7079C61.4485 79.8964 61.1709 80.2224 61.0434 80.6148C60.9159 81.0073 60.9487 81.4342 61.1348 81.8025C61.3209 82.1708 61.6452 82.4505 62.0367 82.5806C62.4283 82.7107 62.8555 82.6806 63.225 82.4969L77.4172 75.3172C78.1569 74.9309 78.7767 74.3494 79.2091 73.6356C79.6416 72.9219 79.8703 72.1033 79.8703 71.2688C79.8703 70.4343 79.6416 69.6157 79.2091 68.902C78.7767 68.1882 78.1569 67.6051 77.4172 67.2188ZM18.8078 24.3407C20.3063 24.3159 21.735 23.7032 22.7859 22.6348C23.8369 21.5663 24.4258 20.1276 24.4258 18.629C24.4258 17.1303 23.8369 15.6916 22.7859 14.6231C21.735 13.5547 20.3063 12.942 18.8078 12.9172C17.3093 12.942 15.8806 13.5547 14.8296 14.6231C13.7787 15.6916 13.1898 17.1303 13.1898 18.629C13.1898 20.1276 13.7787 21.5663 14.8296 22.6348C15.8806 23.7032 17.3093 24.3159 18.8078 24.3407ZM18.8078 16.0422C19.4828 16.0588 20.1246 16.3386 20.5962 16.8219C21.0677 17.3052 21.3317 17.9537 21.3317 18.629C21.3317 19.3042 21.0677 19.9527 20.5962 20.436C20.1246 20.9193 19.4828 21.1991 18.8078 21.2157C18.1328 21.1991 17.4909 20.9193 17.0194 20.436C16.5478 19.9527 16.2839 19.3042 16.2839 18.629C16.2839 17.9537 16.5478 17.3052 17.0194 16.8219C17.4909 16.3386 18.1328 16.0588 18.8078 16.0422ZM55.8687 60.0219C55.4938 59.8456 55.0643 59.8252 54.6744 59.9652C54.2845 60.1053 53.9661 60.3943 53.789 60.7688L44.5047 80.436C44.3423 80.8085 44.3314 81.2296 44.4743 81.61C44.6172 81.9904 44.9027 82.3002 45.2703 82.4736C45.6378 82.6469 46.0584 82.6703 46.4429 82.5388C46.8273 82.4072 47.1454 82.131 47.3297 81.7688L56.614 62.1016C56.7904 61.7271 56.811 61.298 56.6712 60.9084C56.5315 60.5188 56.2429 60.199 55.8687 60.0219Z" fill="#57AF7D"/>
</svg>
