<svg width="100" height="98" viewBox="0 0 100 98" fill="none" xmlns="http://www.w3.org/2000/svg">
<path d="M29.8809 70.2422V50.6777M89.0703 68.6523V80.8633C89.0703 82.6074 87.6563 84.0195 85.9141 84.0195H79.2051V94.4961C79.2051 94.7722 79.1211 95.0417 78.9644 95.269C78.8077 95.4963 78.5855 95.6705 78.3275 95.7686C78.0694 95.8667 77.7876 95.884 77.5195 95.8182C77.2514 95.7525 77.0096 95.6068 76.8262 95.4004L66.709 84.0195H33.0371C31.2949 84.0195 29.8809 82.6074 29.8809 80.8633V77.0977M1.46484 16.4902V47.5195C1.46484 49.2637 2.87695 50.6777 4.62109 50.6777H11.3301V61.1543C11.3301 61.9043 11.9395 62.5156 12.6914 62.5156C13.0801 62.5156 13.4512 62.3496 13.709 62.0566L23.8242 50.6777H54.3398M1.46484 9.63477V5.29883C1.46484 3.55469 2.87695 2.14258 4.62109 2.14258H56.709C58.8887 2.14258 60.6543 3.9082 60.6543 6.08789V35.2109M10.5404 37.8527H51.5783" stroke="#57AF7D" stroke-width="3" stroke-miterlimit="10" stroke-linecap="round" stroke-linejoin="round"/>
<path d="M15.2756 37.8528V19.7015C15.2756 19.2829 15.4419 18.8814 15.7379 18.5854C16.0339 18.2894 16.4353 18.1231 16.8539 18.1231H20.0107C20.4293 18.1231 20.8308 18.2894 21.1268 18.5854C21.4228 18.8814 21.5891 19.2829 21.5891 19.7015V37.8528M27.9027 37.8528V25.6204C27.9027 25.2018 28.069 24.8004 28.365 24.5044C28.661 24.2084 29.0625 24.0421 29.4811 24.0421H32.6379C33.0565 24.0421 33.4579 24.2084 33.7539 24.5044C34.0499 24.8004 34.2162 25.2018 34.2162 25.6204V37.8528M40.5297 37.8528V16.5446C40.5297 16.126 40.696 15.7246 40.992 15.4286C41.288 15.1326 41.6894 14.9663 42.108 14.9663H45.2648C45.6834 14.9663 46.0849 15.1326 46.3809 15.4286C46.6769 15.7246 46.8432 16.126 46.8432 16.5446V37.8528M97.2125 46.4142L93.8594 45.7155C93.478 44.3759 92.9425 43.0851 92.2635 41.869L94.1422 39.0017C94.3514 38.6823 94.4443 38.3006 94.4052 37.9208C94.366 37.541 94.1973 37.1863 93.9273 36.9163L90.1988 33.1878C89.9288 32.9178 89.5741 32.749 89.1943 32.7099C88.8145 32.6708 88.4328 32.7637 88.1135 32.9729L85.2461 34.8517C84.03 34.1726 82.7392 33.637 81.3996 33.2558L80.701 29.9026C80.6231 29.5288 80.4189 29.1932 80.1227 28.9523C79.8264 28.7115 79.4562 28.58 79.0744 28.58H73.8014C73.4196 28.58 73.0494 28.7115 72.7531 28.9524C72.4569 29.1933 72.2527 29.5288 72.1748 29.9026L71.4762 33.2558C70.1366 33.6371 68.8458 34.1726 67.6297 34.8517L64.7623 32.9729C64.4429 32.7637 64.0613 32.6708 63.6815 32.71C63.3017 32.7491 62.9469 32.9178 62.677 33.1878L58.9484 36.9163C58.6785 37.1863 58.5097 37.541 58.4706 37.9208C58.4314 38.3006 58.5243 38.6823 58.7336 39.0017L60.6123 41.869C59.9333 43.0851 59.3977 44.3759 59.0164 45.7155L55.6633 46.4142C55.2895 46.492 54.9539 46.6962 54.713 46.9925C54.4721 47.2887 54.3406 47.6589 54.3406 48.0407V53.3138C54.3406 53.6956 54.4721 54.0657 54.713 54.362C54.9539 54.6582 55.2895 54.8625 55.6633 54.9403L59.0164 55.639C59.3977 56.9786 59.9333 58.2694 60.6123 59.4854L58.7336 62.3528C58.5244 62.6722 58.4315 63.0539 58.4706 63.4337C58.5097 63.8135 58.6785 64.1682 58.9484 64.4382L62.677 68.1667C62.9469 68.4367 63.3017 68.6054 63.6815 68.6446C64.0613 68.6837 64.443 68.5908 64.7623 68.3815L67.6297 66.5028C68.8458 67.1819 70.1366 67.7174 71.4762 68.0987L72.1748 71.4519C72.2526 71.8257 72.4569 72.1612 72.7531 72.4021C73.0494 72.643 73.4195 72.7745 73.8014 72.7745H79.0744C79.4562 72.7745 79.8264 72.643 80.1226 72.4021C80.4189 72.1612 80.6231 71.8256 80.701 71.4519L81.3996 68.0987C82.7392 67.7174 84.03 67.1818 85.2461 66.5028L88.1135 68.3815C88.4328 68.5908 88.8145 68.6836 89.1943 68.6445C89.5741 68.6054 89.9288 68.4367 90.1988 68.1667L93.9273 64.4382C94.1973 64.1682 94.3661 63.8135 94.4052 63.4337C94.4443 63.0539 94.3515 62.6722 94.1422 62.3528L92.2635 59.4854C92.9425 58.2694 93.4781 56.9786 93.8594 55.639L97.2125 54.9403C97.5863 54.8625 97.9219 54.6583 98.1628 54.362C98.4037 54.0658 98.5352 53.6956 98.5352 53.3138V48.0407C98.5352 47.6589 98.4037 47.2887 98.1628 46.9925C97.9219 46.6962 97.5863 46.492 97.2125 46.4142Z" stroke="#57AF7D" stroke-width="3" stroke-miterlimit="10" stroke-linecap="round" stroke-linejoin="round"/>
<path d="M70.9492 40.1875C72.5898 39.3262 74.457 38.8398 76.4375 38.8398C82.9766 38.8398 88.2754 44.1387 88.2754 50.6777C88.2754 57.2148 82.9766 62.5156 76.4375 62.5156C69.9004 62.5156 64.5996 57.2148 64.5996 50.6777C64.5996 48.5957 65.1367 46.6387 66.082 44.9395" stroke="#57AF7D" stroke-width="3" stroke-miterlimit="10" stroke-linecap="round" stroke-linejoin="round"/>
<path d="M81.2217 47.4878L74.8432 53.8663L71.6539 50.677" stroke="#57AF7D" stroke-width="3" stroke-miterlimit="10" stroke-linecap="round" stroke-linejoin="round"/>
</svg>
