<svg width="100" height="100" viewBox="0 0 100 100" fill="none" xmlns="http://www.w3.org/2000/svg">
<path d="M48.8281 25.8789C49.2166 25.8789 49.5892 25.7246 49.8639 25.4499C50.1386 25.1752 50.2929 24.8026 50.2929 24.4141C50.2929 24.0256 50.1386 23.653 49.8639 23.3783C49.5892 23.1036 49.2166 22.9492 48.8281 22.9492H29.4978C29.1093 22.9492 28.7367 23.1036 28.462 23.3783C28.1873 23.653 28.033 24.0256 28.033 24.4141C28.033 24.8026 28.1873 25.1752 28.462 25.4499C28.7367 25.7246 29.1093 25.8789 29.4978 25.8789H48.8281ZM21.3923 34.375C21.3923 34.7635 21.5467 35.1361 21.8214 35.4108C22.0961 35.6855 22.4687 35.8398 22.8572 35.8398H55.4687C56.2779 35.8398 56.9335 35.184 56.9335 34.375C56.9335 33.566 56.2779 32.9102 55.4687 32.9102H22.8572C22.4687 32.9102 22.0961 33.0645 21.8214 33.3392C21.5467 33.6139 21.3923 33.9865 21.3923 34.375ZM22.8572 42.6758H55.4687C56.2779 42.6758 56.9335 42.0199 56.9335 41.2109C56.9335 40.402 56.2779 39.7461 55.4687 39.7461H22.8572C22.4687 39.7461 22.0961 39.9004 21.8214 40.1751C21.5467 40.4498 21.3923 40.8224 21.3923 41.2109C21.3923 41.5994 21.5467 41.972 21.8214 42.2467C22.0961 42.5215 22.4687 42.6758 22.8572 42.6758ZM22.8572 56.3477H33.9843C34.3728 56.3477 34.7454 56.1933 35.0201 55.9186C35.2948 55.6439 35.4492 55.2713 35.4492 54.8828C35.4492 54.4943 35.2948 54.1217 35.0201 53.847C34.7454 53.5723 34.3728 53.418 33.9843 53.418H22.8572C22.4687 53.418 22.0961 53.5723 21.8214 53.847C21.5467 54.1217 21.3923 54.4943 21.3923 54.8828C21.3923 55.2713 21.5467 55.6439 21.8214 55.9186C22.0961 56.1933 22.4687 56.3477 22.8572 56.3477Z" fill="#57AF7D"/>
<path d="M88.7672 65.3285C89.1557 65.3285 89.5283 65.1742 89.803 64.8995C90.0777 64.6248 90.232 64.2522 90.232 63.8637V57.2809C90.2335 56.8409 90.1219 56.4079 89.9078 56.0235C89.6937 55.6391 89.3844 55.3162 89.0096 55.0857L81.9646 50.7223V2.05078C81.9646 0.919922 81.0447 0 79.9138 0H25.2252C24.0943 0 23.1744 0.919922 23.1744 2.05078V6.70332H18.5219C17.391 6.70332 16.4711 7.62324 16.4711 8.7541V13.4066H11.8187C10.6879 13.4066 9.76794 14.3266 9.76794 15.4574V90.2559C9.76794 91.3867 10.6879 92.3066 11.8187 92.3066H22.6562C23.0447 92.3066 23.4173 92.1523 23.692 91.8776C23.9667 91.6029 24.1211 91.2303 24.1211 90.8418C24.1211 90.4533 23.9667 90.0807 23.692 89.806C23.4173 89.5313 23.0447 89.377 22.6562 89.377H12.6976V16.3363H65.6285V43.2838L56.7242 48.7988C56.8611 48.5719 56.9335 48.3119 56.9336 48.0469C56.9336 47.6584 56.7792 47.2858 56.5045 47.0111C56.2298 46.7364 55.8572 46.582 55.4687 46.582H22.8572C22.4687 46.582 22.0961 46.7364 21.8214 47.0111C21.5467 47.2858 21.3924 47.6584 21.3924 48.0469C21.3924 48.4354 21.5467 48.808 21.8214 49.0827C22.0961 49.3574 22.4687 49.5117 22.8572 49.5117H55.4687C55.5072 49.5117 55.5447 49.5088 55.5824 49.5061L49.2664 53.418H38.6719C38.2834 53.418 37.9108 53.5723 37.6361 53.847C37.3613 54.1217 37.207 54.4943 37.207 54.8828C37.207 55.2713 37.3613 55.6439 37.6361 55.9186C37.9108 56.1933 38.2834 56.3477 38.6719 56.3477H45.5256C45.4103 56.6454 45.3512 56.9618 45.3512 57.2811V60.2539H22.8572C22.4687 60.2539 22.0961 60.4082 21.8214 60.6829C21.5467 60.9577 21.3924 61.3302 21.3924 61.7188C21.3924 62.1073 21.5467 62.4798 21.8214 62.7546C22.0961 63.0293 22.4687 63.1836 22.8572 63.1836H45.351V67.0898H22.8572C22.4687 67.0898 22.0961 67.2442 21.8214 67.5189C21.5467 67.7936 21.3924 68.1662 21.3924 68.5547C21.3924 68.9432 21.5467 69.3158 21.8214 69.5905C22.0961 69.8652 22.4687 70.0195 22.8572 70.0195H45.351V73.4727C45.351 73.624 45.3533 73.775 45.3572 73.9258H22.8572C22.4687 73.9258 22.0961 74.0801 21.8214 74.3548C21.5467 74.6295 21.3924 75.0021 21.3924 75.3906C21.3924 75.7791 21.5467 76.1517 21.8214 76.4264C22.0961 76.7011 22.4687 76.8555 22.8572 76.8555H45.6746C46.4396 80.8146 48.5295 84.3954 51.6004 87.0088L54.3793 89.377H29.4922C29.1037 89.377 28.7311 89.5313 28.4564 89.806C28.1817 90.0807 28.0273 90.4533 28.0273 90.8418C28.0273 91.2303 28.1817 91.6029 28.4564 91.8776C28.7311 92.1523 29.1037 92.3066 29.4922 92.3066H57.8172L66.117 99.3797C66.6019 99.7932 67.1969 99.9998 67.7916 99.9998C68.3863 99.9998 68.9812 99.793 69.4662 99.3797L83.9828 87.0086C85.9433 85.3402 87.5177 83.2654 88.5967 80.9281C89.6758 78.5908 90.2338 76.0468 90.232 73.4725V70.6996C90.232 69.8906 89.5764 69.2348 88.7672 69.2348C87.958 69.2348 87.3023 69.8906 87.3023 70.6996V73.4725C87.3038 75.6227 86.8377 77.7476 85.9364 79.6999C85.0351 81.6522 83.7202 83.3851 82.0826 84.7787L67.7914 96.9576L53.5004 84.7787C51.8628 83.3851 50.5478 81.6522 49.6465 79.6999C48.7452 77.7476 48.2792 75.6227 48.2806 73.4725V57.4744L67.7914 45.3898L87.3023 57.4744V63.8635C87.3023 64.0559 87.3402 64.2464 87.4138 64.4241C87.4874 64.6019 87.5953 64.7634 87.7313 64.8994C87.8673 65.0354 88.0288 65.1434 88.2066 65.217C88.3843 65.2906 88.5748 65.3285 88.7672 65.3285ZM68.5582 42.5156V15.4574C68.5582 14.3266 67.6383 13.4066 66.5074 13.4066H19.4008V9.63301H72.3318V19.9219C72.3318 20.7309 72.9875 21.3867 73.7967 21.3867C74.6058 21.3867 75.2615 20.7309 75.2615 19.9219V8.7541C75.2615 7.62324 74.3416 6.70332 73.2107 6.70332H26.1041V2.92969H79.0349V48.9078L75.2615 46.5705V26.7578C75.2615 25.9488 74.6058 25.293 73.7967 25.293C72.9875 25.293 72.3318 25.9488 72.3318 26.7578V44.7561L69.151 42.7859C68.9655 42.6714 68.7663 42.5806 68.5582 42.5156Z" fill="#57AF7D"/>
<path d="M54.3738 68.502C54.3738 75.9006 60.3929 81.9199 67.7915 81.9199C75.1904 81.9199 81.2095 75.9008 81.2095 68.502C81.2095 61.1031 75.1904 55.084 67.7915 55.084C60.3929 55.084 54.3738 61.1033 54.3738 68.502ZM78.2798 68.502C78.2798 74.2852 73.5748 78.9902 67.7915 78.9902C62.0085 78.9902 57.3035 74.2854 57.3035 68.502C57.3035 62.7186 62.0085 58.0137 67.7915 58.0137C73.5748 58.0137 78.2798 62.7188 78.2798 68.502Z" fill="#57AF7D"/>
<path d="M64.7831 67.0565C64.2113 66.4844 63.2837 66.4844 62.7116 67.0565C62.1396 67.6285 62.1396 68.5561 62.7116 69.1279L66.2464 72.6625C66.5325 72.9484 66.9075 73.0916 67.2823 73.0916C67.6571 73.0916 68.0322 72.9486 68.3183 72.6625L73.797 67.1838C74.0697 66.9087 74.2223 66.5367 74.2215 66.1493C74.2206 65.7619 74.0663 65.3907 73.7924 65.1167C73.5184 64.8428 73.1471 64.6886 72.7598 64.6877C72.3724 64.6869 72.0004 64.8396 71.7253 65.1123L67.2825 69.5553L64.7831 67.0565Z" fill="#57AF7D"/>
</svg>
