<svg width="100" height="100" viewBox="0 0 100 100" fill="none" xmlns="http://www.w3.org/2000/svg">
<g clip-path="url(#clip0_2001_28)">
<path d="M62.1338 89.4347L60.5305 91.038C60.077 91.4914 59.5388 91.8511 58.9463 92.0964C58.3539 92.3418 57.719 92.4681 57.0777 92.4681H42.9221C41.6271 92.468 40.3851 91.9536 39.4693 91.038L37.866 89.4347H2.92969C2.54119 89.4347 2.1686 89.589 1.89389 89.8637C1.61918 90.1384 1.46484 90.511 1.46484 90.8995V93.6522C1.46484 96.3489 3.65098 98.5351 6.34766 98.5351H93.6523C96.349 98.5351 98.5352 96.3489 98.5352 93.6522V90.8995C98.5352 90.511 98.3808 90.1384 98.1061 89.8637C97.8314 89.589 97.4588 89.4347 97.0703 89.4347H62.1338ZM26.9164 89.4347H6.34766C3.65098 89.4347 1.46484 87.2485 1.46484 84.5519V48.8159C1.46484 46.1192 3.65098 43.9331 6.34766 43.9331H26.9164C29.6131 43.9331 31.7992 46.1192 31.7992 48.8159V84.5521C31.7992 87.2485 29.6133 89.4347 26.9164 89.4347Z" stroke="#57AF7D" stroke-width="3" stroke-miterlimit="10" stroke-linecap="round" stroke-linejoin="round"/>
<path d="M25.7324 70.2121V50.9766C25.7324 50.7176 25.6295 50.4692 25.4464 50.286C25.2633 50.1029 25.0149 50 24.7559 50H20.5205C20.0688 50 19.6834 50.3117 19.5721 50.7496C19.2385 52.0625 18.0486 53.0334 16.632 53.0334C15.2154 53.0334 14.0256 52.0623 13.692 50.7496C13.5807 50.3119 13.1953 50 12.7436 50H8.50821C8.24921 50 8.00082 50.1029 7.81768 50.286C7.63453 50.4692 7.53165 50.7176 7.53165 50.9766V82.3914C7.53165 82.6504 7.63453 82.8988 7.81768 83.0819C8.00082 83.2651 8.24921 83.368 8.50821 83.368H24.7559C25.0149 83.368 25.2633 83.2651 25.4464 83.0819C25.6295 82.8988 25.7324 82.6504 25.7324 82.3914V77.048M93.6523 68.2008H48.816C46.1193 68.2008 43.9332 66.0146 43.9332 63.318V30.6152C43.9332 27.9186 46.1193 25.7324 48.816 25.7324H93.6523C96.349 25.7324 98.5352 27.9186 98.5352 30.6152V63.318C98.5352 66.0146 96.349 68.2008 93.6523 68.2008Z" stroke="#57AF7D" stroke-width="3" stroke-miterlimit="10" stroke-linecap="round" stroke-linejoin="round"/>
<path d="M73.9764 62.1339H50V31.7993H86.4014V62.1339H80.8123M92.4684 89.4349V68.2009M43.933 31.7993H12.4145C9.71778 31.7993 7.53165 33.9854 7.53165 36.6821V43.9331M31.7992 83.3681H86.4014V68.2009" stroke="#57AF7D" stroke-width="3" stroke-miterlimit="10" stroke-linecap="round" stroke-linejoin="round"/>
<path d="M26.2195 37.8663H13.5986V43.9333M43.933 37.8663H33.0555M92.4684 43.9333V50.0001M63.8457 46.9667L66.749 49.87L72.5557 44.0634M13.5986 66.6841L15.6209 68.7063L19.6656 64.6618M64.1594 25.7325C64.3157 25.3683 64.4578 24.9982 64.5853 24.6229C64.6783 24.3518 64.8745 24.1282 65.1312 24.0007L67.5936 22.7694C67.7761 22.6782 67.9295 22.538 68.0368 22.3644C68.144 22.1908 68.2008 21.9908 68.2008 21.7868V17.5446C68.2008 17.3406 68.144 17.1406 68.0367 16.9671C67.9295 16.7935 67.776 16.6533 67.5936 16.562L65.1312 15.331C64.8745 15.2034 64.6784 14.9798 64.5853 14.7087C64.3705 14.0764 64.1145 13.4588 63.8189 12.8599C63.6926 12.6021 63.673 12.305 63.7643 12.0329L64.6352 9.42021C64.6997 9.22667 64.7091 9.01896 64.6622 8.82039C64.6153 8.62182 64.514 8.44023 64.3697 8.296L61.3699 5.29619C61.2257 5.15189 61.0441 5.05062 60.8455 5.00373C60.647 4.95685 60.4393 4.96621 60.2457 5.03076L57.633 5.90166C57.3609 5.99315 57.0637 5.97349 56.806 5.84697C56.2072 5.55138 55.5896 5.29536 54.9572 5.08057C54.6861 4.9876 54.4625 4.79154 54.335 4.53486L53.1039 2.07256C53.0126 1.89009 52.8724 1.73663 52.6988 1.62938C52.5253 1.52214 52.3253 1.46533 52.1213 1.46533H47.8791C47.6751 1.46533 47.4751 1.52214 47.3015 1.62938C47.128 1.73663 46.9877 1.89009 46.8965 2.07256L45.6654 4.53486C45.5379 4.79158 45.3143 4.98766 45.0432 5.08057C44.4108 5.29544 43.7932 5.55146 43.1943 5.84697C42.9366 5.9733 42.6395 5.99295 42.3674 5.90166L39.7547 5.03076C39.5611 4.96621 39.3534 4.95685 39.1549 5.00373C38.9563 5.05062 38.7747 5.15189 38.6305 5.29619L35.6307 8.296C35.4864 8.44023 35.3851 8.62182 35.3382 8.82039C35.2913 9.01896 35.3007 9.22667 35.3652 9.42021L36.2361 12.0329C36.3276 12.305 36.308 12.6022 36.1814 12.8599C35.8858 13.4587 35.6298 14.0763 35.415 14.7087C35.3221 14.9799 35.1259 15.2035 34.8691 15.331L32.4068 16.562C32.2244 16.6533 32.0709 16.7935 31.9637 16.9671C31.8564 17.1406 31.7996 17.3406 31.7996 17.5446V21.7868C31.7996 21.9908 31.8564 22.1908 31.9637 22.3644C32.0709 22.5379 32.2244 22.6782 32.4068 22.7694L34.8691 24.0007C35.1259 24.1282 35.322 24.3518 35.415 24.6229C35.6299 25.2553 35.8859 25.8729 36.1814 26.4718C36.3084 26.7292 36.3268 27.0265 36.2361 27.2987L35.3652 29.9114C35.3007 30.105 35.2913 30.3127 35.3382 30.5113C35.3851 30.7098 35.4864 30.8914 35.6307 31.0356L36.3945 31.7995" stroke="#57AF7D" stroke-width="3" stroke-miterlimit="10" stroke-linecap="round" stroke-linejoin="round"/>
<path d="M51.1266 25.7328L57.1935 19.6658C58.3781 18.4812 58.3781 16.5605 57.1935 15.3757C56.009 14.1912 54.0883 14.1912 52.9037 15.3757L48.6137 19.6658L46.4687 17.5208C45.2842 16.3363 43.3635 16.3363 42.1789 17.5208C40.9943 18.7054 40.9943 20.6261 42.1789 21.8109L46.4621 26.0941L46.4687 26.1007C46.5205 26.1525 46.5738 26.2019 46.6281 26.2492" stroke="#57AF7D" stroke-width="3" stroke-miterlimit="10" stroke-linecap="round" stroke-linejoin="round"/>
</g>
<defs>
<clipPath id="clip0_2001_28">
<rect width="100" height="100" fill="white"/>
</clipPath>
</defs>
</svg>
