<svg width="100" height="100" viewBox="0 0 100 100" fill="none" xmlns="http://www.w3.org/2000/svg">
<g clip-path="url(#clip0_2001_395)">
<path d="M79.4164 67.5397V63.3246C79.4164 61.4355 77.8981 59.8975 76.0092 59.8729C74.1875 59.8492 72.6613 61.2453 72.5227 63.0617C72.4651 63.8161 72.2462 64.5493 71.8809 65.2118C71.5157 65.8744 71.0124 66.4508 70.4053 66.9021L59.5682 74.8824" stroke="#57AF7D" stroke-width="3" stroke-miterlimit="10" stroke-linecap="round" stroke-linejoin="round"/>
<path d="M68.891 68.0277L68.734 65.7562C68.5842 63.5892 66.792 61.9023 64.6199 61.8839C62.4836 61.8658 60.6808 63.4693 60.4498 65.5931C60.372 66.3085 60.1418 66.9989 59.7746 67.6178C59.4075 68.2367 58.912 68.7698 58.3215 69.181L54.423 71.8175M33.6291 89.1033L38.2572 86.983C39.9041 86.2285 41.6755 85.783 43.4834 85.6687L62.0312 84.4966C65.5504 84.2742 68.9419 83.0949 71.8398 81.0859L77.3613 77.258" stroke="#57AF7D" stroke-width="3" stroke-miterlimit="10" stroke-linecap="round" stroke-linejoin="round"/>
<path d="M82.0262 74.024L83.9785 72.6705C86.2947 71.0647 88.0918 68.8177 89.1494 66.2053C90.1264 63.792 88.3502 61.157 85.7467 61.157C85.0515 61.157 84.3706 61.3544 83.7833 61.7262C83.1959 62.098 82.7262 62.6289 82.4287 63.2572L81.3773 65.4779C81.0025 66.2698 80.4047 66.9351 79.6572 67.3922L69.7107 73.4754C68.2062 74.3956 66.4769 74.8826 64.7133 74.8826H42.6838L50.708 74.8471C52.6414 74.8303 54.1998 73.2582 54.1998 71.3248C54.1998 69.3795 52.6228 67.8023 50.6773 67.8023H43.9627C42.5056 67.8023 41.0904 67.3154 39.9418 66.4189C38.8933 65.6006 37.6312 65.1016 36.3065 64.9819C34.9818 64.8622 33.6507 65.1267 32.4724 65.7438L23.7359 70.3193M15.4824 83.8803L22.7209 97.5371C22.9525 97.9742 23.3474 98.3021 23.8195 98.4495C24.2917 98.597 24.803 98.552 25.2422 98.3244L33.7779 93.9008C34.7039 93.4209 35.0609 92.2779 34.5726 91.3564L22.7262 68.9949C22.497 68.5623 22.1079 68.2364 21.6418 68.0868C21.1757 67.9371 20.6696 67.9755 20.2314 68.1938L11.6189 72.4832C10.6746 72.9535 10.3035 74.1096 10.7974 75.0416L12.8279 78.8727M59.2346 20.6793C59.283 21.0641 59.3107 21.4553 59.3107 21.8531C59.3107 26.9953 55.1422 31.1639 50 31.1639C44.8578 31.1639 40.6892 26.9953 40.6892 21.8531C40.6892 16.7109 44.8578 12.5424 50 12.5424C52.7037 12.5424 55.1369 13.6959 56.8379 15.5361M78.8605 29.4518L79.79 26.6213H83.2892L84.2187 29.4518L87.5953 30.8504L90.2539 29.5061L92.7283 31.9805L91.384 34.6391L92.7826 38.0156L95.6131 38.9451V42.4443L92.7826 43.3738L91.384 46.7504L92.7283 49.409L90.2539 51.8832L87.5953 50.5389L84.2187 51.9375L83.2892 54.768H79.79L78.8605 51.9375L75.484 50.5389L72.8254 51.8832L70.351 49.4088L71.6953 46.7502L70.2967 43.3736L67.4662 42.4441V38.9449L70.2967 38.0154L71.6953 34.6389L70.351 31.9803L72.8254 29.5059L75.484 30.8502L78.8605 29.4518ZM75.7912 40.6947C75.7912 43.8695 78.3648 46.4432 81.5396 46.4432C84.7144 46.4432 87.2881 43.8695 87.2881 40.6947C87.2881 37.5199 84.7144 34.9463 81.5396 34.9463C78.3648 34.9463 75.7912 37.5199 75.7912 40.6947ZM15.7814 30.0377L16.7109 27.2072H20.2101L21.1396 30.0377L24.5162 31.4363L27.1748 30.092L29.6492 32.5664L28.3049 35.225L29.7035 38.6016L32.534 39.5311V43.0303L29.7035 43.9598L28.3049 47.3363L29.6492 49.9949L27.1748 52.4693L24.5162 51.125L21.1396 52.5236L20.2101 55.3541H16.7107L15.7812 52.5236L12.4047 51.125L9.74608 52.4691L7.27167 49.9947L8.616 47.3361L7.21737 43.9596L4.3869 43.0301V39.5309L7.21737 38.6014L8.616 35.2248L7.27167 32.5662L9.74608 30.092L12.4047 31.4363L15.7814 30.0377ZM12.7121 41.2807C12.7121 44.4555 15.2857 47.0291 18.4605 47.0291C21.6353 47.0291 24.209 44.4555 24.209 41.2807C24.209 38.1059 21.6353 35.5322 18.4605 35.5322C15.2857 35.5322 12.7121 38.1059 12.7121 41.2807ZM66.2877 17.9719L64.2615 13.0803L66.209 9.22871L62.6244 5.64414L58.7728 7.5916L53.8812 5.56543L52.5346 1.46484H47.4652L46.1187 5.56543L41.2271 7.5916L37.3756 5.64414L33.791 9.22871L35.7385 13.0803L33.7123 17.9719L29.6119 19.3184V24.3877L33.7123 25.7342L35.7385 30.6258L33.791 34.4773L37.3756 38.0619L41.2271 36.1146L46.1187 38.1408L47.4652 42.2412H52.5346L53.881 38.1408L58.7726 36.1146L62.6242 38.0619L66.2088 34.4773L64.2613 30.6258L66.2875 25.7342L70.3879 24.3877V19.3184L66.2877 17.9719Z" stroke="#57AF7D" stroke-width="3" stroke-miterlimit="10" stroke-linecap="round" stroke-linejoin="round"/>
</g>
<defs>
<clipPath id="clip0_2001_395">
<rect width="100" height="100" fill="white"/>
</clipPath>
</defs>
</svg>
