<?xml version="1.0" standalone="no"?>
<!DOCTYPE svg PUBLIC "-//W3C//DTD SVG 20010904//EN"
 "http://www.w3.org/TR/2001/REC-SVG-20010904/DTD/svg10.dtd">
<svg version="1.0" xmlns="http://www.w3.org/2000/svg"
 width="100.000000pt" height="100.000000pt" viewBox="0 0 100.000000 100.000000"
 preserveAspectRatio="xMidYMid meet">
<metadata>
Created by potrace 1.14, written by Peter Selinger 2001-2017
</metadata>
<g transform="translate(0.000000,100.000000) scale(0.100000,-0.100000)"
fill="#000000" stroke="none">
<path d="M0 500 l0 -500 500 0 500 0 0 500 0 500 -500 0 -500 0 0 -500z m719
276 c42 -22 63 -62 69 -132 4 -51 1 -71 -18 -109 -21 -43 -21 -47 -5 -65 22
-24 31 -126 16 -172 -6 -19 -25 -48 -42 -64 l-30 -29 -250 -3 -249 -3 0 30 0
30 241 3 241 3 20 25 c16 20 19 35 16 83 -7 94 0 92 -278 95 l-240 3 0 30 0
29 239 0 240 0 20 26 c31 39 29 117 -4 149 l-24 25 -236 0 -235 0 0 30 0 30
240 0 c191 0 247 -3 269 -14z"/>
</g>
</svg>
