<svg width="24" height="24" viewBox="0 0 24 24" fill="none" xmlns="http://www.w3.org/2000/svg">
<path fill-rule="evenodd" clip-rule="evenodd" d="M19.743 18.2291C18.4159 22.5178 13.0141 23.7136 8.93941 22.6167C6.00123 21.9182 3.82158 19.0266 4.01153 15.8355H9.22401C9.12936 17.3314 9.50799 17.5313 10.0766 18.1295C11.1191 19.3254 14.7205 18.927 14.8151 16.534C14.8151 15.5367 13.8673 14.5394 12.8248 14.4398C9.60264 13.9411 5.6226 13.6416 4.48545 9.85229C3.72755 7.1605 4.48545 3.9694 7.04436 2.47344C10.5505 0.379232 15.1944 0.379228 18.0373 3.37048C19.0798 4.46738 19.7437 6.16253 19.459 7.75809H14.9098C14.3412 5.46469 13.2987 5.36442 11.7823 5.26549C10.7398 5.16589 9.41333 5.96334 9.31867 7.15983C8.93941 10.7493 14.1519 9.75203 16.8055 10.7493C17.942 11.1491 20.8802 14.3395 19.743 18.2291Z" fill="white"/>
</svg>
