<svg width="24" height="24" viewBox="0 0 24 24" fill="none" xmlns="http://www.w3.org/2000/svg">
<path d="M21.0769 5.76189L12.9938 1.21877C12.3807 0.875644 11.6194 0.875644 11.0063 1.21877L2.92317 5.76189C2.30442 6.10877 1.92004 6.75939 1.92004 7.45689V16.5431C1.92004 17.2406 2.30442 17.8913 2.92317 18.2381L11.0063 22.7813C11.3138 22.9538 11.6569 23.04 12 23.04C12.3432 23.04 12.6863 22.9538 12.9938 22.7813L21.0769 18.2381C21.6957 17.8913 22.08 17.2406 22.08 16.5431V7.45689C22.08 6.75939 21.6957 6.10877 21.0769 5.76189ZM12 17.76C8.82379 17.76 6.24004 15.1763 6.24004 12C6.24004 8.82377 8.82379 6.24002 12 6.24002C13.815 6.24002 15.4913 7.08189 16.5807 8.51627L14.4769 9.73314C13.845 9.04127 12.9469 8.64002 12 8.64002C10.1475 8.64002 8.64004 10.1475 8.64004 12C8.64004 13.8525 10.1475 15.36 12 15.36C12.9469 15.36 13.845 14.9588 14.4769 14.2669L16.5807 15.4838C15.4913 16.9181 13.815 17.76 12 17.76ZM17.76 12.48H16.8V13.44H15.84V12.48H14.88V11.52H15.84V10.56H16.8V11.52H17.76V12.48ZM21.12 12.48H20.16V13.44H19.2V12.48H18.24V11.52H19.2V10.56H20.16V11.52H21.12V12.48Z" fill="white"/>
</svg>
