<svg width="24" height="24" viewBox="0 0 24 24" fill="none" xmlns="http://www.w3.org/2000/svg">
<path d="M2.74087 9.31299H6.00347C6.96114 9.32108 7.65505 9.59566 8.0852 10.1368C8.51533 10.6779 8.65737 11.4168 8.51128 12.3537C8.45446 12.7817 8.32867 13.2017 8.13389 13.6136C7.94722 14.0254 7.6875 14.3969 7.35476 14.7281C6.94896 15.148 6.51477 15.4145 6.05216 15.5276C5.58955 15.6407 5.11071 15.6972 4.61564 15.6972H3.15478L2.69217 17.9989H1L2.74087 9.31299ZM4.16521 10.694L3.43478 14.3283C3.48347 14.3364 3.53216 14.3404 3.58086 14.3404H3.7513C4.53043 14.3485 5.17968 14.2718 5.69912 14.1102C6.21853 13.9406 6.56751 13.3511 6.74607 12.3416C6.89215 11.4936 6.74606 11.005 6.30781 10.8757C5.87766 10.7465 5.33794 10.6859 4.68869 10.694C4.59129 10.7021 4.49796 10.7061 4.40869 10.7061C4.32752 10.7061 4.24231 10.7061 4.15304 10.7061L4.16521 10.694Z" fill="white"/>
<path d="M10.4393 7H12.1193L11.6445 9.31383H13.1541C13.9819 9.32999 14.5987 9.49959 15.0045 9.82263C15.4184 10.1457 15.5402 10.7595 15.3697 11.664L14.5541 15.698H12.8497L13.6289 11.8457C13.71 11.4419 13.6857 11.1552 13.5558 10.9856C13.426 10.816 13.146 10.7312 12.7158 10.7312L11.3645 10.7191L10.3663 15.698H8.68628L10.4393 7Z" fill="white"/>
<path d="M17.174 9.31299H20.4366C21.3942 9.32108 22.0881 9.59566 22.5183 10.1368C22.9484 10.6779 23.0905 11.4168 22.9444 12.3537C22.8876 12.7817 22.7618 13.2017 22.567 13.6136C22.3803 14.0254 22.1206 14.3969 21.7879 14.7281C21.3821 15.148 20.9479 15.4145 20.4853 15.5276C20.0227 15.6407 19.5438 15.6972 19.0487 15.6972H17.5879L17.1253 17.9989H15.4331L17.174 9.31299ZM18.5983 10.694L17.8679 14.3283C17.9166 14.3364 17.9653 14.3404 18.014 14.3404H18.1844C18.9635 14.3485 19.6128 14.2718 20.1322 14.1102C20.6516 13.9406 21.0006 13.3511 21.1792 12.3416C21.3253 11.4936 21.1792 11.005 20.7409 10.8757C20.3108 10.7465 19.771 10.6859 19.1218 10.694C19.0244 10.7021 18.9311 10.7061 18.8418 10.7061C18.7606 10.7061 18.6754 10.7061 18.5861 10.7061L18.5983 10.694Z" fill="white"/>
</svg>
