<svg width="100" height="100" viewBox="0 0 100 100" fill="none" xmlns="http://www.w3.org/2000/svg">
<path d="M95.05 19.4453L85.675 5.38281C85.5323 5.16888 85.3389 4.99349 85.1122 4.8722C84.8854 4.7509 84.6322 4.68746 84.375 4.6875H15.625C15.3678 4.68746 15.1146 4.7509 14.8878 4.8722C14.6611 4.99349 14.4677 5.16888 14.325 5.38281L4.95 19.4453C4.77928 19.7023 4.68799 20.0039 4.6875 20.3125V25C4.68977 26.8003 5.31264 28.5448 6.45112 29.9395C7.5896 31.3341 9.17408 32.2936 10.9375 32.6562V85.9375C10.9375 86.3519 11.1021 86.7493 11.3951 87.0424C11.6882 87.3354 12.0856 87.5 12.5 87.5H32.5L47.6562 96.25C48.3688 96.6614 49.1772 96.878 50 96.878C50.8228 96.878 51.6312 96.6614 52.3438 96.25L67.5 87.5H87.5C87.9144 87.5 88.3118 87.3354 88.6049 87.0424C88.8979 86.7493 89.0625 86.3519 89.0625 85.9375V32.6562C90.8259 32.2936 92.4104 31.3341 93.5489 29.9395C94.6874 28.5448 95.3102 26.8003 95.3125 25V20.3125C95.312 20.0039 95.2207 19.7023 95.05 19.4453ZM16.4609 7.8125H83.5391L90.8313 18.75H9.16875L16.4609 7.8125ZM79.6875 21.875V25C79.6875 26.2432 79.1936 27.4355 78.3146 28.3146C77.4355 29.1936 76.2432 29.6875 75 29.6875C73.7568 29.6875 72.5645 29.1936 71.6854 28.3146C70.8064 27.4355 70.3125 26.2432 70.3125 25V21.875H79.6875ZM67.1875 21.875V25C67.1875 26.2432 66.6936 27.4355 65.8146 28.3146C64.9355 29.1936 63.7432 29.6875 62.5 29.6875C61.2568 29.6875 60.0645 29.1936 59.1854 28.3146C58.3064 27.4355 57.8125 26.2432 57.8125 25V21.875H67.1875ZM54.6875 21.875V25C54.6875 26.2432 54.1936 27.4355 53.3146 28.3146C52.4355 29.1936 51.2432 29.6875 50 29.6875C48.7568 29.6875 47.5645 29.1936 46.6854 28.3146C45.8064 27.4355 45.3125 26.2432 45.3125 25V21.875H54.6875ZM42.1875 21.875V25C42.1875 26.2432 41.6936 27.4355 40.8146 28.3146C39.9355 29.1936 38.7432 29.6875 37.5 29.6875C36.2568 29.6875 35.0645 29.1936 34.1854 28.3146C33.3064 27.4355 32.8125 26.2432 32.8125 25V21.875H42.1875ZM29.6875 21.875V25C29.6875 26.2432 29.1936 27.4355 28.3146 28.3146C27.4355 29.1936 26.2432 29.6875 25 29.6875C23.7568 29.6875 22.5645 29.1936 21.6854 28.3146C20.8064 27.4355 20.3125 26.2432 20.3125 25V21.875H29.6875ZM7.8125 25V21.875H17.1875V25C17.1875 26.2432 16.6936 27.4355 15.8146 28.3146C14.9355 29.1936 13.7432 29.6875 12.5 29.6875C11.2568 29.6875 10.0645 29.1936 9.18544 28.3146C8.30636 27.4355 7.8125 26.2432 7.8125 25ZM50.7812 93.5406C50.5437 93.6778 50.2743 93.75 50 93.75C49.7257 93.75 49.4563 93.6778 49.2188 93.5406L27.3438 80.9109C27.1062 80.7738 26.909 80.5766 26.7718 80.339C26.6347 80.1015 26.5625 79.8321 26.5625 79.5578V54.8172C26.5622 54.5427 26.6343 54.2729 26.7715 54.0351C26.9086 53.7973 27.106 53.5998 27.3438 53.4625L49.2188 40.8344C49.4563 40.6972 49.7257 40.625 50 40.625C50.2743 40.625 50.5437 40.6972 50.7812 40.8344L72.6562 53.4625C72.894 53.5998 73.0914 53.7973 73.2285 54.0351C73.3657 54.2729 73.4378 54.5427 73.4375 54.8172V79.5578C73.4375 79.8321 73.3653 80.1015 73.2282 80.339C73.091 80.5766 72.8938 80.7738 72.6562 80.9109L50.7812 93.5406ZM72.9062 84.375L74.2188 83.6172C74.9318 83.2055 75.5238 82.6133 75.9352 81.9001C76.3467 81.187 76.563 80.378 76.5625 79.5547V54.8172C76.563 53.9939 76.3467 53.1849 75.9352 52.4717C75.5238 51.7586 74.9318 51.1664 74.2188 50.7547L52.3438 38.125C51.6312 37.7136 50.8228 37.497 50 37.497C49.1772 37.497 48.3688 37.7136 47.6562 38.125L25.7812 50.7547C25.0682 51.1664 24.4762 51.7586 24.0648 52.4717C23.6533 53.1849 23.437 53.9939 23.4375 54.8172V79.5578C23.437 80.3811 23.6533 81.1901 24.0648 81.9033C24.4762 82.6164 25.0682 83.2086 25.7812 83.6203L27.0938 84.3781H14.0625V32.6406C15.9399 32.248 17.6079 31.18 18.75 29.6391C19.4686 30.6225 20.4091 31.4225 21.4951 31.974C22.5811 32.5255 23.782 32.813 25 32.813C26.218 32.813 27.4189 32.5255 28.5049 31.974C29.5909 31.4225 30.5314 30.6225 31.25 29.6391C31.9686 30.6225 32.9091 31.4225 33.9951 31.974C35.0811 32.5255 36.282 32.813 37.5 32.813C38.718 32.813 39.9189 32.5255 41.0049 31.974C42.0909 31.4225 43.0314 30.6225 43.75 29.6391C44.4686 30.6225 45.4091 31.4225 46.4951 31.974C47.5811 32.5255 48.782 32.813 50 32.813C51.218 32.813 52.4189 32.5255 53.5049 31.974C54.5909 31.4225 55.5314 30.6225 56.25 29.6391C56.9686 30.6225 57.9091 31.4225 58.9951 31.974C60.0811 32.5255 61.282 32.813 62.5 32.813C63.718 32.813 64.9189 32.5255 66.0049 31.974C67.0909 31.4225 68.0314 30.6225 68.75 29.6391C69.4686 30.6225 70.4091 31.4225 71.4951 31.974C72.5811 32.5255 73.782 32.813 75 32.813C76.218 32.813 77.4189 32.5255 78.5049 31.974C79.5909 31.4225 80.5314 30.6225 81.25 29.6391C82.3921 31.18 84.0601 32.248 85.9375 32.6406V84.375H72.9062ZM92.1875 25C92.1875 26.2432 91.6936 27.4355 90.8146 28.3146C89.9355 29.1936 88.7432 29.6875 87.5 29.6875C86.2568 29.6875 85.0645 29.1936 84.1854 28.3146C83.3064 27.4355 82.8125 26.2432 82.8125 25V21.875H92.1875V25Z" fill="#57AF7D"/>
<path d="M57.0312 49.9109L50.7812 46.3031C50.5437 46.1659 50.2743 46.0938 50 46.0938C49.7257 46.0938 49.4563 46.1659 49.2188 46.3031L47.6562 47.2046C47.4187 47.3418 47.2215 47.539 47.0843 47.7765C46.9472 48.0141 46.875 48.2835 46.875 48.5578V85.9375C46.875 86.3519 47.0396 86.7493 47.3326 87.0423C47.6257 87.3353 48.0231 87.5 48.4375 87.5C48.8519 87.5 49.2493 87.3353 49.5424 87.0423C49.8354 86.7493 50 86.3519 50 85.9375V69.5312H55.4688C55.8832 69.5312 56.2806 69.3666 56.5736 69.0736C56.8666 68.7805 57.0312 68.3831 57.0312 67.9687C57.0312 67.5543 56.8666 67.1569 56.5736 66.8639C56.2806 66.5708 55.8832 66.4062 55.4688 66.4062H50V49.4609L55.4688 52.6171C55.8276 52.8243 56.2541 52.8805 56.6544 52.7732C57.0546 52.666 57.3959 52.4041 57.6031 52.0453C57.8103 51.6864 57.8665 51.2599 57.7592 50.8597C57.652 50.4594 57.3901 50.1181 57.0312 49.9109ZM69.5312 57.1281L61.7188 52.6171C61.3597 52.4099 60.933 52.3539 60.5326 52.4613C60.1322 52.5687 59.7908 52.8307 59.5836 53.1898C59.3764 53.5489 59.3203 53.9756 59.4277 54.376C59.5351 54.7764 59.7972 55.1178 60.1562 55.325L62.5 56.6781V79.6875C62.5 80.1019 62.6646 80.4993 62.9576 80.7923C63.2507 81.0853 63.6481 81.25 64.0625 81.25C64.4769 81.25 64.8743 81.0853 65.1674 80.7923C65.4604 80.4993 65.625 80.1019 65.625 79.6875V58.4812L67.9688 59.8343C68.1465 59.9385 68.3431 60.0066 68.5473 60.0345C68.7515 60.0624 68.9591 60.0497 69.1584 59.997C69.3576 59.9443 69.5444 59.8528 69.7081 59.7276C69.8718 59.6024 70.0091 59.4461 70.1121 59.2677C70.2152 59.0892 70.2819 58.8921 70.3084 58.6878C70.335 58.4834 70.3209 58.2759 70.2669 58.077C70.2129 57.8781 70.1201 57.6919 69.9939 57.5291C69.8676 57.3662 69.7104 57.2299 69.5312 57.1281ZM41.4062 52.3437C40.9918 52.3437 40.5944 52.5083 40.3014 52.8014C40.0084 53.0944 39.8438 53.4918 39.8438 53.9062V73.9171L33.4812 58.014C33.3461 57.6774 33.098 57.3983 32.7796 57.2245C32.4612 57.0508 32.0922 56.9933 31.736 57.0618C31.3798 57.1304 31.0585 57.3207 30.8273 57.6002C30.5961 57.8797 30.4693 58.231 30.4688 58.5937V78.9062C30.4688 79.3206 30.6334 79.718 30.9264 80.0111C31.2194 80.3041 31.6168 80.4687 32.0312 80.4687C32.4457 80.4687 32.8431 80.3041 33.1361 80.0111C33.4291 79.718 33.5938 79.3206 33.5938 78.9062V66.7062L39.9563 82.6109C40.0914 82.9475 40.3395 83.2266 40.6579 83.4004C40.9763 83.5741 41.3453 83.6316 41.7015 83.5631C42.0577 83.4946 42.379 83.3042 42.6102 83.0247C42.8414 82.7452 42.9682 82.394 42.9688 82.0312V53.9062C42.9688 53.4918 42.8041 53.0944 42.5111 52.8014C42.2181 52.5083 41.8207 52.3437 41.4062 52.3437Z" fill="#57AF7D"/>
</svg>
