<svg width="100" height="100" viewBox="0 0 100 100" fill="none" xmlns="http://www.w3.org/2000/svg">
<g clip-path="url(#clip0_1_419)">
<path d="M29.6875 92.1875H28.125V82.8125C28.125 81.5693 27.6311 80.377 26.7521 79.4979C25.873 78.6189 24.6807 78.125 23.4375 78.125H7.8125C6.5693 78.125 5.37701 78.6189 4.49794 79.4979C3.61886 80.377 3.125 81.5693 3.125 82.8125V92.1875H1.5625C1.1481 92.1875 0.750671 92.3521 0.457646 92.6451C0.16462 92.9382 0 93.3356 0 93.75L0 95.3125C0 96.5557 0.49386 97.748 1.37294 98.6271C2.25201 99.5061 3.4443 100 4.6875 100H26.5625C27.8057 100 28.998 99.5061 29.8771 98.6271C30.7561 97.748 31.25 96.5557 31.25 95.3125V93.75C31.25 93.3356 31.0854 92.9382 30.7924 92.6451C30.4993 92.3521 30.1019 92.1875 29.6875 92.1875ZM6.25 82.8125C6.25 82.3981 6.41462 82.0007 6.70765 81.7076C7.00067 81.4146 7.3981 81.25 7.8125 81.25H23.4375C23.8519 81.25 24.2493 81.4146 24.5424 81.7076C24.8354 82.0007 25 82.3981 25 82.8125V92.1875H6.25V82.8125ZM26.5625 96.875H4.6875C4.2731 96.875 3.87567 96.7104 3.58265 96.4174C3.28962 96.1243 3.125 95.7269 3.125 95.3125H28.125C28.125 95.7269 27.9604 96.1243 27.6674 96.4174C27.3743 96.7104 26.9769 96.875 26.5625 96.875ZM64.0625 92.1875H62.5V82.8125C62.5 81.5693 62.0061 80.377 61.1271 79.4979C60.248 78.6189 59.0557 78.125 57.8125 78.125H42.1875C40.9443 78.125 39.752 78.6189 38.8729 79.4979C37.9939 80.377 37.5 81.5693 37.5 82.8125V92.1875H35.9375C35.5231 92.1875 35.1257 92.3521 34.8326 92.6451C34.5396 92.9382 34.375 93.3356 34.375 93.75V95.3125C34.375 96.5557 34.8689 97.748 35.7479 98.6271C36.627 99.5061 37.8193 100 39.0625 100H60.9375C62.1807 100 63.373 99.5061 64.2521 98.6271C65.1311 97.748 65.625 96.5557 65.625 95.3125V93.75C65.625 93.3356 65.4604 92.9382 65.1674 92.6451C64.8743 92.3521 64.4769 92.1875 64.0625 92.1875ZM40.625 82.8125C40.625 82.3981 40.7896 82.0007 41.0826 81.7076C41.3757 81.4146 41.7731 81.25 42.1875 81.25H57.8125C58.2269 81.25 58.6243 81.4146 58.9174 81.7076C59.2104 82.0007 59.375 82.3981 59.375 82.8125V92.1875H40.625V82.8125ZM60.9375 96.875H39.0625C38.6481 96.875 38.2507 96.7104 37.9576 96.4174C37.6646 96.1243 37.5 95.7269 37.5 95.3125H62.5C62.5 95.7269 62.3354 96.1243 62.0424 96.4174C61.7493 96.7104 61.3519 96.875 60.9375 96.875ZM98.4375 92.1875H96.875V82.8125C96.875 81.5693 96.3811 80.377 95.5021 79.4979C94.623 78.6189 93.4307 78.125 92.1875 78.125H76.5625C75.3193 78.125 74.127 78.6189 73.2479 79.4979C72.3689 80.377 71.875 81.5693 71.875 82.8125V92.1875H70.3125C69.8981 92.1875 69.5007 92.3521 69.2076 92.6451C68.9146 92.9382 68.75 93.3356 68.75 93.75V95.3125C68.75 96.5557 69.2439 97.748 70.1229 98.6271C71.002 99.5061 72.1943 100 73.4375 100H95.3125C96.5557 100 97.748 99.5061 98.6271 98.6271C99.5061 97.748 100 96.5557 100 95.3125V93.75C100 93.3356 99.8354 92.9382 99.5424 92.6451C99.2493 92.3521 98.8519 92.1875 98.4375 92.1875ZM75 82.8125C75 82.3981 75.1646 82.0007 75.4576 81.7076C75.7507 81.4146 76.1481 81.25 76.5625 81.25H92.1875C92.6019 81.25 92.9993 81.4146 93.2924 81.7076C93.5854 82.0007 93.75 82.3981 93.75 82.8125V92.1875H75V82.8125ZM95.3125 96.875H73.4375C73.0231 96.875 72.6257 96.7104 72.3326 96.4174C72.0396 96.1243 71.875 95.7269 71.875 95.3125H96.875C96.875 95.7269 96.7104 96.1243 96.4174 96.4174C96.1243 96.7104 95.7269 96.875 95.3125 96.875ZM14.0625 75C14.4769 75 14.8743 74.8354 15.1674 74.5424C15.4604 74.2493 15.625 73.8519 15.625 73.4375V64.0625H45.6C45.8334 64.716 46.2091 65.3095 46.6998 65.8002C47.1905 66.2909 47.784 66.6666 48.4375 66.9V73.4375C48.4375 73.8519 48.6021 74.2493 48.8951 74.5424C49.1882 74.8354 49.5856 75 50 75C50.4144 75 50.8118 74.8354 51.1049 74.5424C51.3979 74.2493 51.5625 73.8519 51.5625 73.4375V66.9C52.216 66.6666 52.8095 66.2909 53.3002 65.8002C53.7909 65.3095 54.1666 64.716 54.4 64.0625H84.375V73.4375C84.375 73.8519 84.5396 74.2493 84.8326 74.5424C85.1257 74.8354 85.5231 75 85.9375 75C86.3519 75 86.7493 74.8354 87.0424 74.5424C87.3354 74.2493 87.5 73.8519 87.5 73.4375V62.5C87.5 62.0856 87.3354 61.6882 87.0424 61.3951C86.7493 61.1021 86.3519 60.9375 85.9375 60.9375H54.4C54.163 60.2751 53.78 59.6746 53.2793 59.1805C52.7787 58.6863 52.1732 58.3111 51.5078 58.0828C51.5349 57.9947 51.5532 57.9042 51.5625 57.8125V50H70.3125C71.5557 50 72.748 49.5061 73.6271 48.6271C74.5061 47.748 75 46.5557 75 45.3125V39.0625C74.996 38.0965 74.6936 37.1553 74.1342 36.3677C73.5749 35.58 72.7858 34.9845 71.875 34.6625V32.525C72.7858 32.203 73.5749 31.6075 74.1342 30.8198C74.6936 30.0322 74.996 29.091 75 28.125V21.875C74.996 20.909 74.6936 19.9678 74.1342 19.1802C73.5749 18.3925 72.7858 17.797 71.875 17.475V15.3375C72.7858 15.0155 73.5749 14.42 74.1342 13.6323C74.6936 12.8447 74.996 11.9035 75 10.9375V4.6875C75 3.4443 74.5061 2.25201 73.6271 1.37294C72.748 0.49386 71.5557 0 70.3125 0L29.6875 0C28.4443 0 27.252 0.49386 26.3729 1.37294C25.4939 2.25201 25 3.4443 25 4.6875V10.9375C25.004 11.9035 25.3064 12.8447 25.8658 13.6323C26.4251 14.42 27.2142 15.0155 28.125 15.3375V17.475C27.2142 17.797 26.4251 18.3925 25.8658 19.1802C25.3064 19.9678 25.004 20.909 25 21.875V28.125C25.004 29.091 25.3064 30.0322 25.8658 30.8198C26.4251 31.6075 27.2142 32.203 28.125 32.525V34.6625C27.2142 34.9845 26.4251 35.58 25.8658 36.3677C25.3064 37.1553 25.004 38.0965 25 39.0625V45.3125C25 46.5557 25.4939 47.748 26.3729 48.6271C27.252 49.5061 28.4443 50 29.6875 50H48.4375V57.8125C48.4468 57.9042 48.4651 57.9947 48.4922 58.0828C47.8268 58.3111 47.2213 58.6863 46.7207 59.1805C46.22 59.6746 45.837 60.2751 45.6 60.9375H14.0625C13.6481 60.9375 13.2507 61.1021 12.9576 61.3951C12.6646 61.6882 12.5 62.0856 12.5 62.5V73.4375C12.5 73.8519 12.6646 74.2493 12.9576 74.5424C13.2507 74.8354 13.6481 75 14.0625 75ZM37.5 34.375V32.8125H62.5V34.375H37.5ZM31.25 32.8125H34.375V34.375H31.25V32.8125ZM65.625 32.8125H68.75V34.375H65.625V32.8125ZM37.5 17.1875V15.625H62.5V17.1875H37.5ZM31.25 15.625H34.375V17.1875H31.25V15.625ZM65.625 15.625H68.75V17.1875H65.625V15.625ZM28.125 4.6875C28.125 4.2731 28.2896 3.87567 28.5826 3.58265C28.8757 3.28962 29.2731 3.125 29.6875 3.125H70.3125C70.7269 3.125 71.1243 3.28962 71.4174 3.58265C71.7104 3.87567 71.875 4.2731 71.875 4.6875V10.9375C71.875 11.3519 71.7104 11.7493 71.4174 12.0424C71.1243 12.3354 70.7269 12.5 70.3125 12.5H29.6875C29.2731 12.5 28.8757 12.3354 28.5826 12.0424C28.2896 11.7493 28.125 11.3519 28.125 10.9375V4.6875ZM28.125 21.875C28.125 21.4606 28.2896 21.0632 28.5826 20.7701C28.8757 20.4771 29.2731 20.3125 29.6875 20.3125H70.3125C70.7269 20.3125 71.1243 20.4771 71.4174 20.7701C71.7104 21.0632 71.875 21.4606 71.875 21.875V28.125C71.875 28.5394 71.7104 28.9368 71.4174 29.2299C71.1243 29.5229 70.7269 29.6875 70.3125 29.6875H29.6875C29.2731 29.6875 28.8757 29.5229 28.5826 29.2299C28.2896 28.9368 28.125 28.5394 28.125 28.125V21.875ZM28.125 45.3125V39.0625C28.125 38.6481 28.2896 38.2507 28.5826 37.9576C28.8757 37.6646 29.2731 37.5 29.6875 37.5H70.3125C70.7269 37.5 71.1243 37.6646 71.4174 37.9576C71.7104 38.2507 71.875 38.6481 71.875 39.0625V45.3125C71.875 45.7269 71.7104 46.1243 71.4174 46.4174C71.1243 46.7104 70.7269 46.875 70.3125 46.875H29.6875C29.2731 46.875 28.8757 46.7104 28.5826 46.4174C28.2896 46.1243 28.125 45.7269 28.125 45.3125ZM50 60.9375C50.309 60.9375 50.6111 61.0291 50.8681 61.2008C51.125 61.3725 51.3253 61.6166 51.4436 61.9021C51.5618 62.1876 51.5928 62.5017 51.5325 62.8048C51.4722 63.1079 51.3234 63.3863 51.1049 63.6049C50.8863 63.8234 50.6079 63.9722 50.3048 64.0325C50.0017 64.0928 49.6876 64.0618 49.4021 63.9436C49.1166 63.8253 48.8725 63.625 48.7008 63.3681C48.5291 63.1111 48.4375 62.809 48.4375 62.5C48.4375 62.0856 48.6021 61.6882 48.8951 61.3951C49.1882 61.1021 49.5856 60.9375 50 60.9375Z" fill="#57AF7D"/>
<path d="M68.75 7.8125C69.6129 7.8125 70.3125 7.11295 70.3125 6.25C70.3125 5.38706 69.6129 4.6875 68.75 4.6875C67.8871 4.6875 67.1875 5.38706 67.1875 6.25C67.1875 7.11295 67.8871 7.8125 68.75 7.8125Z" fill="#57AF7D"/>
<path d="M64.0625 7.8125C64.9254 7.8125 65.625 7.11295 65.625 6.25C65.625 5.38706 64.9254 4.6875 64.0625 4.6875C63.1996 4.6875 62.5 5.38706 62.5 6.25C62.5 7.11295 63.1996 7.8125 64.0625 7.8125Z" fill="#57AF7D"/>
<path d="M59.375 7.8125C60.2379 7.8125 60.9375 7.11295 60.9375 6.25C60.9375 5.38706 60.2379 4.6875 59.375 4.6875C58.5121 4.6875 57.8125 5.38706 57.8125 6.25C57.8125 7.11295 58.5121 7.8125 59.375 7.8125Z" fill="#57AF7D"/>
<path d="M68.75 25C69.6129 25 70.3125 24.3004 70.3125 23.4375C70.3125 22.5746 69.6129 21.875 68.75 21.875C67.8871 21.875 67.1875 22.5746 67.1875 23.4375C67.1875 24.3004 67.8871 25 68.75 25Z" fill="#57AF7D"/>
<path d="M64.0625 25C64.9254 25 65.625 24.3004 65.625 23.4375C65.625 22.5746 64.9254 21.875 64.0625 21.875C63.1996 21.875 62.5 22.5746 62.5 23.4375C62.5 24.3004 63.1996 25 64.0625 25Z" fill="#57AF7D"/>
<path d="M59.375 25C60.2379 25 60.9375 24.3004 60.9375 23.4375C60.9375 22.5746 60.2379 21.875 59.375 21.875C58.5121 21.875 57.8125 22.5746 57.8125 23.4375C57.8125 24.3004 58.5121 25 59.375 25Z" fill="#57AF7D"/>
<path d="M68.75 42.1875C69.6129 42.1875 70.3125 41.4879 70.3125 40.625C70.3125 39.7621 69.6129 39.0625 68.75 39.0625C67.8871 39.0625 67.1875 39.7621 67.1875 40.625C67.1875 41.4879 67.8871 42.1875 68.75 42.1875Z" fill="#57AF7D"/>
<path d="M64.0625 42.1875C64.9254 42.1875 65.625 41.4879 65.625 40.625C65.625 39.7621 64.9254 39.0625 64.0625 39.0625C63.1996 39.0625 62.5 39.7621 62.5 40.625C62.5 41.4879 63.1996 42.1875 64.0625 42.1875Z" fill="#57AF7D"/>
<path d="M59.375 42.1875C60.2379 42.1875 60.9375 41.4879 60.9375 40.625C60.9375 39.7621 60.2379 39.0625 59.375 39.0625C58.5121 39.0625 57.8125 39.7621 57.8125 40.625C57.8125 41.4879 58.5121 42.1875 59.375 42.1875Z" fill="#57AF7D"/>
</g>
<defs>
<clipPath id="clip0_1_419">
<rect width="100" height="100" fill="white"/>
</clipPath>
</defs>
</svg>
