<svg width="100" height="100" viewBox="0 0 100 100" fill="none" xmlns="http://www.w3.org/2000/svg">
<path fill-rule="evenodd" clip-rule="evenodd" d="M71.0956 26.5975H68.6273V31.511H72.8026C76.0091 31.511 76.0091 26.5975 72.8026 26.5975H71.0956ZM29.4116 77.7394C11.6492 77.7394 -1.22276 60.8305 3.32164 43.8063C8.05059 26.2054 28.3966 18.3853 43.6677 27.9355C43.2986 17.9931 48.3735 8.67363 57.1394 3.62173C70.0114 -3.82925 86.5281 0.599811 93.9791 13.4718C101.384 26.2976 96.9779 42.8374 84.1752 50.2884C100.969 60.9458 100.946 86.1362 83.2063 96.3784C65.7207 106.459 43.6215 94.3022 42.768 74.1869C38.685 76.5168 34.0714 77.7394 29.4116 77.7394ZM46.505 29.9654C52.3874 34.7867 56.0091 42.1223 56.309 49.6194C63.9675 45.2365 73.5177 44.9366 81.407 48.7428C93.9329 42.5375 98.6619 26.9205 91.6723 14.8097C84.9595 3.2065 70.0806 -0.784271 58.4773 5.92853C49.9422 10.842 45.2824 20.2307 46.505 29.9654ZM46.3666 71.7186L45.4208 72.4568C44.9595 91.3265 65.5131 103.506 81.8684 94.0716C93.4716 87.3587 97.4624 72.4799 90.7726 60.8766C83.7599 48.7428 67.8199 45.1212 56.2628 52.7797C55.7092 60.2769 52.1336 67.0589 46.3666 71.7186ZM29.3424 26.4591C10.7957 26.4591 -1.01515 46.7359 8.32741 62.9297C15.9629 76.1707 33.7023 78.962 45.0748 69.3195C53.8868 61.8916 56.3782 48.9505 50.4266 38.616C46.0898 31.1188 38.016 26.4591 29.3424 26.4591ZM29.4116 71.8801C21.8684 71.8801 14.8557 67.8432 11.0956 61.338C2.92948 47.1511 13.4024 29.6886 29.3424 29.6886C36.8857 29.6886 43.8983 33.7255 47.6584 40.2307C55.8245 54.3945 45.3286 71.8801 29.4116 71.8801ZM29.3424 32.3415C15.4324 32.3415 6.25128 47.6125 13.4024 60C18.5004 68.812 29.873 71.7878 38.5927 66.7359C47.4047 61.6609 50.4266 50.3576 45.3516 41.5687C42.0529 35.8709 35.9399 32.3415 29.3424 32.3415ZM81.1763 45.0058C79.9768 45.0058 71.8107 40.5998 60.3459 44.3599C59.6077 44.5906 58.8234 44.1523 58.6388 43.4141C57.2317 37.8316 54.1636 32.6413 49.9652 28.7198C49.6884 28.466 49.55 28.1431 49.5269 27.797C49.0656 15.8478 58.7542 5.85933 70.5881 5.85933C78.1313 5.85933 85.144 9.9193 88.9041 16.4245C94.5788 26.2746 91.5108 38.7544 81.8914 44.8213C81.6607 44.9366 81.4301 45.0058 81.1763 45.0058ZM69.7115 40.2077C73.5869 40.2077 77.3701 40.8766 81.0148 42.1915C88.9964 36.7705 91.4647 26.1592 86.5973 17.7394C81.5223 8.97351 70.1267 5.9516 61.407 11.0035C55.6169 14.3484 52.1106 20.4845 52.1798 27.1511C56.2167 31.0496 59.2386 36.0323 60.8534 41.4072C63.7138 40.5998 66.6896 40.2077 69.7115 40.2077ZM69.7576 94.1177C58.7542 94.1177 49.5269 85.5364 48.6734 74.6944C48.6504 74.2561 48.8118 73.8639 49.1348 73.5871C54.5327 68.9043 58.1083 62.4222 59.1925 55.3172C59.2617 54.902 59.5154 54.556 59.8845 54.3484C69.8038 49.135 82.3528 52.7105 87.9814 62.4683C96.1705 76.6321 85.6746 94.1177 69.7576 94.1177ZM51.3955 75.1327C52.8949 88.2815 67.5662 95.5479 78.9387 88.9966C87.7507 83.8985 90.7726 72.6183 85.6976 63.8063C80.8764 55.4787 70.3113 52.2722 61.7069 56.4014C60.4612 63.6217 56.8164 70.2192 51.3955 75.1327ZM29.3655 66.3438C28.9272 66.3438 28.512 66.1131 28.2582 65.744L17.9468 50.0808L17.7392 49.3426L18.0621 48.4891L28.3505 35.7094C28.8349 35.0866 29.896 35.0866 30.4035 35.7094L40.738 48.5352C41.084 48.9966 41.1071 49.6425 40.7611 50.1269L30.4958 65.744C30.2421 66.1131 29.8268 66.3438 29.3655 66.3438ZM22.9987 52.9182L29.3655 62.6067L35.7553 52.9182C34.6711 53.4718 30.6111 55.7325 29.8038 55.9862C29.4577 56.1015 29.0887 56.0785 28.7657 55.917L22.9987 52.9182ZM21.1302 48.9274L29.3655 53.218L37.6238 48.9274L29.3655 38.6621L21.1302 48.9274ZM69.7346 84.037C68.0737 84.037 68.4197 81.9839 68.4197 80.8766C67.2893 80.8766 65.144 81.2226 65.144 79.5387C65.144 78.8005 65.7438 78.2007 66.482 78.2007H71.6723V74.3484H66.482C65.7438 74.3484 65.144 73.7486 65.144 73.0335C65.144 64.6829 64.4289 65.1673 68.4197 65.1673C68.4197 64.06 68.0737 62.007 69.7346 62.007C71.3955 62.007 71.0725 64.06 71.0725 65.1673C72.1798 65.1673 74.3251 64.8213 74.3251 66.5052C74.3251 67.2434 73.7484 67.8432 73.0102 67.8432H67.8199V71.6955H73.0102C73.7484 71.6955 74.3251 72.2953 74.3251 73.0335C74.3251 81.3611 75.0633 80.8766 71.0725 80.8766C71.0725 81.9839 71.3955 84.037 69.7346 84.037ZM67.2893 34.1638C65.8591 34.1638 63.3216 34.6252 63.3216 32.8489C63.3216 31.3495 64.9364 31.511 65.9745 31.511V19.0312C64.9364 19.0312 63.3216 19.1696 63.3216 17.6932C63.3216 15.917 65.8591 16.3553 67.2893 16.3553H67.866C67.866 15.3403 67.7046 13.7255 69.1809 13.7255C70.6803 13.7255 70.5189 15.3403 70.5189 16.3553H71.0956C75.3401 16.3553 77.6238 21.2457 75.2017 24.5214C79.7461 26.9666 78.1775 34.1638 72.8026 34.1638H70.5189C70.5189 35.248 70.7957 37.1627 69.1809 37.1627C67.5892 37.1627 67.866 35.248 67.866 34.1638H67.2893ZM68.6273 23.9447H71.1417C74.302 23.8985 74.279 19.0312 71.0956 19.0312H68.6273V23.9447Z" fill="#57AF7D"/>
</svg>
