<svg width="100" height="100" viewBox="0 0 100 100" fill="none" xmlns="http://www.w3.org/2000/svg">
<path d="M43.75 43.75V56.25C43.75 56.6644 43.5854 57.0618 43.2924 57.3549C42.9993 57.6479 42.6019 57.8125 42.1875 57.8125C41.9148 57.8109 41.6473 57.7379 41.4116 57.6008C41.1758 57.4638 40.9801 57.2674 40.8438 57.0312L34.375 48.4375V56.25C34.375 56.6644 34.2104 57.0618 33.9174 57.3549C33.6243 57.6479 33.2269 57.8125 32.8125 57.8125C32.3981 57.8125 32.0007 57.6479 31.7076 57.3549C31.4146 57.0618 31.25 56.6644 31.25 56.25V43.75C31.25 43.3356 31.4146 42.9382 31.7076 42.6451C32.0007 42.3521 32.3981 42.1875 32.8125 42.1875C33.0852 42.1891 33.3527 42.2621 33.5884 42.3992C33.8241 42.5362 34.0199 42.7326 34.1562 42.9688L40.625 51.5625V43.75C40.625 43.3356 40.7896 42.9382 41.0826 42.6451C41.3757 42.3521 41.7731 42.1875 42.1875 42.1875C42.6019 42.1875 42.9993 42.3521 43.2924 42.6451C43.5854 42.9382 43.75 43.3356 43.75 43.75ZM54.6875 45.3125C55.1019 45.3125 55.4993 45.1479 55.7924 44.8549C56.0854 44.5618 56.25 44.1644 56.25 43.75C56.25 43.3356 56.0854 42.9382 55.7924 42.6451C55.4993 42.3521 55.1019 42.1875 54.6875 42.1875H48.4375C48.0231 42.1875 47.6257 42.3521 47.3326 42.6451C47.0396 42.9382 46.875 43.3356 46.875 43.75V56.25C46.875 56.6644 47.0396 57.0618 47.3326 57.3549C47.6257 57.6479 48.0231 57.8125 48.4375 57.8125C48.8519 57.8125 49.2493 57.6479 49.5424 57.3549C49.8354 57.0618 50 56.6644 50 56.25V51.5625H54.6875C55.1019 51.5625 55.4993 51.3979 55.7924 51.1049C56.0854 50.8118 56.25 50.4144 56.25 50C56.25 49.5856 56.0854 49.1882 55.7924 48.8951C55.4993 48.6021 55.1019 48.4375 54.6875 48.4375H50V45.3125H54.6875ZM64.0625 57.8125C64.4769 57.8125 64.8743 57.6479 65.1674 57.3549C65.4604 57.0618 65.625 56.6644 65.625 56.25V45.3125H67.1875C67.6019 45.3125 67.9993 45.1479 68.2924 44.8549C68.5854 44.5618 68.75 44.1644 68.75 43.75C68.75 43.3356 68.5854 42.9382 68.2924 42.6451C67.9993 42.3521 67.6019 42.1875 67.1875 42.1875H60.9375C60.5231 42.1875 60.1257 42.3521 59.8326 42.6451C59.5396 42.9382 59.375 43.3356 59.375 43.75C59.375 44.1644 59.5396 44.5618 59.8326 44.8549C60.1257 45.1479 60.5231 45.3125 60.9375 45.3125H62.5V56.25C62.5 56.6644 62.6646 57.0618 62.9576 57.3549C63.2507 57.6479 63.6481 57.8125 64.0625 57.8125ZM6.25 25H12.5V31.25H6.25V25ZM85.9375 78.125H92.1875V84.375H85.9375V78.125Z" fill="#57AF7D"/>
<path d="M87.4998 51.5625C86.1177 51.567 84.776 52.0295 83.6847 52.8777C82.5934 53.7258 81.8141 54.9118 81.4685 56.25H74.9998V43.75H81.4685C81.8488 45.2229 82.7533 46.5066 84.0123 47.3603C85.2713 48.2141 86.7985 48.5794 88.3076 48.3877C89.8167 48.196 91.204 47.4606 92.2097 46.3191C93.2153 45.1777 93.7701 43.7087 93.7701 42.1875C93.7701 40.6663 93.2153 39.1973 92.2097 38.0559C91.204 36.9145 89.8167 36.179 88.3076 35.9873C86.7985 35.7957 85.2713 36.1609 84.0123 37.0147C82.7533 37.8685 81.8488 39.1521 81.4685 40.625H74.9998V39.1719C74.9931 37.7887 74.6192 36.432 73.9164 35.2406C73.2137 34.0491 72.2072 33.0657 70.9998 32.3906L65.6248 29.4219V22.5156L68.7498 19.3906C70.0814 20.167 71.6506 20.4306 73.1628 20.132C74.675 19.8334 76.0262 18.9931 76.9628 17.7689C77.8994 16.5447 78.357 15.0208 78.2497 13.4831C78.1424 11.9455 77.4775 10.4999 76.38 9.41765C75.2824 8.33543 73.8275 7.69101 72.2885 7.60537C70.7495 7.51972 69.2322 7.99873 68.0213 8.95249C66.8104 9.90624 65.9893 11.2692 65.712 12.7854C65.4347 14.3017 65.7204 15.867 66.5154 17.1875L62.9529 20.7344C62.8043 20.8841 62.6875 21.0623 62.6097 21.2584C62.5318 21.4544 62.4944 21.6642 62.4998 21.875V27.6875L53.7342 22.8281C53.0529 22.4616 52.3209 22.1983 51.5623 22.0469V15.4063C53.0352 15.026 54.3188 14.1215 55.1726 12.8625C56.0264 11.6035 56.3916 10.0763 56.2 8.56721C56.0083 7.05813 55.2728 5.67075 54.1314 4.66514C52.99 3.65954 51.521 3.10474 49.9998 3.10474C48.4786 3.10474 47.0096 3.65954 45.8682 4.66514C44.7267 5.67075 43.9913 7.05813 43.7996 8.56721C43.6079 10.0763 43.9732 11.6035 44.827 12.8625C45.6807 14.1215 46.9644 15.026 48.4373 15.4063V22.0469C47.6762 22.1976 46.9434 22.4665 46.2654 22.8438L37.4998 27.6875V21.875C37.501 21.6694 37.4616 21.4655 37.3838 21.2752C37.306 21.0848 37.1915 20.9116 37.0467 20.7656L33.4842 17.1875C34.2669 15.8608 34.5389 14.2942 34.2491 12.7813C33.9594 11.2684 33.1277 9.91311 31.91 8.9696C30.6924 8.02608 29.1724 7.55911 27.6351 7.65622C26.0977 7.75333 24.6486 8.40786 23.5594 9.4971C22.4701 10.5863 21.8156 12.0355 21.7185 13.5728C21.6214 15.1102 22.0883 16.6301 23.0319 17.8478C23.9754 19.0654 25.3306 19.8971 26.8435 20.1869C28.3564 20.4767 29.9231 20.2047 31.2498 19.4219L34.3748 22.5469V29.4531L29.906 31.9375C29.5455 32.1447 29.282 32.4867 29.1736 32.8881C29.0652 33.2895 29.1207 33.7176 29.3279 34.0781C29.5351 34.4387 29.877 34.7021 30.2785 34.8105C30.6799 34.919 31.108 34.8635 31.4685 34.6563L47.8279 25.6094C48.5139 25.2374 49.2819 25.0426 50.0623 25.0426C50.8426 25.0426 51.6107 25.2374 52.2967 25.6094L69.4842 35.1563C70.1991 35.558 70.7961 36.1403 71.2156 36.8449C71.6351 37.5496 71.8624 38.3519 71.8748 39.1719V60.8282C71.8694 61.6519 71.647 62.4597 71.2301 63.1702C70.8131 63.8806 70.2163 64.4686 69.4998 64.875L52.3123 74.4219C51.6263 74.7939 50.8583 74.9887 50.0779 74.9887C49.2975 74.9887 48.5295 74.7939 47.8435 74.4219L30.656 64.875C29.9103 64.489 29.282 63.9098 28.8367 63.1979C28.3914 62.486 28.1456 61.6676 28.1248 60.8282V39.1719C28.1171 38.935 28.1435 38.6982 28.2029 38.4688C28.2941 38.0544 28.2169 37.6207 27.9883 37.2632C27.7598 36.9057 27.3986 36.6537 26.9842 36.5625C26.5698 36.4714 26.1361 36.5485 25.7786 36.7771C25.4211 37.0057 25.1691 37.3669 25.0779 37.7813C24.9815 38.2385 24.9344 38.7047 24.9373 39.1719V40.625H18.531C18.1507 39.1521 17.2463 37.8685 15.9873 37.0147C14.7282 36.1609 13.201 35.7957 11.692 35.9873C10.1829 36.179 8.79551 36.9145 7.7899 38.0559C6.78429 39.1973 6.22949 40.6663 6.22949 42.1875C6.22949 43.7087 6.78429 45.1777 7.7899 46.3191C8.79551 47.4606 10.1829 48.196 11.692 48.3877C13.201 48.5794 14.7282 48.2141 15.9873 47.3603C17.2463 46.5066 18.1507 45.2229 18.531 43.75H24.9998V56.25H18.531C18.1507 54.7771 17.2463 53.4935 15.9873 52.6397C14.7282 51.7859 13.201 51.4207 11.692 51.6123C10.1829 51.804 8.79551 52.5395 7.7899 53.6809C6.78429 54.8223 6.22949 56.2913 6.22949 57.8125C6.22949 59.3337 6.78429 60.8027 7.7899 61.9441C8.79551 63.0856 10.1829 63.821 11.692 64.0127C13.201 64.2044 14.7282 63.8391 15.9873 62.9853C17.2463 62.1316 18.1507 60.8479 18.531 59.375H24.9998V60.8282C25.0065 62.2114 25.3803 63.5681 26.0831 64.7595C26.7859 65.9509 27.7924 66.9344 28.9998 67.6094L34.3748 70.5781V77.4844L31.2498 80.6094C29.9182 79.8331 28.349 79.5695 26.8368 79.8681C25.3246 80.1667 23.9734 81.0069 23.0368 82.2311C22.1002 83.4553 21.6426 84.9793 21.7499 86.5169C21.8572 88.0546 22.522 89.5002 23.6196 90.5824C24.7172 91.6646 26.172 92.309 27.711 92.3947C29.25 92.4803 30.7674 92.0013 31.9783 91.0476C33.1891 90.0938 34.0103 88.7309 34.2876 87.2146C34.5648 85.6984 34.2791 84.1331 33.4842 82.8125L37.0467 79.2656C37.1953 79.116 37.312 78.9377 37.3899 78.7417C37.4678 78.5457 37.5052 78.3359 37.4998 78.125V72.3125L46.2654 77.1719C46.9467 77.5384 47.6786 77.8017 48.4373 77.9531V84.5938C46.9644 84.9741 45.6807 85.8785 44.827 87.1375C43.9732 88.3966 43.6079 89.9238 43.7996 91.4328C43.9913 92.9419 44.7267 94.3293 45.8682 95.3349C47.0096 96.3405 48.4786 96.8953 49.9998 96.8953C51.521 96.8953 52.99 96.3405 54.1314 95.3349C55.2728 94.3293 56.0083 92.9419 56.2 91.4328C56.3916 89.9238 56.0264 88.3966 55.1726 87.1375C54.3188 85.8785 53.0352 84.9741 51.5623 84.5938V77.9531C52.3234 77.8024 53.0562 77.5336 53.7342 77.1563L62.4998 72.3125V78.125C62.4986 78.3307 62.538 78.5345 62.6158 78.7249C62.6935 78.9152 62.8081 79.0884 62.9529 79.2344L66.5154 82.8125C65.7326 84.1392 65.4606 85.7059 65.7504 87.2188C66.0402 88.7317 66.8719 90.0869 68.0895 91.0304C69.3072 91.974 70.8271 92.4409 72.3645 92.3438C73.9018 92.2467 75.351 91.5922 76.4402 90.5029C77.5294 89.4137 78.184 87.9646 78.2811 86.4272C78.3782 84.8899 77.9112 83.3699 76.9677 82.1523C76.0242 80.9346 74.6689 80.1029 73.156 79.8131C71.6431 79.5234 70.0765 79.7954 68.7498 80.5781L65.6248 77.4531V70.5781L71.0154 67.5938C72.2176 66.9181 73.2195 65.9362 73.9193 64.7479C74.6191 63.5596 74.9919 62.2072 74.9998 60.8282V59.375H81.4685C81.761 60.5077 82.3655 61.5355 83.2132 62.3417C84.0609 63.1478 85.1179 63.6998 86.2638 63.9349C87.4098 64.1701 88.5987 64.0789 89.6954 63.6717C90.7921 63.2645 91.7525 62.5578 92.4673 61.6318C93.1822 60.7058 93.6228 59.5978 93.7391 58.4337C93.8554 57.2697 93.6426 56.0964 93.1251 55.0473C92.6075 53.9982 91.8059 53.1154 90.8115 52.4994C89.817 51.8833 88.6696 51.5587 87.4998 51.5625ZM87.4998 39.0625C88.1179 39.0625 88.722 39.2458 89.2359 39.5892C89.7498 39.9326 90.1504 40.4206 90.3869 40.9916C90.6234 41.5627 90.6853 42.191 90.5647 42.7972C90.4442 43.4034 90.1465 43.9602 89.7095 44.3972C89.2725 44.8343 88.7156 45.1319 88.1094 45.2525C87.5033 45.3731 86.8749 45.3112 86.3039 45.0746C85.7329 44.8381 85.2448 44.4376 84.9014 43.9237C84.5581 43.4098 84.3748 42.8056 84.3748 42.1875C84.3748 41.3587 84.704 40.5639 85.2901 39.9778C85.8761 39.3918 86.671 39.0625 87.4998 39.0625ZM71.8748 10.9375C72.388 10.9379 72.8933 11.0648 73.3459 11.3068C73.7985 11.5488 74.1845 11.8986 74.4699 12.3253C74.7552 12.7519 74.9311 13.2423 74.9819 13.753C75.0328 14.2637 74.957 14.7791 74.7614 15.2536C74.5657 15.7282 74.2562 16.1472 73.8602 16.4737C73.4642 16.8002 72.9939 17.0241 72.4907 17.1257C71.9876 17.2273 71.4673 17.2034 70.9756 17.0561C70.4839 16.9088 70.0361 16.6427 69.6716 16.2813C69.2319 15.8451 68.9317 15.2881 68.8091 14.681C68.6865 14.0739 68.7471 13.444 68.9832 12.8714C69.2193 12.2988 69.6202 11.8092 70.135 11.4649C70.6499 11.1206 71.2554 10.937 71.8748 10.9375ZM24.9998 14.0625C25.0002 13.5493 25.127 13.044 25.369 12.5914C25.6111 12.1388 25.9609 11.7528 26.3875 11.4674C26.8142 11.1821 27.3045 11.0062 27.8152 10.9554C28.326 10.9045 28.8414 10.9803 29.3159 11.1759C29.7904 11.3716 30.2094 11.6811 30.5359 12.0771C30.8624 12.4731 31.0864 12.9434 31.188 13.4466C31.2895 13.9497 31.2656 14.47 31.1184 14.9617C30.9711 15.4534 30.705 15.9012 30.3435 16.2656C29.9074 16.7054 29.3504 17.0056 28.7432 17.1282C28.1361 17.2508 27.5063 17.1902 26.9337 16.9541C26.361 16.718 25.8715 16.3171 25.5272 15.8023C25.1829 15.2874 24.9993 14.6819 24.9998 14.0625ZM46.8748 9.37502C46.8748 8.75696 47.0581 8.15277 47.4014 7.63887C47.7448 7.12496 48.2329 6.72442 48.8039 6.4879C49.3749 6.25138 50.0032 6.18949 50.6094 6.31007C51.2156 6.43065 51.7724 6.72827 52.2095 7.16531C52.6465 7.60235 52.9442 8.15917 53.0647 8.76537C53.1853 9.37156 53.1234 9.99989 52.8869 10.5709C52.6504 11.1419 52.2498 11.63 51.7359 11.9734C51.222 12.3167 50.6178 12.5 49.9998 12.5C49.171 12.5 48.3761 12.1708 47.7901 11.5847C47.204 10.9987 46.8748 10.2038 46.8748 9.37502ZM12.4998 45.3125C11.8817 45.3125 11.2775 45.1292 10.7636 44.7859C10.2497 44.4425 9.84918 43.9544 9.61265 43.3834C9.37613 42.8124 9.31425 42.1841 9.43482 41.5779C9.5554 40.9717 9.85303 40.4149 10.2901 39.9778C10.7271 39.5408 11.2839 39.2431 11.8901 39.1226C12.4963 39.002 13.1246 39.0639 13.6957 39.3004C14.2667 39.5369 14.7547 39.9375 15.0981 40.4514C15.4415 40.9653 15.6248 41.5695 15.6248 42.1875C15.6248 43.0163 15.2955 43.8112 14.7095 44.3972C14.1234 44.9833 13.3286 45.3125 12.4998 45.3125ZM12.4998 60.9375C11.8817 60.9375 11.2775 60.7542 10.7636 60.4109C10.2497 60.0675 9.84918 59.5794 9.61265 59.0084C9.37613 58.4374 9.31425 57.8091 9.43482 57.2029C9.5554 56.5967 9.85303 56.0399 10.2901 55.6028C10.7271 55.1658 11.2839 54.8681 11.8901 54.7476C12.4963 54.627 13.1246 54.6889 13.6957 54.9254C14.2667 55.1619 14.7547 55.5625 15.0981 56.0764C15.4415 56.5903 15.6248 57.1945 15.6248 57.8125C15.6248 58.6413 15.2955 59.4362 14.7095 60.0222C14.1234 60.6083 13.3286 60.9375 12.4998 60.9375ZM28.1248 89.0625C27.6115 89.0621 27.1063 88.9353 26.6536 88.6933C26.201 88.4512 25.815 88.1014 25.5297 87.6748C25.2443 87.2481 25.0685 86.7578 25.0176 86.2471C24.9668 85.7363 25.0425 85.2209 25.2382 84.7464C25.4338 84.2719 25.7433 83.8529 26.1393 83.5264C26.5354 83.1999 27.0057 82.9759 27.5088 82.8743C28.0119 82.7728 28.5323 82.7967 29.024 82.9439C29.5157 83.0912 29.9635 83.3573 30.3279 83.7188C30.7677 84.1549 31.0679 84.7119 31.1905 85.3191C31.313 85.9262 31.2524 86.556 31.0164 87.1286C30.7803 87.7013 30.3794 88.1908 29.8645 88.5351C29.3497 88.8795 28.7441 89.063 28.1248 89.0625ZM53.1248 90.625C53.1248 91.2431 52.9415 91.8473 52.5981 92.3612C52.2547 92.8751 51.7667 93.2756 51.1957 93.5121C50.6246 93.7487 49.9963 93.8106 49.3901 93.69C48.7839 93.5694 48.2271 93.2718 47.7901 92.8347C47.353 92.3977 47.0554 91.8409 46.9348 91.2347C46.8142 90.6285 46.8761 90.0002 47.1127 89.4291C47.3492 88.8581 47.7497 88.3701 48.2636 88.0267C48.7775 87.6833 49.3817 87.5 49.9998 87.5C50.8286 87.5 51.6234 87.8293 52.2095 88.4153C52.7955 89.0014 53.1248 89.7962 53.1248 90.625ZM74.9998 85.9375C74.9994 86.4508 74.8725 86.956 74.6305 87.4087C74.3885 87.8613 74.0387 88.2473 73.612 88.5326C73.1854 88.818 72.695 88.9938 72.1843 89.0447C71.6736 89.0955 71.1582 89.0198 70.6837 88.8241C70.2092 88.6285 69.7901 88.319 69.4636 87.923C69.1371 87.5269 68.9132 87.0566 68.8116 86.5535C68.71 86.0504 68.7339 85.53 68.8812 85.0383C69.0285 84.5466 69.2946 84.0988 69.656 83.7344C70.0922 83.2946 70.6492 82.9944 71.2563 82.8718C71.8634 82.7493 72.4933 82.8099 73.0659 83.0459C73.6385 83.282 74.1281 83.6829 74.4724 84.1978C74.8167 84.7126 75.0003 85.3182 74.9998 85.9375ZM87.4998 60.9375C86.8817 60.9375 86.2775 60.7542 85.7636 60.4109C85.2497 60.0675 84.8492 59.5794 84.6127 59.0084C84.3761 58.4374 84.3142 57.8091 84.4348 57.2029C84.5554 56.5967 84.853 56.0399 85.2901 55.6028C85.7271 55.1658 86.2839 54.8681 86.8901 54.7476C87.4963 54.627 88.1246 54.6889 88.6957 54.9254C89.2667 55.1619 89.7547 55.5625 90.0981 56.0764C90.4415 56.5903 90.6248 57.1945 90.6248 57.8125C90.6248 58.6413 90.2955 59.4362 89.7095 60.0222C89.1234 60.6083 88.3286 60.9375 87.4998 60.9375Z" fill="#57AF7D"/>
</svg>
