<svg width="100" height="100" viewBox="0 0 100 100" fill="none" xmlns="http://www.w3.org/2000/svg">
<path d="M92.1875 24.9999H90.1582C91.9712 22.9776 93.1599 20.4735 93.5804 17.7902C94.001 15.1069 93.6355 12.3593 92.5281 9.87924C91.4207 7.3992 89.6188 5.29291 87.3401 3.81487C85.0615 2.33683 82.4035 1.55029 79.6875 1.55029C76.9715 1.55029 74.3135 2.33683 72.0349 3.81487C69.7562 5.29291 67.9543 7.3992 66.8469 9.87924C65.7395 12.3593 65.374 15.1069 65.7946 17.7902C66.2151 20.4735 67.4038 22.9776 69.2168 24.9999H50V9.37493C50 8.96053 49.8354 8.5631 49.5424 8.27007C49.2493 7.97705 48.8519 7.81243 48.4375 7.81243H42.1875C41.7731 7.81243 41.3757 7.97705 41.0826 8.27007C40.7896 8.5631 40.625 8.96053 40.625 9.37493V24.9999H39.0625V3.12493C39.0625 2.71053 38.8979 2.3131 38.6049 2.02007C38.3118 1.72705 37.9144 1.56243 37.5 1.56243H31.25C30.8356 1.56243 30.4382 1.72705 30.1451 2.02007C29.8521 2.3131 29.6875 2.71053 29.6875 3.12493V24.9999H28.125V14.0624C28.125 13.648 27.9604 13.2506 27.6674 12.9576C27.3743 12.6645 26.9769 12.4999 26.5625 12.4999H20.3125C19.8981 12.4999 19.5007 12.6645 19.2076 12.9576C18.9146 13.2506 18.75 13.648 18.75 14.0624V24.9999H7.8125C6.15547 25.0018 4.56684 25.6609 3.39514 26.8326C2.22344 28.0043 1.56436 29.5929 1.5625 31.2499V78.1249C1.56436 79.782 2.22344 81.3706 3.39514 82.5423C4.56684 83.714 6.15547 84.3731 7.8125 84.3749H40.0195L37.9355 90.6249H32.8125C32.3981 90.6249 32.0007 90.7896 31.7076 91.0826C31.4146 91.3756 31.25 91.773 31.25 92.1874V95.3124H15.625C15.2106 95.3124 14.8132 95.4771 14.5201 95.7701C14.2271 96.0631 14.0625 96.4605 14.0625 96.8749C14.0625 97.2893 14.2271 97.6868 14.5201 97.9798C14.8132 98.2728 15.2106 98.4374 15.625 98.4374H84.375C84.7894 98.4374 85.1868 98.2728 85.4799 97.9798C85.7729 97.6868 85.9375 97.2893 85.9375 96.8749C85.9375 96.4605 85.7729 96.0631 85.4799 95.7701C85.1868 95.4771 84.7894 95.3124 84.375 95.3124H68.75V92.1874C68.75 91.773 68.5854 91.3756 68.2924 91.0826C67.9993 90.7896 67.6019 90.6249 67.1875 90.6249H62.0644L59.9805 84.3749H92.1875C93.8445 84.3731 95.4332 83.714 96.6049 82.5423C97.7766 81.3706 98.4356 79.782 98.4375 78.1249V31.2499C98.4356 29.5929 97.7766 28.0043 96.6049 26.8326C95.4332 25.6609 93.8445 25.0018 92.1875 24.9999ZM81.25 4.80071C83.5852 5.14147 85.748 6.22695 87.4168 7.89567C89.0855 9.5644 90.171 11.7272 90.5117 14.0624H81.25V4.80071ZM80.334 17.1874H90.5117C90.2419 19.065 89.488 20.84 88.3243 22.3379C87.1606 23.8358 85.6271 25.0051 83.8746 25.7308C82.1221 26.4565 80.2109 26.7137 78.3289 26.477C76.4469 26.2403 74.6589 25.5179 73.1406 24.3808L80.334 17.1874ZM68.75 15.6249C68.7538 12.996 69.7028 10.4561 71.424 8.46888C73.1451 6.48167 75.5235 5.17972 78.125 4.80071V14.9784L70.9316 22.1718C69.5133 20.284 68.7476 17.9861 68.75 15.6249ZM43.75 10.9374H46.875V40.6249H43.75V10.9374ZM39.0625 28.1249H40.625V40.6249H39.0625V28.1249ZM32.8125 4.68743H35.9375V40.6249H32.8125V4.68743ZM28.125 28.1249H29.6875V40.6249H28.125V28.1249ZM21.875 15.6249H25V40.6249H21.875V15.6249ZM65.625 93.7499V95.3124H34.375V93.7499H65.625ZM41.2305 90.6249L43.3145 84.3749H56.6856L58.7695 90.6249H41.2305ZM95.3125 78.1249C95.3114 78.9534 94.9818 79.7476 94.396 80.3334C93.8102 80.9193 93.016 81.2488 92.1875 81.2499H7.8125C6.98403 81.2488 6.18981 80.9193 5.60399 80.3334C5.01817 79.7476 4.68859 78.9534 4.6875 78.1249V74.9999H95.3125V78.1249ZM95.3125 71.8749H4.6875V31.2499C4.68859 30.4215 5.01817 29.6272 5.60399 29.0414C6.18981 28.4556 6.98403 28.126 7.8125 28.1249H18.75V40.6249H17.1875V31.2499C17.1875 30.8355 17.0229 30.4381 16.7299 30.1451C16.4368 29.852 16.0394 29.6874 15.625 29.6874H9.375C8.9606 29.6874 8.56317 29.852 8.27015 30.1451C7.97712 30.4381 7.8125 30.8355 7.8125 31.2499V42.1874C7.8125 42.6018 7.97712 42.9993 8.27015 43.2923C8.56317 43.5853 8.9606 43.7499 9.375 43.7499H59.375C59.7894 43.7499 60.1868 43.5853 60.4799 43.2923C60.7729 42.9993 60.9375 42.6018 60.9375 42.1874V31.2499C60.9375 30.8355 60.7729 30.4381 60.4799 30.1451C60.1868 29.852 59.7894 29.6874 59.375 29.6874H53.125C52.7106 29.6874 52.3132 29.852 52.0201 30.1451C51.7271 30.4381 51.5625 30.8355 51.5625 31.2499V40.6249H50V28.1249H73.2578C75.2455 29.1516 77.4503 29.6874 79.6875 29.6874C81.9247 29.6874 84.1295 29.1516 86.1172 28.1249H92.1875C93.016 28.126 93.8102 28.4556 94.396 29.0414C94.9818 29.6272 95.3114 30.4215 95.3125 31.2499V71.8749ZM14.0625 32.8124V40.6249H10.9375V32.8124H14.0625ZM54.6875 40.6249V32.8124H57.8125V40.6249H54.6875Z" fill="#57AF7D"/>
<path d="M18.7496 76.5625H9.3746C8.9602 76.5625 8.56277 76.7271 8.26975 77.0201C7.97672 77.3132 7.8121 77.7106 7.8121 78.125C7.8121 78.5394 7.97672 78.9368 8.26975 79.2299C8.56277 79.5229 8.9602 79.6875 9.3746 79.6875H18.7496C19.164 79.6875 19.5614 79.5229 19.8545 79.2299C20.1475 78.9368 20.3121 78.5394 20.3121 78.125C20.3121 77.7106 20.1475 77.3132 19.8545 77.0201C19.5614 76.7271 19.164 76.5625 18.7496 76.5625ZM24.9996 76.5625H23.4371C23.0227 76.5625 22.6253 76.7271 22.3322 77.0201C22.0392 77.3132 21.8746 77.7106 21.8746 78.125C21.8746 78.5394 22.0392 78.9368 22.3322 79.2299C22.6253 79.5229 23.0227 79.6875 23.4371 79.6875H24.9996C25.414 79.6875 25.8114 79.5229 26.1045 79.2299C26.3975 78.9368 26.5621 78.5394 26.5621 78.125C26.5621 77.7106 26.3975 77.3132 26.1045 77.0201C25.8114 76.7271 25.414 76.5625 24.9996 76.5625ZM67.1871 40.625C67.3923 40.6253 67.5956 40.585 67.7852 40.5065C67.9748 40.4279 68.1471 40.3127 68.292 40.1674L74.0842 34.375H87.4996C87.914 34.375 88.3114 34.2104 88.6045 33.9174C88.8975 33.6243 89.0621 33.2269 89.0621 32.8125C89.0621 32.3981 88.8975 32.0007 88.6045 31.7076C88.3114 31.4146 87.914 31.25 87.4996 31.25H73.4371C73.2319 31.25 73.0287 31.2904 72.8391 31.3689C72.6496 31.4474 72.4773 31.5625 72.3322 31.7076L66.0822 37.9576C65.8637 38.1761 65.7149 38.4546 65.6546 38.7577C65.5943 39.0608 65.6252 39.3749 65.7435 39.6605C65.8618 39.946 66.062 40.19 66.319 40.3617C66.576 40.5334 66.8781 40.625 67.1871 40.625ZM87.4996 57.8125C86.6785 57.8131 85.8719 58.0294 85.1607 58.4397C84.4494 58.85 83.8584 59.4399 83.4469 60.1504L67.0894 50.6074C66.8678 49.5426 66.2829 48.588 65.4347 47.9072C64.5866 47.2263 63.5281 46.8615 62.4406 46.8754C61.3531 46.8892 60.3042 47.2808 59.4737 47.9831C58.6432 48.6853 58.0827 49.6545 57.8883 50.7246L41.4273 63.0703C40.9795 62.3807 40.3581 61.8211 39.6254 61.4479C38.8927 61.0746 38.0747 60.9008 37.2536 60.944C36.4325 60.9871 35.6372 61.2457 34.9477 61.6937C34.2582 62.1417 33.6988 62.7633 33.3258 63.4961L17.0562 56.7168C16.7995 55.6465 16.1745 54.7005 15.2906 54.0446C14.4067 53.3887 13.3202 53.0646 12.2214 53.1291C11.1226 53.1935 10.0815 53.6425 9.28035 54.3973C8.47921 55.1521 7.96911 56.1646 7.83935 57.2576C7.70959 58.3507 7.96845 59.4545 8.57059 60.3759C9.17274 61.2973 10.0798 61.9775 11.133 62.2974C12.1861 62.6174 13.3183 62.5567 14.3312 62.1259C15.3441 61.6952 16.1733 60.9219 16.6734 59.9414L32.943 66.7207C33.1941 67.7661 33.7971 68.6933 34.6508 69.3469C35.5044 70.0004 36.5568 70.3406 37.6315 70.3104C38.7062 70.2802 39.7378 69.8814 40.5534 69.1809C41.369 68.4804 41.9189 67.5207 42.1109 66.4629L58.5719 54.1172C59.0079 54.789 59.609 55.3377 60.3177 55.7108C61.0263 56.084 61.8189 56.2691 62.6195 56.2485C63.4201 56.228 64.2021 56.0024 64.8907 55.5933C65.5792 55.1842 66.1513 54.6054 66.5523 53.9121L82.9098 63.4551C83.0903 64.3226 83.5131 65.1213 84.1291 65.7583C84.745 66.3954 85.529 66.8448 86.39 67.0544C87.2509 67.2641 88.1537 67.2254 88.9936 66.9428C89.8335 66.6602 90.5761 66.1454 91.1353 65.4579C91.6945 64.7705 92.0474 63.9386 92.153 63.0588C92.2586 62.179 92.1127 61.2872 91.7322 60.4869C91.3516 59.6867 90.752 59.0107 90.0029 58.5373C89.2537 58.0639 88.3857 57.8126 87.4996 57.8125ZM14.0621 57.8203C14.0611 58.2354 13.8953 58.6331 13.6012 58.9261C13.3072 59.2191 12.9088 59.3833 12.4937 59.3828C12.0786 59.3823 11.6807 59.217 11.3874 58.9233C11.0941 58.6296 10.9293 58.2315 10.9293 57.8164C10.9293 57.4013 11.0941 57.0032 11.3874 56.7095C11.6807 56.4158 12.0786 56.2505 12.4937 56.25C12.9088 56.2495 13.3072 56.4138 13.6012 56.7067C13.8953 56.9997 14.0611 57.3974 14.0621 57.8125V57.8203ZM37.4996 67.1875C37.0854 67.1869 36.6883 67.0221 36.3954 66.7292C36.1025 66.4363 35.9377 66.0392 35.9371 65.625V65.6172C35.9386 65.3085 36.0316 65.0072 36.2042 64.7513C36.3768 64.4953 36.6214 64.2963 36.907 64.1792C37.1927 64.0621 37.5066 64.0323 37.8092 64.0935C38.1118 64.1547 38.3894 64.3041 38.6072 64.5229C38.8249 64.7417 38.973 65.0201 39.0326 65.323C39.0923 65.6259 39.0609 65.9397 38.9424 66.2247C38.8239 66.5098 38.6236 66.7534 38.3669 66.9247C38.1101 67.0961 37.8083 67.1875 37.4996 67.1875ZM62.4996 53.125C62.1906 53.125 61.8885 53.0334 61.6315 52.8617C61.3746 52.69 61.1743 52.446 61.056 52.1604C60.9378 51.8749 60.9068 51.5608 60.9671 51.2577C61.0274 50.9546 61.1762 50.6762 61.3947 50.4576C61.6133 50.2391 61.8917 50.0903 62.1948 50.03C62.4979 49.9697 62.812 50.0007 63.0975 50.1189C63.3831 50.2372 63.6271 50.4375 63.7988 50.6944C63.9705 50.9514 64.0621 51.2535 64.0621 51.5625C64.0615 51.9767 63.8967 52.3738 63.6038 52.6667C63.3109 52.9596 62.9138 53.1244 62.4996 53.125ZM87.4996 64.0625C87.1906 64.0625 86.8885 63.9709 86.6315 63.7992C86.3746 63.6275 86.1743 63.3834 86.056 63.0979C85.9378 62.8124 85.9068 62.4983 85.9671 62.1952C86.0274 61.8921 86.1762 61.6137 86.3947 61.3951C86.6133 61.1766 86.8917 61.0278 87.1948 60.9675C87.4979 60.9072 87.812 60.9382 88.0975 61.0564C88.383 61.1747 88.6271 61.375 88.7988 61.6319C88.9705 61.8889 89.0621 62.191 89.0621 62.5C89.0615 62.9142 88.8967 63.3113 88.6038 63.6042C88.3109 63.8971 87.9138 64.0619 87.4996 64.0625Z" fill="#57AF7D"/>
<path d="M75 67.1875H64.0625C63.6481 67.1875 63.2507 67.3521 62.9576 67.6451C62.6646 67.9382 62.5 68.3356 62.5 68.75C62.5 69.1644 62.6646 69.5618 62.9576 69.8549C63.2507 70.1479 63.6481 70.3125 64.0625 70.3125H75C75.4144 70.3125 75.8118 70.1479 76.1049 69.8549C76.3979 69.5618 76.5625 69.1644 76.5625 68.75C76.5625 68.3356 76.3979 67.9382 76.1049 67.6451C75.8118 67.3521 75.4144 67.1875 75 67.1875ZM75 62.5H70.3125C69.8981 62.5 69.5007 62.6646 69.2076 62.9576C68.9146 63.2507 68.75 63.6481 68.75 64.0625C68.75 64.4769 68.9146 64.8743 69.2076 65.1674C69.5007 65.4604 69.8981 65.625 70.3125 65.625H75C75.4144 65.625 75.8118 65.4604 76.1049 65.1674C76.3979 64.8743 76.5625 64.4769 76.5625 64.0625C76.5625 63.6481 76.3979 63.2507 76.1049 62.9576C75.8118 62.6646 75.4144 62.5 75 62.5ZM9.375 48.4375H26.5625C26.9769 48.4375 27.3743 48.2729 27.6674 47.9799C27.9604 47.6868 28.125 47.2894 28.125 46.875C28.125 46.4606 27.9604 46.0632 27.6674 45.7701C27.3743 45.4771 26.9769 45.3125 26.5625 45.3125H9.375C8.9606 45.3125 8.56317 45.4771 8.27015 45.7701C7.97712 46.0632 7.8125 46.4606 7.8125 46.875C7.8125 47.2894 7.97712 47.6868 8.27015 47.9799C8.56317 48.2729 8.9606 48.4375 9.375 48.4375ZM31.25 48.4375H32.8125C33.2269 48.4375 33.6243 48.2729 33.9174 47.9799C34.2104 47.6868 34.375 47.2894 34.375 46.875C34.375 46.4606 34.2104 46.0632 33.9174 45.7701C33.6243 45.4771 33.2269 45.3125 32.8125 45.3125H31.25C30.8356 45.3125 30.4382 45.4771 30.1451 45.7701C29.8521 46.0632 29.6875 46.4606 29.6875 46.875C29.6875 47.2894 29.8521 47.6868 30.1451 47.9799C30.4382 48.2729 30.8356 48.4375 31.25 48.4375Z" fill="#57AF7D"/>
</svg>
