<svg width="100" height="100" viewBox="0 0 100 100" fill="none" xmlns="http://www.w3.org/2000/svg">
<path d="M20.3153 3.12402C19.0741 3.12868 17.8851 3.62339 17.0069 4.50048C16.1287 5.37757 15.6325 6.56603 15.6262 7.80719V57.8101C15.6262 59.8948 18.7562 59.8948 18.7562 57.8101V18.7562H81.2437V57.8101C81.1964 59.9362 84.4209 59.9362 84.3736 57.8101V7.80719C84.3674 6.56705 83.872 5.37947 82.9951 4.50255C82.1182 3.62563 80.9306 3.13023 79.6905 3.12402H20.3153ZM20.3153 6.25401H79.6905C80.5763 6.25401 81.2437 6.91544 81.2437 7.80719V15.6262H18.7562V7.80719C18.7562 6.91544 19.4177 6.2481 20.3094 6.2481L20.3153 6.25401ZM23.4394 9.37218C23.2339 9.37218 23.0304 9.41266 22.8405 9.49131C22.6506 9.56995 22.4781 9.68523 22.3328 9.83055C22.1874 9.97588 22.0722 10.1484 21.9935 10.3383C21.9149 10.5281 21.8744 10.7317 21.8744 10.9372C21.8744 11.1427 21.9149 11.3462 21.9935 11.5361C22.0722 11.7259 22.1874 11.8985 22.3328 12.0438C22.4781 12.1891 22.6506 12.3044 22.8405 12.383C23.0304 12.4617 23.2339 12.5022 23.4394 12.5022C23.8544 12.5022 24.2525 12.3373 24.546 12.0438C24.8395 11.7503 25.0044 11.3522 25.0044 10.9372C25.0044 10.5221 24.8395 10.124 24.546 9.83055C24.2525 9.53706 23.8544 9.37218 23.4394 9.37218ZM29.6875 9.37218C29.482 9.37218 29.2785 9.41266 29.0886 9.49131C28.8988 9.56995 28.7262 9.68523 28.5809 9.83055C28.4356 9.97588 28.3203 10.1484 28.2417 10.3383C28.163 10.5281 28.1225 10.7317 28.1225 10.9372C28.1225 11.1427 28.163 11.3462 28.2417 11.5361C28.3203 11.7259 28.4356 11.8985 28.5809 12.0438C28.7262 12.1891 28.8988 12.3044 29.0886 12.383C29.2785 12.4617 29.482 12.5022 29.6875 12.5022C30.1026 12.5022 30.5007 12.3373 30.7942 12.0438C31.0876 11.7503 31.2525 11.3522 31.2525 10.9372C31.2525 10.5221 31.0876 10.124 30.7942 9.83055C30.5007 9.53706 30.1026 9.37218 29.6875 9.37218ZM35.9357 9.37218C35.7302 9.37218 35.5267 9.41266 35.3368 9.49131C35.1469 9.56995 34.9744 9.68523 34.8291 9.83055C34.6838 9.97588 34.5685 10.1484 34.4898 10.3383C34.4112 10.5281 34.3707 10.7317 34.3707 10.9372C34.3707 11.1427 34.4112 11.3462 34.4898 11.5361C34.5685 11.7259 34.6838 11.8985 34.8291 12.0438C34.9744 12.1891 35.1469 12.3044 35.3368 12.383C35.5267 12.4617 35.7302 12.5022 35.9357 12.5022C36.3508 12.5022 36.7488 12.3373 37.0423 12.0438C37.3358 11.7503 37.5007 11.3522 37.5007 10.9372C37.5007 10.5221 37.3358 10.124 37.0423 9.83055C36.7488 9.53706 36.3508 9.37218 35.9357 9.37218ZM57.7334 9.37218C55.6251 9.51982 55.7668 12.5553 57.8101 12.5022H76.5664C78.6039 12.4549 78.6039 9.41942 76.5664 9.37218H57.7334ZM7.819 12.5022C6.57729 12.5068 5.38758 13.0013 4.50845 13.8782C3.62931 14.7552 3.13179 15.9436 3.12402 17.1853V73.4364C3.12402 76.0054 5.25005 78.1196 7.819 78.1196H92.1868C93.4269 78.1134 94.6145 77.618 95.4914 76.7411C96.3684 75.8642 96.8637 74.6766 96.87 73.4364V17.1853C96.8637 15.9452 96.3684 14.7576 95.4914 13.8807C94.6145 13.0038 93.4269 12.5084 92.1868 12.5022H89.0568C86.9308 12.4549 86.9308 15.6735 89.0568 15.6262H92.1868C93.0785 15.6262 93.74 16.2877 93.74 17.1853V62.4992H6.2481V17.1853C6.2481 16.2877 6.92725 15.6262 7.819 15.6262H10.9313C13.0573 15.6735 13.0573 12.4549 10.9313 12.4963L7.819 12.5022ZM54.7097 24.9748C54.3748 24.9719 54.0478 25.0764 53.7767 25.273C53.5057 25.4697 53.3048 25.7481 53.2037 26.0674L43.8256 54.19C43.1642 56.1684 46.1288 57.1605 46.7961 55.1821L56.1743 27.0536C56.2559 26.8189 56.2804 26.5681 56.2458 26.322C56.2112 26.0759 56.1185 25.8416 55.9754 25.6384C55.8323 25.4353 55.6428 25.2691 55.4227 25.1537C55.2026 25.0383 54.9582 24.977 54.7097 24.9748ZM61.5011 34.0105L69.4324 40.6248L61.5011 47.245C59.8062 48.5678 61.8968 51.0718 63.5091 49.6427L72.8695 41.8295C73.0445 41.6826 73.1853 41.4992 73.2819 41.2921C73.3785 41.0849 73.4285 40.8592 73.4285 40.6307C73.4285 40.4021 73.3785 40.1764 73.2819 39.9693C73.1853 39.7622 73.0445 39.5787 72.8695 39.4318L63.5032 31.6128C63.201 31.36 62.8162 31.2275 62.4224 31.2407C60.946 31.3706 60.4145 33.1305 61.5011 34.0164V34.0105ZM37.4652 31.2348C37.1115 31.2464 36.7722 31.3776 36.5026 31.6069L27.1304 39.4259C26.9553 39.5728 26.8146 39.7563 26.718 39.9634C26.6214 40.1705 26.5714 40.3962 26.5714 40.6248C26.5714 40.8533 26.6214 41.079 26.718 41.2862C26.8146 41.4933 26.9553 41.6767 27.1304 41.8236L36.4967 49.6367C38.109 51.1368 40.2645 48.5501 38.4928 47.2391L30.5557 40.6248L38.5046 34.0164C38.7578 33.8093 38.9397 33.5282 39.0248 33.2125C39.11 32.8968 39.0941 32.5624 38.9794 32.2561C38.8648 31.9499 38.6571 31.6873 38.3855 31.5052C38.1139 31.323 37.7921 31.2247 37.4652 31.2348ZM6.2481 65.6292H93.7459V73.4364C93.7515 73.6422 93.7153 73.847 93.6393 74.0383C93.5633 74.2297 93.4492 74.4035 93.304 74.5494C93.1587 74.6952 92.9852 74.81 92.7942 74.8867C92.6031 74.9634 92.3985 75.0004 92.1927 74.9955H7.819C7.61195 75.002 7.40576 74.9662 7.21302 74.8903C7.02028 74.8144 6.84504 74.7 6.69801 74.5541C6.55098 74.4081 6.43526 74.2338 6.3579 74.0416C6.28054 73.8494 6.24318 73.6435 6.2481 73.4364V65.6292ZM53.2097 68.7533H46.802C44.8059 68.9895 44.9418 71.8124 46.8729 71.8655H53.127C55.2707 72.0604 55.4479 68.7946 53.2097 68.7533ZM41.2389 81.1256C40.9323 81.1193 40.6305 81.2032 40.3712 81.367C40.1118 81.5308 39.9064 81.7672 39.7803 82.0468C39.0243 83.6591 37.6779 85.543 35.351 87.4977H32.8116C31.5709 87.507 30.384 88.0052 29.5083 88.8842C28.6327 89.7632 28.139 90.952 28.1344 92.1927V95.305C28.1285 96.1672 28.8253 96.87 29.6875 96.8759H70.3123C70.5184 96.8759 70.7224 96.8352 70.9126 96.7562C71.1029 96.6772 71.2757 96.5614 71.4211 96.4154C71.5665 96.2695 71.6816 96.0962 71.7599 95.9057C71.8382 95.7151 71.8781 95.511 71.8773 95.305V92.1927C71.8696 90.9509 71.3733 89.7621 70.4958 88.8835C69.6182 88.0048 68.43 87.507 67.1883 87.4977H64.6488C62.3279 85.5489 60.9755 83.6591 60.2196 82.0468C60.1421 81.8469 60.0244 81.665 59.8737 81.5125C59.7229 81.36 59.5425 81.24 59.3435 81.1601C59.1445 81.0803 58.9312 81.0421 58.7169 81.0481C58.5026 81.054 58.2917 81.104 58.0975 81.1948C57.9032 81.2857 57.7297 81.4154 57.5877 81.5761C57.4458 81.7368 57.3383 81.9249 57.272 82.1289C57.2058 82.3328 57.1821 82.5482 57.2026 82.7616C57.223 82.9751 57.2871 83.182 57.3908 83.3697C57.9991 84.6689 58.9263 86.0745 60.1842 87.4977H39.8157C41.0677 86.0804 42.0008 84.6748 42.6091 83.3638C42.7226 83.1282 42.7753 82.868 42.7624 82.6068C42.7495 82.3456 42.6713 82.0918 42.5351 81.8686C42.3988 81.6455 42.2088 81.46 41.9824 81.3291C41.756 81.1983 41.5004 81.1263 41.2389 81.1197V81.1256ZM32.8116 90.6218H67.1824C67.39 90.617 67.5964 90.6543 67.7892 90.7315C67.982 90.8087 68.1571 90.9243 68.304 91.0711C68.4508 91.218 68.5663 91.3931 68.6436 91.5859C68.7208 91.7786 68.7581 91.9851 68.7533 92.1927V93.7518H31.2525V92.1927C31.2525 91.301 31.9199 90.6218 32.8116 90.6218Z" fill="#57AF7D"/>
</svg>
