<svg width="100" height="100" viewBox="0 0 100 100" fill="none" xmlns="http://www.w3.org/2000/svg">
<path d="M62.5 46.875C62.8385 46.875 63.168 46.7651 63.4387 46.5618C63.7094 46.3585 63.9067 46.0728 64.001 45.7476C64.0953 45.4224 64.0814 45.0755 63.9615 44.7589C63.8415 44.4423 63.622 44.1732 63.3359 43.9921L46.1484 33.0546C45.8984 32.8963 45.6085 32.8122 45.3125 32.8122C45.0165 32.8122 44.7266 32.8963 44.4765 33.0546L27.289 43.9921C27.003 44.1732 26.7834 44.4423 26.6635 44.7589C26.5435 45.0755 26.5296 45.4224 26.6239 45.7476C26.7182 46.0728 26.9156 46.3585 27.1863 46.5618C27.457 46.7651 27.7864 46.875 28.125 46.875H31.25V62.5H28.9062C28.4918 62.5 28.0944 62.6646 27.8014 62.9576C27.5083 63.2506 27.3437 63.648 27.3437 64.0625C27.3437 64.4768 27.5083 64.8743 27.8014 65.1673C28.0944 65.4603 28.4918 65.625 28.9062 65.625H61.7187C62.1331 65.625 62.5306 65.4603 62.8236 65.1673C63.1166 64.8743 63.2812 64.4768 63.2812 64.0625C63.2812 63.648 63.1166 63.2506 62.8236 62.9576C62.5306 62.6646 62.1331 62.5 61.7187 62.5H59.375V46.875H62.5ZM43.75 62.5H34.375V46.875H43.75V62.5ZM56.25 62.5H46.875V46.875H56.25V62.5ZM33.4922 43.75L45.3125 36.2265L57.1328 43.75H33.4922ZM22.5547 38.4765L25.7812 40.3984C26.0161 40.5437 26.2863 40.622 26.5625 40.625C26.9011 40.6187 27.2285 40.5027 27.4954 40.2943C27.7623 40.0858 27.9543 39.7963 28.0425 39.4694C28.1306 39.1424 28.1101 38.7956 27.9841 38.4813C27.8581 38.1669 27.6333 37.9021 27.3437 37.7265L24.3515 35.9375C24.7817 34.9519 25.0025 33.8878 25 32.8125C25.0003 32.2258 24.9321 31.6411 24.7969 31.0703L51.9922 20.5624C52.999 22.1533 54.5463 23.327 56.3496 23.8678C58.153 24.4086 60.0909 24.28 61.8069 23.5057C63.523 22.7313 64.9017 21.3634 65.6894 19.6535C66.4772 17.9436 66.621 16.0067 66.0943 14.1992C65.5677 12.3917 64.4061 10.8352 62.8232 9.81596C61.2403 8.79673 59.3426 8.38338 57.4792 8.65194C55.6159 8.9205 53.9121 9.85291 52.6815 11.2776C51.4508 12.7024 50.776 14.5236 50.7812 16.4062C50.782 16.82 50.8186 17.233 50.8906 17.6406L23.5 28.2265C22.5672 26.9398 21.2643 25.9681 19.7649 25.4412C18.2656 24.9142 16.6412 24.8571 15.1085 25.2774C13.5759 25.6976 12.2078 26.5754 11.187 27.7934C10.1661 29.0114 9.54103 30.5117 9.39508 32.0943C9.24913 33.6768 9.58928 35.2662 10.3701 36.6504C11.151 38.0345 12.3354 39.1476 13.7654 39.8412C15.1953 40.5347 16.8028 40.7756 18.3732 40.5317C19.9436 40.2879 21.4023 39.5709 22.5547 38.4765ZM58.5937 11.7187C59.5208 11.7187 60.4271 11.9936 61.198 12.5087C61.9688 13.0238 62.5696 13.7558 62.9244 14.6124C63.2792 15.4689 63.372 16.4114 63.1912 17.3207C63.0103 18.23 62.5639 19.0652 61.9083 19.7208C61.2527 20.3763 60.4175 20.8228 59.5082 21.0036C58.5989 21.1845 57.6564 21.0917 56.7999 20.7369C55.9434 20.3821 55.2113 19.7813 54.6962 19.0104C54.1811 18.2396 53.9062 17.3333 53.9062 16.4062C53.9062 15.163 54.4001 13.9707 55.2792 13.0916C56.1582 12.2126 57.3505 11.7187 58.5937 11.7187ZM12.5 32.8125C12.5 31.8853 12.7749 30.9791 13.29 30.2082C13.805 29.4374 14.5371 28.8365 15.3937 28.4818C16.2502 28.127 17.1927 28.0341 18.102 28.215C19.0113 28.3959 19.8465 28.8423 20.502 29.4979C21.1576 30.1534 21.604 30.9887 21.7849 31.898C21.9658 32.8072 21.873 33.7498 21.5182 34.6063C21.1634 35.4628 20.5626 36.1949 19.7917 36.71C19.0209 37.225 18.1146 37.5 17.1875 37.5C15.9443 37.5 14.752 37.0061 13.8729 36.127C12.9938 35.2479 12.5 34.0557 12.5 32.8125Z" fill="#57AF7D"/>
<path d="M85.9375 31.25C83.8655 31.25 81.8783 32.0731 80.4132 33.5382C78.9481 35.0034 78.125 36.9905 78.125 39.0625V39.4219L67.5625 42.2422C67.1974 42.3414 66.8808 42.5697 66.6712 42.8847C66.4617 43.1996 66.3736 43.5799 66.4232 43.955C66.4729 44.33 66.6568 44.6743 66.9411 44.9239C67.2253 45.1736 67.5904 45.3117 67.9687 45.3125C68.106 45.313 68.2427 45.2946 68.375 45.2578L78.9062 42.4531C79.711 44.1094 81.0712 45.4309 82.75 46.1875L77.6406 68.8438C77.2837 68.7886 76.9235 68.7573 76.5625 68.75C74.9822 68.7519 73.428 69.1533 72.0444 69.9168C70.6607 70.6803 69.4926 71.7812 68.6484 73.1172L61.7187 68.9766C61.3701 68.8328 60.9812 68.8201 60.6239 68.9406C60.2665 69.0611 59.9648 69.3068 59.7745 69.6324C59.5841 69.9579 59.5179 70.3413 59.5881 70.7119C59.6582 71.0824 59.86 71.415 60.1562 71.6484L67.4531 76.0312C67.285 76.7167 67.1959 77.4192 67.1875 78.125C67.1846 79.8002 67.6307 81.4456 68.4793 82.8899C69.3279 84.3343 70.548 85.5249 72.0127 86.3379C73.4775 87.1508 75.1332 87.5565 76.8079 87.5127C78.4825 87.4688 80.1148 86.977 81.5349 86.0885C82.9551 85.2 84.1112 83.9472 84.8831 82.4604C85.6549 80.9736 86.0143 79.3071 85.9238 77.6344C85.8333 75.9616 85.2962 74.3437 84.3685 72.9488C83.4407 71.554 82.1561 70.4332 80.6484 69.7031L85.8047 46.875H85.9375C88.0095 46.875 89.9966 46.0519 91.4618 44.5868C92.9269 43.1216 93.75 41.1345 93.75 39.0625C93.75 36.9905 92.9269 35.0034 91.4618 33.5382C89.9966 32.0731 88.0095 31.25 85.9375 31.25ZM82.8125 78.125C82.8125 79.3611 82.4459 80.5695 81.7592 81.5973C81.0724 82.6251 80.0963 83.4262 78.9543 83.8992C77.8122 84.3723 76.5555 84.4961 75.3432 84.2549C74.1308 84.0138 73.0171 83.4185 72.1431 82.5444C71.269 81.6703 70.6737 80.5567 70.4326 79.3443C70.1914 78.1319 70.3152 76.8753 70.7882 75.7332C71.2613 74.5912 72.0624 73.6151 73.0902 72.9283C74.118 72.2416 75.3263 71.875 76.5625 71.875C78.2201 71.875 79.8098 72.5335 80.9819 73.7056C82.154 74.8777 82.8125 76.4674 82.8125 78.125ZM85.9375 43.75C85.0104 43.75 84.1041 43.4751 83.3332 42.96C82.5624 42.4449 81.9616 41.7129 81.6068 40.8563C81.252 39.9998 81.1592 39.0573 81.34 38.148C81.5209 37.2387 81.9674 36.4035 82.6229 35.7479C83.2785 35.0924 84.1137 34.6459 85.023 34.4651C85.9323 34.2842 86.8748 34.377 87.7313 34.7318C88.5878 35.0866 89.3199 35.6874 89.835 36.4583C90.3501 37.2291 90.625 38.1354 90.625 39.0625C90.625 40.3057 90.1311 41.498 89.252 42.3771C88.373 43.2561 87.1807 43.75 85.9375 43.75ZM33.2734 69.2109L29.4687 73.0078C27.3997 71.8491 24.9709 71.5096 22.6635 72.0566C20.356 72.6036 18.3381 73.9972 17.0094 75.9614C15.6807 77.9256 15.1381 80.3172 15.489 82.6625C15.84 85.0078 17.0589 87.1358 18.9044 88.6251C20.7499 90.1143 23.0873 90.8562 25.4538 90.7038C27.8204 90.5513 30.0433 89.5158 31.6826 87.8021C33.3218 86.0884 34.2576 83.8217 34.3049 81.4507C34.3521 79.0798 33.5072 76.7776 31.9375 75L35.4765 71.4531C35.7325 71.1542 35.8663 70.7697 35.8511 70.3765C35.8359 69.9832 35.6729 69.6102 35.3946 69.3319C35.1163 69.0537 34.7433 68.8906 34.3501 68.8755C33.9568 68.8603 33.5723 68.994 33.2734 69.25V69.2109ZM25 87.5C23.7638 87.5 22.5555 87.1334 21.5277 86.4467C20.4999 85.7599 19.6988 84.7838 19.2257 83.6418C18.7527 82.4997 18.6289 81.2431 18.8701 80.0307C19.1112 78.8183 19.7065 77.7047 20.5806 76.8306C21.4546 75.9565 22.5683 75.3612 23.7807 75.1201C24.993 74.8789 26.2497 75.0027 27.3917 75.4758C28.5338 75.9488 29.5099 76.7499 30.1967 77.7777C30.8834 78.8055 31.25 80.0139 31.25 81.25C31.25 82.9076 30.5915 84.4973 29.4194 85.6694C28.2473 86.8415 26.6576 87.5 25 87.5Z" fill="#57AF7D"/>
</svg>
