<svg width="100" height="100" viewBox="0 0 100 100" fill="none" xmlns="http://www.w3.org/2000/svg">
<path d="M89.0625 26.5626H60.4859L62.1703 24.397C62.3565 24.158 62.4692 23.8701 62.4947 23.5683C62.5202 23.2665 62.4575 22.9638 62.3141 22.697L51.3766 2.38445C51.2298 2.15208 51.0266 1.96064 50.7859 1.82797C50.5452 1.69531 50.2748 1.62573 50 1.62573C49.7252 1.62573 49.4548 1.69531 49.2141 1.82797C48.9734 1.96064 48.7702 2.15208 48.6234 2.38445L37.6859 22.697C37.5425 22.9638 37.4798 23.2665 37.5053 23.5683C37.5308 23.8701 37.6435 24.158 37.8297 24.397L39.5141 26.5626H10.9375C10.5231 26.5626 10.1257 26.7272 9.83265 27.0202C9.53962 27.3132 9.375 27.7107 9.375 28.1251V82.8126C9.375 83.227 9.53962 83.6244 9.83265 83.9174C10.1257 84.2105 10.5231 84.3751 10.9375 84.3751H42.1875V89.7188L32.0312 95.5188C31.7318 95.6901 31.4975 95.9557 31.3648 96.2741C31.2321 96.5925 31.2086 96.9459 31.2977 97.2791C31.3869 97.6123 31.5839 97.9067 31.8579 98.1162C32.1319 98.3258 32.4676 98.4388 32.8125 98.4376H67.1875C67.5325 98.4388 67.8681 98.3258 68.1421 98.1162C68.4161 97.9067 68.6131 97.6123 68.7023 97.2791C68.7914 96.9459 68.7679 96.5925 68.6352 96.2741C68.5025 95.9557 68.2682 95.6901 67.9688 95.5188L57.8125 89.7188V84.3751H89.0625C89.4769 84.3751 89.8743 84.2105 90.1674 83.9174C90.4604 83.6244 90.625 83.227 90.625 82.8126V28.1251C90.625 27.7107 90.4604 27.3132 90.1674 27.0202C89.8743 26.7272 89.4769 26.5626 89.0625 26.5626ZM50 21.9376L56.2828 23.7329L50 26.4251L43.7172 23.7329L50 21.9376ZM51.5625 19.1329V9.32195L57.8125 20.9173L51.5625 19.1329ZM48.4375 19.1329L42.1875 20.9173L48.4375 9.32195V19.1329ZM49.3844 29.561C49.5789 29.6444 49.7883 29.6874 50 29.6874C50.2117 29.6874 50.4211 29.6444 50.6156 29.561L55.9859 27.2594L50 34.9548L44.0141 27.2594L49.3844 29.561ZM41.9437 29.6876L48.7672 38.4594C48.9133 38.6471 49.1003 38.7989 49.3139 38.9033C49.5276 39.0077 49.7622 39.062 50 39.062C50.2378 39.062 50.4724 39.0077 50.6861 38.9033C50.8997 38.7989 51.0867 38.6471 51.2328 38.4594L58.0562 29.6876H87.5V71.8751H67.0641C66.8557 70.2003 66.3065 68.586 65.4503 67.1317C64.5941 65.6773 63.4492 64.4137 62.0859 63.4188C62.8981 63.0244 63.6152 62.4587 64.1879 61.7606C64.7605 61.0626 65.1751 60.2487 65.4031 59.3751H65.625C67.2826 59.3751 68.8723 58.7166 70.0444 57.5445C71.2165 56.3724 71.875 54.7827 71.875 53.1251C71.875 51.4675 71.2165 49.8778 70.0444 48.7057C68.8723 47.5336 67.2826 46.8751 65.625 46.8751H65.4031C65.0577 45.5373 64.2788 44.3518 63.1882 43.5037C62.0975 42.6556 60.7566 42.1928 59.375 42.1876V37.5001H56.25V42.1876H43.75V37.5001H40.625V42.1876C39.2434 42.1928 37.9025 42.6556 36.8118 43.5037C35.7212 44.3518 34.9423 45.5373 34.5969 46.8751H34.375C32.7174 46.8751 31.1277 47.5336 29.9556 48.7057C28.7835 49.8778 28.125 51.4675 28.125 53.1251C28.125 54.7827 28.7835 56.3724 29.9556 57.5445C31.1277 58.7166 32.7174 59.3751 34.375 59.3751H34.5969C34.8249 60.2487 35.2395 61.0626 35.8121 61.7606C36.3848 62.4587 37.1019 63.0244 37.9141 63.4188C36.5508 64.4137 35.4059 65.6773 34.5497 67.1317C33.6935 68.586 33.1443 70.2003 32.9359 71.8751H12.5V29.6876H41.9437ZM59.375 45.3126C60.2038 45.3126 60.9987 45.6418 61.5847 46.2279C62.1708 46.8139 62.5 47.6088 62.5 48.4376V57.8126C62.5 58.6414 62.1708 59.4362 61.5847 60.0223C60.9987 60.6083 60.2038 60.9376 59.375 60.9376H40.625C39.7962 60.9376 39.0013 60.6083 38.4153 60.0223C37.8292 59.4362 37.5 58.6414 37.5 57.8126V48.4376C37.5 47.6088 37.8292 46.8139 38.4153 46.2279C39.0013 45.6418 39.7962 45.3126 40.625 45.3126H59.375ZM42.2812 64.636L44 64.0626H55.9969L57.7156 64.636C59.3099 65.1659 60.73 66.1196 61.8238 67.3948C62.9176 68.67 63.644 70.2187 63.925 71.8751H36.0766C36.357 70.2192 37.0826 68.6707 38.1756 67.3956C39.2685 66.1204 40.6877 65.1665 42.2812 64.636ZM65.625 50.0001C66.4538 50.0001 67.2487 50.3293 67.8347 50.9154C68.4208 51.5014 68.75 52.2963 68.75 53.1251C68.75 53.9539 68.4208 54.7487 67.8347 55.3348C67.2487 55.9208 66.4538 56.2501 65.625 56.2501V50.0001ZM34.375 56.2501C33.5462 56.2501 32.7513 55.9208 32.1653 55.3348C31.5792 54.7487 31.25 53.9539 31.25 53.1251C31.25 52.2963 31.5792 51.5014 32.1653 50.9154C32.7513 50.3293 33.5462 50.0001 34.375 50.0001V56.2501ZM61.3031 95.3126H38.6969L44.1656 92.1876H55.8375L61.3031 95.3126ZM54.6875 89.0626H45.3125V84.3751H54.6875V89.0626ZM12.5 81.2501V75.0001H87.5V81.2501H12.5Z" fill="#57AF7D"/>
<path d="M45.3125 57.8125H54.6875C55.9307 57.8125 57.123 57.3186 58.0021 56.4396C58.8811 55.5605 59.375 54.3682 59.375 53.125C59.375 51.8818 58.8811 50.6895 58.0021 49.8104C57.123 48.9314 55.9307 48.4375 54.6875 48.4375H45.3125C44.0693 48.4375 42.877 48.9314 41.9979 49.8104C41.1189 50.6895 40.625 51.8818 40.625 53.125C40.625 54.3682 41.1189 55.5605 41.9979 56.4396C42.877 57.3186 44.0693 57.8125 45.3125 57.8125ZM45.3125 51.5625H54.6875C55.1019 51.5625 55.4993 51.7271 55.7924 52.0201C56.0854 52.3132 56.25 52.7106 56.25 53.125C56.25 53.5394 56.0854 53.9368 55.7924 54.2299C55.4993 54.5229 55.1019 54.6875 54.6875 54.6875H45.3125C44.8981 54.6875 44.5007 54.5229 44.2076 54.2299C43.9146 53.9368 43.75 53.5394 43.75 53.125C43.75 52.7106 43.9146 52.3132 44.2076 52.0201C44.5007 51.7271 44.8981 51.5625 45.3125 51.5625Z" fill="#57AF7D"/>
</svg>
