<svg width="100" height="100" viewBox="0 0 100 100" fill="none" xmlns="http://www.w3.org/2000/svg">
<path d="M93.7156 50C93.7156 47.5391 92.2516 43.9578 85.4953 40.6781C84.5254 36.9266 82.9489 33.3587 80.8281 30.1156C82.1451 28.638 82.847 26.7126 82.7898 24.7341C82.7327 22.7556 81.9208 20.8739 80.5207 19.4748C79.1206 18.0757 77.2384 17.2652 75.2598 17.2095C73.2813 17.1537 71.3563 17.857 69.8797 19.175C66.6398 17.07 63.0831 15.4985 59.3453 14.5203C53.8297 3.40313 46.1594 3.43594 40.6609 14.5094C34.3824 16.1816 28.6569 19.4824 24.0637 24.0779C19.4704 28.6733 16.1724 34.4004 14.5031 40.6797C3.45001 46.1484 3.48751 53.8719 14.5047 59.3219C15.4747 63.0734 17.0512 66.6413 19.1719 69.8844C17.8465 71.3605 17.1377 73.2887 17.1913 75.2718C17.245 77.2548 18.0571 79.1419 19.4604 80.5441C20.8636 81.9464 22.7512 82.7571 24.7344 82.8094C26.7175 82.8616 28.6451 82.1514 30.1203 80.825C33.3601 82.9302 36.9168 84.5017 40.6547 85.4797C43.9625 92.2797 47.5438 93.75 50 93.75C52.4563 93.75 56.0359 92.2812 59.3406 85.4906C65.6189 83.8181 71.344 80.5172 75.937 75.9218C80.5299 71.3264 83.8278 65.5994 85.4969 59.3203C92.2531 56.0391 93.7156 52.4609 93.7156 50ZM82.8281 57.1094C78.8858 58.7384 74.7785 59.935 70.5781 60.6781C70.1697 59.5268 69.4956 58.488 68.6106 57.6459C67.7256 56.8037 66.6546 56.1821 65.4844 55.8312C65.7602 50.0359 65.6276 44.2283 65.0875 38.4516C71.1757 39.1231 77.1444 40.6191 82.8297 42.8984C83.8457 47.5804 83.8457 52.4258 82.8297 57.1078L82.8281 57.1094ZM57.1328 82.8125C52.4347 83.8301 47.5731 83.8301 42.875 82.8125C40.6124 77.1292 39.1246 71.1674 38.4516 65.0875C44.2283 65.6273 50.0359 65.7594 55.8313 65.4828C56.1822 66.6529 56.8039 67.7239 57.646 68.6089C58.4881 69.4939 59.5269 70.168 60.6781 70.5766C59.9397 74.7705 58.7506 78.8724 57.1313 82.8109L57.1328 82.8125ZM25 67.2078C23.8448 67.2139 22.7057 67.4799 21.6672 67.9859C20.2315 65.7692 19.0719 63.3854 18.2141 60.8875C23.7297 62.8195 29.4489 64.1118 35.2594 64.7391C35.8873 70.5456 37.1747 76.2616 39.0969 81.7766C36.6069 80.9137 34.229 79.756 32.0141 78.3281C32.5697 77.1426 32.8182 75.8364 32.7367 74.5297C32.6552 73.223 32.2464 71.9578 31.5479 70.8505C30.8494 69.7432 29.8835 68.8293 28.7393 68.193C27.5951 67.5568 26.3092 67.2169 25 67.2078ZM17.1719 42.8906C20.8724 41.3486 24.7256 40.2021 28.6672 39.4703C29.1364 40.7227 29.9203 41.8332 30.9433 42.6947C31.9662 43.5562 33.1938 44.1397 34.5078 44.3891C34.2438 50.1119 34.3795 55.8461 34.9141 61.55C28.8253 60.8786 22.8561 59.3826 17.1703 57.1031C16.1544 52.42 16.1549 47.5735 17.1719 42.8906ZM42.8703 17.1875C47.5674 16.1703 52.4279 16.1703 57.125 17.1875C59.3894 22.8762 60.8777 28.8439 61.55 34.9297C55.5104 34.3713 49.4382 34.2512 43.3813 34.5703C43.0751 33.5193 42.5508 32.5446 41.8424 31.71C41.1341 30.8753 40.2576 30.1995 39.2703 29.7266C40.0061 25.4273 41.2134 21.2223 42.8703 17.1875ZM75 32.7906C76.1552 32.7845 77.2943 32.5186 78.3328 32.0125C79.7685 34.2293 80.9281 36.6131 81.7859 39.1109C76.2703 37.1789 70.5511 35.8866 64.7406 35.2594C64.1128 29.4529 62.8253 23.7368 60.9031 18.2219C63.3931 19.0848 65.771 20.2425 67.9859 21.6703C67.43 22.8559 67.1812 24.1623 67.2625 25.4692C67.3438 26.7761 67.7525 28.0416 68.4511 29.1491C69.1497 30.2566 70.1156 31.1707 71.2601 31.807C72.4045 32.4434 73.6906 32.7816 75 32.7906ZM55.5594 62.3578C49.732 62.6228 43.8931 62.4703 38.0875 61.9016C37.6927 57.9467 37.4967 53.9745 37.5 50C37.5 48.1516 37.5531 46.2469 37.6375 44.3313C39.1996 43.976 40.6139 43.147 41.687 41.9575C42.7601 40.7681 43.4397 39.2762 43.6328 37.6859C49.7283 37.3653 55.8393 37.5031 61.9141 38.0984C62.3084 42.0533 62.5039 46.0255 62.5 50C62.5 51.8172 62.4484 53.6844 62.3672 55.5594C60.6328 55.7601 59.0169 56.5404 57.7814 57.774C56.5458 59.0076 55.7628 60.6237 55.5594 62.3578ZM40.6031 36.7406C40.6031 37.978 40.1116 39.1647 39.2366 40.0397C38.3616 40.9147 37.1749 41.4062 35.9375 41.4062C34.7001 41.4062 33.5134 40.9147 32.6384 40.0397C31.7634 39.1647 31.2719 37.978 31.2719 36.7406C31.2719 35.5032 31.7634 34.3165 32.6384 33.4415C33.5134 32.5666 34.7001 32.075 35.9375 32.075C37.1749 32.075 38.3616 32.5666 39.2366 33.4415C40.1116 34.3165 40.6031 35.5032 40.6031 36.7406ZM63.2594 67.925C62.022 67.925 60.8353 67.4334 59.9603 66.5585C59.0853 65.6835 58.5938 64.4968 58.5938 63.2594C58.5938 62.022 59.0853 60.8353 59.9603 59.9603C60.8353 59.0853 62.022 58.5938 63.2594 58.5938C64.4968 58.5938 65.6835 59.0853 66.5585 59.9603C67.4334 60.8353 67.925 62.022 67.925 63.2594C67.925 64.4968 67.4334 65.6835 66.5585 66.5585C65.6835 67.4334 64.4968 67.925 63.2594 67.925ZM75 20.3344C76.2374 20.3344 77.4241 20.8259 78.2991 21.7009C79.1741 22.5759 79.6656 23.7626 79.6656 25C79.6656 26.2374 79.1741 27.4241 78.2991 28.2991C77.4241 29.1741 76.2374 29.6656 75 29.6656C73.7626 29.6656 72.5759 29.1741 71.7009 28.2991C70.8259 27.4241 70.3344 26.2374 70.3344 25C70.3344 23.7626 70.8259 22.5759 71.7009 21.7009C72.5759 20.8259 73.7626 20.3344 75 20.3344ZM50 9.375C51.7703 9.375 53.6172 10.8953 55.3391 13.6906C51.799 13.1731 48.2025 13.1731 44.6625 13.6906C46.3828 10.8922 48.2297 9.375 50 9.375ZM39.0813 18.25C37.8392 21.7425 36.886 25.3311 36.2313 28.9797C34.1834 28.8959 32.1859 29.628 30.6773 31.0153C29.1686 32.4027 28.2721 34.332 28.1844 36.3797C24.8101 37.022 21.4908 37.9252 18.2563 39.0812C19.9313 34.2631 22.6748 29.8863 26.2812 26.2788C29.8876 22.6713 34.2636 19.9265 39.0813 18.25ZM9.40938 50C9.40938 48.2297 10.9109 46.3906 13.6813 44.6813C13.1483 48.2071 13.1483 51.7929 13.6813 55.3188C10.9125 53.6125 9.40938 51.7719 9.40938 50ZM25 79.6656C23.7626 79.6656 22.5759 79.1741 21.7009 78.2991C20.8259 77.4241 20.3344 76.2374 20.3344 75C20.3344 73.7626 20.8259 72.5759 21.7009 71.7009C22.5759 70.8259 23.7626 70.3344 25 70.3344C26.2374 70.3344 27.4241 70.8259 28.2991 71.7009C29.1741 72.5759 29.6656 73.7626 29.6656 75C29.6656 76.2374 29.1741 77.4241 28.2991 78.2991C27.4241 79.1741 26.2374 79.6656 25 79.6656ZM50 90.625C48.2297 90.625 46.3828 89.1063 44.6625 86.3125C48.2002 86.855 51.7998 86.855 55.3375 86.3125C53.6172 89.1063 51.7703 90.625 50 90.625ZM60.9313 81.7453C62.1733 78.2465 63.126 74.6516 63.7797 70.9969C65.6528 70.871 67.4167 70.07 68.7441 68.7426C70.0716 67.4151 70.8726 65.6512 70.9984 63.7781C74.6525 63.1157 78.2466 62.1573 81.7453 60.9125C80.0716 65.7298 77.3299 70.1062 73.7254 73.7139C70.1209 77.3216 65.7471 80.0673 60.9313 81.7453ZM86.3188 55.3188C86.8464 51.7925 86.8464 48.2075 86.3188 44.6813C91.9813 48.1516 91.9828 51.8469 86.3188 55.3188Z" fill="#57AF7D"/>
</svg>
