<svg width="100" height="100" viewBox="0 0 100 100" fill="none" xmlns="http://www.w3.org/2000/svg">
<path d="M15.625 57.8126C15.6258 61.6542 17.0416 65.3609 19.602 68.2249C22.1625 71.0888 25.6881 72.9092 29.5056 73.3385C33.3232 73.7678 37.1651 72.7759 40.2977 70.5522C43.4302 68.3285 45.6339 65.0288 46.4879 61.2833L43.4403 60.5919C42.8119 63.328 41.2843 65.7742 39.1016 67.5396C36.8839 69.3443 34.1092 70.3243 31.25 70.3126C28.0551 70.3128 24.9814 69.0897 22.6601 66.8944C20.3389 64.6992 18.9462 61.6985 18.7682 58.5085C18.5902 55.3186 19.6403 52.1816 21.7029 49.7417C23.7656 47.3018 26.6841 45.7443 29.8592 45.389L29.5158 42.283C25.6933 42.7039 22.161 44.522 19.5972 47.3883C17.0334 50.2546 15.6188 53.967 15.625 57.8126Z" fill="#57AF7D"/>
<path d="M24.3522 53.1255L20.7702 56.7076C20.6251 56.8527 20.51 57.0249 20.4314 57.2145C20.3529 57.4041 20.3125 57.6073 20.3125 57.8125C20.3125 58.0176 20.3529 58.2208 20.4314 58.4104C20.51 58.6 20.6251 58.7722 20.7702 58.9173L24.3522 62.4994L26.562 60.2896L24.0846 57.8125L26.562 55.3353L24.3522 53.1255ZM26.5553 50.9121L30.1366 47.3308L32.346 49.5402L28.7647 53.1216L26.5553 50.9121ZM31.2501 64.9779L28.7729 62.5005L26.5631 64.7103L30.1452 68.2923C30.2903 68.4374 30.4625 68.5525 30.6521 68.6311C30.8417 68.7096 31.0449 68.75 31.2501 68.75C31.4553 68.75 31.6584 68.7096 31.848 68.6311C32.0376 68.5525 32.2098 68.4374 32.3549 68.2923L35.937 64.7103L33.7272 62.5005L31.2501 64.9779ZM35.9282 60.2871L39.5094 56.7058L41.7188 58.9152L38.1376 62.4966L35.9282 60.2871ZM28.6684 57.257L30.6883 55.2371C30.8348 55.0906 31.0335 55.0083 31.2407 55.0083C31.4478 55.0083 31.6465 55.0906 31.793 55.2371L33.8129 57.257C33.9594 57.4035 34.0417 57.6022 34.0417 57.8093C34.0417 58.0165 33.9594 58.2152 33.8129 58.3617L31.793 60.3816C31.6465 60.5281 31.4478 60.6103 31.2407 60.6103C31.0335 60.6103 30.8348 60.5281 30.6883 60.3816L28.6684 58.3617C28.522 58.2152 28.4397 58.0165 28.4397 57.8093C28.4397 57.6022 28.522 57.4035 28.6684 57.257Z" fill="#57AF7D"/>
<path d="M32.8125 40.625C32.8125 44.0244 33.8205 47.3474 35.7091 50.1739C37.5977 53.0003 40.282 55.2033 43.4226 56.5042C46.5632 57.8051 50.0191 58.1454 53.3531 57.4823C56.6872 56.8191 59.7497 55.1821 62.1534 52.7784C64.5571 50.3747 66.1941 47.3122 66.8573 43.9781C67.5204 40.6441 67.1801 37.1882 65.8792 34.0476C64.5783 30.907 62.3753 28.2227 59.5489 26.3341C56.7224 24.4455 53.3994 23.4375 50 23.4375C45.4432 23.4427 41.0745 25.2551 37.8523 28.4773C34.6301 31.6995 32.8177 36.0682 32.8125 40.625ZM50 26.5625C52.7813 26.5625 55.5001 27.3873 57.8127 28.9325C60.1253 30.4777 61.9277 32.6739 62.9921 35.2435C64.0564 37.8131 64.3349 40.6406 63.7923 43.3685C63.2497 46.0963 61.9104 48.602 59.9437 50.5687C57.977 52.5354 55.4713 53.8747 52.7435 54.4173C50.0156 54.9599 47.1881 54.6814 44.6185 53.6171C42.0489 52.5527 39.8527 50.7503 38.3075 48.4377C36.7623 46.1251 35.9375 43.4063 35.9375 40.625C35.9417 36.8967 37.4247 33.3223 40.061 30.686C42.6973 28.0497 46.2717 26.5667 50 26.5625Z" fill="#57AF7D"/>
<path d="M45.3125 48.4375H48.4375V51.5623H51.5625V48.4375C52.4676 48.4381 53.3535 48.1764 54.1131 47.6842C54.8727 47.1919 55.4734 46.4902 55.8426 45.6638C56.2118 44.8374 56.3336 43.9217 56.1935 43.0275C56.0533 42.1333 55.6571 41.2988 55.0527 40.625C55.6571 39.9512 56.0533 39.1168 56.1935 38.2226C56.3336 37.3284 56.2118 36.4127 55.8426 35.5863C55.4734 34.7599 54.8727 34.0581 54.1131 33.5659C53.3535 33.0736 52.4676 32.812 51.5625 32.8125V29.6873H48.4375V32.8125H45.3125C44.8981 32.8125 44.5006 32.9771 44.2076 33.2702C43.9146 33.5632 43.75 33.9606 43.75 34.375V46.875C43.75 47.2894 43.9146 47.6869 44.2076 47.9799C44.5006 48.2729 44.8981 48.4375 45.3125 48.4375ZM51.5625 45.3125H46.875V42.1875H51.5625C51.9769 42.1875 52.3743 42.3521 52.6673 42.6452C52.9604 42.9382 53.125 43.3356 53.125 43.75C53.125 44.1644 52.9604 44.5619 52.6673 44.8549C52.3743 45.1479 51.9769 45.3125 51.5625 45.3125ZM46.875 35.9375H51.5625C51.9769 35.9375 52.3743 36.1021 52.6673 36.3952C52.9604 36.6882 53.125 37.0856 53.125 37.5C53.125 37.9144 52.9604 38.3119 52.6673 38.6049C52.3743 38.8979 51.9769 39.0625 51.5625 39.0625H46.875V35.9375ZM29.5158 38.9672L29.8592 35.8612C27.58 35.6052 25.4151 34.7272 23.6017 33.3231C21.7882 31.919 20.396 30.043 19.5774 27.9005C18.7589 25.758 18.5457 23.4317 18.961 21.1761C19.3763 18.9205 20.4042 16.8226 21.9322 15.1122C23.4602 13.4018 25.4293 12.1448 27.6239 11.4787C29.8186 10.8126 32.1542 10.7633 34.3751 11.3359C36.5959 11.9086 38.6164 13.0813 40.2153 14.7256C41.8142 16.3699 42.9299 18.4224 43.4402 20.6584L46.4879 19.9668C45.8509 17.1706 44.4568 14.6035 42.4581 12.5468C40.4594 10.4901 37.9332 9.02314 35.1563 8.30652C32.3794 7.58989 29.4589 7.65127 26.7145 8.48394C23.9702 9.3166 21.5079 10.8884 19.5974 13.0273C17.6869 15.1661 16.4018 17.7895 15.8829 20.61C15.364 23.4306 15.6313 26.3395 16.6556 29.0183C17.6798 31.697 19.4215 34.0422 21.6898 35.7971C23.9582 37.5519 26.6657 38.6487 29.5158 38.9672Z" fill="#57AF7D"/>
<path d="M32.8125 23.4375V18.75H35.9375V15.625H26.5625V18.75H29.6875V23.4375H32.8125Z" fill="#57AF7D"/>
<path d="M32.8125 32.8125V27.9992C36.3742 27.4185 39.0625 24.8933 39.0625 21.875H35.9375C35.9375 23.5689 33.791 25 31.25 25C28.709 25 26.5625 23.5689 26.5625 21.875H23.4375C23.4375 24.8933 26.1258 27.4185 29.6875 27.9992V32.8125H32.8125ZM60.8984 13.7105C63.1161 11.9058 65.8908 10.9258 68.75 10.9375C71.9449 10.9373 75.0186 12.1604 77.3399 14.3557C79.6612 16.5509 81.0538 19.5516 81.2318 22.7416C81.4098 25.9315 80.3597 29.0685 78.2971 31.5084C76.2344 33.9483 73.3159 35.5058 70.1408 35.8611L70.4842 38.9672C73.3337 38.6482 76.0404 37.5512 78.308 35.7965C80.5757 34.0417 82.3167 31.6968 83.3405 29.0185C84.3643 26.3402 84.6314 23.4319 84.1125 20.612C83.5936 17.792 82.3087 15.1692 80.3986 13.0308C78.4885 10.8924 76.0268 9.32086 73.2831 8.48823C70.5394 7.6556 67.6194 7.59402 64.843 8.31023C62.0666 9.02643 59.5409 10.4928 57.5423 12.5488C55.5437 14.6047 54.1494 17.171 53.5121 19.9666L56.5598 20.6582C57.1881 17.9222 58.7158 15.4759 60.8984 13.7105Z" fill="#57AF7D"/>
<path d="M68.75 25C69.6129 25 70.3125 24.3004 70.3125 23.4375C70.3125 22.5746 69.6129 21.875 68.75 21.875C67.8871 21.875 67.1875 22.5746 67.1875 23.4375C67.1875 24.3004 67.8871 25 68.75 25Z" fill="#57AF7D"/>
<path d="M68.75 20.3125C69.6129 20.3125 70.3125 19.6129 70.3125 18.75C70.3125 17.8871 69.6129 17.1875 68.75 17.1875C67.8871 17.1875 67.1875 17.8871 67.1875 18.75C67.1875 19.6129 67.8871 20.3125 68.75 20.3125Z" fill="#57AF7D"/>
<path d="M64.0625 25C64.9254 25 65.625 24.3004 65.625 23.4375C65.625 22.5746 64.9254 21.875 64.0625 21.875C63.1996 21.875 62.5 22.5746 62.5 23.4375C62.5 24.3004 63.1996 25 64.0625 25Z" fill="#57AF7D"/>
<path d="M73.4375 25C74.3004 25 75 24.3004 75 23.4375C75 22.5746 74.3004 21.875 73.4375 21.875C72.5746 21.875 71.875 22.5746 71.875 23.4375C71.875 24.3004 72.5746 25 73.4375 25Z" fill="#57AF7D"/>
<path d="M78.125 25C78.9879 25 79.6875 24.3004 79.6875 23.4375C79.6875 22.5746 78.9879 21.875 78.125 21.875C77.2621 21.875 76.5625 22.5746 76.5625 23.4375C76.5625 24.3004 77.2621 25 78.125 25Z" fill="#57AF7D"/>
<path d="M68.75 15.625C69.6129 15.625 70.3125 14.9254 70.3125 14.0625C70.3125 13.1996 69.6129 12.5 68.75 12.5C67.8871 12.5 67.1875 13.1996 67.1875 14.0625C67.1875 14.9254 67.8871 15.625 68.75 15.625Z" fill="#57AF7D"/>
<path d="M68.75 34.375C69.6129 34.375 70.3125 33.6754 70.3125 32.8125C70.3125 31.9496 69.6129 31.25 68.75 31.25C67.8871 31.25 67.1875 31.9496 67.1875 32.8125C67.1875 33.6754 67.8871 34.375 68.75 34.375Z" fill="#57AF7D"/>
<path d="M68.75 29.6875C69.6129 29.6875 70.3125 28.9879 70.3125 28.125C70.3125 27.2621 69.6129 26.5625 68.75 26.5625C67.8871 26.5625 67.1875 27.2621 67.1875 28.125C67.1875 28.9879 67.8871 29.6875 68.75 29.6875Z" fill="#57AF7D"/>
<path d="M64.0625 20.3125C64.9254 20.3125 65.625 19.6129 65.625 18.75C65.625 17.8871 64.9254 17.1875 64.0625 17.1875C63.1996 17.1875 62.5 17.8871 62.5 18.75C62.5 19.6129 63.1996 20.3125 64.0625 20.3125Z" fill="#57AF7D"/>
<path d="M73.4375 20.3125C74.3004 20.3125 75 19.6129 75 18.75C75 17.8871 74.3004 17.1875 73.4375 17.1875C72.5746 17.1875 71.875 17.8871 71.875 18.75C71.875 19.6129 72.5746 20.3125 73.4375 20.3125Z" fill="#57AF7D"/>
<path d="M73.4375 29.6875C74.3004 29.6875 75 28.9879 75 28.125C75 27.2621 74.3004 26.5625 73.4375 26.5625C72.5746 26.5625 71.875 27.2621 71.875 28.125C71.875 28.9879 72.5746 29.6875 73.4375 29.6875Z" fill="#57AF7D"/>
<path d="M95.3125 78.125H90.625V39.0625C90.6236 37.8197 90.1293 36.6283 89.2505 35.7495C88.3717 34.8707 87.1803 34.3764 85.9375 34.375H82.8125V37.5H85.9375C86.3517 37.5005 86.7489 37.6653 87.0418 37.9582C87.3347 38.2511 87.4995 38.6483 87.5 39.0625V78.125H12.5V39.0625C12.5005 38.6483 12.6653 38.2511 12.9582 37.9582C13.2511 37.6653 13.6483 37.5005 14.0625 37.5H17.1875V34.375H14.0625C12.8197 34.3764 11.6283 34.8707 10.7495 35.7495C9.8707 36.6283 9.3764 37.8197 9.375 39.0625V78.125H4.6875C4.2731 78.125 3.87567 78.2896 3.58265 78.5826C3.28962 78.8757 3.125 79.2731 3.125 79.6875V84.375C3.1264 85.6178 3.6207 86.8092 4.49948 87.688C5.37825 88.5668 6.56973 89.0611 7.8125 89.0625H92.1875C93.4303 89.0611 94.6217 88.5668 95.5005 87.688C96.3793 86.8092 96.8736 85.6178 96.875 84.375V79.6875C96.875 79.2731 96.7104 78.8757 96.4174 78.5826C96.1243 78.2896 95.7269 78.125 95.3125 78.125ZM93.75 84.375C93.7495 84.7892 93.5847 85.1864 93.2918 85.4793C92.9989 85.7722 92.6017 85.937 92.1875 85.9375H7.8125C7.39826 85.937 7.00113 85.7722 6.70822 85.4793C6.4153 85.1864 6.25052 84.7892 6.25 84.375V81.25H41.5404L42.6451 82.3549C42.7902 82.5 42.9625 82.6151 43.152 82.6936C43.3416 82.7721 43.5448 82.8125 43.75 82.8125H56.25C56.4552 82.8125 56.6584 82.7721 56.848 82.6936C57.0375 82.6151 57.2098 82.5 57.3549 82.3549L58.4596 81.25H93.75V84.375Z" fill="#57AF7D"/>
<path d="M70.4843 42.283L70.1409 45.389C72.4201 45.6449 74.5849 46.523 76.3984 47.9271C78.2119 49.3312 79.6041 51.2072 80.4226 53.3497C81.2411 55.4921 81.4544 57.8185 81.0391 60.0741C80.6238 62.3297 79.5958 64.4275 78.0679 66.1379C76.5399 67.8484 74.5708 69.1054 72.3761 69.7715C70.1815 70.4375 67.8459 70.4869 65.625 69.9142C63.4041 69.3415 61.3837 68.1689 59.7848 66.5246C58.1859 64.8803 57.0702 62.8278 56.5599 60.5917L53.5122 61.2833C54.1491 64.0796 55.5433 66.6467 57.542 68.7034C59.5407 70.76 62.0668 72.227 64.8437 72.9437C67.6206 73.6603 70.5412 73.5989 73.2855 72.7662C76.0299 71.9336 78.4922 70.3617 80.4027 68.2229C82.3132 66.084 83.5983 63.4607 84.1172 60.6401C84.6361 57.8196 84.3687 54.9106 83.3445 52.2319C82.3202 49.5531 80.5786 47.2079 78.3102 45.4531C76.0419 43.6983 73.3344 42.6015 70.4843 42.283Z" fill="#57AF7D"/>
<path d="M67.6451 66.7299C67.7902 66.875 67.9624 66.9901 68.152 67.0686C68.3416 67.1471 68.5448 67.1876 68.75 67.1876C68.9552 67.1876 69.1583 67.1471 69.3479 67.0686C69.5375 66.9901 69.7097 66.875 69.8548 66.7299L76.1048 60.4799C76.3472 60.2375 76.5032 59.9222 76.5486 59.5824C76.5941 59.2427 76.5267 58.8974 76.3566 58.5998L70.1066 47.6623C69.9699 47.4231 69.7725 47.2243 69.5342 47.0861C69.296 46.9478 69.0254 46.875 68.75 46.875C68.4745 46.875 68.2039 46.9478 67.9657 47.0861C67.7274 47.2243 67.53 47.4231 67.3933 47.6623L61.1433 58.5998C60.9733 58.8974 60.9058 59.2427 60.9513 59.5825C60.9969 59.9222 61.1529 60.2375 61.3953 60.4799L67.6451 66.7299ZM68.75 63.4154L65.5562 60.2215L68.75 59.423L71.9437 60.2215L68.75 63.4154ZM68.75 51.5869L71.8267 56.9711L69.1289 56.2967C68.8801 56.2345 68.6198 56.2345 68.371 56.2967L65.6732 56.9711L68.75 51.5869Z" fill="#57AF7D"/>
</svg>
