<svg width="100" height="100" viewBox="0 0 100 100" fill="none" xmlns="http://www.w3.org/2000/svg">
<path d="M43.75 48.4375H56.25V51.5625H43.75V48.4375Z" fill="#57AF7D"/>
<path d="M48.4375 43.75H51.5625V56.25H48.4375V43.75ZM89.0625 48.4375H92.1875V51.5625H89.0625V48.4375ZM76.5625 48.4375H79.6875V51.5625H76.5625V48.4375ZM82.8125 42.1875H85.9375V45.3125H82.8125V42.1875ZM82.8125 54.6875H85.9375V57.8125H82.8125V54.6875ZM14.4051 24.4141L7.37383 15.625L14.4051 6.83594L16.8449 8.78906L11.3762 15.625L16.8449 22.4609L14.4051 24.4141ZM38.7199 24.4141L36.2801 22.4609L41.7504 15.625L36.2801 8.78906L38.7199 6.83594L45.7496 15.625L38.7199 24.4141ZM19.9158 20.8443L30.8562 8.34727L33.2078 10.4049L22.2672 22.9027L19.9158 20.8443ZM12.5 65.625H6.25V59.375H9.375V62.5H12.5V65.625Z" fill="#57AF7D"/>
<path d="M95.3125 0H4.6875C2.09883 0 0 2.09883 0 4.6875V67.1875C0 69.7762 2.09883 71.875 4.6875 71.875H37.5V79.6875C37.5 82.2762 35.4012 84.375 32.8125 84.375H25V93.75H75V84.375H67.1875C64.5988 84.375 62.5 82.2762 62.5 79.6875V71.875H95.3125C97.9012 71.875 100 69.7762 100 67.1875V4.6875C100 2.09883 97.9012 0 95.3125 0ZM71.875 87.5V90.625H28.125V87.5H71.875ZM50 81.3156C52.5887 81.3156 54.6875 79.2168 54.6875 76.6281V71.875H59.375V79.6875C59.381 81.3835 59.9442 83.0305 60.9779 84.375H39.0221C40.0558 83.0305 40.619 81.3835 40.625 79.6875V71.875H45.3125V76.6281C45.3125 79.2168 47.4113 81.3156 50 81.3156ZM48.4375 76.6281V71.875H51.5625V76.6281C51.5625 77.0425 51.3979 77.44 51.1049 77.733C50.8118 78.026 50.4144 78.1906 50 78.1906C49.5856 78.1906 49.1882 78.026 48.8951 77.733C48.6021 77.44 48.4375 77.0425 48.4375 76.6281ZM96.875 67.1875C96.875 67.6019 96.7104 67.9993 96.4174 68.2924C96.1243 68.5854 95.7269 68.75 95.3125 68.75H4.6875C4.2731 68.75 3.87567 68.5854 3.58265 68.2924C3.28962 67.9993 3.125 67.6019 3.125 67.1875V53.125H34.6879C35.9818 59.4855 41.0752 64.3822 47.4822 65.4236C53.8887 66.4658 60.2713 63.4354 63.5139 57.8125H70.858C72.1471 60.0535 73.9735 61.9385 76.1727 63.2978C78.3718 64.657 80.8746 65.4478 83.4555 65.5988C86.0364 65.7498 88.6143 65.2562 90.957 64.1627C93.2996 63.0692 95.3334 61.41 96.875 59.3346V67.1875ZM84.375 62.5C82.0473 62.5055 79.7648 61.8574 77.7874 60.6293C75.8099 59.4012 74.2171 57.6425 73.1902 55.5535L72.7578 54.6875H61.6172L61.1848 55.5535C58.4441 61.0787 52.0836 63.7801 46.2051 61.9148C40.326 60.0486 36.6867 54.1748 37.6342 48.0797C38.5811 41.9854 43.8324 37.4932 50 37.5H84.375C91.2789 37.5 96.875 43.0961 96.875 50C96.875 56.9039 91.2789 62.5 84.375 62.5ZM96.875 40.6654C95.4255 38.7156 93.5405 37.1315 91.3702 36.0393C89.2 34.9472 86.8046 34.3773 84.375 34.375H50C41.3742 34.3842 34.3842 41.3742 34.375 50H3.125V4.6875C3.125 4.2731 3.28962 3.87567 3.58265 3.58265C3.87567 3.28962 4.2731 3.125 4.6875 3.125H95.3125C95.7269 3.125 96.1243 3.28962 96.4174 3.58265C96.7104 3.87567 96.875 4.2731 96.875 4.6875V40.6654Z" fill="#57AF7D"/>
<path d="M64.0625 48.4375H70.3125V51.5625H64.0625V48.4375ZM46.875 9.375H59.375V12.5H46.875V9.375ZM65.625 9.375H90.625V12.5H65.625V9.375ZM68.75 15.625H90.625V18.75H68.75V15.625ZM50 15.625H62.5V18.75H50V15.625ZM46.875 21.875H78.125V25H46.875V21.875ZM84.375 21.875H90.625V25H84.375V21.875ZM9.375 28.125H25V31.25H9.375V28.125ZM31.25 28.125H60.9375V31.25H31.25V28.125ZM65.625 28.125H90.625V31.25H65.625V28.125ZM9.375 34.375H34.375V37.5H9.375V34.375ZM9.375 40.625H21.875V43.75H9.375V40.625ZM25 40.625H31.25V43.75H25V40.625Z" fill="#57AF7D"/>
</svg>
