<svg width="100" height="100" viewBox="0 0 100 100" fill="none" xmlns="http://www.w3.org/2000/svg">
<path d="M5.08468 40.5908C0.360456 34.5498 -1.04286 29.4638 1.02667 25.8834L3.41143 21.7521C4.79971 19.3468 6.18858 16.9404 7.57999 14.5338C9.79522 10.6968 15.6987 9.44177 24.2021 11.0006C32.2439 12.4746 41.8437 16.272 51.2333 21.6933C55.7314 24.2912 59.9251 27.1086 63.6984 30.0674L62.014 32.2154C58.3415 29.3355 54.255 26.5908 49.8683 24.057C40.7423 18.7881 31.4523 15.1045 23.7099 13.6853C16.5333 12.3697 11.5155 13.1767 9.94346 15.8994C6.93448 21.1136 16.6273 34.3517 35.8528 45.7482L34.4608 48.0963C25.3716 42.7084 17.5823 36.4031 12.5274 30.342C9.65831 26.9015 7.82217 23.6951 7.0669 20.8806C6.63663 21.6259 6.20557 22.3716 5.77569 23.1168L3.39034 27.2488C2.21124 29.289 2.97003 32.5531 5.45948 36.4218L7.52413 32.8412L9.88878 34.2047L7.20128 38.8656L7.23506 38.9093C9.07979 41.2681 11.4148 43.7072 14.1315 46.1345L16.4702 42.0797L18.8347 43.4433L16.2362 47.9486C19.1524 50.3769 22.4273 52.7701 25.9542 55.0343L24.4794 57.3312C16.3163 52.0906 9.42862 46.1453 5.08468 40.5908ZM26.2196 20.6283C32.045 22.3625 39.2605 25.6308 46.5362 29.8308C49.5622 31.5798 52.4589 33.4082 55.1462 35.2646L56.6976 33.0187C53.9505 31.1209 50.9913 29.2533 47.9015 27.4674C40.4458 23.1632 33.0222 19.8052 26.9983 18.0121C20.2159 15.9929 16.0657 16.2004 14.6638 18.6279C13.2607 21.0537 15.1562 24.7504 20.2974 29.615C24.863 33.9351 31.4833 38.6861 38.9415 42.9943C39.4257 43.2724 39.9151 43.5506 40.3991 43.8234L41.7388 41.4453C41.2593 41.1753 40.781 40.9033 40.3038 40.6293C33.0274 36.4259 26.5884 31.8101 22.1732 27.6324C17.2837 23.0058 16.6685 20.6132 17.0269 19.9937C17.3855 19.3736 19.7679 18.7078 26.2196 20.6283ZM93.744 60.2402C88.4464 66.4701 80.3585 72.8863 70.9706 78.3066C61.578 83.7281 51.9765 87.5254 43.9345 88.9994C41.5521 89.4361 39.3728 89.6521 37.4224 89.6521C32.411 89.6521 28.9062 88.2281 27.3112 85.4654C25.7825 82.815 24.2528 80.1653 22.722 77.5162L20.7581 74.116C18.5423 70.2779 20.4064 64.5369 26.0073 57.9504C31.3056 51.7199 39.3952 45.3035 48.786 39.8832C58.1737 34.4631 67.7747 30.6664 75.82 29.1925C84.3251 27.6351 90.229 28.8888 92.445 32.724L98.9933 44.08C101.209 47.9144 99.3446 53.6539 93.744 60.2402ZM23.122 72.7513L23.1222 72.7515C24.694 75.4738 29.712 76.2804 36.8892 74.9652C44.6319 73.5461 53.9237 69.8625 63.0528 64.5933C72.1782 59.3246 80.0134 53.1197 85.1146 47.1218C89.8423 41.5631 91.6526 36.8132 90.0817 34.0904L90.0808 34.0888C88.5093 31.3689 83.4905 30.5629 76.3118 31.8777C68.5659 33.2966 59.2749 36.9793 50.1507 42.2474C41.0235 47.5158 33.1878 53.7205 28.0868 59.7191C23.3593 65.2777 21.5497 70.0279 23.122 72.7513ZM96.629 45.4445L92.9567 39.0759C92.1739 41.9851 90.2364 45.3123 87.1937 48.89C81.8952 55.1197 73.8065 61.5361 64.4175 66.957C55.0249 72.3785 45.4233 76.1757 37.3814 77.6498C34.9989 78.0865 32.8196 78.3023 30.8692 78.3025C29.0384 78.3025 27.4099 78.1117 26.0009 77.7357C27.2261 79.857 28.4519 81.9787 29.6757 84.1011C30.869 86.1679 34.0515 87.1293 38.6558 86.8968L36.5882 83.3093L38.9532 81.9464L41.6386 86.606C42.2237 86.5242 42.8245 86.4277 43.4425 86.3144C45.9513 85.8545 48.6235 85.1556 51.3995 84.2433L49.0544 80.1832L51.4181 78.8179L54.0233 83.3287C56.9253 82.2603 59.9171 80.9752 62.9374 79.497L60.5357 75.331L62.9005 73.9677L65.3774 78.2644C68.2279 76.778 71.0132 75.1701 73.7259 73.4451L71.2446 69.1488L73.6083 67.7838L76.0136 71.9484C78.803 70.0726 81.4112 68.1246 83.787 66.1459L81.1847 61.6336L83.5491 60.2699L85.8911 64.3308C88.0696 62.3822 90.0116 60.4164 91.6648 58.4722C92.0591 58.0086 92.4436 57.5367 92.8181 57.0568L90.1308 52.4009L92.4948 51.0365L94.562 54.6177C97.0646 50.7461 97.8226 47.5103 96.629 45.4445ZM27.8419 70.0216C26.4419 67.5949 28.3382 63.898 33.4776 59.0334C38.0452 54.7099 44.665 49.9595 52.1177 45.6574C59.5734 41.3533 66.997 37.9955 73.0208 36.2021C79.8034 34.183 83.9534 34.3904 85.3558 36.8187C86.7583 39.247 84.8626 42.9449 79.7218 47.8093C75.1562 52.1295 68.5357 56.8791 61.08 61.1832C53.6243 65.4873 46.2007 68.8453 40.1769 70.6384C37.0997 71.5545 34.5646 72.0123 32.5817 72.0123C30.194 72.0121 28.6079 71.3484 27.8419 70.0216ZM30.206 68.6572C30.5638 69.2769 32.9462 69.9427 39.398 68.0222C45.2233 66.288 52.4388 63.0197 59.7151 58.8191C66.9915 54.6187 73.4302 50.0045 77.8454 45.8267C82.7353 41.1998 83.3499 38.8043 82.9917 38.184C82.6333 37.5636 80.2509 36.898 73.7993 38.8183C67.9739 40.5525 60.7583 43.8209 53.4821 48.0215C46.2091 52.2203 39.771 56.8349 35.3538 61.016C30.4648 65.6437 29.8485 68.0379 30.206 68.6572ZM10.6458 58.1886H7.91632V61.6476H4.45733V64.3771H7.91632V67.8361H10.6458V64.3771H14.1048V61.6476H10.6458V58.1886ZM68.8681 26.5884H71.5976V23.1295H75.0511V20.4H71.5978V16.941H68.8683V20.4H65.4093V23.1295H68.8683V26.5884H68.8681Z" fill="#57AF7D"/>
</svg>
