<svg width="100" height="100" viewBox="0 0 100 100" fill="none" xmlns="http://www.w3.org/2000/svg">
<g clip-path="url(#clip0_2001_154)">
<path d="M72.106 40H70.0007C69.1285 40 68.4218 40.7068 68.4218 41.5789C68.4218 42.451 69.1287 43.1578 70.0007 43.1578H72.106C72.9783 43.1578 73.6849 42.451 73.6849 41.5789C73.6849 40.7068 72.9781 40 72.106 40ZM61.0537 50C61.0537 49.7926 61.0129 49.5873 60.9336 49.3957C60.8543 49.2041 60.738 49.0301 60.5913 48.8834C60.4447 48.7368 60.2706 48.6205 60.079 48.5412C59.8875 48.4618 59.6821 48.421 59.4748 48.4211H25.7904C25.583 48.4211 25.3777 48.4619 25.1861 48.5412C24.9946 48.6206 24.8205 48.7369 24.6739 48.8835C24.5273 49.0301 24.411 49.2042 24.3316 49.3957C24.2523 49.5873 24.2115 49.7926 24.2115 50C24.2114 50.2074 24.2522 50.4127 24.3316 50.6043C24.4109 50.7959 24.5272 50.9699 24.6738 51.1166C24.8204 51.2632 24.9945 51.3795 25.1861 51.4588C25.3777 51.5382 25.583 51.579 25.7904 51.5789H59.4746C59.6819 51.5789 59.8873 51.5381 60.0789 51.4588C60.2704 51.3794 60.4445 51.2631 60.5912 51.1165C60.7378 50.9699 60.8541 50.7958 60.9335 50.6043C61.0128 50.4127 61.0537 50.2074 61.0537 50ZM25.7904 80C24.9181 80 24.2115 80.7068 24.2115 81.5789C24.2115 82.451 24.9181 83.1578 25.7904 83.1578H34.2115C35.0838 83.1578 35.7904 82.451 35.7904 81.5789C35.7904 80.7068 35.0838 80 34.2115 80H25.7904Z" fill="#57AF7D"/>
<path d="M67.4748 85.0525C68.5621 86.5029 70.2935 87.3686 72.1062 87.3686C73.9189 87.3686 75.6504 86.5029 76.7379 85.0527L98.8431 55.5791C100.759 53.0254 100.239 49.3895 97.6849 47.4736C95.131 45.5586 91.4949 46.0779 89.5799 48.6318L88.4217 50.176V5.78945C88.4219 2.59727 85.8246 0 82.6324 0H15.2644C12.0719 0 9.47479 2.59727 9.47479 5.78945V6.31582H5.79061C2.59823 6.31582 0.00115967 8.91309 0.00115967 12.1053V87.8947C0.00115967 91.0869 2.59823 93.6842 5.79061 93.6842H9.47479V94.2105C9.47479 97.4027 12.0719 100 15.2642 100H82.6322C85.8244 100 88.4217 97.4027 88.4217 94.2105V77.3684C88.4217 77.161 88.3809 76.9557 88.3016 76.7641C88.2223 76.5725 88.106 76.3984 87.9593 76.2518C87.8127 76.1052 87.6386 75.9889 87.447 75.9095C87.2555 75.8302 87.0501 75.7894 86.8428 75.7895C86.6354 75.7894 86.4301 75.8302 86.2385 75.9095C86.0469 75.9889 85.8728 76.1052 85.7262 76.2518C85.5796 76.3984 85.4633 76.5725 85.3839 76.7641C85.3046 76.9557 85.2638 77.161 85.2639 77.3684V94.2105C85.2639 95.6617 84.0834 96.8422 82.6322 96.8422H15.2644C13.8133 96.8422 12.6328 95.6617 12.6328 94.2105V26.8422C12.6328 25.9699 11.926 25.2633 11.0539 25.2633C10.1818 25.2633 9.47499 25.9701 9.47499 26.8422V90.5264H5.79061C4.33944 90.5264 3.15897 89.3459 3.15897 87.8947V12.1053C3.15897 10.6541 4.33944 9.47363 5.79061 9.47363H9.47479V20.5262C9.47479 21.3984 10.1816 22.1051 11.0537 22.1051C11.9258 22.1051 12.6326 21.3982 12.6326 20.5262V5.78945C12.6326 4.33828 13.8131 3.15781 15.2642 3.15781H82.6322C84.0834 3.15781 85.2639 4.33828 85.2639 5.78945V54.2105C85.2639 54.2662 85.2668 54.3209 85.2722 54.3752L72.1062 71.9301L67.2644 65.4738C66.3367 64.2365 64.9824 63.4348 63.4515 63.2162C61.9199 62.9975 60.3959 63.3883 59.1592 64.316C57.9219 65.2438 57.1201 66.598 56.9015 68.1289C56.6828 69.66 57.0736 71.1842 58.0014 72.4213L67.4748 85.0525ZM60.0275 68.5754C60.0756 68.233 60.1911 67.9035 60.3673 67.606C60.5435 67.3086 60.777 67.0489 61.0541 66.8422C61.5072 66.5002 62.0595 66.3153 62.6271 66.3154C62.7523 66.3154 62.8785 66.3244 63.0049 66.3424C63.3472 66.3905 63.6767 66.5059 63.9742 66.6821C64.2717 66.8583 64.5313 67.0916 64.7381 67.3688L70.8432 75.5092C70.9902 75.7053 71.1809 75.8644 71.4002 75.974C71.6194 76.0836 71.8611 76.1407 72.1062 76.1407C72.3513 76.1407 72.5931 76.0836 72.8123 75.974C73.0315 75.8644 73.2223 75.7053 73.3693 75.5092L92.1062 50.5266C92.9767 49.3654 94.6297 49.1297 95.7904 50.0002C96.9512 50.8709 97.1873 52.5236 96.3168 53.6844L74.2115 83.1582V83.1584C73.9657 83.4845 73.6477 83.7492 73.2824 83.9317C72.9172 84.1143 72.5146 84.2098 72.1062 84.2107C71.6979 84.2098 71.2954 84.1142 70.9301 83.9316C70.5649 83.749 70.2469 83.4843 70.0012 83.1582L60.5275 70.5266C60.3193 70.2506 60.1679 69.936 60.082 69.6011C59.9962 69.2661 59.9777 68.9175 60.0275 68.5754Z" fill="#57AF7D"/>
<path d="M50.5273 73.1579C50.5274 72.9505 50.4866 72.7452 50.4072 72.5536C50.3279 72.362 50.2116 72.1879 50.065 72.0413C49.9183 71.8947 49.7443 71.7784 49.5527 71.699C49.3611 71.6197 49.1558 71.5789 48.9484 71.579H25.7904C24.9181 71.579 24.2115 72.2858 24.2115 73.1579C24.2115 74.0299 24.9181 74.7368 25.7904 74.7368H48.9482C49.1556 74.7368 49.3609 74.696 49.5525 74.6167C49.7441 74.5374 49.9182 74.4211 50.0648 74.2744C50.2115 74.1278 50.3278 73.9537 50.4072 73.7622C50.4865 73.5706 50.5273 73.3652 50.5273 73.1579ZM37.3693 27.3684C37.1619 27.3684 36.9566 27.4092 36.765 27.4885C36.5734 27.5678 36.3994 27.6841 36.2527 27.8307C36.1061 27.9774 35.9898 28.1514 35.9105 28.343C35.8311 28.5346 35.7903 28.74 35.7904 28.9473C35.7903 29.1547 35.8311 29.36 35.9105 29.5516C35.9898 29.7432 36.1061 29.9173 36.2527 30.0639C36.3994 30.2105 36.5734 30.3268 36.765 30.4061C36.9566 30.4855 37.1619 30.5263 37.3693 30.5262H60.5273C60.7347 30.5263 60.94 30.4855 61.1316 30.4061C61.3232 30.3268 61.4973 30.2105 61.6439 30.0639C61.7905 29.9173 61.9068 29.7432 61.9861 29.5516C62.0655 29.36 62.1063 29.1547 62.1062 28.9473C62.1063 28.74 62.0655 28.5346 61.9861 28.343C61.9068 28.1514 61.7905 27.9774 61.6439 27.8307C61.4973 27.6841 61.3232 27.5678 61.1316 27.4885C60.94 27.4092 60.7347 27.3684 60.5273 27.3684H37.3693ZM25.7904 43.1579H59.4746C60.3468 43.1579 61.0535 42.451 61.0535 41.579C61.0535 40.7069 60.3468 40 59.4746 40H25.7904C24.9181 40 24.2115 40.7069 24.2115 41.579C24.2115 42.451 24.9183 43.1579 25.7904 43.1579ZM72.106 18.9475H25.7904C25.583 18.9475 25.3777 18.9883 25.1861 19.0676C24.9945 19.1469 24.8204 19.2632 24.6738 19.4098C24.5272 19.5565 24.4109 19.7305 24.3316 19.9221C24.2522 20.1137 24.2114 20.3191 24.2115 20.5264C24.2114 20.7338 24.2522 20.9391 24.3316 21.1307C24.4109 21.3223 24.5272 21.4964 24.6738 21.643C24.8204 21.7896 24.9945 21.9059 25.1861 21.9852C25.3777 22.0646 25.583 22.1054 25.7904 22.1053H72.106C72.3134 22.1054 72.5187 22.0646 72.7103 21.9852C72.9019 21.9059 73.076 21.7896 73.2226 21.643C73.3692 21.4964 73.4855 21.3223 73.5648 21.1307C73.6442 20.9391 73.685 20.7338 73.6849 20.5264C73.685 20.3191 73.6441 20.1137 73.5648 19.9222C73.4855 19.7306 73.3691 19.5565 73.2225 19.4099C73.0759 19.2633 72.9018 19.147 72.7103 19.0676C72.5187 18.9883 72.3134 18.9475 72.106 18.9475ZM72.106 48.4211H70.0007C69.7934 48.4211 69.5881 48.4619 69.3965 48.5413C69.2049 48.6206 69.0309 48.7369 68.8842 48.8835C68.7376 49.0302 68.6213 49.2042 68.542 49.3958C68.4626 49.5874 68.4218 49.7927 68.4218 50C68.4218 50.2074 68.4626 50.4127 68.542 50.6043C68.6213 50.7959 68.7376 50.9699 68.8842 51.1166C69.0309 51.2632 69.2049 51.3795 69.3965 51.4588C69.5881 51.5382 69.7934 51.579 70.0007 51.579H72.106C72.3134 51.579 72.5187 51.5382 72.7103 51.4588C72.9018 51.3795 73.0759 51.2632 73.2225 51.1166C73.3691 50.9699 73.4855 50.7959 73.5648 50.6043C73.6441 50.4127 73.685 50.2074 73.6849 50C73.685 49.7927 73.6441 49.5874 73.5648 49.3958C73.4855 49.2042 73.3691 49.0302 73.2225 48.8835C73.0759 48.7369 72.9018 48.6206 72.7103 48.5413C72.5187 48.4619 72.3134 48.4211 72.106 48.4211Z" fill="#57AF7D"/>
</g>
<defs>
<clipPath id="clip0_2001_154">
<rect width="100" height="100" fill="white"/>
</clipPath>
</defs>
</svg>
