<svg width="98" height="100" viewBox="0 0 98 100" fill="none" xmlns="http://www.w3.org/2000/svg">
<path d="M93.0516 62.8922C93.736 65.3168 94.102 67.8748 94.102 70.5186C94.102 85.9918 81.5584 98.5352 66.0854 98.5352C57.7156 98.5352 50.203 94.865 45.0694 89.0461M54.5864 23.2346C53.4266 22.665 51.9864 22.8598 51.0217 23.8244L47.7067 27.1395C46.8073 28.0389 45.4453 28.3104 44.2823 27.7951C43.9209 27.635 43.5551 27.4836 43.1846 27.3412C41.9971 26.8846 41.2264 25.7279 41.2264 24.4559V19.7674C41.2264 18.052 39.8358 16.6611 38.1203 16.6611H31.0444C29.3289 16.6611 27.9383 18.0518 27.9383 19.7674V24.4559C27.9383 25.7281 27.1674 26.8846 25.9801 27.3412C25.6098 27.4836 25.2438 27.635 24.8824 27.7951C23.7194 28.3105 22.3574 28.0391 21.458 27.1395L18.1432 23.8242C16.9301 22.6113 14.9635 22.6113 13.7504 23.8242L8.74709 28.8277C7.53401 30.0406 7.53401 32.0074 8.74709 33.2205L12.0621 36.5355C12.9615 37.435 13.233 38.7969 12.7178 39.96C12.5576 40.3213 12.4063 40.6871 12.2639 41.0576C11.8073 42.2451 10.6506 43.0158 9.37854 43.0158H4.68967C2.97424 43.0158 1.58362 44.4064 1.58362 46.1219V53.1979C1.58362 54.9133 2.97424 56.3039 4.68967 56.3039H9.37815C10.6504 56.3039 11.8069 57.0748 12.2635 58.2621C12.4055 58.6318 12.5569 58.9978 12.7174 59.3598C13.2328 60.5229 12.9614 61.8846 12.0617 62.7842L8.7467 66.0992C7.53362 67.3123 7.53362 69.2789 8.7467 70.492L13.75 75.4955C14.9631 76.7084 16.9297 76.7084 18.1428 75.4955L21.4578 72.1805C22.3573 71.2811 23.7192 71.0096 24.8823 71.5248C25.2436 71.685 25.6094 71.8363 25.9799 71.9787C27.1674 72.4354 27.9381 73.592 27.9381 74.8641V79.5525C27.9381 81.268 29.3287 82.6588 31.0442 82.6588H38.1201C39.8356 82.6588 41.2262 81.2682 41.2262 79.5525V74.8641C41.2262 73.5918 41.9971 72.4354 43.1844 71.9787C43.5547 71.8363 43.9207 71.685 44.2821 71.5248C45.3414 71.0553 46.5647 71.2406 47.4543 71.9568" stroke="#57AF7D" stroke-width="3" stroke-miterlimit="10" stroke-linecap="round" stroke-linejoin="round"/>
<path d="M21.0891 53.0777C22.6127 59.1113 28.0754 63.5773 34.5823 63.5773C42.2686 63.5773 48.4999 57.3463 48.4999 49.6598C48.4999 41.9732 42.2688 35.7422 34.5825 35.7422C28.0756 35.7422 22.6129 40.2082 21.0893 46.2418" stroke="#57AF7D" stroke-width="3" stroke-miterlimit="10" stroke-linecap="round" stroke-linejoin="round"/>
<path d="M34.5825 56.4507C38.333 56.4507 41.3735 53.4102 41.3735 49.6597C41.3735 45.9091 38.333 42.8687 34.5825 42.8687C30.8319 42.8687 27.7914 45.9091 27.7914 49.6597C27.7914 53.4102 30.8319 56.4507 34.5825 56.4507Z" stroke="#57AF7D" stroke-width="3" stroke-miterlimit="10" stroke-linecap="round" stroke-linejoin="round"/>
<path d="M79.7776 18.9351H66.436C66.2646 18.9351 66.095 18.9013 65.9367 18.8357C65.7784 18.7702 65.6346 18.6741 65.5134 18.5529C65.3923 18.4318 65.2962 18.2879 65.2306 18.1297C65.165 17.9714 65.1313 17.8017 65.1313 17.6304V10.0046C65.1313 5.25283 61.2524 1.41494 56.5008 1.46533C55.9912 1.47079 55.5043 1.67705 55.1459 2.03933C54.7875 2.40161 54.5864 2.89066 54.5864 3.4003V8.39854M78.2057 56.2985H81.5854M54.5864 15.2345V45.7819C54.5864 48.8987 55.9434 51.6974 58.0973 53.6231" stroke="#57AF7D" stroke-width="3" stroke-miterlimit="10" stroke-linecap="round" stroke-linejoin="round"/>
<path d="M56.0364 86.2738C58.9381 88.1285 62.3862 89.2037 66.0854 89.2037C76.4049 89.2037 84.7707 80.8381 84.7707 70.5184C84.7707 60.1986 76.4051 51.833 66.0854 51.833C55.7656 51.833 47.4 60.1986 47.4 70.5184C47.4 74.6676 48.7533 78.5004 51.0414 81.6012" stroke="#57AF7D" stroke-width="3" stroke-miterlimit="10" stroke-linecap="round" stroke-linejoin="round"/>
<path d="M56.8489 69.6163L63.9161 77.6964L75.3219 64.7872M92.9536 51.628C92.9536 49.0485 90.8626 46.9575 88.2831 46.9575H81.5852C79.0057 46.9575 76.9147 49.0485 76.9147 51.628C76.9147 54.2075 79.0057 56.2985 81.5852 56.2985H88.2831C90.8626 56.2983 92.9536 54.2073 92.9536 51.628Z" stroke="#57AF7D" stroke-width="3" stroke-miterlimit="10" stroke-linecap="round" stroke-linejoin="round"/>
<path d="M91.7461 37.6169H79.7776C77.1981 37.6169 75.1071 39.7079 75.1071 42.2874C75.1071 44.8669 77.1981 46.9579 79.7776 46.9579H91.7461C94.3256 46.9579 96.4166 44.8669 96.4166 42.2874C96.4166 39.7079 94.3256 37.6169 91.7461 37.6169ZM91.7461 18.9351H79.7776C77.1981 18.9351 75.1071 21.0261 75.1071 23.6056C75.1071 26.1851 77.1981 28.2761 79.7776 28.2761H91.7461C94.3256 28.2761 96.4166 26.1851 96.4166 23.6056C96.4166 21.0261 94.3256 18.9351 91.7461 18.9351Z" stroke="#57AF7D" stroke-width="3" stroke-miterlimit="10" stroke-linecap="round" stroke-linejoin="round"/>
<path d="M91.7461 28.2759H79.7776C77.1981 28.2759 75.1071 30.3669 75.1071 32.9464C75.1071 35.5259 77.1981 37.6169 79.7776 37.6169H91.7461C94.3256 37.6169 96.4166 35.5259 96.4166 32.9464C96.4166 30.3669 94.3256 28.2759 91.7461 28.2759Z" stroke="#57AF7D" stroke-width="3" stroke-miterlimit="10" stroke-linecap="round" stroke-linejoin="round"/>
</svg>
