<svg width="100" height="100" viewBox="0 0 100 100" fill="none" xmlns="http://www.w3.org/2000/svg">
<path d="M41.0859 87.4778L40.792 88.9128L41.0752 87.4762C40.8865 87.4391 40.6923 87.4394 40.5037 87.4773C40.3151 87.5152 40.1359 87.5899 39.9762 87.697C39.8165 87.8042 39.6794 87.9417 39.5729 88.1019C39.4663 88.262 39.3923 88.4415 39.3552 88.6302C39.318 88.819 39.3184 89.0131 39.3562 89.2017C39.3941 89.3903 39.4688 89.5695 39.5759 89.7293C39.6831 89.889 39.8207 90.026 39.9808 90.1326C40.1409 90.2391 40.3205 90.3131 40.5092 90.3503C40.5113 90.351 40.5334 90.3548 40.5357 90.3555C40.6289 90.3731 40.7213 90.3823 40.8127 90.3823C41.5015 90.3823 42.1158 89.894 42.2492 89.1921C42.4019 88.3971 41.8808 87.6296 41.0857 87.4778H41.0859ZM52.2857 87.9485L52.4314 89.4055L52.281 87.9493C52.0897 87.9689 51.9041 88.026 51.7349 88.1174C51.5657 88.2088 51.4161 88.3326 51.2948 88.4818C51.1734 88.631 51.0827 88.8027 51.0277 88.987C50.9727 89.1713 50.9546 89.3646 50.9744 89.5559C50.994 89.7473 51.0511 89.933 51.1424 90.1023C51.2337 90.2716 51.3576 90.4213 51.5068 90.5427C51.656 90.6642 51.8276 90.755 52.012 90.8101C52.1963 90.8652 52.3897 90.8834 52.581 90.8637L52.6215 90.8591C53.4224 90.7653 53.991 90.0426 53.9017 89.2417C53.8117 88.4413 53.0869 87.8647 52.2857 87.9485ZM46.6781 88.1331L46.6566 88.1323C45.8496 88.0958 45.1752 88.7229 45.1385 89.5307C45.1027 90.3387 45.7375 91.0231 46.5453 91.0598C46.7375 91.0686 46.9295 91.0395 47.1104 90.9741C47.2913 90.9086 47.4576 90.8082 47.5996 90.6784C47.7417 90.5487 47.8568 90.3922 47.9384 90.218C48.0199 90.0438 48.0664 89.8552 48.075 89.663C48.0838 89.4708 48.0546 89.2788 47.9891 89.0979C47.9236 88.9169 47.8232 88.7507 47.6935 88.6087C47.5638 88.4666 47.4073 88.3515 47.2331 88.2699C47.0589 88.1883 46.8703 88.1418 46.6781 88.1331ZM35.675 85.9893L35.6566 85.9823C34.8953 85.7093 34.0652 86.1075 33.7922 86.869C33.5182 87.6303 33.9226 88.4725 34.684 88.7466C35.0496 88.8777 35.4524 88.8583 35.8038 88.6926C36.1552 88.527 36.4264 88.2285 36.5578 87.863C36.6229 87.682 36.6518 87.4899 36.6427 87.2978C36.6336 87.1057 36.5867 86.9172 36.5047 86.7432C36.4227 86.5692 36.3072 86.413 36.1649 86.2837C36.0225 86.1543 35.856 86.0543 35.675 85.9893ZM57.814 86.9231L58.1748 88.343L57.8096 86.9247C57.464 87.0133 57.1626 87.225 56.962 87.52C56.7614 87.815 56.6754 88.1731 56.7201 88.527C56.7647 88.8809 56.937 89.2064 57.2046 89.4424C57.4722 89.6783 57.8167 89.8085 58.1734 89.8085C58.2945 89.8085 58.4176 89.7932 58.5404 89.7612C58.5463 89.7596 58.5724 89.7528 58.5793 89.7514C59.3566 89.5391 59.8113 88.7405 59.6039 87.9614C59.3963 87.1833 58.5945 86.7202 57.814 86.9231ZM63.1096 85.076L63.6902 86.4204L63.1051 85.0776C62.749 85.2328 62.4691 85.5231 62.3269 85.8845C62.1847 86.246 62.1918 86.6491 62.3467 87.0053C62.4606 87.2671 62.6485 87.4899 62.8874 87.6464C63.1262 87.8028 63.4055 87.8861 63.691 87.886C63.8855 87.886 64.0846 87.8462 64.2746 87.7639C64.2807 87.7608 64.3043 87.7508 64.3105 87.7479C65.0451 87.4159 65.3693 86.5553 65.0414 85.8192C64.7133 85.0821 63.848 84.7518 63.1098 85.076H63.1096ZM30.0797 18.3007C30.3146 18.3007 30.5535 18.244 30.7738 18.1266C30.9436 18.0361 31.0938 17.913 31.216 17.7643C31.3381 17.6157 31.4298 17.4444 31.4858 17.2604C31.5417 17.0763 31.5609 16.883 31.5422 16.6915C31.5234 16.5 31.4671 16.3141 31.3765 16.1444C31.2861 15.9747 31.1631 15.8245 31.0145 15.7023C30.866 15.5802 30.6948 15.4885 30.5108 15.4325C30.3268 15.3765 30.1336 15.3574 29.9422 15.3761C29.7508 15.3948 29.565 15.4511 29.3953 15.5417L29.3777 15.5508C28.6644 15.9317 28.4027 16.8143 28.7834 17.5284C29.0459 18.0214 29.5555 18.3007 30.0797 18.3007ZM13.1355 34.6618C13.3059 34.7513 13.4923 34.8064 13.684 34.8239C13.8757 34.8413 14.0689 34.8208 14.2527 34.7634C14.4364 34.7061 14.6071 34.6131 14.7548 34.4898C14.9026 34.3664 15.0246 34.2151 15.1139 34.0446L15.1398 33.9934C15.2248 33.8208 15.2749 33.6331 15.2873 33.4411C15.2997 33.2491 15.2742 33.0565 15.2121 32.8744C15.15 32.6923 15.0527 32.5242 14.9256 32.3797C14.7985 32.2353 14.6442 32.1173 14.4715 32.0325C14.1254 31.8619 13.7259 31.8349 13.36 31.9574C12.9941 32.0799 12.6913 32.3419 12.5176 32.6864C12.3379 33.0304 12.3021 33.4316 12.4179 33.8019C12.5338 34.1723 12.7919 34.4815 13.1355 34.6618ZM11.0732 40.1725C11.2289 40.2253 11.3869 40.2503 11.5433 40.2503C11.8496 40.25 12.148 40.1538 12.3967 39.9752C12.6455 39.7966 12.8321 39.5446 12.9303 39.2546L12.9494 39.1966C13.006 39.0127 13.0258 38.8195 13.0077 38.628C12.9895 38.4366 12.9339 38.2505 12.8438 38.0806C12.7537 37.9106 12.6311 37.76 12.4828 37.6375C12.3345 37.515 12.1636 37.4229 11.9797 37.3665C11.6113 37.253 11.2131 37.2893 10.8713 37.4675C10.5295 37.6457 10.2718 37.9515 10.1539 38.3184C10.0303 38.6862 10.0578 39.088 10.2301 39.4356C10.4025 39.7832 10.7057 40.0482 11.0732 40.1725ZM16.0254 29.537C16.1809 29.6503 16.3572 29.7319 16.5442 29.777C16.7313 29.8222 16.9254 29.83 17.1154 29.8C17.3055 29.77 17.4878 29.7029 17.6519 29.6024C17.816 29.5019 17.9586 29.37 18.0717 29.2143L18.0908 29.1884C18.5607 28.5307 18.4074 27.6182 17.7514 27.1483C17.0943 26.6776 16.1789 26.8286 15.7074 27.4848L16.8877 28.353L15.7027 27.4909C15.4742 27.805 15.3799 28.1971 15.4404 28.5808C15.501 28.9645 15.7113 29.3084 16.0254 29.537ZM25.1068 21.4643C25.4142 21.4643 25.724 21.3675 25.9889 21.1661C26.6418 20.6885 26.783 19.7721 26.3053 19.1192C26.0758 18.8058 25.7312 18.5964 25.3474 18.537C24.9635 18.4776 24.5718 18.5732 24.2584 18.8026L24.2219 18.8292C23.5779 19.3182 23.4496 20.2391 23.9387 20.8839C24.0752 21.0643 24.2517 21.2107 24.4544 21.3114C24.6571 21.4121 24.8805 21.4645 25.1068 21.4643ZM9.76561 62.3878C9.85753 62.6867 10.0429 62.9484 10.2944 63.1343C10.546 63.3202 10.8505 63.4206 11.1633 63.4208C11.3058 63.4208 11.4517 63.3993 11.5951 63.3551C12.3642 63.1194 12.7982 62.3046 12.5678 61.534C12.4617 61.1637 12.2139 60.8501 11.8782 60.6612C11.5425 60.4722 11.1458 60.4232 10.7742 60.5247C10.3994 60.627 10.0806 60.874 9.8879 61.2113C9.69517 61.5486 9.6443 61.9487 9.74647 62.3235L9.76561 62.3878ZM20.6816 25.3249C21.0625 25.3249 21.4433 25.1776 21.7308 24.8846C22.3021 24.3124 22.3021 23.3846 21.7308 22.8133C21.5948 22.6773 21.4333 22.5693 21.2555 22.4957C21.0777 22.422 20.8871 22.3841 20.6947 22.3841C20.5023 22.3841 20.3117 22.422 20.134 22.4957C19.9562 22.5693 19.7946 22.6773 19.6586 22.8133L19.6342 22.8378C19.0681 23.4153 19.0795 24.3415 19.6572 24.9075C19.9306 25.1759 20.2985 25.3259 20.6816 25.3249ZM11.3848 56.0012C11.2816 55.2053 10.5547 54.6409 9.7578 54.7356C9.37219 54.7819 9.02073 54.9794 8.78057 55.2846C8.54042 55.5898 8.43122 55.9779 8.47694 56.3635L8.48534 56.4221C8.59217 57.1501 9.21698 57.6721 9.93202 57.6721C10.0021 57.6721 10.0738 57.6667 10.1463 57.6559C10.9435 57.5399 11.4969 56.7985 11.3848 56.0012ZM9.54432 51.8057C9.55956 51.8057 9.5742 51.8065 9.58866 51.8065C9.96959 51.8063 10.3354 51.6576 10.6086 51.3922C10.8818 51.1267 11.0408 50.7652 11.0519 50.3844L11.0535 50.3219C11.0535 49.9334 10.8992 49.5609 10.6245 49.2861C10.3497 49.0114 9.97716 48.8571 9.58866 48.8571C9.2034 48.8569 8.8336 49.0086 8.5594 49.2792C8.2852 49.5498 8.1287 49.9176 8.12381 50.3028C8.11346 50.6903 8.25717 51.0661 8.52345 51.3479C8.78972 51.6296 9.15684 51.7942 9.54432 51.8057ZM9.86561 45.9311C10.2481 45.9994 10.6421 45.913 10.9609 45.6909C11.2798 45.4689 11.4975 45.1294 11.5662 44.7469C11.5701 44.7257 11.573 44.7044 11.576 44.6829C11.6041 44.4926 11.5944 44.2986 11.5475 44.112C11.5006 43.9254 11.4173 43.7499 11.3026 43.5955C11.1878 43.4412 11.0437 43.3109 10.8785 43.2123C10.7134 43.1136 10.5304 43.0485 10.34 43.0206C9.54901 42.903 8.80819 43.4469 8.68065 44.2358C8.54198 45.0307 9.07128 45.7885 9.86561 45.9311ZM78.9648 29.9995C79.0992 30.195 79.2793 30.3547 79.4894 30.4649C79.6995 30.5751 79.9333 30.6325 80.1705 30.6319C80.4564 30.6319 80.7465 30.5479 80.9998 30.3733C81.6658 29.9155 81.8344 29.003 81.3767 28.3362L80.159 29.151L81.3721 28.3294C81.2641 28.1701 81.1258 28.0337 80.9652 27.9279C80.8045 27.822 80.6245 27.7489 80.4356 27.7126C80.2466 27.6764 80.0524 27.6777 79.8639 27.7165C79.6755 27.7553 79.4965 27.8308 79.3373 27.9387C79.178 28.0467 79.0416 28.185 78.9358 28.3456C78.83 28.5063 78.7568 28.6863 78.7206 28.8752C78.6843 29.0642 78.6856 29.2584 78.7244 29.4468C78.7632 29.6353 78.8387 29.8143 78.9467 29.9735L78.9648 29.9995ZM86.4457 44.7401C86.2545 44.7615 86.0694 44.8205 85.9009 44.9135C85.7325 45.0065 85.5841 45.1318 85.4641 45.2822C85.3441 45.4327 85.255 45.6053 85.2018 45.7902C85.1485 45.9751 85.1323 46.1686 85.1539 46.3598L85.1617 46.4233C85.2169 46.8079 85.4226 47.1548 85.7334 47.3878C86.0443 47.6208 86.4349 47.7209 86.8195 47.6661C87.2008 47.6114 87.5451 47.4088 87.7781 47.1021C88.0112 46.7954 88.1141 46.4094 88.0646 46.0274C87.9723 45.2255 87.2443 44.6501 86.4455 44.7403L86.4457 44.7401ZM83.9736 40.6065L83.9799 40.6257C84.069 40.9292 84.254 41.1957 84.5071 41.3853C84.7603 41.575 85.068 41.6776 85.3844 41.6778C85.5211 41.6778 85.6598 41.6587 85.7978 41.6174C85.9825 41.5632 86.1546 41.4732 86.3044 41.3524C86.4542 41.2317 86.5787 41.0826 86.6709 40.9137C86.7631 40.7448 86.8211 40.5594 86.8416 40.3681C86.8621 40.1768 86.8447 39.9833 86.7904 39.7987L86.7844 39.7796C86.7302 39.5949 86.6402 39.4228 86.5194 39.2729C86.3986 39.1231 86.2495 38.9986 86.0806 38.9065C85.9116 38.8144 85.7262 38.7565 85.5348 38.7361C85.3435 38.7157 85.15 38.7333 84.9654 38.7878C84.5927 38.8974 84.2788 39.1507 84.0928 39.4917C83.9068 39.8328 83.864 40.2338 83.9736 40.6065ZM81.9047 35.1294C82.0261 35.3762 82.2143 35.584 82.4478 35.7294C82.6813 35.8748 82.9509 35.9518 83.226 35.9518C83.442 35.9518 83.6615 35.9038 83.8685 35.8014C84.5939 35.4446 84.8953 34.5717 84.5375 33.8454L83.21 34.4641L84.5361 33.8423C84.4545 33.6681 84.3393 33.5118 84.1972 33.3821C84.0551 33.2525 83.8889 33.1521 83.708 33.0867C83.5272 33.0214 83.3352 32.9923 83.143 33.0011C82.9509 33.0099 82.7624 33.0565 82.5883 33.1382C82.2365 33.303 81.9646 33.6008 81.8323 33.9661C81.7001 34.3313 81.7184 34.7342 81.8832 35.086L81.9047 35.1294ZM75.2754 25.4249C75.4115 25.5643 75.5743 25.675 75.7539 25.7505C75.9336 25.826 76.1266 25.8647 76.3215 25.8643C76.6914 25.8643 77.0615 25.7255 77.3469 25.4454C77.622 25.1758 77.7799 24.8086 77.7861 24.4234C77.7924 24.0383 77.6466 23.6661 77.3803 23.3878C77.2496 23.2467 77.0923 23.1327 76.9176 23.0523C76.7428 22.972 76.554 22.9268 76.3618 22.9195C76.1695 22.9121 75.9778 22.9427 75.7974 23.0095C75.617 23.0762 75.4515 23.1779 75.3104 23.3086C75.1693 23.4393 75.0554 23.5965 74.975 23.7712C74.8947 23.946 74.8495 24.1349 74.8422 24.3271C74.8348 24.5193 74.8654 24.711 74.9321 24.8914C74.9989 25.0718 75.1005 25.2373 75.2312 25.3784L75.2754 25.4249ZM86.9219 50.8567C86.1168 50.836 85.4432 51.4671 85.4148 52.2719C85.4058 52.4699 85.437 52.6676 85.5066 52.8531C85.5761 53.0386 85.6826 53.2081 85.8195 53.3513C85.9564 53.4945 86.121 53.6085 86.3032 53.6863C86.4854 53.7641 86.6815 53.8041 86.8797 53.804C87.6512 53.804 88.2972 53.2005 88.3406 52.42L88.343 52.3596C88.366 51.5516 87.7297 50.8803 86.9217 50.8567H86.9219ZM65.9082 18.2319L65.9432 18.2508C66.1533 18.363 66.3878 18.4217 66.626 18.4217C66.8908 18.4216 67.1506 18.3496 67.3777 18.2135C67.6049 18.0774 67.7909 17.8823 67.916 17.6489C68.2976 16.9387 68.0291 16.0507 67.3211 15.6661L66.6121 16.9477L67.3164 15.663C67.1477 15.5705 66.9624 15.5122 66.7711 15.4913C66.5799 15.4704 66.3864 15.4875 66.2017 15.5414C66.017 15.5953 65.8448 15.6851 65.6948 15.8056C65.5448 15.926 65.42 16.0749 65.3275 16.2436C64.939 16.9524 65.1986 17.8434 65.908 18.2319H65.9082ZM70.8625 21.4446L70.8855 21.4622C71.1397 21.6555 71.4504 21.76 71.7697 21.7596C72.0765 21.7597 72.3757 21.6635 72.6249 21.4845C72.8741 21.3056 73.0609 21.0529 73.1588 20.7621C73.2567 20.4713 73.2609 20.1571 73.1708 19.8638C73.0806 19.5705 72.9006 19.313 72.6562 19.1274L72.6461 19.1206C72.4935 19.0034 72.3194 18.9174 72.1337 18.8676C71.9479 18.8177 71.7541 18.8049 71.5634 18.8299C71.3727 18.855 71.1888 18.9173 71.0222 19.0134C70.8555 19.1095 70.7095 19.2375 70.5924 19.3901C70.3558 19.6984 70.2514 20.088 70.302 20.4732C70.3526 20.8585 70.5541 21.2079 70.8623 21.4446H70.8625Z" fill="#57AF7D"/>
<path d="M99.0959 73.0332L92.2195 66.1445C91.9328 65.8556 91.5915 65.6265 91.2154 65.4706C90.8394 65.3146 90.4362 65.2348 90.0291 65.2359C89.6222 65.2349 89.2191 65.3146 88.8432 65.4706C88.4674 65.6266 88.1263 65.8557 87.8397 66.1445L87.6801 66.3041L87.2283 65.8523C86.679 65.3032 86.2432 64.6512 85.9459 63.9336C85.9204 63.8398 85.8854 63.7488 85.8414 63.6621C85.6147 63.0232 85.4994 62.3502 85.5004 61.6723V59.7236C85.7115 59.8352 85.9468 59.8933 86.1855 59.893C86.5279 59.8925 86.8593 59.7721 87.1221 59.5528C87.385 59.3334 87.5627 59.0289 87.6244 58.6922C87.6781 58.4196 87.6533 58.1374 87.5527 57.8785C87.4521 57.6195 87.28 57.3945 87.0563 57.2297C86.8327 57.0649 86.5668 56.967 86.2897 56.9476C86.0126 56.9282 85.7356 56.9879 85.4912 57.1199C85.4012 55.0385 84.5504 53.0945 83.0703 51.6113L76.3992 44.9287C74.9023 43.4295 72.9119 42.6041 70.7947 42.6041C69.1561 42.6041 67.5949 43.1008 66.2781 44.0201L65.5701 43.3082V26.5541C65.5705 24.5357 64.837 22.5861 63.5063 21.0686C62.5595 19.9894 62.0377 18.6026 62.0385 17.167V15.9393H62.1391C63.8467 15.9393 65.2359 14.55 65.2359 12.8418V3.09766C65.2359 1.38926 63.8467 0 62.1391 0H34.7764C33.0689 0 31.6795 1.38926 31.6795 3.09766V12.8418C31.6795 14.55 33.0689 15.9395 34.7764 15.9395H35.0021V16.5816C35.0021 18.1609 34.3879 19.6457 33.2732 20.7619L30.3201 23.7205C28.7529 25.2908 27.89 27.3773 27.89 29.5975V39.048C27.8893 40.2885 28.1807 41.5117 28.7406 42.6186C26.7982 42.7307 24.9879 43.5402 23.6008 44.9287L16.9297 51.6113C15.3625 53.1816 14.4996 55.2689 14.4996 57.4883V61.6723C14.4996 63.2516 13.8863 64.7361 12.7717 65.8523L12.3252 66.2996C12.323 66.301 12.3213 66.3025 12.3199 66.3041L12.1613 66.1445C11.8745 65.8556 11.5332 65.6265 11.1572 65.4706C10.7812 65.3146 10.378 65.2348 9.9709 65.2359C9.56394 65.2348 9.16081 65.3146 8.78493 65.4706C8.40904 65.6265 8.06788 65.8556 7.78125 66.1445L0.904101 73.0332C-0.301367 74.2408 -0.301367 76.2062 0.904101 77.4141L3.25937 79.7723C3.39521 79.9085 3.55655 80.0165 3.73417 80.0904C3.9118 80.1642 4.10222 80.2023 4.29457 80.2025C4.48692 80.2027 4.67743 80.165 4.85521 80.0915C5.03298 80.0181 5.19454 79.9103 5.33066 79.7744C5.46684 79.6385 5.57491 79.477 5.64869 79.2993C5.72247 79.1216 5.76051 78.931 5.76066 78.7386C5.7608 78.5462 5.72304 78.3556 5.64953 78.1778C5.57602 77.9999 5.4682 77.8383 5.33223 77.7021L2.97773 75.3434C2.94589 75.3115 2.928 75.2683 2.928 75.2232C2.928 75.1782 2.94589 75.135 2.97773 75.1031L9.85488 68.2145C9.87013 68.1991 9.88825 68.187 9.90821 68.1787C9.92817 68.1704 9.94958 68.1661 9.97119 68.1661C9.99281 68.1661 10.0142 68.1704 10.0342 68.1787C10.0541 68.187 10.0723 68.1991 10.0875 68.2145L11.2832 69.4123H11.2838L27.6084 85.765L29.4373 87.5977C29.5037 87.6641 29.5037 87.7715 29.4373 87.8379L22.5609 94.7266C22.5456 94.742 22.5275 94.7542 22.5074 94.7626C22.4874 94.7709 22.4659 94.7752 22.4441 94.7752C22.4224 94.7752 22.4009 94.7709 22.3809 94.7626C22.3608 94.7542 22.3426 94.742 22.3273 94.7266L9.47969 81.8564C9.34385 81.7202 9.1825 81.6121 9.00485 81.5383C8.82721 81.4644 8.63676 81.4263 8.44439 81.4261C8.25202 81.4259 8.06149 81.4637 7.8837 81.5371C7.7059 81.6106 7.54433 81.7184 7.4082 81.8543C7.27197 81.9902 7.16385 82.1516 7.09 82.3293C7.01616 82.507 6.97804 82.6975 6.97782 82.8899C6.9776 83.0824 7.01529 83.273 7.08873 83.4508C7.16218 83.6287 7.26994 83.7904 7.40586 83.9266L20.2545 96.7965C20.8389 97.3824 21.6172 97.7051 22.4449 97.7051C22.8518 97.7061 23.2549 97.6263 23.6307 97.4703C24.0066 97.3143 24.3477 97.0853 24.6344 96.7965L31.5109 89.9078C32.7164 88.7008 32.7164 86.7355 31.5109 85.5277L31.4361 85.4531L32.3037 84.584C33.3156 83.569 34.663 82.9581 36.0932 82.8658C38.1061 82.7355 40.0024 81.8757 41.4268 80.4475L47.7439 74.1166C49.5658 73.6381 50.9842 72.1543 51.3695 70.2957C52.0382 70.6143 52.7695 70.7793 53.5102 70.7787C56.2652 70.7787 58.5068 68.5348 58.5068 65.776V62.2979C59.1555 62.5943 59.8604 62.7475 60.5736 62.7471C63.3285 62.7471 65.5693 60.5033 65.5693 57.7445V47.4617L70.0752 51.9897C70.2112 52.1266 70.373 52.2353 70.5512 52.3093C70.7295 52.3833 70.9207 52.4212 71.1137 52.4209C71.3056 52.4212 71.4956 52.3836 71.673 52.3105C71.8504 52.2373 72.0116 52.1298 72.1475 51.9943C72.4227 51.7202 72.5779 51.348 72.5787 50.9595C72.5795 50.571 72.426 50.1982 72.152 49.9229L68.3953 46.1479C69.1303 45.7434 69.9558 45.5321 70.7947 45.5338C72.1283 45.5338 73.3826 46.0541 74.3256 46.9994L80.9967 53.6811C82.0113 54.6982 82.5707 56.0502 82.5707 57.4883V61.6723C82.5707 64.0336 83.4885 66.2529 85.1547 67.9223L85.6094 68.3777L83.4846 70.5062L70.6338 83.3793L69.9174 82.6615C69.9096 82.6545 69.9027 82.6469 69.8951 82.64L69.7693 82.5135C68.2541 80.9952 66.2374 80.0811 64.0969 79.9424C62.7929 79.8573 61.5647 79.2999 60.6422 78.3744L55.8289 73.5871C55.6925 73.4514 55.5307 73.3438 55.3527 73.2707C55.1748 73.1975 54.9841 73.16 54.7917 73.1605C54.5993 73.161 54.4088 73.1994 54.2312 73.2735C54.0536 73.3476 53.8924 73.456 53.7566 73.5924C53.1867 74.166 53.1891 75.0938 53.7629 75.6637L58.5732 80.4475C59.9978 81.8759 61.8945 82.7357 63.9076 82.8658C65.3374 82.9583 66.6844 83.5689 67.6963 84.5832L67.7674 84.6543C67.8055 84.6977 67.8459 84.7383 67.8885 84.7764L68.5639 85.4521L68.4891 85.5277C67.2836 86.7355 67.2836 88.7002 68.4891 89.9078L75.3654 96.7965C75.9506 97.3824 76.7281 97.7051 77.5559 97.7051C77.9629 97.7061 78.3661 97.6263 78.7421 97.4703C79.1181 97.3144 79.4595 97.0853 79.7463 96.7965L99.0959 77.4131C100.301 76.2055 100.301 74.2408 99.0959 73.0332ZM86.4822 58.4672L86.4549 58.4625L86.1877 58.4084L86.4822 58.4672ZM39.3533 78.3775C38.4323 79.3014 37.2059 79.8578 35.9041 79.9424C33.7632 80.0809 31.7462 80.995 30.2307 82.5135L29.3662 83.3793L28.5881 82.5996C28.5783 82.5898 28.5684 82.5791 28.5584 82.5699L14.3904 68.3777L14.8453 67.9223C16.5115 66.2529 17.4293 64.0336 17.4293 61.6723V57.4883C17.4293 56.0502 17.9879 54.6982 19.0033 53.6812L25.6744 46.9994C26.6174 46.0541 27.8717 45.5338 29.2053 45.5338C30.0607 45.5338 30.883 45.7488 31.6123 46.1525L27.8496 49.9215C27.5752 50.1964 27.4212 50.569 27.4215 50.9575C27.4218 51.3459 27.5763 51.7183 27.8512 51.9928C27.9871 52.1287 28.1485 52.2365 28.3261 52.3099C28.5037 52.3834 28.6941 52.4211 28.8863 52.4209C29.0789 52.4211 29.2697 52.3833 29.4477 52.3095C29.6256 52.2358 29.7872 52.1276 29.9232 51.9912L34.4178 47.4885V65.776C34.4178 68.5348 36.6592 70.7787 39.4143 70.7787C40.1908 70.7787 40.9264 70.6002 41.5824 70.2826C41.8801 71.7346 42.8078 72.9584 44.065 73.6557L39.3533 78.3775ZM62.6404 57.7453C62.6404 58.8883 61.7127 59.8184 60.5736 59.8184C59.4338 59.8184 58.5068 58.8883 58.5068 57.7453V41.4055C58.5068 41.017 58.3525 40.6444 58.0778 40.3697C57.8031 40.095 57.4305 39.9406 57.042 39.9406C56.6535 39.9406 56.2809 40.095 56.0062 40.3697C55.7315 40.6444 55.5771 41.017 55.5771 41.4055V65.7768C55.5771 66.9197 54.6502 67.849 53.5103 67.849C52.4871 67.849 51.6381 67.0998 51.474 66.1193V41.3889C51.4742 41.1331 51.4074 40.8818 51.2803 40.6599C51.1532 40.438 50.9702 40.2533 50.7495 40.1241C50.5288 39.9949 50.2781 39.9258 50.0224 39.9236C49.7667 39.9214 49.5149 39.9862 49.292 40.1115C49.057 40.2362 48.8604 40.4225 48.7233 40.6505C48.5862 40.8784 48.5138 41.1395 48.5139 41.4055V65.776C48.5139 65.9623 48.5244 66.1445 48.5443 66.3254V69.2772C48.5443 70.4201 47.6174 71.35 46.4775 71.35C45.3385 71.35 44.4115 70.4201 44.4115 69.2772V41.3711C44.4115 40.9825 44.2571 40.6098 43.9824 40.335C43.7076 40.0602 43.3349 39.9059 42.9463 39.9059C42.5577 39.9059 42.185 40.0602 41.9102 40.335C41.6354 40.6098 41.4811 40.9825 41.4811 41.3711V65.776C41.4811 66.9189 40.5541 67.849 39.415 67.849C38.2752 67.849 37.3482 66.9189 37.3482 65.776V38.5277C37.3482 38.1392 37.1939 37.7666 36.9192 37.4919C36.6445 37.2172 36.2719 37.0629 35.8834 37.0629C35.4949 37.0629 35.1223 37.2172 34.8476 37.4919C34.5729 37.7666 34.4186 38.1392 34.4186 38.5277V43.5676C34.2939 43.6075 34.1753 43.6643 34.066 43.7363C32.1715 43.0244 30.8197 41.1918 30.8197 39.048V29.5975C30.8197 28.1594 31.3789 26.8074 32.3936 25.7904L35.3471 22.8316C37.0141 21.1625 37.9318 18.943 37.9318 16.5816V15.9395H40.8768C41.2653 15.9395 41.6378 15.7851 41.9126 15.5104C42.1873 15.2357 42.3416 14.8631 42.3416 14.4746C42.3416 13.6652 41.6863 13.0098 40.8768 13.0098H34.7764C34.732 13.0096 34.6894 12.9919 34.6581 12.9604C34.6268 12.929 34.6092 12.8864 34.6092 12.842V3.09766C34.6092 3.00527 34.684 2.92969 34.7764 2.92969H62.1383C62.1828 2.92969 62.2256 2.94738 62.257 2.97888C62.2886 3.01038 62.3062 3.05311 62.3062 3.09766V12.8418C62.3062 12.935 62.2314 13.0098 62.1383 13.0098H47.7539C47.3654 13.0098 46.9928 13.1641 46.7181 13.4388C46.4434 13.7135 46.2891 14.0861 46.2891 14.4746C46.2891 14.8631 46.4434 15.2357 46.7181 15.5104C46.9928 15.7851 47.3654 15.9395 47.7539 15.9395H59.1088V17.167C59.1088 19.3154 59.8877 21.3867 61.3029 23.001C62.1653 23.9837 62.6407 25.2466 62.6404 26.5541V57.7453ZM97.0223 75.3434L77.6727 94.7266C77.6577 94.7424 77.6395 94.7549 77.6194 94.7633C77.5993 94.7717 77.5777 94.7758 77.5559 94.7754C77.5341 94.7757 77.5125 94.7715 77.4924 94.7631C77.4723 94.7547 77.4542 94.7423 77.4391 94.7266L70.5627 87.8379C70.5309 87.806 70.513 87.7628 70.513 87.7178C70.513 87.6727 70.5309 87.6295 70.5627 87.5977L71.6697 86.4883L71.6705 86.4875L82.9033 75.2357L89.9125 68.2143C89.9277 68.1989 89.9458 68.1866 89.9658 68.1783C89.9857 68.17 90.0072 68.1657 90.0288 68.1657C90.0504 68.1657 90.0719 68.17 90.0918 68.1783C90.1118 68.1866 90.1299 68.1989 90.1451 68.2143L97.0221 75.1029C97.0885 75.1693 97.0885 75.277 97.0221 75.3432L97.0223 75.3434Z" fill="#57AF7D"/>
<path d="M39.414 6.40723C38.5543 6.40723 37.8547 7.1084 37.8547 7.96973C37.8547 8.83184 38.5543 9.53223 39.4142 9.53223C40.2748 9.53223 40.9744 8.83184 40.9744 7.96973C40.9744 7.1084 40.2746 6.40723 39.414 6.40723ZM90.5082 73.1813C89.6476 73.1813 88.948 73.8824 88.948 74.7438C88.948 75.6051 89.6476 76.3063 90.5082 76.3063C91.3681 76.3063 92.0677 75.6051 92.0677 74.7438C92.0677 73.8824 91.3681 73.1813 90.5082 73.1813ZM24.4109 88.1256C24.4109 87.2643 23.7113 86.5631 22.8515 86.5631C21.991 86.5631 21.2914 87.2643 21.2914 88.1256C21.2914 88.9869 21.991 89.6881 22.8515 89.6881C23.7113 89.6881 24.4109 88.9869 24.4109 88.1256Z" fill="#57AF7D"/>
</svg>
