<svg width="100" height="100" viewBox="0 0 100 100" fill="none" xmlns="http://www.w3.org/2000/svg">
<g clip-path="url(#clip0_2001_67)">
<path d="M11.502 47.5431H26.9375H40.3594C43.0039 47.5431 45.4238 48.9825 46.6953 51.2774M26.8672 83.6368L11.502 71.5528M11.5018 61.0731V44.1417C11.5018 42.9435 10.5305 41.9722 9.33223 41.9722H3.63437C2.43613 41.9722 1.46484 42.9435 1.46484 44.1417V75.3671C1.46484 76.5653 2.43613 77.5366 3.63437 77.5366H9.33203C10.5303 77.5366 11.5016 76.5653 11.5016 75.3671V67.9395M52.7928 97.2267C54.9324 98.1835 57.4428 97.2245 58.3994 95.0849L60.5033 90.6151C61.4602 88.4755 60.5012 85.9651 58.3615 85.0085C56.2219 84.0517 53.7115 85.0106 52.7549 87.1503L50.651 91.62C49.6941 93.7597 50.6531 96.27 52.7928 97.2267Z" stroke="#57AF7D" stroke-width="3" stroke-miterlimit="10" stroke-linecap="round" stroke-linejoin="round"/>
<path d="M43.489 97.2395C45.6287 98.1964 48.139 97.2374 49.0956 95.0977L52.7546 87.1503C53.7115 85.0106 52.7525 82.5003 50.6128 81.5436C48.4732 80.5868 45.9628 81.5458 45.0062 83.6854L41.3472 91.6329C40.3904 93.7725 41.3494 96.2829 43.489 97.2395Z" stroke="#57AF7D" stroke-width="3" stroke-miterlimit="10" stroke-linecap="round" stroke-linejoin="round"/>
<path d="M35.7405 93.7747C37.8801 94.7315 40.3905 93.7725 41.3471 91.6329L45.0061 83.6854C45.9629 81.5458 45.0039 79.0354 42.8643 78.0788C40.7247 77.1219 38.2143 78.0809 37.2577 80.2206L33.5987 88.168C32.6418 90.3077 33.6008 92.818 35.7405 93.7747Z" stroke="#57AF7D" stroke-width="3" stroke-miterlimit="10" stroke-linecap="round" stroke-linejoin="round"/>
<path d="M81.6475 47.5438H73.062H54.1075C49.936 47.5438 46.2838 50.3439 45.2012 54.3723L42.8534 63.1074C42.1674 65.6592 43.6918 68.2812 46.2487 68.9477C48.5973 69.5598 51.0303 68.3066 51.8954 66.0391L54.884 58.2059L59.3774 59.9266C63.7024 61.5828 68.5506 59.4125 70.1961 55.0834M72.9172 83.8053L88.4983 71.5535V47.5438M60.7071 87.7035L64.4825 89.1488C66.6719 89.9848 67.7696 92.4379 66.9336 94.6273C66.0997 96.8168 63.6465 97.9164 61.4571 97.0805L58.0196 95.7641M29.3698 87.2291C31.5094 88.1859 34.0198 87.227 34.9764 85.0873L37.2577 80.2211C38.2145 78.0814 37.2555 75.5711 35.1159 74.6145C32.9762 73.6576 30.4659 74.6166 29.5092 76.7563L27.228 81.6225C26.2711 83.7621 27.2299 86.2723 29.3698 87.2291ZM98.5352 44.1422V75.3676C98.5352 76.5658 97.5639 77.5371 96.3657 77.5371H90.668C89.4698 77.5371 88.4985 76.5658 88.4985 75.3676V44.1422C88.4985 42.9439 89.4698 41.9727 90.668 41.9727H96.3657C97.5639 41.9725 98.5352 42.9439 98.5352 44.1422Z" stroke="#57AF7D" stroke-width="3" stroke-miterlimit="10" stroke-linecap="round" stroke-linejoin="round"/>
<path d="M48.832 74.0669L71.0664 82.5767C73.2578 83.4126 74.3555 85.8657 73.5195 88.0552C72.873 89.7466 71.2617 90.7876 69.5508 90.7876C69.0488 90.7876 68.5391 90.6978 68.041 90.5083L64.482 89.1497" stroke="#57AF7D" stroke-width="3" stroke-miterlimit="10" stroke-linecap="round" stroke-linejoin="round"/>
<path d="M51.8582 66.1362L74.0926 74.6466C76.2824 75.4821 77.3804 77.9347 76.5449 80.1247C75.7094 82.3146 73.2568 83.4126 71.0668 82.5771L48.8324 74.0667" stroke="#57AF7D" stroke-width="3" stroke-miterlimit="10" stroke-linecap="round" stroke-linejoin="round"/>
<path d="M54.8839 58.2061L73.9648 65.5133C76.1546 66.3488 77.2527 68.8014 76.4171 70.9914C75.5816 73.1812 73.1291 74.2793 70.939 73.4437L51.8582 66.1365" stroke="#57AF7D" stroke-width="3" stroke-miterlimit="10" stroke-linecap="round" stroke-linejoin="round"/>
<path d="M50 33.178C56.3564 33.178 61.5092 28.0252 61.5092 21.6688C61.5092 15.3125 56.3564 10.1597 50 10.1597C43.6437 10.1597 38.4908 15.3125 38.4908 21.6688C38.4908 28.0252 43.6437 33.178 50 33.178Z" stroke="#57AF7D" stroke-width="3" stroke-miterlimit="10" stroke-linecap="round" stroke-linejoin="round"/>
<path d="M45.3164 20.8241L49.0023 24.5101L54.6836 18.8286" stroke="#57AF7D" stroke-width="3" stroke-miterlimit="10" stroke-linecap="round" stroke-linejoin="round"/>
<path d="M52.9622 3.37316C55.9788 1.13546 60.2919 2.92198 60.8426 6.63722C60.9991 7.69254 61.4908 8.66956 62.2452 9.42393C62.9996 10.1783 63.9766 10.67 65.0319 10.8265C68.7471 11.3773 70.5336 15.6903 68.296 18.7069C67.6603 19.5638 67.3171 20.6023 67.3171 21.6692C67.3171 22.736 67.6603 23.7746 68.296 24.6314C70.5336 27.648 68.7471 31.961 65.0319 32.5118C63.9766 32.6683 62.9996 33.16 62.2452 33.9144C61.4908 34.6687 60.9991 35.6458 60.8426 36.7011C60.2919 40.4163 55.9788 42.2028 52.9622 39.9651C52.1054 39.3295 51.0668 38.9863 50 38.9863C48.9331 38.9863 47.8946 39.3295 47.0378 39.9651C44.0212 42.2028 39.7081 40.4163 39.1573 36.7011C39.0009 35.6458 38.5091 34.6687 37.7547 33.9144C37.0004 33.16 36.0233 32.6683 34.968 32.5118C31.2528 31.961 29.4663 27.648 31.704 24.6314C32.3396 23.7746 32.6828 22.736 32.6828 21.6692C32.6828 20.6023 32.3396 19.5638 31.704 18.7069C29.4663 15.6903 31.2528 11.3773 34.968 10.8265C36.0233 10.67 37.0004 10.1783 37.7547 9.42393C38.5091 8.66956 39.0009 7.69254 39.1573 6.63722C39.7081 2.92198 44.0212 1.13546 47.0378 3.37316C47.8946 4.0088 48.9331 4.35198 50 4.35198C51.0668 4.35198 52.1054 4.0088 52.9622 3.37316Z" stroke="#57AF7D" stroke-width="3" stroke-miterlimit="10" stroke-linecap="round" stroke-linejoin="round"/>
</g>
<defs>
<clipPath id="clip0_2001_67">
<rect width="100" height="100" fill="white"/>
</clipPath>
</defs>
</svg>
